<?xml version="1.0" encoding="utf-8"?>
<!-- Generator: Adobe Illustrator 28.0.0, SVG Export Plug-In . SVG Version: 6.00 Build 0)  -->
<svg version="1.1" id="Calque_1" xmlns="http://www.w3.org/2000/svg" xmlns:xlink="http://www.w3.org/1999/xlink" x="0px" y="0px"
	 viewBox="0 0 800 200" style="enable-background:new 0 0 800 200;" xml:space="preserve">
<style type="text/css">
	.st0{fill:#605D7C;}
</style>
<g>
	<path class="st0" d="M787.04,168.61c-0.11-0.28-0.22-0.56-0.36-0.83c0.12-0.23,0.12-0.53-0.18-0.72c-0.09-0.07-0.18-0.12-0.25-0.16
		c-0.36-0.67-0.77-1.32-1.25-1.93c-0.11-0.14-0.25-0.3-0.39-0.42c-0.09-0.07-0.23-0.16-0.37-0.21c-3.22-5.04-7.04-9.74-11.14-14.08
		c-5.13-5.45-10.88-10.38-17.04-14.65c-6.34-4.41-13.14-8.13-20.28-11.09c-7.71-3.18-15.78-5.46-24-6.82
		c-8.22-1.36-16.6-1.76-24.91-1.2c-0.48,0.04-0.97,0.08-1.45,0.12c-7.08-2.22-14.25-4.17-21.52-5.8
		c10.72,0.54,21.46,0.84,32.16,0.46c3.21-0.1,6.39-0.32,9.56-0.88c2.54-0.46,5.52-1.04,7.46-2.91c1.59-1.53,2.26-4.15,0.78-5.99
		c-1.46-1.79-4.12-2.28-6.32-1.96c-2.47,0.36-4.84,1.81-5.88,4.15c-0.9,2.04-0.74,4.53,0.55,6.32c-0.02,0.02-0.02,0.05-0.05,0.07
		l0,0.02c-2.54,0.27-5.12,0.4-7.68,0.47c-5.93,0.16-11.83,0.12-17.75,0.01c-5.46-0.11-10.93-0.33-16.39-0.51
		c-1.36-0.29-2.74-0.56-4.12-0.81c-2.48-0.47-4.97-0.89-7.48-1.28c9.31,0.13,18.66-0.6,27.79-2.22c2.98-0.54,6.15-1.29,8.39-3.48
		c0.33-0.32,0.33-0.87-0.13-1.09c-5.6-2.44-11.17,1.05-15.66,4.18c-0.12,0.09-0.19,0.18-0.23,0.3c-0.53,0.06-1.04,0.15-1.55,0.21
		c-6.49,0.8-13.04,1.24-19.59,1.25c-1.82,0-3.64-0.02-5.46-0.08c-20.1-2.65-40.48-2.95-60.69-1.54c3.15-1.35,6.3-2.65,9.47-3.88
		c4.82-1.84,9.72-3.51,14.65-5.05c0.49-0.16,0.99-0.29,1.48-0.44c0.07,0.02,0.14,0.02,0.21-0.02c3.96,0.62,7.94,1.06,11.9,1.52
		c4.19,0.46,8.41,0.9,12.6,1.25c8.36,0.69,16.75,1.09,25.15,0.91c8.3-0.18,16.57-1.06,24.79-2.28c8.08-1.2,16.12-2.63,24.23-3.71
		c8.06-1.08,16.21-1.82,24.34-1.5c0.97,0.03,1.96,0.09,2.93,0.15c0.02,0,0.05,0.02,0.07,0.02c0.83,0.45,1.39-0.91,0.57-1.35
		c-7.4-3.96-15.32-6.86-23.46-8.91c-8.21-2.08-16.61-3.28-25.04-3.95c-8.66-0.7-17.42-0.94-26.09-0.6
		c-8.9,0.36-17.82,1.57-26.24,4.5c-4.14,1.43-8.13,3.23-12,5.24c-3.83,1.96-7.63,4.04-11.28,6.31c-0.49,0.29-0.98,0.61-1.46,0.93
		c-9.67,2.96-19.17,6.52-28.37,10.7c-0.23,0.11-0.46,0.23-0.7,0.34c-2.95,0.22-5.89,0.51-8.82,0.8c7.25-2.68,14.27-6.09,21.05-9.75
		c3.69-1.99,7.29-4.11,10.84-6.33c3.46-2.17,6.92-4.37,10.18-6.85c3.26-2.48,6.29-5.42,7.94-9.23c0.14-0.3-0.08-0.74-0.43-0.77
		c0,0,0,0-0.02,0c-0.2-0.26-0.57-0.33-0.92-0.13c-0.09,0.05-0.16,0.11-0.23,0.16c-2.56,0.22-4.88,1.56-6.66,3.41
		c-2.29,2.37-3.59,5.49-4.78,8.5c-0.05,0.11-0.05,0.25-0.03,0.39c-1.51,1.02-3.07,2.02-4.6,2.99c-7.01,4.46-14.32,8.51-21.81,12.11
		c-4.06,1.96-8.18,3.74-12.31,5.53c0-0.02,0-0.05,0-0.07c0-0.05,0.02-0.09,0.05-0.14c0.02-0.05,0.02-0.09,0.05-0.14
		c0.02-0.07-0.07-0.09-0.09-0.05c-0.02,0.05-0.05,0.11-0.05,0.16c-0.02,0.05-0.02,0.09-0.05,0.14c-0.02,0.02-0.05,0.02-0.05,0.05
		l0,0c0,0-0.02,0-0.02,0.02l-0.02,0.12c-0.07,0.02-0.14,0.07-0.21,0.09c-13.51,1.46-26.9,3.62-40.21,6.28
		c0.23-0.09,0.46-0.18,0.67-0.27c2.46-1.01,4.84-2.16,7.16-3.42c2.46-1.33,4.83-2.8,7.13-4.35c1.83-0.86,3.69-1.73,5.58-2.45
		c0.74-0.27,1.48-0.51,2.25-0.78c2.31-0.46,4.58-1.15,6.78-1.95c3.42-0.84,6.87-1.54,10.31-2.26c8.6-1.79,17.29-3.93,24.66-8.92
		c3.88-2.61,7.37-5.73,10.94-8.75c3.66-3.09,7.45-5.93,11.53-8.42c8.29-5.05,17.26-8.87,25.82-13.43c7.91-4.22,15.67-9,21.74-15.69
		c0.44-0.48,0.84-0.98,1.26-1.48c0.49-0.27,0.95-0.57,1.44-0.86c0.53-0.34,0.04-1.2-0.54-0.97c-0.25-0.3-0.73-0.45-1.04-0.03
		c-0.23,0.3-0.49,0.57-0.72,0.87c-0.19,0.09-0.37,0.18-0.56,0.25c-0.14-0.02-0.25,0-0.39,0.11c-0.05,0.05-0.07,0.07-0.12,0.11
		c-1.32,0.63-2.67,1.24-4.01,1.82c-2.25,0.97-4.56,1.84-6.88,2.64c-4.72,1.63-9.53,2.98-14.39,4.15
		c-9.48,2.34-19.11,4.03-28.59,6.36c-8.76,2.16-17.44,4.83-25.58,8.8c-7.98,3.88-15.27,9.05-21.05,15.81
		c-6.12,7.17-10.76,15.47-16.9,22.61c-0.16,0.18-0.35,0.36-0.51,0.55c-5.97,4.2-12.33,7.79-19.28,10.18c-1,0.33-1.97,0.67-2.94,1.03
		c-4.9,1.03-9.78,2.15-14.66,3.32c-0.39,0.02-0.76,0.06-1.15,0.1c-0.12,0.02-0.14,0.11-0.14,0.21c-0.65,0.15-1.29,0.31-1.94,0.46
		c-2.36,0.57-4.74,1.17-7.1,1.76c1.35-0.72,2.69-1.45,4.01-2.19c2.65-1.49,5.25-3.08,7.71-4.85c2.6-1.88,5.09-3.98,7.33-6.3
		c0.58-0.5,1.19-1.02,1.77-1.52c1.56-1.3,3.14-2.57,4.79-3.77c1.86-1.39,3.77-2.68,5.69-3.95c0.02,0.02,0.05,0.05,0.07,0.07
		c0,0,0,0,0.02,0.02c2.43,3.03,6.57,4.29,10.29,3.14c3.29-1.02,6.62-4.14,6.48-7.81c-0.07-1.68-1.14-3.17-2.89-3.33
		c-1.04-0.08-2.06,0.28-2.98,0.68c-1.02,0.45-1.99,0.99-2.99,1.51c-1.04,0.54-2.06,1.11-3.09,1.69c1.47-1.21,2.84-2.53,4.06-3.99
		c2.31-2.81,4.22-6.41,4.2-10.12c0-1.66-0.61-3.44-2.07-4.38c-1.42-0.94-3.11-0.66-4.5,0.2c-1.53,0.95-2.61,2.48-3.5,4.02
		c-0.92,1.53-1.63,3.21-2.11,4.93c-1.1,3.82-1.17,7.85-0.18,11.69c-0.35,0.27-0.7,0.57-1.05,0.84c-1.14,0.75-2.28,1.5-3.37,2.29
		c-1.86,1.32-3.67,2.73-5.47,4.18c0.4-0.53,0.8-1.07,1.19-1.65c1.55-2.27,2.94-4.76,3.77-7.38c0.79-2.5,0.98-5.32-0.58-7.57
		c-1.34-1.93-3.7-2.88-5.93-1.98c-2.22,0.9-3.72,3.14-4.44,5.37c-1.65,5.1-0.12,10.9,3.73,14.59c-2.48,2.85-5.34,5.36-8.39,7.58
		c-2.56,1.86-5.25,3.54-7.99,5.1c-2.23,1.27-4.59,2.42-6.8,3.73c-0.67,0.18-1.34,0.35-2.04,0.53c-1.18,0.24-2.36,0.53-3.51,0.86
		c3.4-2.61,6.29-5.88,8.68-9.42c1.76-2.61,3.29-5.45,4.45-8.39c0.58-0.48,0.82-1.28,0.92-1.97c0.03-0.28,0.05-0.55,0.08-0.83
		c0.12-0.37,0.24-0.76,0.34-1.13c0.67-2.46,0.91-5.15-0.31-7.5c-0.18-0.35-0.64-0.47-0.9-0.13c-1.31,1.74-2.21,3.76-2.6,5.9
		c-0.2,1.04-0.28,2.1-0.24,3.13c0.04,0.83,0.12,1.75,0.71,2.38c0.25,0.26,0.59,0.42,0.94,0.47c-0.19,0.48-0.4,0.94-0.62,1.42
		c-1.77,3.95-4.17,7.58-7.02,10.83c-1.64,1.87-3.48,3.58-5.36,5.2c-0.12,0.09-0.14,0.23-0.1,0.34c-0.09,0.02-0.21,0.07-0.3,0.09
		c-6.27,1.66-12.54,3.36-18.78,5.14c3.45-1.53,6.79-3.45,9.68-5.91c2.96-2.53,5.37-5.59,6.93-9.17c1.7-3.92,2.47-8.16,3.87-12.18
		c1.43-4.07,3.84-7.52,6.4-10.95c2.53-3.38,4.92-6.77,6.69-10.62c3.52-7.68,5.05-16.11,8.41-23.86c2.72-6.29,6.85-12.51,13.02-15.81
		c0.51-0.16,1.02-0.33,1.55-0.49c1.02-0.31,2.04-0.6,3.05-0.91c0.12-0.04,0.19-0.11,0.23-0.18c0.42-0.09,0.83-0.15,1.25-0.24
		c0.51-0.11,0.72-0.89,0.15-1.08c-1.54-0.5-3.15-0.36-4.68,0.18c-0.74,0.27-1.44,0.61-2.11,0.99c-0.49,0.29-1.02,0.61-1.44,1.02
		c-2.01,0.74-4.01,1.59-5.88,2.49c-3.87,1.85-7.54,4.07-10.96,6.63c-6.86,5.13-12.72,11.64-17.07,19.01
		c-2.19,3.69-3.98,7.61-5.34,11.68c-1.58,4.73-2.74,9.81-5.71,13.91c-2.74,3.75-6.85,6.29-9.41,10.2c-2.65,4.07-3.08,9-3.98,13.65
		c-0.44,2.3-1.02,4.58-2.04,6.69c-0.94,1.95-2.19,3.73-3.66,5.28c-1.61,1.71-3.49,3.14-5.54,4.3c-1.92,0.69-3.87,1.34-5.79,1.96
		c-0.49,0.16-0.95,0.31-1.44,0.49c-0.46,0.06-0.92,0.13-1.39,0.19c-0.18,0.02-0.21,0.18-0.14,0.3c-4.3,1.33-8.63,2.72-12.91,4.1
		c-3.03,0.98-6.04,1.98-9.07,2.94c-0.16,0.04-0.05,0.28,0.09,0.23c7.59-2.24,15.15-4.51,22.74-6.78c7.21-1.62,14.56-2.69,21.94-3.05
		c4.11-0.18,8.23-0.16,12.33,0.09c0.28,0.03,0.53,0.05,0.81,0.06c-0.02,0-0.05,0-0.07,0.02c-0.49,0.18-0.49,0.82-0.15,1.13
		c1.46,1.31,3.23,2.25,5.11,2.78c1.7,0.48,3.82,0.76,5.55,0.25c0.72-0.22,1.39-0.72,1.49-1.5c0.12-0.81-0.35-1.59-0.99-2.02
		c-0.8-0.54-1.81-0.62-2.74-0.77c-1.15-0.17-2.33-0.3-3.48-0.43c-9.12-1-18.34-0.88-27.44,0.36c-1.43,0.19-2.84,0.43-4.27,0.69
		c10.83-3.2,21.65-6.3,32.55-9.22c0.11,0.25,0.41,0.44,0.73,0.31c0.07-0.02,0.14-0.04,0.21-0.07c7.27,3.47,13.15,9.14,19.53,13.99
		c3.41,2.57,6.98,4.9,10.92,6.58c4.31,1.85,8.87,3.01,13.42,4.05c4.71,1.09,9.43,2.14,14.05,3.57c4.71,1.46,9.33,3.15,13.94,4.88
		c9.02,3.35,18.07,6.82,27.55,8.61c3.52,0.66,7.11,1.12,10.68,1.25c1.91,0.14,3.85,0.14,5.76-0.05c3.62-0.24,7.23-0.82,10.74-1.91
		c1.09-0.33,2.18-0.74,3.24-1.16c0.76-0.31,0.27-1.5-0.49-1.18c-0.81,0.34-1.64,0.65-2.48,0.92c-1.08,0.1-2.19,0.18-3.28,0.22
		c-3.82-0.69-7.62-1.42-11.34-2.55c-4.23-1.29-8.36-2.93-12.37-4.77c-8.17-3.76-15.86-8.43-23.49-13.16
		c-7.69-4.77-15.34-9.6-23.41-13.71c-7.89-4.01-16.2-7.22-24.94-8.77c-4.67-0.81-9.44-1.14-14.17-0.88
		c3.28-0.82,6.57-1.59,9.87-2.36c3.6,0.11,7.22,0.17,10.81,0.54c4.49,0.44,8.98,1.19,13.37,2.2c2.14,0.49,4.25,1.06,6.37,1.69
		c0.11,0.09,0.28,0.14,0.44,0.12c0.05,0,0.07,0.02,0.11,0.02c-0.37,0.13-0.42,0.62-0.15,0.9c3.26,3.26,7.1,6.05,11.35,7.9
		c0.92,0.4,1.97,0.74,2.97,0.36c0.76-0.29,1.35-0.95,1.36-1.78c0.01-0.97-0.7-1.69-1.38-2.25c-0.89-0.7-1.85-1.31-2.84-1.85
		c-2.11-1.15-4.4-1.96-6.68-2.75c-0.87-0.31-1.77-0.57-2.66-0.86c0.44-0.11,0.88-0.22,1.27-0.35c0.6-0.2,1.18-0.47,1.74-0.76
		c0.49-0.27,1.02-0.59,1.23-1.14c0.47-1.1-0.6-1.85-1.59-1.89c-1.04-0.03-2.1,0.41-2.99,0.96c-0.93,0.59-1.72,1.43-2.22,2.44
		c-0.64-0.19-1.29-0.38-1.93-0.55c-4.83-1.28-9.75-2.23-14.73-2.82c-2.79-0.33-5.57-0.57-8.39-0.69c-0.88-0.03-1.75-0.07-2.65-0.08
		c4.79-1.08,9.57-2.08,14.38-3.04c1.52-0.07,3.05-0.22,4.55-0.32c2.31-0.14,4.61-0.25,6.94-0.31c4.66-0.13,9.32-0.06,13.97,0.46
		c2.05,0.23,4.1,0.55,6.12,0.97c-1.24,1.28-1.56,3.23-1.05,4.92c0.6,2.04,2.24,3.62,4.03,4.66c1.86,1.08,4.2,1.52,6.15,0.42
		c1.72-0.97,2.48-2.9,1.9-4.8c-0.6-2.04-2.34-3.35-4.24-4.11c-0.39-0.17-0.78-0.29-1.19-0.43c2.19,0.3,4.4,0.46,6.61,0.49
		c1.17,0.96,2.59,1.76,3.96,2.26c1.49,0.52,3.15,0.73,4.66,0.17c1.25-0.47,2.39-1.43,2.82-2.73c0.41-1.22,0.21-2.63-0.67-3.6
		c-0.02-0.02-0.02-0.07-0.05-0.09c-1.16-1.81-4.04-1.73-5.84-1.27c-2.36,0.62-4.48,2.3-5.45,4.57c-0.85-0.01-1.71-0.04-2.56-0.08
		c-2.9-0.17-5.8-0.53-8.66-1.02c-0.05,0-0.09,0-0.12,0.02c-0.18-0.03-0.39-0.07-0.58-0.12c-5.2-0.98-10.48-1.32-15.76-1.33
		c-2.91-0.01-5.81,0.1-8.72,0.25c-0.67,0.04-1.36,0.08-2.03,0.12c12.87-2.41,25.8-4.37,38.85-5.62c0.67-0.06,1.34-0.12,2.01-0.18
		c3.06,0.45,6.1,0.99,9.14,1.67c0.28,0.1,0.55,0.19,0.83,0.31c0.55,0.24,1.08,0.54,1.65,0.69c2.06,3.02,4.27,5.97,6.56,8.81
		c2.61,3.26,5.44,6.36,8.57,9.14c3.24,2.9,6.86,5.29,10.68,7.34c3.92,2.1,8,3.87,12.02,5.74c8.23,3.83,16.04,8.53,24.42,12.04
		c8.49,3.55,17.44,5.15,26.56,6.16c8.45,0.93,16.95,1.53,25.3,3.17c0.55,0.12,1.08,0.24,1.63,0.36c0.25,0.05,0.51,0.1,0.74,0.12
		c1.01,0.22,2,0.46,3.01,0.73c0.64,0.17,0.96-0.96,0.31-1.13c-1.49-0.43-2.97-0.77-4.48-1.11c-1.56-0.57-3.17-1.07-4.73-1.69
		c-1.95-0.76-3.83-1.61-5.71-2.53c-3.78-1.86-7.38-4.03-10.88-6.37c-7.07-4.71-13.63-10.09-20.37-15.24
		c-6.81-5.22-13.81-10.26-21.49-14.1c-7.61-3.8-15.75-6.38-24-8.3c-8.39-1.94-16.93-3.3-25.48-4.35c-0.78-0.1-1.57-0.18-2.35-0.26
		c-0.78-0.7-1.72-1.24-2.68-1.64c-0.23-0.09-0.48-0.19-0.71-0.28c9.21-0.66,18.41-0.94,27.63-0.84c9.87,1.7,19.72,3.52,29.4,6.17
		c2.51,0.7,5.01,1.37,7.52,2.11c-0.05,0.18,0,0.39,0.13,0.55c2.94,3.42,6.85,6.07,11.14,7.48c0.8,0.4,1.61,0.8,2.43,1.18
		c0.76,0.33,1.79,0.62,2.54,0.1c0.91-0.64,0.67-1.81,0.05-2.56c-1.39-1.75-3.45-3.06-5.39-4.12c-4.29-2.31-9.16-3.49-13.83-4.79
		c-5.24-1.44-10.53-2.68-15.84-3.78c-4.21-0.88-8.42-1.64-12.68-2.24c6.66,0.19,13.3,0.59,19.93,1.24
		c11.46,2.37,22.67,5.77,33.38,10.57c3.03,1.35,5.99,2.79,8.92,4.34c1.99,1.06,3.99,2.12,5.93,3.27c-2.85,0.91-3.99,4.11-3.79,6.94
		c0.22,3.12,1.4,6.84,4.15,8.62c2.04,1.34,4.46,1.23,6.3-0.09c0.21,0.12,0.51,0.03,0.51-0.27c0-0.05,0-0.09,0-0.14
		c0.23-0.23,0.47-0.46,0.68-0.71c1.94-2.45,1.75-5.77,0.3-8.41c-1.63-2.97-4.44-4.87-7.28-6.54c-3.14-1.83-6.35-3.55-9.63-5.16
		c-6.51-3.21-13.26-5.98-20.15-8.25c-3.86-1.27-7.79-2.39-11.74-3.31c1.84,0.23,3.66,0.48,5.5,0.75c12.55,1.87,24.87,4.8,36.93,8.56
		c0.09,0.28,0.32,0.49,0.69,0.45c0.18-0.02,0.39-0.02,0.6-0.04c3.1,0.98,6.2,2.01,9.28,3.08c2.17,1.57,4.07,3.46,5.77,5.55
		c-0.05-0.02-0.09,0.05-0.05,0.09c0.18,0.16,0.36,0.37,0.55,0.54c1.34,1.74,2.57,3.58,3.67,5.48c2.96,5.08,5.3,10.57,8.49,15.52
		c0.23,0.46,0.54,0.91,0.88,1.32c0.73,1.05,1.48,2.07,2.29,3.02c4.73,5.54,11.24,9.07,18.18,11.04c7.38,2.11,15.03,2.59,22.66,2.68
		c8.83,0.1,17.73-0.12,26.45,1.38c0.37,0.07,0.76,0.12,1.13,0.2c0.39,0.28,0.8,0.54,1.21,0.73c0.21,0.09,0.44,0.21,0.67,0.28
		c0.25,0.1,0.53,0.19,0.8,0.24C786.91,169.27,787.15,168.91,787.04,168.61z M710.89,108.12c-2.34,1.13-5.16,1.53-7.72,1.87
		c0.09-0.09,0.19-0.21,0.28-0.3c0.81-0.08,1.6-0.56,2.23-1.04c0.88-0.68,1.59-1.55,2.26-2.42c0.75-0.94,1.45-1.94,2.43-2.67
		c0.49-0.36,1.02-0.68,1.6-0.88c0.58-0.2,1.13-0.15,1.73-0.19C714.92,104.73,712.86,107.17,710.89,108.12z M710.33,100.69
		c0.39-0.04,0.85,0.03,1.27-0.01c0.64,0.26,1.24,0.66,1.69,1.2c-0.85-0.08-1.78,0.28-2.47,0.69c-1,0.57-1.77,1.41-2.49,2.28
		c-0.77,0.94-1.47,1.94-2.36,2.79c-0.42,0.39-0.86,0.75-1.37,1.05c-0.19,0.11-0.39,0.18-0.58,0.27c0.19-0.3,0.38-0.62,0.52-0.96
		c0.57-1.26,0.84-2.64,1.38-3.9c0.52-1.24,1.39-2.29,2.64-2.88C709.13,100.93,709.73,100.77,710.33,100.69z M702.31,104.15
		c0.85-2.09,2.9-3.43,5.07-3.82c0.58-0.11,1.2-0.15,1.82-0.12c-0.21,0.07-0.39,0.11-0.58,0.2c-1.14,0.49-2.11,1.31-2.75,2.39
		c-0.75,1.21-1.07,2.62-1.57,3.95c-0.24,0.64-0.52,1.26-0.9,1.81c-0.19,0.3-0.4,0.57-0.63,0.82c-0.02,0.02-0.02,0.02-0.05,0.05
		C701.74,107.85,701.6,105.87,702.31,104.15z M722.81,87.59c1.29,0.5,2.57,1.02,3.83,1.57c-8.21-1.71-16.52-3-24.88-3.81
		c-10.34-0.99-20.76-1.32-31.14-1c-10.4,0.34-20.81,1.36-31.09,3.01c-8.59,1.4-17.08,3.27-25.47,5.59c3.1-1.23,6.18-2.47,9.33-3.54
		c3.68-1.27,7.41-2.41,11.15-3.4c7.47-1.97,15.07-3.4,22.74-4.29c7.69-0.88,15.42-1.23,23.14-1.03c7.72,0.2,15.41,0.96,23.03,2.27
		C710.03,84.08,716.5,85.65,722.81,87.59z M630.53,84.36c8.27-3.2,16.98-4.72,25.79-5.27c8.65-0.52,17.39-0.33,26.03,0.25
		c8.34,0.56,16.63,1.64,24.79,3.49c0.92,0.19,1.82,0.44,2.74,0.65c-1.1-0.22-2.19-0.44-3.29-0.66c-7.66-1.45-15.42-2.34-23.21-2.68
		c-7.7-0.34-15.42-0.13-23.11,0.64c-7.76,0.77-15.45,2.08-23.03,3.96c-7.51,1.85-14.92,4.24-22.06,7.22c-0.51,0.22-1,0.45-1.51,0.67
		C619.15,89.6,624.67,86.64,630.53,84.36z M636.08,89.24c10.17-1.78,20.46-2.9,30.77-3.36c10.4-0.46,20.8-0.27,31.19,0.61
		c6.45,0.56,12.87,1.34,19.25,2.41c-3.55,0.03-7.1,0.2-10.64,0.48c-7.75,0.65-15.47,1.72-23.18,2.78
		c-7.76,1.07-15.52,2.08-23.34,2.6c-7.98,0.51-15.99,0.58-23.96,0.44c-4.47-0.07-8.97-0.24-13.44-0.43
		c-3.11-0.13-6.22-0.35-9.33-0.43C620.87,92.27,628.43,90.56,636.08,89.24z M612.4,93.33c0,0.05,0,0.07,0.02,0.09
		c-0.12,0.04-0.25,0.07-0.37,0.11C612.14,93.46,612.28,93.4,612.4,93.33z M611.62,94.82c3.22,0.29,6.5,0.4,9.72,0.55
		c3.96,0.18,7.95,0.32,11.92,0.43c7.88,0.2,15.77,0.2,23.66-0.17c7.84-0.37,15.65-1.28,23.43-2.32c7.71-1.04,15.43-2.25,23.21-2.92
		c4.39-0.37,8.79-0.59,13.2-0.57c2.42,0,4.86,0.12,7.26,0.31c1.29,0.25,2.58,0.51,3.84,0.78c-6.16-0.07-12.32,0.39-18.44,1.13
		c-8.1,0.97-16.14,2.45-24.21,3.74c-8.18,1.31-16.35,2.4-24.63,2.76c-8.44,0.37-16.93,0.09-25.36-0.54
		c-8.43-0.6-16.81-1.55-25.22-2.48c-0.23-0.03-0.46-0.05-0.71-0.05C610.07,95.24,610.85,95.04,611.62,94.82z M546.44,102.52
		c0.12-0.09,0.23-0.18,0.37-0.27c0.12,0,0.23-0.02,0.37-0.04C546.92,102.32,546.67,102.41,546.44,102.52z M642.77,55.74
		c-8.31,4.61-17.04,8.36-25.28,13.13c-4.15,2.42-8.15,5.1-11.87,8.14c-3.61,2.93-6.99,6.12-10.73,8.89
		c-3.63,2.7-7.55,4.92-11.79,6.51c-4.15,1.57-8.47,2.62-12.81,3.57c-0.39,0.09-0.81,0.18-1.2,0.26c1.11-0.38,2.2-0.81,3.27-1.3
		c3.36-1.51,6.52-3.45,9.52-5.61c6.51-4.68,12.31-10.31,19.01-14.75c6.6-4.38,13.83-7.59,21.13-10.57
		c7.04-2.87,14.17-5.58,20.99-8.96c3.06-1.53,6.05-3.21,8.91-5.09C648.97,52.1,645.9,54,642.77,55.74z M644.81,53.25
		c-6.61,3.55-13.54,6.3-20.49,9.11c-7.13,2.89-14.32,5.86-20.91,9.89c-6.78,4.12-12.58,9.52-18.84,14.36
		c-5.93,4.61-12.5,8.8-19.99,10.24c-0.18,0.04-0.37,0.06-0.53,0.11c2.18-1.08,4.29-2.26,6.36-3.5c7.92-4.84,15.06-10.83,22.55-16.3
		c3.81-2.79,7.72-5.47,11.82-7.77c3.55-1.99,7.26-3.7,11.01-5.27c7.55-3.17,15.35-5.71,22.93-8.83c4.98-2.04,9.92-4.36,14.52-7.21
		C650.54,49.97,647.71,51.69,644.81,53.25z M656.17,45.08c-4.7,3.38-9.82,6.11-15.15,8.43c-7.44,3.24-15.17,5.8-22.7,8.78
		c-3.78,1.5-7.51,3.12-11.12,4.99c-3.99,2.05-7.8,4.45-11.45,7.04c-7.58,5.33-14.63,11.36-22.35,16.51
		c-4.25,2.83-8.71,5.39-13.41,7.37c-3.77,0.88-7.49,1.88-11.08,3.29c-0.44,0.06-0.88,0.13-1.34,0.19c0.58-0.43,1.14-0.84,1.7-1.27
		c8.75-6.68,16.69-14.31,25.26-21.2c4.3-3.46,8.75-6.7,13.48-9.53c4.5-2.69,9.28-4.9,14.17-6.8c9.73-3.76,19.85-6.3,29.87-9.16
		C640.22,51.4,648.5,48.84,656.17,45.08z M608.13,56.41c2.71-0.64,5.41-1.25,8.14-1.82c3.79-0.76,7.6-1.46,11.39-2.18
		c4.69-0.89,9.43-1.81,14.08-3c-2.2,0.74-4.42,1.45-6.66,2.12c-9.95,2.98-20.05,5.45-29.85,8.95c-4.86,1.74-9.61,3.74-14.18,6.16
		c-4.8,2.57-9.33,5.61-13.66,8.91c-8.75,6.68-16.67,14.34-25.19,21.27c-1.07,0.86-2.14,1.73-3.23,2.57
		c1.75-2.06,3.51-4.13,5.28-6.17c2.66-3.04,5.37-6.03,8.19-8.92c5.65-5.77,11.63-11.19,18.3-15.77c6.74-4.65,14.09-8.21,21.93-10.61
		C604.48,57.36,606.31,56.87,608.13,56.41z M559.75,83.39c2.83-3.66,5.98-7.03,9.57-9.94c3.44-2.8,7.18-5.22,11.13-7.28
		c3.62-1.9,7.37-3.49,11.19-4.9c-3.11,1.46-6.15,3.11-9.07,5.02c-6.74,4.35-12.81,9.65-18.46,15.31
		c-5.71,5.72-11.02,11.89-16.18,18.12c-0.28,0.34-0.56,0.71-0.84,1.07c-0.35,0.25-0.67,0.52-1.02,0.77
		C551.12,95.93,555.1,89.38,559.75,83.39z M539.86,98.96c-3.34,1.83-7.48,1.16-10.27-1.32c2.39,1.04,5.06,1.3,7.62,0.82
		c1.32-0.24,2.59-0.69,3.8-1.27c0.7-0.36,1.44-0.77,2.09-1.27C542.32,97.19,541.16,98.26,539.86,98.96z M543.79,91.93
		c0.34,0.86,0.21,1.92-0.1,2.79c-1,0.66-1.93,1.38-3.02,1.9c-1.16,0.54-2.39,0.92-3.63,1.16c-2.38,0.43-4.89,0.27-7.21-0.43
		c4.88-0.91,9.6-2.87,13.89-5.33C543.74,91.97,543.77,91.95,543.79,91.93z M538.03,91.84c1.44-0.72,3.92-2.17,5.33-0.63
		c0.02,0.05,0.05,0.07,0.09,0.12l-0.02,0c-4.53,2.6-9.34,4.3-14.36,5.58c1.18-0.75,2.35-1.47,3.55-2.17
		C534.39,93.71,536.2,92.74,538.03,91.84z M539.5,76.25c0.71,0.84,1.01,2.04,1,3.12c0.01,3.41-1.76,6.71-3.82,9.3
		c-1.5,1.87-3.27,3.47-5.13,4.99c1.85-2.1,3.39-4.41,4.64-6.91C537.87,83.42,538.74,79.88,539.5,76.25L539.5,76.25z M537.69,75.19
		c0.14,0.02,0.28,0.03,0.41,0.07c0.44,0.14,0.8,0.35,1.1,0.64c-0.16,0-0.3,0.07-0.33,0.25c-0.2,3.59-1.49,7.13-3.09,10.32
		c-1.46,2.91-3.38,5.59-5.62,7.96C534.26,88.87,536.76,82.03,537.69,75.19z M530.01,93.66c0.03-0.51,0.06-1.01,0.13-1.52
		c0.1-0.85,0.23-1.68,0.4-2.53c0.37-1.82,0.89-3.61,1.56-5.33c1.16-2.98,2.79-5.76,4.77-8.27
		C535.81,82.34,533.39,88.21,530.01,93.66z M529.52,85.98c0.64-3.15,1.99-6.46,4.18-8.88c0.77-0.82,1.82-1.66,2.95-1.9
		c-2.17,2.7-3.94,5.7-5.17,8.91c-0.64,1.68-1.17,3.42-1.53,5.19c-0.24,1.15-0.49,2.42-0.59,3.64
		C529,90.66,529.05,88.28,529.52,85.98z M522.79,87.2c1.54,2.3,0.98,5.2,0.03,7.61c-0.93,2.36-2.22,4.61-3.67,6.67
		c-0.05,0.07-0.09,0.11-0.14,0.18c1.64-4.11,2.2-8.71,1.88-13.05c-0.08-1.02-0.04-2.44-0.7-3.31l-0.02-0.02
		C521.2,85.54,522.14,86.2,522.79,87.2z M518.24,86.41c0.22-0.76,1.15-1.37,1.57-0.44c0.45,0.95,0.41,2.26,0.47,3.28
		c0.16,2.4-0.01,4.82-0.43,7.17c-0.44,2.39-1.21,4.64-2.13,6.89c-0.05,0.07-0.09,0.14-0.14,0.18c-0.02-0.02-0.07-0.07-0.09-0.09
		c0.08-1.11-0.09-2.31-0.15-3.41c-0.05-1.36-0.04-2.7-0.02-4.06c0.08-2.6,0.31-5.16,0.62-7.74
		C518.04,87.6,518.07,86.98,518.24,86.41z M513.77,91.57c0.42-2.16,1.41-4.34,3.27-5.64c0.05-0.02,0.09-0.05,0.12-0.07
		c-1.55,2.38-2.41,5.25-2.63,8.06c-0.13,1.61-0.06,3.25,0.22,4.84c0.06,0.42,0.15,0.81,0.26,1.23
		C513.71,97.42,513.23,94.42,513.77,91.57z M516.76,101.1c0.02,0.51,0.01,1.04,0.03,1.57c-0.09-0.09-0.16-0.21-0.23-0.3
		c-0.18-0.46-0.4-0.9-0.56-1.34c-0.25-0.72-0.44-1.48-0.6-2.22c-0.31-1.57-0.4-3.19-0.29-4.78c0.22-3.06,1.24-5.91,2.79-8.52
		c0.02,0,0.02-0.02,0.05-0.02c-0.3,0.39-0.42,0.87-0.5,1.35c-0.12,0.76-0.2,1.54-0.28,2.3c-0.13,1.5-0.24,2.99-0.3,4.52
		c-0.09,1.66-0.13,3.34-0.13,5C516.73,99.44,516.74,100.27,516.76,101.1z M496.75,85.68c-2.34,3.41-4.99,6.65-6.96,10.3
		c-1.25,2.31-2.11,4.8-2.87,7.3c0.03-0.28,0.05-0.53,0.1-0.81c0.2-1.34,0.42-2.65,0.71-3.96c0.58-2.6,1.46-5.15,2.78-7.46
		c2.61-4.58,6.85-7.9,10.01-12.06C499.43,81.33,498.21,83.57,496.75,85.68z M502.53,74.22c-0.12,0.32-0.26,0.64-0.38,0.96
		c-0.57,1.12-1.25,2.18-2,3.18c-1.59,2.13-3.46,4.02-5.26,5.98c-1.77,1.92-3.46,3.88-4.75,6.15c-1.29,2.27-2.15,4.73-2.76,7.26
		c-0.34,1.45-0.61,2.9-0.81,4.37c-0.15,1.13-0.33,2.28-0.36,3.43c-0.24,0.83-0.48,1.63-0.74,2.46c-0.07,0.25-0.17,0.48-0.24,0.74
		c0.42-2.76,0.32-5.65,0.6-8.39c0.39-3.75,1.6-7.29,3.37-10.61c3.53-6.65,8.83-12.03,13.1-18.18c0.82-1.19,1.57-2.4,2.28-3.66
		C503.94,69.99,503.27,72.13,502.53,74.22z M465.22,107.41c0.72-2.32,1.85-4.45,3.44-6.3c1.54-1.83,3.38-3.37,5.08-5.04
		c1.66-1.62,3.13-3.35,4.26-5.37c1.22-2.18,2.08-4.52,2.87-6.88c0.76-2.32,1.44-4.64,2.29-6.91c0.43-1.15,0.93-2.3,1.42-3.42
		c-0.45,1.42-0.84,2.87-1.18,4.32c-0.92,3.89-1.63,7.89-3.22,11.56c-3.32,7.71-9.65,13.54-13.95,20.64
		c-0.99,1.63-1.88,3.3-2.62,5.02C464.06,112.45,464.45,109.89,465.22,107.41z M461.81,121.81c-0.03,0.21-0.05,0.41-0.08,0.62
		c0,0.05,0.05,0.05,0.05,0c0.05-0.37,0.12-0.71,0.17-1.06c0.52-1.42,0.91-2.87,1.2-4.34c2.21-5.92,6.33-10.97,10.19-15.98
		c2.46-3.18,4.87-6.45,6.64-10.09c1.72-3.53,2.69-7.3,3.54-11.14c0.49-2.16,0.97-4.3,1.64-6.41c0.67-2.14,1.68-4.06,2.65-6.06
		c0.02-0.07,0.02-0.14-0.02-0.18c3.69-6.18,8.46-11.71,14-16.3c3.45-2.87,7.19-5.34,11.13-7.39c-3.95,2.91-7.5,6.39-10.63,10.12
		c-5.68,6.78-9.99,14.62-13.4,22.74c-1.82,4.36-3.42,8.79-4.85,13.3c-1.39,4.39-2.57,8.8-3.88,13.21
		c-1.25,4.21-2.68,8.41-4.87,12.21c-2.07,3.57-4.85,6.65-8.1,9.18c-3.86,2.98-8.27,5.16-12.81,6.96
		C457.71,128.82,460.31,125.55,461.81,121.81z M458.55,130.51c2.22-1.01,4.41-2.14,6.47-3.45c3.3-2.11,6.32-4.7,8.71-7.83
		c2.64-3.45,4.47-7.44,5.89-11.51c1.48-4.23,2.59-8.59,3.84-12.89c1.34-4.53,2.8-9.03,4.46-13.44c3.23-8.52,7.34-16.77,12.84-24.07
		c2.5-3.32,5.28-6.44,8.36-9.24c2.56-2.32,5.31-4.37,8.21-6.22c-0.12,0.11-0.23,0.23-0.35,0.32c-2.57,2.58-4.61,5.62-6.26,8.83
		c-2.19,4.22-3.67,8.72-5.04,13.25c-0.19,0.44-0.38,0.87-0.59,1.28c-0.85,1.67-1.81,3.28-2.87,4.83c-2.04,3.09-4.33,5.99-6.58,8.92
		c-4.38,5.71-8.83,11.89-10.02,19.14c-0.35,2.16-0.4,4.35-0.54,6.54c-0.12,2.3-0.44,4.51-1.04,6.72c0,0.05,0,0.07,0.02,0.09
		c-1.07,2.5-2.43,4.86-4.3,6.94c-5.25,5.89-12.6,8.94-19.94,11.37C459.43,130.26,458.99,130.38,458.55,130.51z M559.95,157.53
		c-4.55-1.69-9.07-3.4-13.69-4.93c-4.53-1.5-9.12-2.71-13.77-3.75c-4.6-1.04-9.22-2.04-13.68-3.61c-4.18-1.48-8.03-3.53-11.64-6.1
		c-6.68-4.76-12.54-10.79-19.94-14.45c-0.3-0.14-0.6-0.28-0.89-0.43l0.02,0c3.63,1.45,7.16,3.01,10.6,4.87
		c3.62,1.95,7.1,4.12,10.63,6.23c3.44,2.07,6.92,4.09,10.52,5.88c3.78,1.89,7.69,3.43,11.71,4.65c8.36,2.56,17.06,3.97,25.33,6.81
		c8.34,2.84,15.97,7.28,24.11,10.6c1.42,0.57,2.85,1.12,4.32,1.59C575.49,163.28,567.69,160.4,559.95,157.53z M605.72,165.56
		c-4.62,0.8-9.37,0.91-14.05,0.51c-3.38-0.55-6.69-1.48-9.88-2.67c-8.17-3.02-15.71-7.46-23.86-10.55
		c-8.13-3.09-16.71-4.57-25.08-6.88c-4.09-1.13-8.11-2.49-11.99-4.24c-3.65-1.68-7.18-3.63-10.63-5.65
		c-6.96-4.04-13.81-8.41-21.34-11.33c-0.46-0.19-0.94-0.36-1.42-0.52c3.64-0.1,7.26,0.01,10.88,0.45c4.33,0.53,8.63,1.41,12.86,2.54
		c8.64,2.33,16.93,5.84,24.93,9.83c8.07,4.03,15.81,8.71,23.67,13.13c7.95,4.45,16.09,8.67,24.77,11.53
		c4.23,1.39,8.57,2.47,12.99,3.08c2.92,0.4,5.94,0.64,8.94,0.59C606.25,165.43,605.98,165.5,605.72,165.56z M510.57,122.06
		c8.73,1.23,17.11,4.16,25.04,7.94c8.16,3.9,15.86,8.64,23.53,13.39c7.56,4.65,15.14,9.3,23.14,13.17c7.13,3.42,14.75,6.37,22.6,7.7
		c-1.45-0.02-2.9-0.08-4.36-0.21c-4.49-0.42-8.93-1.32-13.27-2.62c-8.76-2.59-16.96-6.65-24.94-11.05
		c-7.93-4.36-15.67-9.03-23.74-13.13c-7.93-4.06-16.15-7.63-24.72-10.15c-8.34-2.45-17-3.84-25.72-3.52c-0.23,0-0.44,0.04-0.67,0.04
		C494.95,121.31,502.86,121,510.57,122.06z M580.57,116.1c-0.54,1.17-1.75,1.89-2.98,2.16c-1.39,0.31-2.86-0.01-4.14-0.55
		c-0.25-0.1-0.48-0.24-0.71-0.38c1.61,0.5,3.29,0.71,4.93,0.19c0.88-0.27,1.71-0.74,2.37-1.4c0.28-0.3,0.58-0.64,0.8-1.05
		C580.81,115.43,580.71,115.77,580.57,116.1z M580.15,114.96c0.28-0.25,0.49-0.55,0.61-0.87c0,0.02,0,0.05,0.02,0.07
		c-0.31,0.57-0.54,1.17-1.03,1.67c-0.63,0.64-1.47,1.09-2.34,1.31c-2.1,0.55-4.38-0.19-6.35-0.83c-0.02,0-0.02,0-0.05,0
		c-0.02,0-0.02-0.02-0.05-0.02c1.84,0,3.69-0.1,5.51-0.28C577.71,115.9,579.17,115.85,580.15,114.96z M570.89,115.57
		c1.23-0.89,2.65-1.63,4.13-1.98c1.6-0.37,3.28-0.38,4.89-0.01c0.07,0.02,0.12,0,0.16-0.02c-0.17,0.69-1.07,1.23-1.79,1.41
		c-1.18,0.26-2.42,0.32-3.63,0.44C573.41,115.51,572.14,115.56,570.89,115.57z M574.23,112.08c1.55-0.61,4.28-0.99,5.55,0.45
		c0.23,0.26,0.29,0.49,0.31,0.72c-0.02-0.05-0.07-0.07-0.14-0.09c-3.24-0.71-6.92,0.01-9.52,2.15
		C571.3,113.85,572.61,112.71,574.23,112.08z M564.65,117.16c1.74,0.83,3.41,2.37,3.45,4.44c0,0.35-0.05,0.65-0.15,0.94
		c-0.22-0.56-0.63-1.09-0.91-1.42c-0.77-0.91-1.64-1.72-2.55-2.5c-0.91-0.75-1.87-1.43-2.91-2.02c-0.53-0.31-1.05-0.59-1.58-0.85
		c-0.18-0.09-0.37-0.19-0.55-0.28C561.23,115.92,563.02,116.38,564.65,117.16z M559.4,116.36c0.5,0.21,0.99,0.45,1.47,0.71
		c0.99,0.52,1.92,1.13,2.82,1.78c0.87,0.63,1.71,1.33,2.49,2.08c0.39,0.4,0.77,0.82,1.07,1.28c0.11,0.19,0.2,0.39,0.29,0.63
		c-0.21-0.12-0.44-0.21-0.64-0.33c-0.48-0.26-0.94-0.54-1.4-0.82c-0.87-0.56-1.72-1.15-2.52-1.8c-1.39-1.1-2.65-2.38-3.88-3.66
		C559.19,116.27,559.29,116.32,559.4,116.36z M562.58,120.36c0.82,0.65,1.69,1.29,2.58,1.85c0.43,0.28,0.87,0.54,1.33,0.8
		c0.3,0.16,0.6,0.35,0.92,0.49c-0.14,0.16-0.3,0.3-0.47,0.43c-0.44-0.14-0.9-0.17-1.36-0.25c-0.55-0.1-1.08-0.27-1.59-0.46
		c-1.03-0.4-1.99-0.99-2.82-1.76c-1.55-1.4-2.45-3.37-2.75-5.43C559.59,117.7,561.03,119.13,562.58,120.36z M558.06,116.39
		c0.21,2.08,1.18,4.07,2.68,5.52c0.84,0.84,1.87,1.47,3,1.9c0.53,0.19,1.06,0.36,1.61,0.46c0.3,0.05,0.62,0.1,0.92,0.1
		c-0.65,0.34-1.39,0.54-2.15,0.51c-2.26-0.12-4.48-1.64-5.73-3.45C557.38,119.94,557.12,117.93,558.06,116.39z M676.24,158.66
		c-9.05-0.91-18.15-2.03-26.76-5.14c-2.62-0.95-5.16-2.06-7.69-3.22c0.05,0.02,0.09,0.02,0.14,0.05c3.19,1,6.44,1.8,9.7,2.53
		c6.85,1.53,13.78,2.85,20.66,4.25c3.96,0.81,7.94,1.73,11.94,2.37C681.58,159.18,678.91,158.92,676.24,158.66z M684.49,159.51
		c0.02,0,0.05,0,0.07-0.02c0.05,0.02,0.09,0.02,0.14,0.05C684.62,159.51,684.55,159.51,684.49,159.51z M595.47,111.44
		c4.21,0.67,8.42,1.41,12.61,2.31c8.35,1.8,16.62,4.2,24.4,7.77c7.87,3.62,15.03,8.52,21.91,13.74c6.77,5.15,13.3,10.62,20.28,15.49
		c4.05,2.81,8.24,5.47,12.64,7.71c-3.88-1.31-7.72-2.76-11.5-4.4c-8.72-3.79-17.11-8.31-25.35-13.01
		c-8.27-4.73-16.45-9.64-24.76-14.25c-8.34-4.64-16.87-8.98-25.75-12.51c-3.54-1.4-7.14-2.66-10.79-3.77
		C591.24,110.82,593.38,111.12,595.47,111.44z M596.71,114.16c8.93,3.4,17.48,7.67,25.85,12.26c8.36,4.59,16.52,9.55,24.76,14.32
		c8.22,4.77,16.59,9.36,25.24,13.31c2.62,1.18,5.25,2.32,7.94,3.39c-4.55-1.34-9.08-2.8-13.58-4.37c-7.1-2.5-14.12-5.26-21.03-8.26
		c-6.93-3.03-13.76-6.29-20.48-9.78c-6.72-3.51-13.29-7.28-19.75-11.27c-6.43-3.99-12.73-8.21-18.83-12.66
		c-0.16-0.12-0.34-0.23-0.5-0.35C589.84,111.7,593.31,112.87,596.71,114.16z M585.25,110.41c2.7,2.11,5.49,4.07,8.3,6.02
		c3.13,2.16,6.29,4.27,9.5,6.31c6.36,4.06,12.89,7.89,19.54,11.47c6.69,3.6,13.5,7,20.45,10.1c6.97,3.12,14.07,5.99,21.25,8.59
		c5.03,1.81,10.11,3.53,15.23,5.08c-1.91-0.39-3.84-0.76-5.75-1.17c-3.5-0.71-6.99-1.42-10.47-2.15c-6.67-1.39-13.39-2.73-19.91-4.7
		c-2.78-0.84-5.49-1.88-8.18-2.95c-3.37-1.72-6.69-3.49-10.09-5.12c-7.93-3.85-16.39-6.83-23.45-12.23
		c-6.72-5.15-11.95-11.94-16.92-18.73c-0.23-0.3-0.43-0.58-0.66-0.88C584.47,110.19,584.86,110.31,585.25,110.41z M679.25,135.15
		c-0.49-1.8-0.79-3.81-0.19-5.63c0.41-1.17,1.22-2.22,2.34-2.76c-1.06,2.41-1.28,5.15-0.87,7.74c0.21,1.39,0.61,2.75,1.2,4.05
		c0.27,0.6,0.59,1.18,0.93,1.74c0.05,0.09,0.11,0.16,0.16,0.26C681,139.41,679.78,137.07,679.25,135.15z M682.74,126.38
		c0.44,0.26,0.87,0.54,1.28,0.82c2.54,1.71,4.93,4.02,5.59,7.14c0.35,1.71-0.02,3.62-1.09,4.99c-0.42-1.99-1.66-3.68-2.91-5.31
		c-0.84-1.07-1.71-2.14-2.27-3.39c-0.63-1.37-0.73-2.68-0.58-4.16C682.74,126.43,682.74,126.41,682.74,126.38z M682.28,126.42
		c0.02,0,0.02-0.02,0.05-0.02c-1.2,2.27,0.45,5.15,1.77,6.94c1.5,2.02,3.48,4.07,3.78,6.66c-0.49,0.41-1.05,0.75-1.69,0.95
		c-0.72,0.22-1.39,0.24-2.01,0.12c-0.2-0.37-0.5-0.7-0.73-1.05c-0.36-0.58-0.7-1.18-0.99-1.81c-0.56-1.23-0.94-2.52-1.18-3.84
		c-0.43-2.66-0.12-5.28,0.64-7.83C682.02,126.49,682.16,126.44,682.28,126.42z M693.1,119.14c5.39,0.43,10.73,1.09,16.05,2.19
		c6.9,1.44,13.7,3.43,20.27,6.02c6.52,2.59,12.82,5.73,18.85,9.34c6.02,3.62,11.74,7.72,17.02,12.34
		c4.29,3.76,8.33,7.77,12.08,12.03c-6.98-4.41-14.11-8.6-21.28-12.67c-10.38-5.9-20.95-11.47-31.75-16.52
		C714.16,127.11,703.74,122.82,693.1,119.14z M697.15,122.3c6.13,2.26,12.21,4.7,18.2,7.33c18.47,8.09,36.14,17.79,53.38,28.18
		c-1.95-0.58-3.93-1.04-5.89-1.38c-6.56-1.18-13.22-1.33-19.86-1.75c-6.2-0.39-12.48-1.11-18.34-3.32
		c-2.76-1.05-5.41-2.39-7.82-4.15c-2.29-1.69-4.22-3.74-5.93-6.02c-2.14-2.84-3.97-5.97-6.06-8.85
		C702.77,128.75,700.28,125.13,697.15,122.3z M707.09,136.48c0.82,1.25,1.61,2.51,2.47,3.74c1.54,2.23,3.27,4.37,5.33,6.17
		c2.15,1.89,4.62,3.42,7.21,4.6c11.84,5.44,25.06,4.02,37.63,5.8c3.34,0.48,6.65,1.18,9.84,2.32c1.68,0.6,3.28,1.33,4.84,2.15
		c0.46,0.28,0.94,0.56,1.4,0.85c-1.52-0.46-3.06-0.77-4.62-1c-5.64-0.8-11.39-0.34-17.06-0.29c-9.87,0.1-20.09-1.01-29.3-4.76
		c-2.55-1.04-5-2.29-7.31-3.77c-0.57-0.35-1.14-0.73-1.74-1.13C712.16,146.73,709.71,141.54,707.09,136.48z M779.92,165.92
		c-2.19-0.26-4.38-0.44-6.59-0.54c-4.4-0.21-8.81-0.17-13.21-0.17c-7.89,0-15.82-0.16-23.54-1.95c-7.01-1.62-13.92-4.7-18.98-9.95
		c-0.16-0.16-0.32-0.35-0.48-0.54c1.4,0.92,2.84,1.74,4.33,2.49c4.38,2.19,9.09,3.72,13.87,4.7c4.97,1.02,10.06,1.5,15.13,1.62
		c5.67,0.16,11.35-0.29,17.01,0.15c2.95,0.24,5.89,0.74,8.7,1.69c1.36,0.45,2.66,1.02,3.9,1.68c0.48,0.26,0.96,0.56,1.42,0.87
		c0.05,0.07,0.09,0.12,0.14,0.19C781.07,166.07,780.49,165.97,779.92,165.92z M780.59,163.16c-3.89-4.7-8.08-9.11-12.65-13.15
		c-5.3-4.69-11.04-8.93-17.03-12.67c-6.02-3.76-12.35-7.01-18.91-9.64c-6.54-2.63-13.25-4.81-20.13-6.36
		c-6.67-1.51-13.48-2.46-20.33-2.77c-0.11-0.05-0.23-0.12-0.34-0.17c-0.69-0.28-1.4-0.52-2.11-0.72c6.48-0.3,13-0.01,19.43,0.84
		c8.17,1.11,16.22,3.13,23.93,6.08c7.23,2.76,14.16,6.29,20.63,10.54c6.16,4.06,11.91,8.76,17.14,13.96
		c4.88,4.9,9.2,10.23,13.19,15.85C782.49,164.38,781.56,163.77,780.59,163.16z"/>
	<path class="st0" d="M624.57,77.07c-0.67,0.13-1.34,0.31-1.97,0.55c-1.48,0.54-2.85,1.35-4.04,2.38c-0.37,0.34-0.27,1.01,0.29,1.09
		c0.05,0,0.09,0,0.14,0c0.02,0.02,0.07,0.05,0.11,0.07c2.67,0.79,5.65,0.27,7.95-1.25c0.51-0.34,0.98-0.89,0.92-1.53
		c-0.06-0.67-0.56-1.18-1.18-1.37C626.07,76.79,625.29,76.94,624.57,77.07z"/>
	<path class="st0" d="M502.22,108.22c-0.12,0.48,0.45,0.79,0.85,0.66c0.42-0.16,0.79-0.34,1.18-0.56c1.02-0.4,1.97-1.08,2.76-1.81
		c1.21-1.16,2.13-2.65,2.56-4.26c0.1-0.34-0.11-0.83-0.55-0.72C505.7,102.31,503.09,104.91,502.22,108.22z"/>
	<path class="st0" d="M692.72,102.38c-0.67,0.04-1.34,0.31-1.97,0.51c-0.72,0.25-1.41,0.54-2.11,0.85
		c-1.53,0.74-2.95,1.67-4.23,2.79c-0.47,0.41-0.17,1.2,0.47,1.11c0.55-0.06,1.09-0.15,1.64-0.26c0.14,0,0.25-0.02,0.39-0.04
		c0.05,0,0.12,0,0.16,0c0.02,0,0.05-0.02,0.09-0.02c0.9-0.08,1.8-0.28,2.63-0.55c0.76-0.22,1.48-0.51,2.2-0.85
		c0.65-0.32,1.37-0.63,1.9-1.13c0.51-0.48,0.82-1.21,0.39-1.84C693.94,102.46,693.29,102.34,692.72,102.38z"/>
	<path class="st0" d="M477.29,128.85c-0.42,0.36-1.05,0.82-1.15,1.39c-0.12,0.69,0.45,1.16,1.07,1.14c0.53-0.02,1.09-0.29,1.57-0.49
		c0.49-0.23,0.95-0.47,1.39-0.77c0.39-0.16,0.76-0.36,1.14-0.59c1.16-0.72,2.05-1.78,2.69-2.99c0.19-0.37-0.2-0.86-0.59-0.77
		C481.17,126.29,479.04,127.33,477.29,128.85z"/>
</g>
<g>
	<path class="st0" d="M13.38,166.61c0.25-0.04,0.55-0.13,0.81-0.22c0.23-0.07,0.46-0.18,0.67-0.27c0.44-0.2,0.83-0.43,1.23-0.7
		c0.37-0.06,0.76-0.11,1.13-0.17c8.78-1.31,17.65-0.86,26.48-0.78c7.63,0.09,15.29-0.24,22.71-2.16c6.98-1.83,13.57-5.2,18.43-10.63
		c0.84-0.96,1.64-1.96,2.36-2.97c0.37-0.39,0.68-0.82,0.91-1.3c3.31-4.87,5.77-10.31,8.84-15.33c1.15-1.88,2.42-3.71,3.8-5.4
		c0.19-0.18,0.37-0.36,0.56-0.52c0.05-0.05,0-0.12-0.05-0.09c1.75-2.06,3.69-3.9,5.89-5.42c3.1-1.03,6.22-1.96,9.35-2.87
		c0.21,0.03,0.39,0.03,0.6,0.05c0.37,0.05,0.6-0.18,0.7-0.43c12.17-3.48,24.53-6.11,37.12-7.72c1.82-0.23,3.67-0.44,5.52-0.63
		c-3.98,0.83-7.93,1.87-11.82,3.05c-6.94,2.11-13.75,4.71-20.33,7.79c-3.29,1.53-6.56,3.18-9.74,4.94c-2.88,1.6-5.76,3.44-7.43,6.37
		c-1.51,2.61-1.77,5.93,0.11,8.42c0.2,0.28,0.43,0.51,0.66,0.72c0,0.05,0,0.09,0,0.14c0,0.3,0.3,0.37,0.5,0.28
		c1.81,1.38,4.2,1.52,6.29,0.23c2.79-1.72,4.05-5.42,4.34-8.53c0.26-2.81-0.81-6.05-3.63-7.03c1.97-1.11,3.99-2.15,6.01-3.14
		c2.95-1.49,5.96-2.86,9.02-4.14c10.82-4.54,22.08-7.7,33.61-9.81c6.65-0.5,13.29-0.75,19.95-0.79c-4.25,0.51-8.5,1.17-12.73,1.95
		c-5.34,0.98-10.65,2.09-15.93,3.42c-4.69,1.17-9.59,2.27-13.93,4.48c-1.97,0.99-4.06,2.28-5.49,4c-0.63,0.75-0.9,1.9-0.01,2.56
		c0.73,0.54,1.77,0.3,2.54-0.04c0.83-0.34,1.65-0.72,2.46-1.13c4.33-1.31,8.28-3.87,11.31-7.23c0.14-0.16,0.17-0.34,0.14-0.55
		c2.52-0.69,5.04-1.3,7.56-1.94c9.73-2.43,19.62-4.02,29.53-5.5c9.22,0.1,18.44,0.62,27.61,1.47c-0.25,0.09-0.49,0.18-0.72,0.27
		c-0.97,0.4-1.92,0.9-2.72,1.58c-0.78,0.06-1.57,0.12-2.35,0.2c-8.56,0.85-17.13,2.02-25.57,3.77c-8.3,1.73-16.49,4.13-24.18,7.75
		c-7.79,3.67-14.9,8.55-21.81,13.61c-6.84,5.02-13.54,10.22-20.71,14.78c-3.55,2.27-7.22,4.35-11.02,6.12
		c-1.88,0.88-3.8,1.69-5.77,2.4c-1.57,0.58-3.19,1.05-4.77,1.58c-1.5,0.31-3,0.61-4.51,1.01c-0.65,0.18-0.36,1.29,0.29,1.13
		c0.99-0.24,2.01-0.46,3.03-0.66c0.25-0.04,0.51-0.06,0.74-0.11c0.55-0.09,1.09-0.22,1.64-0.33c8.39-1.45,16.9-1.86,25.37-2.6
		c9.12-0.8,18.13-2.19,26.69-5.55c8.45-3.32,16.37-7.86,24.69-11.48c4.08-1.78,8.18-3.46,12.14-5.47c3.87-1.96,7.54-4.27,10.85-7.09
		c3.19-2.71,6.06-5.77,8.77-8.94c2.36-2.79,4.65-5.69,6.76-8.66c0.58-0.13,1.11-0.43,1.67-0.65c0.28-0.11,0.56-0.2,0.83-0.29
		c3.03-0.61,6.1-1.08,9.17-1.46c0.67,0.08,1.34,0.15,2,0.23c13.01,1.58,25.9,3.8,38.71,6.5c-0.67-0.05-1.36-0.11-2.03-0.16
		c-2.9-0.22-5.81-0.37-8.71-0.44c-5.28-0.13-10.56,0.11-15.78,0.97c-0.18,0.02-0.39,0.06-0.58,0.11c-0.02-0.02-0.07-0.05-0.12-0.02
		c-2.86,0.43-5.77,0.74-8.68,0.82c-0.85,0.04-1.71,0.03-2.56,0.02c-0.92-2.29-3-4-5.34-4.7c-1.79-0.53-4.67-0.65-5.87,1.13
		c-0.02,0.02-0.02,0.07-0.05,0.09c-0.89,0.96-1.11,2.36-0.76,3.59c0.4,1.32,1.5,2.3,2.76,2.8c1.49,0.59,3.18,0.43,4.66-0.06
		c1.39-0.47,2.83-1.24,4.01-2.17c2.21,0.03,4.43-0.09,6.62-0.34c-0.39,0.13-0.81,0.24-1.2,0.38c-1.92,0.72-3.69,1.99-4.33,4.01
		c-0.62,1.88,0.1,3.81,1.79,4.84c1.92,1.15,4.28,0.76,6.16-0.28c1.81-0.99,3.49-2.54,4.13-4.56c0.53-1.68,0.25-3.64-0.94-4.94
		c2.03-0.37,4.09-0.65,6.14-0.83c4.64-0.41,9.32-0.38,13.97-0.14c2.3,0.12,4.63,0.28,6.94,0.47c1.5,0.13,3.04,0.31,4.54,0.42
		c4.78,1.07,9.57,2.18,14.3,3.37c-0.88-0.01-1.75,0-2.65,0.02c-2.81,0.06-5.61,0.24-8.4,0.5c-4.99,0.5-9.93,1.32-14.79,2.48
		c-0.65,0.15-1.29,0.33-1.94,0.51c-0.47-1-1.25-1.88-2.16-2.49c-0.87-0.56-1.93-1.04-2.96-1.02c-0.99,0.01-2.06,0.74-1.63,1.85
		c0.22,0.53,0.73,0.88,1.21,1.17c0.55,0.33,1.12,0.59,1.72,0.8c0.41,0.14,0.83,0.29,1.26,0.38c-0.9,0.27-1.8,0.51-2.68,0.8
		c-2.29,0.73-4.61,1.49-6.74,2.6c-1,0.52-1.97,1.11-2.88,1.79c-0.7,0.55-1.42,1.25-1.43,2.22c-0.01,0.83,0.58,1.51,1.32,1.81
		c0.99,0.4,2.03,0.09,2.98-0.29c4.29-1.75,8.19-4.45,11.52-7.64c0.28-0.27,0.24-0.76-0.13-0.9c0.05,0,0.07-0.02,0.12-0.02
		c0.16,0.02,0.32-0.02,0.44-0.11c2.13-0.58,4.26-1.1,6.4-1.54c4.44-0.92,8.92-1.56,13.42-1.9c3.6-0.28,7.2-0.26,10.82-0.29
		c3.26,0.82,6.55,1.69,9.82,2.58c-4.72-0.38-9.5-0.18-14.19,0.55c-8.78,1.35-17.16,4.37-25.13,8.2
		c-8.16,3.92-15.94,8.58-23.71,13.17c-7.73,4.55-15.53,9.05-23.78,12.62c-4.05,1.75-8.2,3.3-12.48,4.49
		c-3.77,1.04-7.56,1.69-11.39,2.29c-1.08-0.08-2.19-0.16-3.27-0.29c-0.83-0.31-1.65-0.62-2.46-0.97c-0.76-0.33-1.28,0.84-0.52,1.17
		c1.06,0.45,2.13,0.88,3.21,1.24c3.49,1.17,7.08,1.86,10.7,2.15c1.91,0.25,3.82,0.3,5.76,0.18c3.57-0.05,7.18-0.43,10.71-1.01
		c9.52-1.58,18.64-4.84,27.74-7.99c4.65-1.61,9.31-3.21,14.05-4.57c4.65-1.33,9.39-2.27,14.13-3.25c4.58-0.94,9.15-2.02,13.51-3.74
		c3.98-1.59,7.61-3.83,11.07-6.33c6.49-4.7,12.5-10.21,19.84-13.54c0.07,0.02,0.14,0.05,0.21,0.07c0.34,0.14,0.62-0.04,0.74-0.29
		c10.82,3.17,21.6,6.52,32.33,9.96c-1.4-0.29-2.83-0.54-4.26-0.79c-9.05-1.44-18.29-1.77-27.43-0.98c-1.18,0.1-2.33,0.23-3.49,0.35
		c-0.92,0.1-1.94,0.19-2.75,0.71c-0.65,0.43-1.12,1.21-1.04,1.99c0.11,0.79,0.75,1.3,1.46,1.54c1.72,0.55,3.85,0.32,5.56-0.12
		c1.9-0.49,3.68-1.39,5.17-2.66c0.35-0.3,0.36-0.94-0.13-1.13c-0.02,0-0.05,0-0.07-0.02c0.28-0.02,0.53-0.04,0.81-0.04
		c4.11-0.16,8.23-0.09,12.33,0.19c7.4,0.52,14.69,1.73,21.86,3.54c7.54,2.44,15.05,4.87,22.58,7.29c0.16,0.05,0.26-0.18,0.09-0.23
		c-3.01-1.05-5.99-2.1-9-3.15c-4.25-1.5-8.52-2.96-12.82-4.39c0.07-0.11,0.03-0.28-0.13-0.3c-0.46-0.05-0.92-0.13-1.38-0.22
		c-0.46-0.19-0.94-0.36-1.42-0.52c-1.91-0.67-3.84-1.36-5.74-2.09c-2.04-1.18-3.89-2.67-5.44-4.42c-1.43-1.61-2.64-3.42-3.54-5.37
		c-0.97-2.13-1.49-4.44-1.88-6.73c-0.8-4.67-1.11-9.6-3.67-13.74c-2.47-3.97-6.52-6.6-9.17-10.41c-2.9-4.16-3.93-9.27-5.4-14.03
		c-1.27-4.1-2.98-8.06-5.08-11.79c-4.2-7.47-9.89-14.11-16.64-19.4c-3.36-2.64-7-4.97-10.81-6.88c-1.88-0.94-3.83-1.86-5.83-2.63
		c-0.41-0.42-0.91-0.75-1.42-1.05c-0.66-0.4-1.35-0.75-2.09-1.04c-1.52-0.57-3.1-0.75-4.68-0.28c-0.58,0.18-0.38,0.99,0.13,1.09
		c0.41,0.1,0.83,0.17,1.24,0.27c0.05,0.09,0.11,0.16,0.23,0.19c1.01,0.36,2.02,0.67,3.03,0.98c0.51,0.17,1.01,0.36,1.54,0.52
		c6.12,3.44,10.08,9.75,12.66,16.1c3.19,7.83,4.52,16.26,7.87,24.05c1.69,3.89,4,7.33,6.45,10.77c2.47,3.49,4.83,7,6.15,11.09
		c1.31,4.05,1.98,8.3,3.6,12.26c1.46,3.61,3.82,6.73,6.72,9.32c2.83,2.52,6.13,4.5,9.55,6.13c-6.2-1.91-12.41-3.76-18.66-5.56
		c-0.09-0.02-0.21-0.07-0.3-0.1c0.05-0.11,0.03-0.25-0.09-0.35c-1.85-1.66-3.63-3.43-5.24-5.32c-2.78-3.31-5.09-7.02-6.77-10.98
		c-0.2-0.46-0.4-0.95-0.58-1.44c0.35-0.04,0.69-0.2,0.95-0.45c0.61-0.62,0.71-1.54,0.76-2.37c0.06-1.06,0-2.1-0.17-3.14
		c-0.37-2.15-1.2-4.19-2.47-5.95c-0.25-0.35-0.71-0.24-0.9,0.11c-1.25,2.31-1.07,5.01-0.48,7.49c0.09,0.37,0.2,0.76,0.31,1.13
		c0.02,0.28,0.04,0.55,0.06,0.83c0.06,0.72,0.31,1.53,0.88,1.99c1.12,2.99,2.59,5.84,4.26,8.49c2.31,3.6,5.13,6.93,8.47,9.62
		c-1.15-0.36-2.32-0.67-3.49-0.94c-0.67-0.19-1.33-0.38-2.02-0.58c-2.17-1.39-4.51-2.56-6.71-3.88c-2.7-1.62-5.36-3.36-7.87-5.28
		c-2.99-2.29-5.8-4.86-8.21-7.77c3.94-3.6,5.59-9.37,4.06-14.5c-0.67-2.22-2.12-4.52-4.32-5.47c-2.2-0.95-4.59-0.05-5.97,1.85
		c-1.59,2.22-1.49,5.03-0.75,7.55c0.78,2.64,2.11,5.17,3.6,7.47c0.36,0.56,0.75,1.12,1.16,1.67c-1.74-1.5-3.52-2.92-5.37-4.3
		c-1.1-0.82-2.2-1.59-3.32-2.37c-0.34-0.28-0.69-0.58-1.03-0.86c1.08-3.82,1.1-7.85,0.09-11.69c-0.46-1.73-1.14-3.4-2-4.98
		c-0.86-1.55-1.9-3.09-3.41-4.1c-1.37-0.89-3.03-1.21-4.49-0.3c-1.49,0.93-2.11,2.67-2.17,4.33c-0.11,3.71,1.72,7.37,3.97,10.21
		c1.18,1.51,2.53,2.84,3.97,4.08c-1.01-0.61-2.02-1.2-3.05-1.76c-0.96-0.54-1.95-1.11-2.96-1.58c-0.94-0.45-1.93-0.83-2.97-0.75
		c-1.75,0.12-2.85,1.58-2.97,3.26c-0.23,3.66,3.04,6.86,6.3,7.96c3.7,1.24,7.84,0.07,10.36-2.9c0,0,0,0,0.02-0.02
		c0.02-0.02,0.05-0.05,0.07-0.07c1.9,1.29,3.77,2.65,5.6,4.08c1.6,1.24,3.18,2.55,4.71,3.88c0.59,0.51,1.16,1.03,1.73,1.56
		c2.19,2.38,4.63,4.53,7.19,6.47c2.42,1.83,4.99,3.47,7.6,5.02c1.31,0.78,2.61,1.55,3.96,2.28c-2.34-0.65-4.69-1.3-7.06-1.92
		c-0.64-0.17-1.29-0.34-1.93-0.51c0.02-0.09-0.02-0.21-0.14-0.21c-0.39-0.05-0.76-0.08-1.15-0.13c-4.85-1.25-9.7-2.48-14.58-3.65
		c-0.96-0.38-1.95-0.74-2.92-1.09c-6.87-2.54-13.16-6.31-19.04-10.61c-0.16-0.19-0.34-0.37-0.5-0.56
		c-5.98-7.31-10.43-15.68-16.39-22.99c-5.62-6.89-12.8-12.23-20.68-16.28c-8.05-4.15-16.66-7.01-25.37-9.37
		c-9.42-2.55-19.02-4.46-28.44-7.01c-4.83-1.3-9.61-2.74-14.29-4.47c-2.3-0.86-4.59-1.78-6.82-2.8c-1.33-0.61-2.64-1.25-3.97-1.91
		c-0.05-0.05-0.07-0.07-0.11-0.12c-0.11-0.12-0.25-0.14-0.39-0.12c-0.18-0.09-0.37-0.19-0.55-0.26c-0.25-0.3-0.48-0.58-0.7-0.88
		c-0.3-0.4-0.8-0.29-1.04,0.01c-0.55-0.24-1.09,0.61-0.56,0.96c0.46,0.3,0.94,0.61,1.42,0.89c0.41,0.51,0.8,1.02,1.23,1.51
		c5.94,6.82,13.56,11.77,21.38,16.17c8.45,4.78,17.33,8.77,25.5,14.01c4.03,2.58,7.75,5.53,11.34,8.71c3.49,3.08,6.94,6.28,10.74,9
		c7.27,5.16,15.89,7.49,24.45,9.48c3.43,0.8,6.85,1.55,10.26,2.49c2.18,0.85,4.43,1.57,6.73,2.11c0.73,0.26,1.49,0.52,2.23,0.83
		c1.88,0.76,3.72,1.66,5.53,2.58c2.29,1.59,4.62,3.12,7.03,4.51c2.29,1.32,4.65,2.52,7.08,3.58c0.23,0.09,0.44,0.19,0.67,0.28
		c-13.25-2.96-26.59-5.42-40.06-7.19c-0.07-0.02-0.14-0.07-0.21-0.09l-0.02-0.12c0-0.02-0.02-0.02-0.02-0.02l0,0
		c0-0.02-0.02-0.05-0.05-0.05c-0.02-0.02-0.05-0.09-0.04-0.14c-0.02-0.05-0.04-0.12-0.04-0.16c-0.02-0.07-0.12-0.02-0.09,0.05
		c0.02,0.05,0.02,0.09,0.04,0.14c0.02,0.05,0.02,0.09,0.04,0.14c0,0.02,0,0.05,0,0.07c-4.08-1.89-8.17-3.76-12.18-5.81
		c-7.4-3.77-14.62-7.98-21.53-12.6c-1.51-1.01-3.02-2.04-4.53-3.09c0.02-0.12,0.05-0.25-0.02-0.39c-1.12-3.03-2.37-6.18-4.58-8.61
		c-1.75-1.91-4.02-3.3-6.58-3.56c-0.09-0.05-0.16-0.12-0.23-0.16c-0.37-0.21-0.71-0.12-0.92,0.1c0,0,0,0-0.02,0
		c-0.37,0.02-0.58,0.43-0.45,0.76c1.57,3.85,4.53,6.85,7.73,9.4c3.2,2.55,6.61,4.85,10.02,7.08c3.5,2.3,7.07,4.51,10.69,6.58
		c6.69,3.81,13.64,7.37,20.82,10.22c-2.92-0.36-5.87-0.71-8.8-1c-0.23-0.12-0.46-0.24-0.69-0.35c-9.1-4.37-18.52-8.16-28.12-11.34
		c-0.48-0.33-0.96-0.63-1.44-0.96c-3.62-2.35-7.35-4.51-11.13-6.56c-3.85-2.07-7.79-3.96-11.88-5.51
		c-8.38-3.12-17.27-4.53-26.14-5.09c-8.66-0.54-17.43-0.5-26.1,0c-8.44,0.48-16.87,1.49-25.13,3.38
		c-8.18,1.87-16.17,4.57-23.66,8.38c-0.83,0.43-0.3,1.8,0.54,1.37c0.02,0,0.05-0.02,0.07-0.02c0.97-0.04,1.96-0.07,2.93-0.08
		c8.14-0.14,16.27,0.81,24.3,2.05c8.08,1.27,16.08,2.9,24.14,4.26c8.19,1.41,16.41,2.47,24.73,2.84c8.39,0.37,16.78,0.17,25.16-0.34
		c4.22-0.25,8.42-0.57,12.62-0.96c3.99-0.35,7.99-0.72,11.93-1.25c0.07,0.02,0.14,0.05,0.21,0.03c0.48,0.17,0.99,0.31,1.47,0.48
		c4.89,1.65,9.74,3.43,14.53,5.38c3.17,1.28,6.29,2.68,9.38,4.1c-20.18-1.89-40.56-2.03-60.71,0.17c-1.82,0-3.64,0-5.46-0.04
		c-6.55-0.17-13.09-0.75-19.56-1.7c-0.53-0.08-1.04-0.17-1.54-0.25c-0.04-0.12-0.11-0.23-0.23-0.3c-4.41-3.23-9.91-6.84-15.56-4.53
		c-0.49,0.2-0.49,0.76-0.15,1.08c2.19,2.24,5.31,3.08,8.31,3.67c9.09,1.83,18.41,2.77,27.73,2.85c-2.49,0.34-5.01,0.7-7.51,1.11
		c-1.39,0.24-2.75,0.48-4.14,0.71c-5.47,0.05-10.93,0.15-16.4,0.14c-5.93-0.02-11.83-0.11-17.75-0.41
		c-2.56-0.12-5.12-0.31-7.67-0.64l0-0.02c0-0.02-0.02-0.05-0.05-0.07c1.33-1.78,1.55-4.27,0.69-6.31c-0.99-2.36-3.32-3.89-5.79-4.29
		c-2.16-0.37-4.87,0.08-6.36,1.82c-1.54,1.8-0.93,4.44,0.65,6c1.89,1.91,4.86,2.57,7.39,3.08c3.13,0.63,6.33,0.92,9.53,1.1
		c10.69,0.61,21.44,0.57,32.16,0.27c-7.28,1.46-14.49,3.25-21.64,5.31c-0.48-0.05-0.97-0.1-1.45-0.15
		c-8.29-0.74-16.69-0.51-24.93,0.64c-8.24,1.17-16.36,3.27-24.14,6.28c-7.2,2.78-14.09,6.37-20.53,10.63
		c-6.25,4.13-12.11,8.92-17.36,14.26c-4.18,4.24-8.12,8.85-11.45,13.82c-0.14,0.04-0.28,0.14-0.37,0.2
		c-0.14,0.11-0.28,0.27-0.4,0.41c-0.49,0.59-0.91,1.23-1.29,1.9c-0.09,0.05-0.19,0.11-0.26,0.16c-0.3,0.2-0.33,0.48-0.19,0.71
		c-0.14,0.28-0.26,0.55-0.38,0.83C12.81,166.28,13.03,166.67,13.38,166.61z M87.74,101.55c0.6,0.05,1.15,0.01,1.73,0.23
		c0.57,0.21,1.1,0.52,1.58,0.92c0.94,0.75,1.64,1.75,2.37,2.72c0.66,0.88,1.34,1.77,2.21,2.47c0.62,0.49,1.4,0.98,2.2,1.09
		c0.09,0.09,0.18,0.21,0.27,0.3c-2.56-0.37-5.36-0.84-7.68-2.05C88.49,106.24,86.49,103.75,87.74,101.55z M92.92,100.36
		c1.24,0.61,2.08,1.68,2.57,2.93c0.52,1.3,0.75,2.66,1.29,3.93c0.13,0.32,0.32,0.65,0.5,0.97c-0.21-0.07-0.39-0.17-0.57-0.28
		c-0.48-0.28-0.94-0.66-1.35-1.08c-0.87-0.86-1.55-1.89-2.3-2.84c-0.7-0.88-1.48-1.75-2.44-2.33c-0.69-0.42-1.6-0.8-2.46-0.74
		c0.47-0.53,1.05-0.91,1.72-1.16c0.41,0.05,0.88-0.01,1.27,0.04C91.77,99.91,92.37,100.1,92.92,100.36z M98.56,108.73
		c-0.02-0.02-0.02-0.02-0.05-0.05c-0.23-0.26-0.43-0.54-0.61-0.84c-0.36-0.58-0.63-1.21-0.86-1.83c-0.47-1.34-0.75-2.73-1.48-3.98
		c-0.61-1.07-1.57-1.93-2.69-2.45c-0.18-0.09-0.39-0.14-0.57-0.21c0.62-0.02,1.27,0.04,1.82,0.16c2.16,0.44,4.18,1.82,4.98,3.93
		C99.76,105.19,99.6,107.19,98.56,108.73z M98.38,82.25c7.64-1.14,15.35-1.72,23.08-1.74c7.72-0.03,15.47,0.5,23.11,1.55
		c7.64,1.05,15.21,2.66,22.63,4.8c3.75,1.08,7.44,2.3,11.07,3.65c3.12,1.17,6.2,2.47,9.25,3.75c-8.32-2.52-16.78-4.59-25.34-6.17
		c-10.24-1.91-20.6-3.16-31.02-3.72c-10.37-0.58-20.79-0.47-31.15,0.29c-8.38,0.62-16.69,1.7-24.96,3.25
		c1.27-0.52,2.57-1.01,3.87-1.48C85.35,84.64,91.82,83.22,98.38,82.25z M187.99,93.97c-0.5-0.24-0.99-0.47-1.49-0.71
		c-7.07-3.15-14.42-5.7-21.89-7.72c-7.52-2.04-15.2-3.54-22.94-4.48c-7.67-0.94-15.39-1.33-23.09-1.16
		c-7.8,0.17-15.57,0.88-23.27,2.16c-1.11,0.19-2.19,0.39-3.3,0.59c0.92-0.2,1.83-0.39,2.75-0.59c8.18-1.66,16.51-2.53,24.87-2.92
		c8.65-0.39,17.39-0.38,26.03,0.34c8.8,0.72,17.47,2.46,25.67,5.85C177.13,87.71,182.58,90.79,187.99,93.97z M188.22,95.65
		c-3.11,0.01-6.23,0.16-9.34,0.22c-4.47,0.09-8.97,0.15-13.44,0.12c-8-0.02-16-0.3-23.95-0.99c-7.81-0.66-15.54-1.86-23.28-3.12
		c-7.69-1.24-15.37-2.5-23.11-3.31c-3.52-0.36-7.07-0.63-10.62-0.72c6.4-0.92,12.84-1.58,19.3-1.97c10.38-0.64,20.8-0.59,31.2,0.1
		c10.3,0.69,20.57,2.05,30.69,4.06C173.26,91.56,180.8,93.45,188.22,95.65z M189.59,94.91c-0.11-0.05-0.25-0.07-0.37-0.12
		c0.02-0.02,0.02-0.07,0.02-0.09C189.36,94.77,189.48,94.84,189.59,94.91z M192.27,96.87c-0.23,0.02-0.46,0.02-0.72,0.04
		c-8.4,0.73-16.83,1.47-25.27,1.9c-8.44,0.41-16.91,0.5-25.36-0.03c-8.27-0.53-16.42-1.82-24.56-3.32
		c-8.03-1.47-16.04-3.13-24.12-4.28c-6.1-0.88-12.25-1.48-18.41-1.55c1.29-0.24,2.56-0.48,3.86-0.69c2.42-0.11,4.84-0.18,7.26-0.15
		c4.4,0.07,8.8,0.4,13.18,0.86c7.76,0.83,15.45,2.2,23.13,3.44c7.76,1.24,15.54,2.3,23.37,2.85c7.86,0.57,15.76,0.73,23.65,0.71
		c3.97,0,7.96-0.07,11.92-0.16c3.23-0.08,6.5-0.09,9.73-0.33C190.75,96.42,191.51,96.64,192.27,96.87z M254.25,105.05
		c0.12,0.02,0.23,0.03,0.37,0.05c0.11,0.09,0.23,0.19,0.37,0.28C254.73,105.24,254.47,105.14,254.25,105.05z M150.71,50.45
		c2.81,1.95,5.77,3.69,8.79,5.29c6.74,3.53,13.81,6.38,20.78,9.44c7.23,3.15,14.41,6.53,20.88,11.05
		c6.59,4.59,12.26,10.35,18.67,15.18c2.95,2.22,6.06,4.24,9.39,5.82c1.06,0.5,2.13,0.97,3.24,1.37c-0.39-0.1-0.8-0.19-1.2-0.29
		c-4.3-1.04-8.6-2.2-12.73-3.86c-4.2-1.71-8.07-3.99-11.64-6.77c-3.66-2.85-6.99-6.12-10.53-9.13c-3.65-3.13-7.59-5.9-11.69-8.41
		c-8.11-4.96-16.78-8.91-24.98-13.7C156.64,54.6,153.59,52.63,150.71,50.45z M149.44,48.5c4.53,2.96,9.39,5.39,14.35,7.54
		c7.5,3.29,15.24,6.03,22.72,9.34c3.72,1.66,7.39,3.45,10.89,5.52c4.08,2.4,7.92,5.16,11.65,8.04c7.36,5.64,14.35,11.78,22.18,16.81
		c2.04,1.31,4.12,2.54,6.28,3.64c-0.18-0.05-0.37-0.07-0.53-0.12c-7.45-1.63-13.93-5.97-19.75-10.69
		c-6.15-4.98-11.82-10.51-18.51-14.78c-6.5-4.15-13.61-7.3-20.68-10.36c-6.86-2.96-13.75-5.87-20.27-9.57
		C154.89,52.27,152.09,50.49,149.44,48.5z M170.47,54.64c9.95,3.09,20.02,5.85,29.66,9.84c4.84,2.01,9.57,4.33,14.01,7.12
		c4.67,2.94,9.06,6.31,13.26,9.83c8.43,7.08,16.18,14.89,24.77,21.77c0.55,0.44,1.12,0.87,1.67,1.31c-0.44-0.07-0.87-0.15-1.33-0.22
		c-3.56-1.49-7.26-2.6-11-3.54c-4.66-2.08-9.08-4.74-13.24-7.67c-7.59-5.32-14.51-11.51-21.97-17.01c-3.61-2.67-7.34-5.16-11.28-7.3
		c-3.57-1.95-7.27-3.63-11.01-5.24c-7.48-3.17-15.13-5.91-22.49-9.29c-5.28-2.43-10.36-5.28-14.96-8.77
		C154.14,49.38,162.36,52.13,170.47,54.64z M199.77,59.49c7.79,2.58,15.05,6.28,21.69,11.11c6.56,4.73,12.43,10.29,17.94,16.18
		c2.76,2.96,5.42,5.99,7.99,9.11c1.73,2.07,3.41,4.19,5.14,6.28c-1.07-0.87-2.12-1.75-3.18-2.64c-8.38-7.13-16.13-14.96-24.7-21.84
		c-4.25-3.41-8.71-6.55-13.45-9.21c-4.49-2.52-9.22-4.62-14.04-6.48c-9.71-3.73-19.76-6.4-29.64-9.63
		c-2.21-0.72-4.43-1.48-6.62-2.27c4.62,1.3,9.31,2.32,14,3.32c3.77,0.8,7.57,1.58,11.34,2.43c2.71,0.63,5.4,1.31,8.09,2.01
		C196.16,58.37,197.98,58.89,199.77,59.49z M255.36,104.41c-0.34-0.26-0.66-0.54-1.01-0.8c-0.27-0.37-0.55-0.72-0.82-1.09
		c-5-6.35-10.19-12.64-15.77-18.49c-5.51-5.78-11.47-11.22-18.11-15.72c-2.88-1.95-5.86-3.69-8.96-5.22
		c3.79,1.5,7.5,3.17,11.08,5.15c3.87,2.14,7.58,4.65,10.96,7.53c3.52,3.01,6.59,6.44,9.34,10.16
		C246.62,92.05,250.42,98.69,255.36,104.41z M258.47,98.82c0.64,0.51,1.35,0.96,2.06,1.31c1.17,0.61,2.45,1.09,3.77,1.36
		c2.55,0.56,5.21,0.36,7.64-0.65c-2.84,2.44-7,2.99-10.3,1.08C260.33,101.22,259.21,100.12,258.47,98.82z M257.93,94.92
		c4.21,2.56,8.92,4.62,13.77,5.64c-2.34,0.67-4.85,0.75-7.22,0.26c-1.27-0.24-2.46-0.65-3.61-1.24c-1.08-0.54-1.99-1.29-2.98-1.97
		c-0.29-0.88-0.39-1.94-0.04-2.79C257.89,94.87,257.91,94.9,257.93,94.92z M268.97,97.9c1.19,0.73,2.36,1.48,3.5,2.25
		c-4.99-1.39-9.76-3.2-14.23-5.9l-0.02,0c0.02-0.05,0.05-0.09,0.09-0.11c1.45-1.48,3.87,0,5.32,0.75
		C265.44,95.83,267.2,96.85,268.97,97.9z M262.52,79.25c0.67,3.65,1.46,7.21,3.06,10.6c1.19,2.53,2.71,4.87,4.49,7.01
		c-1.8-1.57-3.56-3.2-5.01-5.11c-2.02-2.63-3.69-5.99-3.61-9.38C261.45,81.26,261.79,80.09,262.52,79.25L262.52,79.25z
		 M271.44,97.66c-2.19-2.42-4.05-5.14-5.44-8.09c-1.53-3.22-2.74-6.79-2.86-10.39c0-0.18-0.16-0.26-0.32-0.26
		c0.3-0.27,0.67-0.5,1.11-0.61c0.14-0.04,0.28-0.04,0.42-0.06C265.12,85.11,267.44,91.98,271.44,97.66z M265.15,79.09
		c1.93,2.56,3.49,5.37,4.59,8.38c0.63,1.74,1.11,3.54,1.44,5.37c0.15,0.83,0.26,1.69,0.34,2.54c0.04,0.51,0.06,1.02,0.1,1.52
		C268.35,91.35,266.04,85.44,265.15,79.09z M272.28,96.19c-0.08-1.25-0.29-2.49-0.51-3.65c-0.33-1.78-0.79-3.51-1.42-5.23
		c-1.16-3.24-2.86-6.3-4.97-9.03c1.13,0.27,2.15,1.11,2.91,1.97c2.14,2.45,3.42,5.8,3.98,8.97
		C272.66,91.51,272.66,93.89,272.28,96.19z M281.61,88.73C281.61,88.73,281.59,88.73,281.61,88.73c-0.7,0.85-0.69,2.3-0.8,3.31
		c-0.42,4.31,0.04,8.95,1.58,13.09c-0.05-0.07-0.09-0.12-0.14-0.19c-1.43-2.11-2.65-4.36-3.52-6.75c-0.89-2.43-1.37-5.34,0.2-7.61
		C279.65,89.59,280.6,88.95,281.61,88.73z M283.75,91.71c0.25,2.59,0.45,5.15,0.44,7.75c0.01,1.36-0.03,2.7-0.12,4.06
		c-0.06,1.11-0.28,2.28-0.22,3.41c-0.02,0.02-0.07,0.07-0.09,0.09c-0.05-0.07-0.09-0.14-0.14-0.19c-0.85-2.25-1.59-4.54-1.97-6.94
		c-0.39-2.38-0.48-4.8-0.26-7.17c0.08-1.01,0.1-2.33,0.54-3.27c0.47-0.94,1.36-0.28,1.56,0.48
		C283.67,90.46,283.69,91.11,283.75,91.71z M286.45,103.54c0.12-0.39,0.22-0.8,0.29-1.22c0.32-1.59,0.43-3.22,0.33-4.84
		c-0.15-2.84-0.95-5.71-2.44-8.12c0.05,0.02,0.09,0.05,0.11,0.07c1.81,1.33,2.77,3.54,3.14,5.71
		C288.36,98.01,287.82,101,286.45,103.54z M284.74,102.14c0.02-1.68,0.04-3.34-0.01-5c-0.05-1.5-0.1-3-0.2-4.52
		c-0.06-0.78-0.12-1.55-0.23-2.31c-0.06-0.48-0.2-0.97-0.47-1.37c0.02,0,0.02,0.02,0.05,0.02c1.49,2.65,2.45,5.54,2.6,8.58
		c0.07,1.59-0.06,3.2-0.4,4.77c-0.17,0.76-0.39,1.49-0.65,2.21c-0.17,0.44-0.4,0.89-0.59,1.33c-0.07,0.09-0.14,0.21-0.23,0.3
		c0.05-0.53,0.04-1.06,0.06-1.57C284.7,103.78,284.73,102.97,284.74,102.14z M301.4,82.91c3.09,4.23,7.22,7.64,9.73,12.28
		c1.26,2.34,2.09,4.91,2.61,7.52c0.26,1.32,0.48,2.63,0.62,3.97c0.04,0.28,0.06,0.53,0.08,0.81c-0.71-2.52-1.51-5.02-2.71-7.36
		c-1.89-3.71-4.46-6.99-6.73-10.45C303.63,87.51,302.43,85.25,301.4,82.91z M297.6,71.67c0.68,1.28,1.4,2.51,2.19,3.71
		c4.1,6.25,9.3,11.75,12.66,18.47c1.69,3.36,2.83,6.93,3.13,10.69c0.22,2.75,0.05,5.63,0.41,8.4c-0.07-0.25-0.16-0.49-0.22-0.74
		c-0.24-0.81-0.47-1.64-0.69-2.47c-0.01-1.15-0.16-2.31-0.28-3.44c-0.17-1.48-0.38-2.96-0.71-4.39c-0.55-2.54-1.35-5.04-2.59-7.32
		c-1.24-2.3-2.9-4.3-4.61-6.25c-1.75-1.98-3.58-3.91-5.12-6.1c-0.73-1.02-1.36-2.09-1.92-3.23c-0.11-0.32-0.25-0.65-0.36-0.97
		C298.82,75.94,298.2,73.82,297.6,71.67z M337.5,119.71c-0.7-1.74-1.55-3.43-2.5-5.08c-4.16-7.17-10.34-13.17-13.48-20.95
		c-1.5-3.73-2.13-7.73-2.96-11.63c-0.31-1.46-0.66-2.91-1.08-4.35c0.49,1.14,0.94,2.29,1.34,3.45c0.8,2.29,1.42,4.65,2.13,6.96
		c0.71,2.38,1.54,4.74,2.71,6.95c1.11,2.04,2.52,3.81,4.13,5.47c1.66,1.7,3.44,3.31,4.97,5.15c1.55,1.89,2.61,4.04,3.29,6.38
		C336.78,114.58,337.09,117.14,337.5,119.71z M346.26,136.16c-4.5-1.92-8.83-4.18-12.65-7.24c-3.2-2.6-5.91-5.72-7.9-9.36
		c-2.1-3.85-3.44-8.09-4.59-12.32c-1.19-4.44-2.3-8.9-3.58-13.3c-1.33-4.53-2.83-9-4.55-13.4c-3.23-8.22-7.36-16.15-12.88-23.04
		c-3.05-3.82-6.51-7.36-10.4-10.36c3.9,2.17,7.58,4.72,10.96,7.64c5.43,4.72,10.07,10.35,13.62,16.62c-0.02,0.05-0.05,0.11,0,0.18
		c0.92,2.04,1.87,3.96,2.51,6.12c0.62,2.13,1.06,4.28,1.49,6.45c0.79,3.84,1.64,7.63,3.29,11.22c1.69,3.66,4.03,6.99,6.41,10.24
		c3.75,5.09,7.75,10.26,9.82,16.21c0.28,1.48,0.61,2.94,1.1,4.37c0.07,0.35,0.11,0.72,0.15,1.06c0,0.05,0.05,0.02,0.05,0
		c0-0.21-0.04-0.42-0.04-0.62C340.54,130.33,343.06,133.65,346.26,136.16z M340.9,134.92c-7.28-2.6-14.55-5.81-19.67-11.82
		c-1.82-2.14-3.13-4.51-4.14-7.03c0-0.02,0.02-0.07,0.02-0.09c-0.55-2.24-0.8-4.46-0.89-6.74c-0.07-2.19-0.07-4.38-0.39-6.55
		c-1.02-7.3-5.33-13.55-9.58-19.36c-2.18-2.98-4.41-5.93-6.38-9.06c-1-1.58-1.95-3.2-2.76-4.9c-0.2-0.42-0.38-0.86-0.56-1.3
		c-1.29-4.56-2.64-9.09-4.74-13.36c-1.6-3.25-3.55-6.36-6.05-8.97c-0.11-0.12-0.23-0.23-0.34-0.33c2.86,1.92,5.56,4.03,8.07,6.41
		c3.01,2.87,5.72,6.06,8.15,9.43c5.36,7.42,9.28,15.76,12.29,24.35c1.56,4.44,2.92,8.98,4.16,13.54c1.17,4.33,2.16,8.69,3.54,12.98
		c1.34,4.1,3.07,8.15,5.63,11.64c2.32,3.16,5.28,5.82,8.53,8.03c2.04,1.36,4.19,2.54,6.39,3.6
		C341.78,135.21,341.34,135.06,340.9,134.92z M216.42,166.9c1.48-0.47,2.94-0.96,4.35-1.5c8.22-3.11,15.95-7.38,24.35-10.05
		c8.35-2.65,17.06-3.87,25.48-6.24c4.07-1.13,8.01-2.58,11.81-4.39c3.64-1.71,7.14-3.68,10.65-5.64c3.57-2.03,7.1-4.12,10.77-5.99
		c3.48-1.78,7.05-3.26,10.71-4.63l0.02,0c-0.3,0.13-0.6,0.27-0.9,0.4c-7.49,3.49-13.48,9.42-20.26,14
		c-3.67,2.49-7.57,4.46-11.78,5.84c-4.49,1.47-9.13,2.36-13.76,3.3c-4.67,0.96-9.29,2.06-13.85,3.46
		c-4.63,1.42-9.21,3.03-13.79,4.62C232.42,162.77,224.56,165.44,216.42,166.9z M193.48,166.82c3,0.13,6.02-0.05,8.95-0.38
		c4.43-0.5,8.8-1.49,13.06-2.78c8.75-2.64,16.98-6.68,25.03-10.97c7.98-4.24,15.8-8.74,23.96-12.6c8.09-3.81,16.45-7.12,25.15-9.26
		c4.23-1.04,8.55-1.82,12.91-2.25c3.62-0.35,7.27-0.38,10.89-0.2c-0.49,0.16-0.95,0.31-1.44,0.49c-7.59,2.75-14.54,6.96-21.59,10.85
		c-3.53,1.94-7.08,3.82-10.76,5.41c-3.89,1.69-7.97,2.93-12.08,3.97c-8.42,2.12-17.03,3.4-25.23,6.31
		c-8.2,2.9-15.85,7.18-24.09,10.01c-3.24,1.12-6.57,1.98-9.94,2.45c-4.71,0.29-9.43,0.08-14.03-0.83
		C194.01,166.99,193.73,166.92,193.48,166.82z M313.38,127.81c-0.23-0.03-0.44-0.05-0.67-0.05c-8.71-0.51-17.39,0.68-25.79,2.94
		c-8.6,2.32-16.9,5.73-24.94,9.59c-8.14,3.92-16.01,8.42-24.03,12.59c-8.07,4.22-16.37,8.09-25.18,10.48
		c-4.35,1.2-8.81,2-13.33,2.32c-1.45,0.1-2.91,0.13-4.36,0.11c7.88-1.18,15.56-3.93,22.77-7.19c8.09-3.67,15.77-8.15,23.43-12.65
		c7.8-4.57,15.6-9.14,23.83-12.85c8.02-3.6,16.47-6.36,25.22-7.37C298.11,124.82,306.01,125.32,313.38,127.81z M220.28,117.16
		c0.2,0.39,0.5,0.77,0.77,1.07c0.64,0.65,1.46,1.17,2.34,1.46c1.63,0.55,3.32,0.38,4.94-0.08c-0.23,0.11-0.49,0.25-0.72,0.36
		c-1.3,0.52-2.78,0.8-4.16,0.46c-1.22-0.29-2.41-1.04-2.93-2.22C220.39,117.83,220.3,117.51,220.28,117.16z M224.63,118.18
		c1.82,0.23,3.66,0.34,5.51,0.41c-0.02,0-0.02,0.02-0.05,0.02c-0.02,0-0.02,0-0.05,0c-2.01,0.6-4.3,1.29-6.37,0.69
		c-0.87-0.26-1.7-0.71-2.31-1.36c-0.48-0.51-0.7-1.09-1-1.69c0-0.02,0-0.05,0.02-0.07c0.13,0.32,0.32,0.63,0.59,0.88
		C221.93,117.94,223.41,118.02,224.63,118.18z M226.48,117.6c-1.2-0.13-2.44-0.24-3.61-0.53c-0.71-0.17-1.58-0.73-1.76-1.45
		c0.05,0.02,0.09,0.05,0.16,0.02c1.62-0.33,3.3-0.29,4.89,0.12c1.45,0.39,2.87,1.16,4.08,2.08
		C228.97,117.81,227.72,117.73,226.48,117.6z M230.68,117.62c-2.53-2.2-6.19-3-9.47-2.37c-0.07,0.02-0.09,0.05-0.14,0.09
		c0.03-0.23,0.12-0.46,0.33-0.71c1.28-1.39,4-0.97,5.56-0.33C228.56,114.95,229.84,116.11,230.68,117.62z M241.67,118.05
		c-0.19,0.09-0.39,0.18-0.56,0.27c-0.56,0.25-1.09,0.52-1.6,0.81c-1.04,0.56-2.02,1.22-2.95,1.95c-0.93,0.73-1.82,1.55-2.61,2.44
		c-0.28,0.32-0.7,0.85-0.94,1.4c-0.09-0.3-0.15-0.62-0.13-0.95c0.09-2.07,1.77-3.55,3.55-4.36
		C238.06,118.84,239.89,118.42,241.67,118.05z M242.01,118.79c-1.26,1.25-2.54,2.48-3.96,3.58c-0.81,0.64-1.67,1.2-2.56,1.75
		c-0.46,0.27-0.93,0.54-1.42,0.79c-0.21,0.11-0.44,0.2-0.65,0.32c0.07-0.21,0.19-0.41,0.31-0.62c0.31-0.48,0.68-0.89,1.1-1.26
		c0.79-0.73,1.63-1.41,2.54-2.02c0.91-0.64,1.88-1.22,2.86-1.72c0.49-0.25,0.97-0.47,1.48-0.67
		C241.8,118.86,241.91,118.83,242.01,118.79z M242.7,118.66c-0.35,2.05-1.29,3.97-2.87,5.36c-0.84,0.73-1.81,1.32-2.86,1.7
		c-0.53,0.2-1.06,0.33-1.6,0.42c-0.46,0.09-0.92,0.08-1.36,0.22c-0.16-0.14-0.32-0.28-0.46-0.44c0.32-0.13,0.63-0.32,0.93-0.47
		c0.46-0.25,0.9-0.5,1.35-0.77c0.91-0.54,1.79-1.16,2.63-1.79C240.02,121.63,241.48,120.24,242.7,118.66z M242.57,123.98
		c-1.31,1.78-3.56,3.26-5.8,3.32c-0.74,0.01-1.5-0.18-2.14-0.53c0.3,0,0.62-0.04,0.92-0.08c0.55-0.09,1.11-0.24,1.62-0.42
		c1.13-0.4,2.16-1.01,3.04-1.83c1.54-1.44,2.55-3.38,2.81-5.46C243.95,120.52,243.65,122.52,242.57,123.98z M115.89,159.19
		c4.02-0.55,7.99-1.36,11.99-2.1c6.91-1.26,13.86-2.4,20.75-3.78c3.28-0.65,6.54-1.4,9.76-2.31c0.05-0.02,0.09-0.02,0.14-0.04
		c-2.55,1.12-5.12,2.16-7.76,3.05c-8.68,2.92-17.77,3.83-26.87,4.54C121.24,158.76,118.56,158.96,115.89,159.19z M115.47,159.23
		c0.05-0.02,0.09-0.02,0.14-0.04c0.02,0,0.05,0.02,0.07,0.02C115.61,159.21,115.54,159.23,115.47,159.23z M212.1,112.39
		c-3.68,1.02-7.31,2.2-10.88,3.52c-8.96,3.33-17.59,7.48-26.03,11.93c-8.44,4.42-16.71,9.17-25.08,13.69
		c-8.35,4.52-16.84,8.85-25.64,12.44c-3.8,1.55-7.67,2.91-11.6,4.13c4.45-2.14,8.72-4.7,12.81-7.42
		c7.09-4.72,13.74-10.01,20.62-15.03c6.97-5.09,14.25-9.82,22.22-13.24c7.85-3.39,16.18-5.6,24.57-7.22
		c4.21-0.81,8.43-1.45,12.66-2.02C207.86,112.89,209.98,112.64,212.1,112.39z M214.89,112.65c-0.16,0.11-0.35,0.23-0.51,0.34
		c-6.23,4.31-12.62,8.39-19.11,12.23c-6.52,3.85-13.18,7.46-20,10.82c-6.79,3.36-13.7,6.46-20.7,9.31
		c-6.97,2.85-14.03,5.44-21.21,7.78c-4.51,1.47-9.07,2.83-13.67,4.06c2.71-1.01,5.37-2.06,8.01-3.21
		c8.74-3.75,17.2-8.15,25.53-12.74c8.35-4.59,16.64-9.33,25.08-13.76c8.47-4.4,17.11-8.48,26.12-11.67
		C207.88,114.64,211.35,113.58,214.89,112.65z M217.18,112.07c-0.23,0.3-0.47,0.57-0.68,0.87c-5.13,6.67-10.5,13.35-17.34,18.34
		c-7.18,5.25-15.7,8.03-23.72,11.7c-3.43,1.58-6.82,3.24-10.2,4.89c-2.71,1.01-5.44,1.99-8.24,2.77
		c-6.57,1.84-13.32,3.01-20.02,4.25c-3.51,0.65-7.02,1.28-10.51,1.91c-1.92,0.35-3.86,0.67-5.78,1.04
		c5.16-1.46,10.27-3.04,15.34-4.74c7.24-2.43,14.4-5.14,21.44-8.1c7.02-2.94,13.9-6.18,20.68-9.63c6.73-3.43,13.34-7.11,19.79-11.03
		c3.25-1.97,6.46-4.01,9.64-6.09c2.86-1.88,5.72-3.79,8.44-5.83C216.39,112.27,216.79,112.16,217.18,112.07z M117.78,140.28
		c0.05-0.09,0.12-0.18,0.16-0.25c0.35-0.55,0.68-1.12,0.96-1.72c0.61-1.26,1.04-2.64,1.29-4.02c0.47-2.58,0.34-5.32-0.7-7.76
		c1.1,0.57,1.9,1.64,2.27,2.82c0.58,1.83,0.21,3.83-0.32,5.62C120.89,136.88,119.62,139.22,117.78,140.28z M118.15,126.22
		c0.12,1.48,0.01,2.79-0.67,4.14c-0.61,1.22-1.48,2.29-2.34,3.34c-1.31,1.58-2.57,3.27-3.03,5.25c-1.02-1.4-1.37-3.29-0.98-5.01
		c0.7-3.1,3.17-5.34,5.75-7.01c0.42-0.27,0.86-0.54,1.3-0.79C118.17,126.15,118.15,126.17,118.15,126.22z M118.98,126.3
		c0.69,2.57,0.96,5.22,0.46,7.84c-0.25,1.31-0.68,2.6-1.27,3.81c-0.31,0.62-0.64,1.21-1.03,1.79c-0.23,0.34-0.54,0.66-0.75,1.03
		c-0.62,0.11-1.29,0.08-2-0.16c-0.64-0.21-1.22-0.57-1.67-0.99c0.35-2.58,2.38-4.61,3.93-6.57c1.38-1.76,3.07-4.6,1.92-6.9
		c0.02,0,0.02,0.02,0.05,0.02C118.75,126.22,118.86,126.27,118.98,126.3z M76.43,130.68c-10.91,4.81-21.6,10.13-32.11,15.8
		c-7.26,3.91-14.48,7.93-21.56,12.18c3.85-4.2,7.98-8.12,12.35-11.76c5.38-4.5,11.19-8.47,17.29-11.96
		c6.08-3.46,12.48-6.48,19.05-8.92c6.62-2.46,13.47-4.3,20.4-5.56c5.34-0.98,10.69-1.52,16.09-1.82
		C97.26,122.11,86.72,126.16,76.43,130.68z M95.93,131.59c-2.18,2.83-4.06,5.93-6.26,8.71c-1.75,2.24-3.74,4.25-6.06,5.88
		c-2.42,1.7-5.11,2.99-7.91,3.97c-5.9,2.08-12.2,2.63-18.41,2.9c-6.64,0.27-13.31,0.26-19.89,1.3c-1.96,0.3-3.95,0.72-5.92,1.25
		c17.5-9.99,35.38-19.29,54.01-26.97c6.05-2.49,12.18-4.8,18.36-6.92C100.67,124.48,98.07,128.07,95.93,131.59z M84.63,150.14
		c-0.58,0.39-1.18,0.75-1.76,1.09c-2.34,1.43-4.85,2.62-7.4,3.61c-9.29,3.54-19.53,4.41-29.4,4.09c-5.67-0.18-11.4-0.77-17.06-0.1
		c-1.57,0.19-3.12,0.5-4.64,0.89c0.46-0.27,0.95-0.54,1.42-0.81c1.58-0.79,3.2-1.49,4.89-2.04c3.19-1.05,6.54-1.7,9.89-2.1
		c12.61-1.49,25.8,0.22,37.76-4.95c2.62-1.15,5.13-2.59,7.31-4.44c2.1-1.75,3.85-3.83,5.46-6.05c0.87-1.21,1.71-2.45,2.55-3.68
		C90.85,140.67,88.3,145.8,84.63,150.14z M18.39,163.66c0.05-0.07,0.09-0.11,0.14-0.18c0.46-0.29,0.93-0.59,1.44-0.84
		c1.25-0.65,2.6-1.17,3.94-1.59c2.82-0.89,5.78-1.32,8.73-1.49c5.68-0.33,11.34,0.24,17.01,0.24c5.07-0.01,10.15-0.37,15.16-1.28
		c4.81-0.87,9.55-2.29,13.98-4.38c1.51-0.72,2.97-1.51,4.39-2.39c-0.16,0.18-0.3,0.37-0.49,0.52c-5.18,5.15-12.15,8.05-19.2,9.51
		c-7.74,1.62-15.7,1.62-23.58,1.42c-4.4-0.1-8.81-0.24-13.21-0.13c-2.21,0.07-4.41,0.18-6.6,0.39
		C19.55,163.52,18.97,163.58,18.39,163.66z M16.61,162.47c4.12-5.53,8.56-10.76,13.55-15.55c5.34-5.1,11.18-9.65,17.45-13.57
		c6.55-4.1,13.57-7.5,20.87-10.07c7.78-2.75,15.87-4.62,24.07-5.54c6.46-0.73,12.97-0.84,19.44-0.4c-0.72,0.18-1.43,0.4-2.13,0.67
		c-0.12,0.04-0.23,0.09-0.35,0.16c-6.83,0.15-13.68,0.95-20.39,2.31c-6.91,1.4-13.67,3.42-20.27,5.9
		c-6.65,2.48-13.02,5.59-19.13,9.21c-6.08,3.6-11.92,7.7-17.32,12.28c-4.63,3.94-8.95,8.27-12.94,12.86
		C18.54,161.29,17.56,161.86,16.61,162.47z"/>
	<path class="st0" d="M177.42,78.17c0.67,0.15,1.33,0.34,1.95,0.6c1.47,0.57,2.82,1.42,3.98,2.47c0.36,0.35,0.24,1.02-0.31,1.08
		c-0.05,0-0.09,0-0.14,0c-0.02,0.02-0.07,0.05-0.12,0.07c-2.68,0.73-5.65,0.14-7.92-1.43c-0.5-0.35-0.96-0.91-0.88-1.55
		c0.08-0.67,0.59-1.17,1.21-1.35C175.95,77.83,176.73,78,177.42,78.17z"/>
	<path class="st0" d="M299.04,112.06c0.11,0.49-0.47,0.78-0.86,0.64c-0.41-0.17-0.78-0.35-1.17-0.59c-1.01-0.43-1.95-1.13-2.72-1.88
		c-1.19-1.19-2.07-2.7-2.46-4.32c-0.09-0.35,0.12-0.83,0.56-0.71C295.69,106.09,298.27,108.75,299.04,112.06z"/>
	<path class="st0" d="M108.74,101.92c0.67,0.05,1.33,0.34,1.95,0.55c0.71,0.26,1.4,0.55,2.09,0.9c1.51,0.78,2.91,1.74,4.16,2.88
		c0.46,0.42,0.15,1.2-0.5,1.1c-0.55-0.08-1.08-0.17-1.63-0.3c-0.14,0-0.25-0.03-0.39-0.05c-0.05,0-0.12,0-0.16,0
		c-0.02,0-0.05-0.02-0.09-0.02c-0.9-0.1-1.79-0.32-2.62-0.61c-0.76-0.24-1.47-0.55-2.18-0.9c-0.64-0.33-1.35-0.66-1.88-1.17
		c-0.5-0.49-0.79-1.23-0.35-1.85C107.52,101.96,108.14,101.85,108.74,101.92z"/>
	<path class="st0" d="M323.49,133.25c0.41,0.37,1.03,0.84,1.11,1.42c0.11,0.69-0.47,1.15-1.1,1.12c-0.53-0.03-1.08-0.31-1.56-0.52
		c-0.48-0.24-0.94-0.49-1.37-0.8c-0.39-0.17-0.76-0.38-1.12-0.61c-1.14-0.75-2.01-1.82-2.62-3.05c-0.18-0.37,0.22-0.85,0.61-0.75
		C319.67,130.6,321.8,131.68,323.49,133.25z"/>
</g>
</svg>
