<?xml version="1.0" encoding="utf-8"?>
<!-- Generator: Adobe Illustrator 28.0.0, SVG Export Plug-In . SVG Version: 6.00 Build 0)  -->
<svg version="1.1" id="Calque_1" xmlns="http://www.w3.org/2000/svg" xmlns:xlink="http://www.w3.org/1999/xlink" x="0px" y="0px"
	 viewBox="0 0 200 400" style="enable-background:new 0 0 200 400;" xml:space="preserve">
<style type="text/css">
	.st0{fill:#FFFFFF;}
	.st1{fill:#605D7C;}
</style>
<line class="st0" x1="-127.52" y1="-10.03" x2="372.48" y2="-10.03"/>
<g>
	<path class="st1" d="M89.9,27.76c-0.03,0.02-0.07,0.05-0.08,0.08c-0.03,0.03-0.07,0.07-0.08,0.1c-0.07,0.1-0.1,0.2-0.11,0.31
		c-0.02,0.2,0.03,0.39,0.15,0.55c0.07,0.1,0.16,0.16,0.26,0.21c0.02,0.02,0.05,0.02,0.07,0.03c0.07,0.02,0.11,0.03,0.18,0.03
		c0.08,0,0.16-0.02,0.24-0.03c0.24,0.55,0.54,1.07,0.81,1.59c0.49,0.91,1.01,1.82,1.55,2.72c1.04,1.74,2.16,3.43,3.4,5.04
		c0.03,0.24,0.08,0.5,0.11,0.75c0.5,3.22,1.02,6.43,1.64,9.61c0.24,1.25,0.54,2.51,0.83,3.76c-0.72-1.63-1.48-3.22-2.23-4.81
		l-1.42-3.01c-0.23-0.49-0.46-0.98-0.68-1.46c-0.15-0.33-0.29-0.67-0.47-0.99c0.02-0.02,0.05-0.05,0.07-0.08
		c0.08-0.13,0.11-0.23,0.15-0.37c0.02-0.11,0-0.23-0.03-0.34c-0.03-0.11-0.08-0.21-0.16-0.31c-0.1-0.1-0.2-0.18-0.33-0.23
		c-0.07-0.03-0.13-0.05-0.2-0.05c-0.03,0-0.07-0.02-0.1-0.02c-0.07,0-0.13,0-0.2,0c-0.1,0.02-0.2,0.07-0.28,0.13
		c0.03-0.02,0.07-0.03,0.1-0.07c-0.05,0.03-0.11,0.05-0.15,0.1c-0.05,0.03-0.08,0.08-0.11,0.13c-0.02,0.03-0.02,0.05-0.03,0.08
		c-0.05,0.05-0.08,0.11-0.11,0.18c-0.03,0.07-0.05,0.13-0.05,0.21c-0.02,0.07-0.02,0.13,0,0.2c0.02,0.13,0.07,0.24,0.13,0.34
		c0.05,0.08,0.13,0.15,0.2,0.21c0.11,0.08,0.21,0.11,0.36,0.15c0.05,0.02,0.1,0.02,0.15,0.02c0.03,0,0.05,0,0.08,0
		c0.11,0.29,0.26,0.57,0.39,0.85c0.23,0.49,0.46,0.98,0.68,1.46c0.49,1.02,0.98,2.07,1.45,3.09c0.94,2,1.87,4.03,2.9,5.99
		c-0.11,4.75-0.1,9.52,0,14.28c0.18,8.44,0.63,16.88,1.38,25.29c-2.96-15.29-7.24-30.39-13.39-44.67c-1.02-2.37-2.13-4.7-3.25-7.03
		c-0.26-0.54-1.09-0.18-0.85,0.36C87.68,52.9,91.6,64.05,94.72,75.4c-0.44-1.29-0.88-2.57-1.35-3.84c-1.4-3.77-2.96-7.48-4.81-11.04
		c-3.35-6.47-7.55-12.49-12.82-17.55c-1.45-1.4-2.99-2.68-4.59-3.92c-0.78-0.6-1.58-1.17-2.39-1.72c-0.85-0.57-1.68-1.2-2.64-1.56
		c-0.44-0.16-0.78,0.41-0.41,0.72c0.11,0.1,0.24,0.18,0.36,0.26c0,0.05,0.02,0.1,0.07,0.13c0.07,0.07,0.11,0.13,0.18,0.2
		c0.78,1.64,1.72,3.24,2.6,4.85l2.91,5.34c1.72,3.17,3.46,6.36,5.25,9.5c3.51,6.18,7.3,12.25,11.76,17.81
		c2.37,2.96,4.96,5.77,7.74,8.36c0,0.02,0.02,0.02,0.02,0.03c0.02,0.03,0.03,0.08,0.03,0.11c0,0.02,0.02,0.02,0.02,0.02
		c0.03,0.1,0.07,0.18,0.11,0.28c0.78,3.25,1.5,6.51,2.15,9.79c0,0,0,0,0,0.02l0,0c0.5,2.55,0.98,5.11,1.42,7.68
		c2.02,11.94,3.29,23.99,4.03,36.06c-0.63-7.55-2.11-15.06-4.38-22.27c-2.73-8.69-6.7-17.06-12.05-24.45
		c-1.48-2.03-3.06-4-4.73-5.87c-0.85-0.94-1.69-1.85-2.57-2.75c-0.88-0.89-1.74-1.81-2.72-2.57c-0.41-0.33-1.02,0.28-0.65,0.65
		c0.08,0.08,0.16,0.16,0.24,0.24c0.03,0.1,0.07,0.18,0.11,0.28c0.13,1.06,0.39,2.1,0.63,3.14c0.28,1.2,0.57,2.39,0.88,3.58
		c0.62,2.42,1.33,4.81,2.1,7.19c1.53,4.73,3.33,9.39,5.37,13.92c3.92,8.77,8.95,16.98,13.09,25.64c2,4.18,3.74,8.47,5.11,12.9
		c0.05,0.26,0.08,0.54,0.11,0.8c0.2,4.93,0.31,9.86,0.37,14.79c0.02,1.01,0,2.03,0.02,3.04c-1.72-5.09-4.07-9.97-6.9-14.54
		c-0.46-0.75-0.93-1.48-1.42-2.2c-0.93-2.68-1.97-5.32-2.9-8c-0.49-1.43-0.98-2.86-1.43-4.29c-0.23-0.72-0.46-1.43-0.68-2.16
		c-0.11-0.37-0.21-0.8-0.34-1.2c0.11-0.07,0.21-0.15,0.29-0.24c0.29-0.31,0.36-0.78,0.2-1.15c-0.16-0.39-0.55-0.72-0.99-0.75
		c-0.05,0-0.08,0.02-0.13,0.02s-0.11-0.02-0.16,0c-0.39,0.03-0.72,0.29-0.88,0.63c-0.15,0.31-0.15,0.72,0,1.04
		c0.16,0.36,0.5,0.63,0.91,0.65c0.08,0,0.15,0,0.23-0.02c0.1,0.37,0.24,0.73,0.34,1.06c0.23,0.75,0.47,1.5,0.72,2.24
		c0.47,1.43,0.94,2.86,1.45,4.29c0.76,2.18,1.53,4.36,2.42,6.49c-1.19-1.71-2.42-3.37-3.72-4.96c-0.24-0.46-0.55-0.89-0.81-1.32
		c-0.42-0.68-0.85-1.37-1.25-2.07c-0.8-1.33-1.55-2.68-2.28-4.05c-1.46-2.73-2.81-5.53-4.05-8.38c-0.59-1.35-1.11-2.73-1.74-4.05
		c0.13-0.11,0.26-0.24,0.34-0.41c0.15-0.26,0.15-0.59,0.05-0.88c-0.1-0.26-0.34-0.47-0.6-0.59c-0.28-0.11-0.57-0.11-0.85-0.02
		c-0.26,0.08-0.49,0.33-0.59,0.59c-0.23,0.54,0,1.25,0.57,1.46c0.15,0.05,0.29,0.08,0.44,0.07c0.07,0,0.13,0,0.18-0.02
		c0.36,1.17,0.81,2.29,1.3,3.43c0.62,1.45,1.27,2.9,1.95,4.31c1.35,2.81,2.81,5.56,4.41,8.25c0.16,0.28,0.34,0.57,0.52,0.85
		c-1.02-1.12-2.07-2.23-3.16-3.3c-2.18-2.15-4.47-4.23-6.99-5.97c0.08-0.23,0.07-0.47-0.02-0.7c-0.07-0.2-0.21-0.37-0.37-0.5
		c-0.36-0.28-0.86-0.33-1.22-0.05c-0.31,0.23-0.42,0.63-0.37,0.99c0.02,0.08,0.03,0.15,0.05,0.21c-0.02,0.03-0.03,0.07-0.03,0.08
		c0,0.1,0.02,0.18,0.07,0.26c0.23,0.33,0.65,0.44,1.02,0.37c0.18-0.03,0.34-0.1,0.49-0.2c2,1.72,4.03,3.4,5.95,5.22
		c2.26,2.15,4.41,4.44,6.41,6.83c4,4.8,7.35,10.1,10.1,15.7c1.32,2.72,2.49,5.5,3.51,8.33c0.08,19.63-0.8,39.25-1.68,58.85
		c-0.02,0.55-0.05,1.11-0.07,1.64c-0.24-1.12-0.52-2.23-0.78-3.33c0.02-0.07,0.02-0.15-0.02-0.23c-0.03-0.07-0.07-0.15-0.1-0.21
		c-0.42-1.81-0.88-3.61-1.33-5.42c-0.36-1.82-0.73-3.64-0.96-5.5c-0.31-2.42-0.47-4.85-0.6-7.29c-0.24-4.8-0.28-9.61-0.68-14.41
		c-0.78-9.21-2.81-18.3-6.03-26.95c-1.06-2.83-2.26-5.61-3.56-8.33c-0.7-1.69-1.5-3.33-2.47-4.86c0-0.02-0.02-0.02-0.02-0.02
		c-0.08-0.15-0.15-0.29-0.23-0.42c0-0.05,0.02-0.1,0.02-0.15c0.03-0.16-0.11-0.26-0.24-0.26c-0.02-0.03-0.03-0.05-0.05-0.08
		c-0.03-0.05-0.07-0.08-0.1-0.11c0-0.03,0-0.08,0-0.11c0.05-0.62-0.93-0.75-0.98-0.11c-0.18,2.57-0.24,5.12-0.2,7.69
		c-0.36,2.68-0.65,5.37-0.76,8.07c-0.23,4.98,0.15,9.92,1.24,14.8c1.07,4.77,2.68,9.39,4.36,13.96c1.76,4.75,3.56,9.48,5.45,14.18
		c2.11,5.32,4.25,10.62,6.51,15.88c0.05,0.1,0.11,0.15,0.18,0.2c0.41,1.76,0.8,3.53,1.24,5.29c-0.37,8.34-0.72,16.69-0.98,25.03
		c-0.67-4.57-1.64-9.11-2.88-13.55c-0.98-3.53-2.13-6.99-3.45-10.41c-0.57-3.2-1.22-6.38-1.87-9.56c-0.36-1.79-0.73-3.58-1.09-5.37
		c-0.18-0.88-0.36-1.76-0.54-2.64c-0.13-0.63-0.24-1.25-0.42-1.85c0.02,0,0.02,0,0.03-0.02c0.18-0.1,0.34-0.21,0.46-0.37
		c0.1-0.13,0.15-0.26,0.18-0.41c0.02-0.05,0.03-0.1,0.05-0.15c0.02-0.1,0.02-0.23,0-0.33c-0.03-0.21-0.13-0.41-0.28-0.57
		c-0.15-0.16-0.33-0.29-0.52-0.36c-0.21-0.07-0.44-0.1-0.65-0.05c-0.13,0.03-0.21,0.07-0.33,0.13c-0.11,0.07-0.18,0.13-0.28,0.23
		c-0.03,0.05-0.07,0.08-0.1,0.13c-0.05,0.08-0.1,0.18-0.13,0.26c-0.07,0.2-0.1,0.39-0.08,0.6c0.02,0.2,0.1,0.37,0.2,0.55
		c0.1,0.16,0.28,0.29,0.46,0.37c0.11,0.05,0.24,0.08,0.36,0.08c0.08,0.68,0.24,1.35,0.39,2.02c0.18,0.88,0.37,1.76,0.57,2.64
		c0.37,1.76,0.75,3.51,1.12,5.29c0.26,1.19,0.5,2.39,0.76,3.58c-2.08-7.09-4.31-14.14-6.49-21.21c-0.37-1.2-0.75-2.41-1.14-3.61
		c-0.26-0.83-0.5-1.68-0.81-2.49c0.08-0.03,0.18-0.07,0.26-0.11c0.34-0.21,0.57-0.62,0.62-1.01c0-0.02,0.02-0.03,0.02-0.03v-0.02
		c0-0.02,0-0.03,0.02-0.05c0.02-0.54-0.26-0.99-0.75-1.2c-0.1-0.05-0.21-0.08-0.33-0.1c-0.1-0.07-0.21-0.13-0.31-0.18
		c-0.15-0.08-0.28-0.07-0.44-0.05c-0.16,0.02-0.33,0.21-0.28,0.37c0,0.02,0.02,0.05,0.02,0.07c0,0-0.02,0-0.03,0.02
		c-0.39,0.26-0.57,0.78-0.5,1.24c0.03,0.18,0.1,0.36,0.2,0.5c0.02,0.02,0.03,0.05,0.03,0.07c0.02,0.03,0.03,0.07,0.07,0.08
		c0.05,0.07,0.11,0.15,0.18,0.2c0.21,0.2,0.47,0.29,0.73,0.29c0.18,0.68,0.39,1.37,0.59,2.03c0.33,1.09,0.67,2.18,1.01,3.29
		c0.65,2.13,1.33,4.25,1.98,6.38c1.35,4.33,2.7,8.67,4.08,13c0.52,1.63,1.06,3.24,1.59,4.83c-0.88-2.07-1.82-4.12-2.83-6.12
		c-1.64-3.27-3.45-6.44-5.5-9.48c0.29-0.23,0.42-0.6,0.37-0.98c-0.05-0.33-0.24-0.63-0.52-0.81c-0.15-0.1-0.33-0.18-0.52-0.18
		c-0.18,0-0.36,0.02-0.52,0.1c-0.15,0.08-0.28,0.18-0.37,0.33c-0.1,0.15-0.16,0.29-0.2,0.47c-0.07,0.29,0,0.62,0.18,0.86
		c0.05,0.08,0.13,0.15,0.2,0.2c0.1,0.08,0.2,0.16,0.31,0.21c0.2,0.07,0.41,0.07,0.62,0.03c3.42,5.89,6.59,11.87,9.14,18.2
		c2.67,6.62,4.75,13.47,6.2,20.46c0.46,2.16,0.81,4.34,1.12,6.54c-0.34,11.52-0.5,23.02-0.29,34.53c0.07,3.63,0.18,7.27,0.31,10.91
		c-0.1-0.31-0.2-0.6-0.29-0.89c-0.46-2-0.96-3.99-1.5-5.97c-0.23-1.37-0.42-2.73-0.57-4.12c-0.23-2.29-0.34-4.6-0.41-6.91
		c-0.15-4.57-0.15-9.16-0.63-13.71c-0.98-9.19-3.87-18.01-6.69-26.76c-1.45-4.51-2.88-9.01-4.31-13.52
		c0.02-0.08,0.03-0.15,0.05-0.23c0.03-0.13-0.08-0.23-0.2-0.24c-0.15-0.47-0.29-0.94-0.46-1.42c-0.13-0.39-0.57-0.36-0.78-0.11
		c-0.08,0.02-0.15,0.07-0.16,0.15c-0.18,0.81-0.16,1.71-0.23,2.54c-0.05,0.8-0.11,1.59-0.21,2.39c-0.21,1.64-0.67,3.25-0.75,4.9
		c0,0.07,0.02,0.11,0.05,0.16c-0.28,1.07-0.49,2.15-0.67,3.25c-0.23,1.56-0.34,3.12-0.34,4.7c0,1.51,0.08,3.11,0.44,4.59
		c0.02,0.08,0.08,0.1,0.15,0.07c0.2,1.61,0.49,3.22,0.86,4.81c0.99,4.26,2.49,8.38,3.94,12.49c1.55,4.38,3.09,8.73,4.64,13.11
		c1.56,4.39,3.14,8.77,4.68,13.16c-0.05,0.05-0.08,0.11-0.05,0.2c0.81,1.98,1.51,4.07,2.15,6.12c0.33,1.04,0.62,2.08,0.88,3.12
		c0.13,0.52,0.24,1.04,0.37,1.56c0.08,0.31,0.15,0.63,0.24,0.94c0.81,16.74,2.57,33.49,6.18,49.82c0.6,2.72,1.22,5.42,1.9,8.12
		c0.05,0.2,0.37,0.16,0.33-0.05c-4.8-21.42-7.08-43.35-7.78-65.28c-0.39-12.31-0.31-24.63,0.02-36.92c0.03-0.02,0.07-0.07,0.07-0.11
		c-0.02-0.16-0.03-0.34-0.05-0.5c0.07-2.29,0.13-4.6,0.21-6.9c0.02-0.02,0.02-0.03,0.03-0.05c0.33-4.49,1.11-8.91,2.18-13.27
		c4.9-8.51,9.39-17.32,12.07-26.79c2.7-9.55,3.81-19.62,3.14-29.52c-0.37-5.55-1.2-11.21-2.81-16.54c-0.2-0.65-1.32-0.34-1.15,0.33
		c0.15,0.63,0.31,1.27,0.46,1.89c-0.08,0.18-0.16,0.37-0.26,0.55c-0.05,0.05-0.08,0.1-0.1,0.18c0,0.03-0.02,0.05-0.02,0.08
		c-1.77,3.9-3.11,8.02-4.21,12.17c-1.29,4.83-2.24,9.76-3.01,14.7c-0.8,5.04-1.43,10.12-2.1,15.19c-0.72,5.42-1.43,10.83-2.15,16.25
		c-0.41,3.04-0.81,6.07-1.22,9.11c-0.11,0.85-0.23,1.71-0.34,2.55c0.13-3.14,0.26-6.26,0.41-9.4c0.96-21.24,2.07-42.47,2.11-63.75
		c0-2.31,0-4.64-0.03-6.95c0.07-0.03,0.13-0.08,0.15-0.16c0.16-3.29,0.31-6.57,0.37-9.86c0.03-1.61,0.08-3.24,0.1-4.85
		c0.02-0.85,0.03-1.68,0.03-2.52c0-0.42,0.02-0.85,0.02-1.25c0-0.08,0-0.16,0-0.24c2.18-5.08,4.07-10.26,5.64-15.55
		c1.72-5.82,3.09-11.74,4-17.75c0.93-6,1.4-12.07,1.42-18.15c0.02-5.99-0.49-11.94-1.55-17.83c-0.98-5.43-2.44-10.78-4.39-15.96
		c-0.2-0.85-0.37-1.71-0.59-2.55c-0.16-0.7-0.34-1.38-0.5-2.08c-0.07-0.26-0.23-0.41-0.42-0.46c-0.02-0.05-0.05-0.1-0.07-0.13
		c-0.03-0.05-0.07-0.1-0.11-0.13c-0.13-0.28-0.28-0.57-0.41-0.85c-0.15-0.31-0.63-0.26-0.67,0.1c-0.05,0.49-0.07,0.98-0.05,1.48
		c-0.02,0.03-0.02,0.05-0.02,0.08c0,0.11,0.02,0.21,0.05,0.31c0,0.03,0,0.07,0.02,0.11c-0.07,0.08-0.1,0.2-0.08,0.33
		c0.02,0.28,0.05,0.55,0.07,0.83c-0.05,0.05-0.08,0.11-0.07,0.2c0.05,0.24,0.08,0.47,0.13,0.72c0.16,2.33,0.28,4.67,0.24,7.01
		c-0.02,2.85-0.18,5.69-0.37,8.52c-0.41,5.76-1.2,11.48-2.02,17.19c-1.45,10.31-3.09,20.64-3.27,31.05
		c-0.42-3.94-0.91-7.86-1.48-11.78c-0.39-2.65-0.81-5.3-1.27-7.94c-0.41-3.86-0.76-7.71-1.06-11.57c-0.85-11.58-1.07-23.2-0.7-34.81
		c0.1-3.24,0.23-6.46,0.42-9.69c0.1-1.64,0.18-3.29,0.29-4.93c0.08-1.22,0.16-2.44,0.18-3.66c0.02,0,0.05,0,0.07,0
		c0.15-0.03,0.28-0.08,0.39-0.18c0.11-0.1,0.2-0.21,0.28-0.34c0.05-0.1,0.08-0.21,0.1-0.33c0-0.02,0-0.02,0-0.03
		c0-0.03,0.02-0.07,0.03-0.08c0-0.03,0.02-0.07,0.02-0.1c0-0.1,0-0.21-0.02-0.31c-0.03-0.15-0.08-0.26-0.18-0.39
		c-0.03-0.05-0.08-0.1-0.13-0.15c-0.03-0.03-0.05-0.05-0.08-0.07c-0.13-0.08-0.26-0.15-0.42-0.15c-0.08,0-0.15,0-0.23,0.02
		c-0.07,0.02-0.13,0.03-0.18,0.07c-0.15-0.02-0.26,0.07-0.31,0.2c-0.07,0.05-0.13,0.1-0.16,0.16c-0.05,0.07-0.08,0.15-0.11,0.21
		c-0.13,0.18-0.2,0.44-0.15,0.65c0.05,0.26,0.2,0.5,0.42,0.63c0.08,0.05,0.15,0.08,0.24,0.11c-0.39,2.54-0.5,5.14-0.65,7.69
		c-0.18,2.88-0.31,5.76-0.41,8.64c-0.02,0.37-0.02,0.75-0.03,1.12c-0.41-2.46-0.81-4.91-1.22-7.37c-0.52-3.2-0.96-6.43-1.37-9.66
		c-0.11-0.88-0.23-1.76-0.33-2.64c-0.07-0.47-0.08-0.99-0.16-1.5c0.16-0.08,0.29-0.21,0.36-0.39c0.05-0.11,0.07-0.24,0.05-0.37
		c0-0.07,0-0.15,0-0.21c-0.03-0.13-0.08-0.26-0.16-0.36c-0.2-0.21-0.47-0.31-0.76-0.28c-0.15,0.02-0.26,0.08-0.39,0.15
		c-0.07,0.05-0.13,0.1-0.18,0.18c-0.1,0.1-0.18,0.2-0.21,0.33c-0.02,0.07-0.05,0.15-0.05,0.21c0,0.13,0,0.21,0.05,0.33
		c0.03,0.07,0.07,0.13,0.11,0.18c0.02,0.02,0.03,0.03,0.03,0.05c0.03,0.03,0.07,0.07,0.1,0.1c0.03,0.03,0.08,0.05,0.11,0.07
		c0.07,0.03,0.13,0.05,0.2,0.07h0.02c0.02,0,0.02,0.02,0.03,0.02c0.03,0.34,0.08,0.7,0.11,1.02c0.1,0.8,0.2,1.58,0.29,2.37
		c0.15,1.17,0.33,2.34,0.49,3.51c-0.99-1.56-1.97-3.14-2.91-4.75c-0.5-0.85-0.98-1.71-1.45-2.57c-0.29-0.54-0.57-1.11-0.88-1.64
		c0.03-0.03,0.05-0.08,0.08-0.13c0.02-0.02,0.02-0.05,0.02-0.07c0.02-0.05,0.03-0.11,0.03-0.16c0.02-0.2-0.03-0.37-0.13-0.52
		c-0.11-0.16-0.29-0.26-0.49-0.28C90.26,27.58,90.07,27.64,89.9,27.76z M95.44,80.21c-3.16-5.4-6.43-10.74-9.78-16.02
		C81.85,58.21,78.01,52.25,74,46.41c-0.81-1.19-1.63-2.36-2.46-3.55c1.02,1.17,2.02,2.36,3.01,3.56c2.67,3.29,5.22,6.69,7.61,10.18
		c4.81,7.01,9.03,14.43,12.61,22.14C95,79.25,95.21,79.74,95.44,80.21z M68.11,38c0.7,0.46,1.38,0.91,2.07,1.4
		c1.43,1.02,2.8,2.16,4.1,3.35c2.6,2.36,4.94,4.98,7.08,7.76c4.64,6.07,8.2,12.9,11,19.99c0.93,2.37,1.77,4.78,2.57,7.21
		c-1.42-3.07-2.94-6.08-4.57-9.06c-4.12-7.5-8.85-14.67-14.2-21.36c-2.47-3.11-5.06-6.13-7.82-9C68.25,38.2,68.17,38.1,68.11,38z
		 M83.89,66.49c-3.97-5.92-7.45-12.17-10.9-18.4c-1.09-1.97-2.18-3.94-3.27-5.9c-0.62-1.11-1.2-2.23-1.82-3.33
		c0.08,0.11,0.16,0.23,0.24,0.33c0.52,0.72,1.04,1.45,1.56,2.18c1.02,1.43,2.03,2.86,3.03,4.31c2.02,2.91,4,5.84,5.99,8.78
		c3.97,5.87,7.79,11.83,11.5,17.86c1.63,2.65,3.24,5.32,4.83,8C90.85,76.11,87.19,71.41,83.89,66.49z M95.89,175.7
		c1.11,4.47,1.9,9.01,2.39,13.58c0.5,4.77,0.59,9.55,0.78,14.33c0.11,2.65,0.28,5.3,0.59,7.94c-0.02-0.03-0.02-0.08-0.03-0.11
		c0,0,0,0,0-0.02c-0.41-4.25-1.11-8.47-1.71-12.69c-0.6-4.2-1.22-8.38-1.89-12.57c-0.67-4.21-1.37-8.43-2.08-12.62
		c-0.59-3.45-1.19-6.9-2.02-10.3C93.53,167.29,94.85,171.45,95.89,175.7z M89.09,156.52c0.6,1.56,1.12,3.16,1.59,4.78
		c1.04,3.64,1.77,7.37,2.49,11.09c1.61,8.3,2.85,16.66,4.07,25c0.34,2.33,0.68,4.67,1.01,6.99c0.08,0.62,0.18,1.24,0.26,1.85
		c-0.93-3.22-1.74-6.46-2.42-9.74c-0.76-3.72-1.38-7.47-1.97-11.22c-1.15-7.48-2.1-15-3.66-22.41c-0.52-2.49-1.15-4.96-1.87-7.38
		C88.75,155.8,88.93,156.16,89.09,156.52z M86.8,152.34c2.31,6.72,3.81,13.73,4.94,20.72c1.22,7.48,2.15,15.01,3.68,22.43
		c0.18,0.89,0.37,1.81,0.59,2.7c-2.75-9.92-5.42-19.88-7.19-30.03c-0.52-3.01-0.98-6.02-1.33-9.06
		C87.2,156.88,87.04,154.6,86.8,152.34z M96.87,209.55c-1.89-4.68-3.71-9.39-5.47-14.1c-1.71-4.59-3.4-9.19-4.62-13.94
		c-1.22-4.81-1.82-9.73-1.74-14.69c0.03-2.07,0.16-4.13,0.36-6.18c0.33,5.79,1.14,11.55,2.31,17.21c1.94,9.45,4.75,18.64,7.95,27.73
		c1.12,3.16,2.28,6.3,3.46,9.43C98.36,213.19,97.6,211.37,96.87,209.55z M92.3,193.48c-2.75-9.16-4.85-18.51-5.69-28.06
		c-0.28-3.14-0.42-6.3-0.41-9.47c0.07,0.75,0.13,1.5,0.21,2.23c0.29,2.73,0.67,5.45,1.11,8.17c0.89,5.37,2.05,10.7,3.37,15.99
		c2.65,10.64,5.9,21.13,8.8,31.7c0.42,1.53,0.81,3.06,1.22,4.59C97.91,210.28,94.83,201.97,92.3,193.48z M91.08,242.32
		c1.45,4.41,2.93,8.8,4.21,13.26c1.29,4.44,2.36,8.95,2.96,13.53c0.6,4.54,0.65,9.13,0.8,13.7c0.08,2.57,0.2,5.12,0.46,7.68
		c0.03,0.28,0.07,0.55,0.08,0.85c-0.05-0.16-0.1-0.31-0.13-0.47c-0.33-3.43-0.81-6.86-1.32-10.28c-0.59-4.07-1.24-8.12-1.95-12.17
		c-1.43-8.08-3.07-16.14-4.99-24.12c-0.55-2.28-1.12-4.55-1.71-6.82C90.02,239.12,90.56,240.73,91.08,242.32z M93.09,255.14
		c1.77,7.95,3.22,15.99,4.41,24.06c0.46,3.09,0.83,6.18,1.24,9.29c-1.01-3.46-2.05-6.93-3.07-10.39
		c-2.96-9.89-5.73-19.86-7.08-30.11c-0.37-2.88-0.63-5.77-0.75-8.67c-0.07-1.48-0.07-2.94-0.08-4.42c0-0.23,0-0.46,0-0.68
		C89.71,241.14,91.53,248.11,93.09,255.14z M91.06,270.02c-2.96-8.17-6.28-16.59-5.76-25.44c0.21-3.51,0.96-6.91,1.77-10.31
		c-0.07,1.38-0.08,2.75-0.05,4.12c0.05,2.55,0.23,5.11,0.49,7.65c0.55,5.16,1.51,10.26,2.7,15.31c2.36,10.04,5.6,19.84,8.47,29.73
		c0.05,0.18,0.1,0.36,0.15,0.52C96.23,284.42,93.66,277.21,91.06,270.02z M118.57,176.09c0.42,2.41,0.76,4.83,0.99,7.27
		c0.46,4.88,0.52,9.79,0.15,14.69c-0.76,9.99-3.35,19.67-7.42,28.79c-1.85,4.16-3.94,8.21-6.02,12.26c0.07-0.26,0.13-0.5,0.21-0.76
		c1.5-5.32,3.37-10.54,5.11-15.78c1.76-5.29,3.4-10.64,4.49-16.1c1.14-5.74,1.77-11.58,2.05-17.44c0.23-4.94,0.24-9.92,0.07-14.87
		C118.32,174.8,118.45,175.44,118.57,176.09z M106.3,231.95c0.68-5.42,1.35-10.83,2.05-16.25c1.27-10.02,2.37-20.12,4.68-29.96
		c0.88-3.74,2-7.42,3.32-11.01c-1.42,7.79-1.56,15.76-2.33,23.63c-0.88,9.01-2.67,17.89-4.88,26.66c-1.2,4.75-2.51,9.48-3.76,14.23
		C105.7,236.79,105.99,234.37,106.3,231.95z M105.29,240.05c0.03,0,0.07,0,0.08-0.05c2.54-8.73,4.96-17.52,6.8-26.43
		c0.91-4.44,1.69-8.91,2.2-13.42c0.5-4.51,0.81-9.03,1.22-13.53c0.41-4.55,0.94-9.11,1.89-13.6c0.05,1.66,0.1,3.33,0.11,4.99
		c0.05,2.98,0.02,5.95-0.08,8.93c-0.2,5.82-0.72,11.65-1.72,17.39c-0.98,5.6-2.52,11.04-4.28,16.43
		c-1.71,5.24-3.56,10.43-5.11,15.71c-0.46,1.58-0.88,3.16-1.27,4.75C105.2,240.83,105.24,240.44,105.29,240.05z M82.02,84.35
		c1.5,1.63,2.91,3.33,4.26,5.09c2.7,3.53,5.09,7.3,7.19,11.22c4.51,8.41,7.42,17.63,9.09,27.02c0.75,4.15,1.22,8.31,1.55,12.51
		c-0.15-0.8-0.29-1.58-0.46-2.37c-1.06-5.08-2.41-10.09-3.95-15.03c-1.56-5.01-3.37-9.92-5.43-14.74
		c-2.05-4.78-4.34-9.47-6.88-14.04c-2.13-3.84-4.39-7.69-6.96-11.29C80.96,83.26,81.5,83.79,82.02,84.35z M105.68,136.95
		c0.02,0.11,0.03,0.21,0.07,0.33c0,0.16,0,0.34-0.02,0.5C105.72,137.5,105.7,137.23,105.68,136.95z M101.01,135.24
		c-1.98-4.31-4.21-8.51-6.46-12.69c-2.29-4.26-4.59-8.54-6.59-12.95c-2.05-4.54-3.87-9.17-5.4-13.92c-0.86-2.68-1.66-5.38-2.37-8.1
		c-0.36-1.38-0.72-2.77-1.02-4.15c-0.02-0.1-0.05-0.21-0.07-0.31c0.46,0.88,0.91,1.74,1.37,2.62c1.04,2.05,2.03,4.15,3.03,6.23
		c1.95,4.12,3.82,8.28,5.64,12.46c3.64,8.39,7.03,16.88,10.07,25.51c0.68,1.95,1.38,3.89,2.07,5.84
		C101.18,135.6,101.1,135.42,101.01,135.24z M103.36,140.77c-0.99-3.22-2.05-6.41-3.19-9.58c-1.55-4.28-3.17-8.54-4.83-12.79
		c-3.32-8.52-6.9-16.93-10.72-25.25c-1.07-2.33-2.18-4.64-3.27-6.96c-0.33-0.7-0.65-1.4-0.98-2.1c1.89,2.9,3.71,5.82,5.43,8.8
		c2.59,4.47,4.94,9.06,7.08,13.76c4.26,9.43,7.63,19.28,9.91,29.36c0.54,2.36,1.01,4.75,1.43,7.12
		C103.96,142.37,103.67,141.57,103.36,140.77z M104.77,143.95c-0.02-0.05-0.02-0.1-0.03-0.16c-0.02-0.49-0.03-0.98-0.05-1.45
		C104.72,142.87,104.76,143.41,104.77,143.95z M115.35,71.2c1.22,5.81,1.87,11.73,2.08,17.67c0.23,6.03-0.11,12.07-0.93,18.04
		c-0.81,6.02-2.07,11.97-3.69,17.81c-1.61,5.74-3.59,11.34-5.76,16.88c0-0.02,0-0.02-0.02-0.03c-0.03-0.07-0.08-0.11-0.13-0.15
		c0.05-0.76,0.11-1.53,0.18-2.28c1.4-5.04,2.7-10.13,3.87-15.24c1.32-5.74,2.46-11.52,3.29-17.34c0.83-5.77,1.35-11.61,1.46-17.45
		c0.11-5.79-0.16-11.6-0.85-17.36c-0.26-2.11-0.59-4.23-0.94-6.34C114.47,67.31,114.94,69.25,115.35,71.2z M110.64,55.67
		c0.34,0.85,0.67,1.69,0.98,2.55c0.24,1.01,0.47,2.02,0.68,3.03c0.59,2.83,1.09,5.69,1.5,8.57c0.8,5.68,1.22,11.42,1.3,17.14
		c0.08,5.84-0.26,11.68-0.99,17.47c-0.73,5.77-1.81,11.52-3.06,17.21c-1.14,5.21-2.49,10.36-3.79,15.53c0.1-1.09,0.2-2.16,0.31-3.25
		c0.72-6.62,1.71-13.19,2.7-19.76c0.98-6.46,1.95-12.93,2.6-19.44c0.63-6.33,0.98-12.7,0.76-19.06c-0.21-6.31-0.98-12.62-2.62-18.72
		C110.9,56.5,110.77,56.08,110.64,55.67z M110.68,58.48c0-0.1,0-0.2,0-0.29c1.15,5.04,1.94,10.15,2.23,15.32
		c0.36,6.41,0.11,12.85-0.47,19.24c-0.59,6.46-1.5,12.87-2.46,19.28c-0.99,6.57-2.02,13.16-2.77,19.76
		c-0.28,2.44-0.5,4.88-0.68,7.34c-0.02-2.85,0.07-5.68,0.23-8.51c0.37-6.28,1.06-12.53,1.82-18.77c0.75-6.2,1.55-12.41,2.18-18.62
		c0.62-6.12,1.04-12.25,1.06-18.4C111.82,69.38,111.51,63.9,110.68,58.48z M105.5,106.53c1.2-11.37,3.37-22.61,4.51-34
		c0.33-3.3,0.57-6.64,0.65-9.95c0.36,3.38,0.55,6.77,0.59,10.17c0.08,6.18-0.29,12.36-0.86,18.51c-0.59,6.21-1.38,12.39-2.15,18.58
		c-0.78,6.23-1.51,12.48-2,18.75c-0.18,2.34-0.33,4.68-0.42,7.03c-0.13-0.83-0.26-1.64-0.37-2.47c-0.21-2.94-0.44-5.89-0.72-8.83
		C104.53,118.37,104.89,112.44,105.5,106.53z"/>
	<path class="st1" d="M81.71,312.59c0.08,0.05,0.16,0.11,0.24,0.18c0,0.05,0.02,0.11,0.05,0.16c0,0.13,0.05,0.28,0.2,0.34
		c0.2,0.1,0.41,0.2,0.6,0.29c0.16,0.11,0.31,0.23,0.47,0.34c0.21,0.16,0.42,0.34,0.63,0.52c2,1.76,3.4,4.03,4.25,6.6
		c1.19,3.63,1.3,7.48,1.76,11.24c0.85,7.11,2.81,14.18,6.85,20.19c0.81,1.2,1.72,2.37,2.7,3.48c-0.16-0.15-0.34-0.29-0.5-0.44
		c-2.94-3.07-5.66-6.3-7.86-9.95c-2.23-3.71-3.9-7.76-5.01-11.94c-0.31-1.17-0.59-2.36-0.8-3.56c-0.11-0.67-0.21-1.35-0.33-2.03
		c0.13-0.07,0.23-0.15,0.33-0.26c0.33-0.37,0.33-0.99,0.03-1.37c-0.1-0.13-0.21-0.21-0.34-0.28c-0.16-0.08-0.34-0.1-0.5-0.1
		c-0.18,0-0.36,0.08-0.5,0.2c-0.02,0.02-0.03,0.02-0.05,0.03c-0.23,0.15-0.41,0.42-0.42,0.7c-0.02,0.28,0.08,0.57,0.28,0.78
		c0.16,0.18,0.39,0.33,0.63,0.36c0.07,0.6,0.16,1.19,0.26,1.76c0.18,1.07,0.41,2.15,0.68,3.2c0.52,2.13,1.2,4.21,2.03,6.25
		c1.64,4.02,3.82,7.87,6.49,11.29c0.29,0.37,0.6,0.75,0.91,1.11c-2.72-2.64-5.29-5.43-7.66-8.39c-0.75-0.94-1.5-1.9-2.21-2.88
		c-0.54-0.7-1.06-1.42-1.61-2.11c0.11-0.15,0.2-0.34,0.2-0.52c0.02-0.24-0.05-0.46-0.18-0.67c-0.23-0.37-0.73-0.54-1.14-0.34
		c-0.18,0.08-0.33,0.23-0.42,0.39c-0.07,0.07-0.11,0.16-0.11,0.24c0,0.07,0,0.13,0.02,0.2c-0.07,0.18-0.07,0.39,0.02,0.55
		c0.08,0.21,0.26,0.36,0.44,0.47c0.16,0.1,0.39,0.11,0.57,0.08c0.03,0,0.07-0.03,0.08-0.03c0.93,1.56,2.08,3.03,3.2,4.44
		c1.37,1.71,2.78,3.37,4.28,4.98c1.79,1.94,3.69,3.81,5.64,5.58c-0.34-0.2-0.67-0.41-1.01-0.6c-3.58-2.03-7.43-3.58-11.42-4.6
		c-1.95-0.5-3.94-0.86-5.94-1.09c-0.11-0.05-0.23-0.08-0.34-0.13c-0.11-0.03-0.21,0-0.29,0.05c-0.13-0.02-0.28-0.03-0.41-0.05
		c-0.28-0.03-0.46,0.34-0.21,0.52c6.47,4.75,13.13,9.68,21.02,11.71c2.13,0.55,4.33,0.85,6.54,0.85c0.2,0.18,0.39,0.34,0.59,0.52
		c0.11,0.1,0.26,0,0.29-0.13c0.55,0.52,1.12,1.02,1.76,1.46c0.21,0.15,0.44-0.15,0.24-0.31c-0.23-0.18-0.44-0.37-0.65-0.57
		c0.05-0.05,0.05-0.13-0.02-0.18c-0.28-0.21-0.54-0.42-0.81-0.62c-0.11-0.11-0.23-0.21-0.33-0.34c0-0.08-0.02-0.16-0.11-0.23
		c-0.02-0.02-0.03-0.03-0.05-0.03c-0.2-2-0.5-3.99-0.63-5.99c-0.15-2.07-0.21-4.15-0.28-6.21c-0.13-3.86-0.26-7.74-0.91-11.55
		c-0.6-3.51-1.61-6.99-3.38-10.09c-1.71-2.99-4.13-5.48-6.9-7.53c-2.03-1.5-4.2-2.77-6.41-3.97c-0.15-0.11-0.28-0.24-0.42-0.36
		c-0.11-0.1-0.23-0.08-0.33-0.03c-0.26-0.13-0.5-0.26-0.76-0.41c-0.8-0.65-1.63-1.25-2.52-1.77
		C81.76,311.75,81.3,312.33,81.71,312.59z M97.65,352.88c-2.03-2.86-3.56-6.07-4.72-9.39c-1.24-3.55-1.98-7.25-2.46-10.98
		c-0.47-3.76-0.63-7.56-1.74-11.21c-0.34-1.12-0.8-2.26-1.37-3.33c0.57,0.72,1.11,1.46,1.59,2.23c1.97,3.07,3.35,6.49,4.41,9.99
		c2.24,7.42,3.12,15.23,6.13,22.4c0.81,1.94,1.77,3.86,2.99,5.58C100.69,356.63,99.05,354.85,97.65,352.88z M99.08,356.43
		c0.15,0.1,0.28,0.21,0.42,0.33c0.11,0.1,0.21,0.18,0.33,0.28c0.47,0.37,0.94,0.73,1.42,1.11c0.21,0.18,0.42,0.34,0.62,0.52
		c-5.87-3.51-12.1-6.49-18.43-9.04c-1.01-0.41-2.02-0.8-3.04-1.19C87.11,349.68,93.5,352.43,99.08,356.43z M82.11,351.31
		c-1.53-1.06-3.03-2.16-4.52-3.27c7.11,2.51,14.02,5.58,20.66,9.14c1.4,0.75,2.77,1.55,4.15,2.33
		C94.96,359.07,88.16,355.49,82.11,351.31z M100.48,353.1c-1.58-3.55-2.59-7.3-3.48-11.06c-1.64-6.96-2.9-14.23-6.39-20.54
		c1.14,1.79,2.13,3.68,2.98,5.61c2.94,6.73,4.41,13.97,6.38,21.02c0.54,1.9,1.11,3.79,1.76,5.66c0.59,1.68,1.22,3.37,2.02,4.96
		C102.41,357,101.36,355.06,100.48,353.1z M98.49,325.52c3.95,6.21,4.42,13.88,4.68,21.03c0.08,2.28,0.13,4.55,0.28,6.83
		c0.08,1.29,0.16,2.6,0.34,3.9c-1.48-5.99-1.97-12.15-3.06-18.22c-0.57-3.2-1.33-6.38-2.52-9.42c-1.17-2.98-2.86-5.66-4.88-8.13
		c-1.45-1.77-3.06-3.37-4.73-4.9C92.47,318.92,96.05,321.69,98.49,325.52z M92.41,321.08c2.13,2.39,3.76,5.11,4.98,8.07
		c2.55,6.16,3.22,12.82,4.18,19.36c0.36,2.42,0.76,4.85,1.33,7.22c-0.2-0.49-0.39-0.98-0.57-1.48c-0.62-1.71-1.17-3.45-1.66-5.19
		c-1.02-3.58-1.89-7.19-2.81-10.78c-1.71-6.67-3.94-13.39-8.05-19c-0.72-0.99-1.5-1.95-2.33-2.86
		C89.22,317.85,90.9,319.39,92.41,321.08z"/>
	<path class="st1" d="M112.47,363.25c0.05-1.71,0.21-3.42,0.42-5.12c0-0.16,0-0.33,0.02-0.49c0.08-2.02,0.26-4.02,0.47-6.02
		c0.44-3.97,1.11-7.92,2.02-11.81c0.44-1.82,0.96-3.61,1.5-5.4c-0.11-0.03-0.23-0.07-0.33-0.13c-0.16-0.1-0.28-0.28-0.36-0.44
		c-0.07-0.18-0.1-0.39-0.07-0.57c0.05-0.23,0.18-0.44,0.39-0.55c0.2-0.11,0.42-0.13,0.65-0.07c0.07,0.02,0.11,0.05,0.18,0.08h0.02
		c0.11,0,0.21,0.03,0.31,0.07c0.02,0,0.05,0.02,0.07,0.02c0.1,0.05,0.15,0.11,0.2,0.21c0.02,0.03,0.03,0.07,0.03,0.11
		c0.03,0.13,0.05,0.24,0.05,0.39c-0.02,0.2-0.11,0.41-0.24,0.57c-0.15,0.18-0.36,0.31-0.59,0.36c-0.02,0-0.03,0-0.05,0
		c-0.44,1.64-0.81,3.3-1.17,4.94c-0.42,1.94-0.81,3.89-1.12,5.84c-0.39,2.41-0.7,4.81-0.91,7.24c1.02-4.13,2.54-8.13,4.52-11.92
		c0.94-1.81,2.02-3.53,3.17-5.21c-0.02-0.02-0.05-0.03-0.07-0.07c-0.08-0.13-0.13-0.24-0.15-0.41c-0.02-0.15,0-0.29,0.05-0.42
		c0.05-0.16,0.18-0.28,0.33-0.37c0.02-0.02,0.03-0.03,0.05-0.05c0.02-0.02,0.05-0.02,0.07-0.03l0.02-0.02h0.02
		c0.08-0.05,0.18-0.08,0.28-0.1c0.24-0.05,0.49,0.02,0.68,0.16c0.05,0.03,0.1,0.08,0.13,0.13c0.02,0.02,0.02,0.03,0.03,0.05l0,0l0,0
		l0.02,0.02c0.05,0.07,0.07,0.13,0.1,0.18c0.07,0.15,0.1,0.31,0.08,0.47c-0.02,0.07-0.03,0.13-0.05,0.2
		c-0.02,0.03-0.02,0.07-0.02,0.1c-0.03,0.08-0.08,0.18-0.15,0.24c-0.08,0.11-0.18,0.18-0.31,0.24c-0.03,0.02-0.07,0.03-0.1,0.03
		c-0.07,0.02-0.15,0.05-0.21,0.05c-0.15,0-0.28-0.02-0.41-0.07c-0.05-0.02-0.1-0.05-0.13-0.07c-3.06,4.81-5.32,10.09-6.77,15.58
		c0.44-0.6,0.94-1.14,1.5-1.66c0.57-0.52,1.17-0.98,1.84-1.38c0.33-0.2,0.65-0.37,0.99-0.52c0.1-0.05,0.23-0.1,0.34-0.16
		c-0.05-0.34,0.07-0.72,0.34-0.93c0.29-0.23,0.72-0.21,1.02,0c0.03,0.02,0.07,0.02,0.1,0.05c0.2,0.15,0.31,0.37,0.33,0.6l0,0l0,0
		c0.02,0.21-0.03,0.46-0.16,0.63c-0.05,0.08-0.13,0.16-0.21,0.21c-0.07,0.05-0.15,0.07-0.23,0.08l0,0
		c-0.21,0.13-0.49,0.15-0.72,0.03c-0.08-0.05-0.16-0.1-0.23-0.16c-0.1,0.05-0.2,0.08-0.29,0.13c-0.33,0.18-0.65,0.36-0.98,0.57
		c-0.62,0.39-1.22,0.83-1.77,1.3c-0.83,0.73-1.56,1.59-2.2,2.51c-0.34,1.45-0.65,2.9-0.88,4.36c-0.23,1.43-0.37,2.86-0.49,4.31
		c0,0.63-0.03,1.29-0.11,1.9c0,0.11-0.02,0.24-0.02,0.36c0,0.11-0.05,0.2-0.11,0.26c-0.02,0.02-0.02,0.03-0.03,0.03
		C113,363.9,112.45,363.72,112.47,363.25z"/>
</g>
</svg>
