<?xml version="1.0" encoding="utf-8"?>
<!-- Generator: Adobe Illustrator 28.0.0, SVG Export Plug-In . SVG Version: 6.00 Build 0)  -->
<svg version="1.1" id="Calque_1" xmlns="http://www.w3.org/2000/svg" xmlns:xlink="http://www.w3.org/1999/xlink" x="0px" y="0px"
	 viewBox="0 0 200 400" style="enable-background:new 0 0 200 400;" xml:space="preserve">
<style type="text/css">
	.st0{fill:#605D7C;}
</style>
<g>
	<path class="st0" d="M89.85,85.11c1.06-0.04,2.13-0.57,2.77-1.45c0.53-0.78,0.67-1.7,0.53-2.59c0.18-1.03-0.04-2.13-0.78-2.91
		c-0.74-0.78-1.74-1.31-2.8-1.38c-1.24-0.07-2.34,0.39-3.19,1.31c-0.74,0.85-1.03,2.02-0.99,3.12c0.04,1.13,0.57,2.16,1.42,2.91
		C87.62,84.86,88.76,85.18,89.85,85.11z"/>
	<path class="st0" d="M94.04,91.88c0.21,0.18,0.46,0.25,0.71,0.28c0.18,0.04,0.35,0.04,0.53,0c0.04,0,0.04,0,0.07,0
		c0.07,0,0.14-0.07,0.21-0.11c0.04,0,0.07,0,0.11,0c0.11,0,0.21-0.04,0.32-0.11c0.21-0.07,0.35-0.21,0.5-0.39
		c0.11-0.14,0.18-0.28,0.21-0.43c0.07-0.14,0.07-0.32,0.04-0.5c-0.04-0.21-0.11-0.43-0.25-0.57c-0.04-0.04-0.07-0.11-0.14-0.14
		c-0.04-0.07-0.07-0.11-0.14-0.14l-0.04-0.04l0,0c-0.07-0.07-0.07-0.14-0.14-0.21c-0.04,0-0.04-0.04-0.07-0.04
		c-0.14-0.11-0.28-0.18-0.46-0.25c-0.25-0.11-0.53-0.14-0.78-0.11c-0.14,0.04-0.25,0.07-0.39,0.11c-0.25,0.11-0.43,0.25-0.6,0.46
		c-0.14,0.14-0.21,0.32-0.25,0.53c-0.07,0.18-0.07,0.39-0.04,0.6c0.04,0.21,0.11,0.39,0.21,0.53C93.75,91.6,93.86,91.74,94.04,91.88
		z"/>
	<path class="st0" d="M101.31,84.15c0.74,0,1.45-0.39,1.56-1.21c0.11-0.67-0.46-1.56-1.21-1.56c-0.74,0-1.45,0.39-1.56,1.21
		C99.99,83.3,100.53,84.15,101.31,84.15z"/>
	<path class="st0" d="M83.97,200.3c-0.14,1.06,0.43,2.09,1.31,2.66l0.04,0.04c0.11,0.07,0.18,0.11,0.28,0.14
		c0.07,0.04,0.11,0.04,0.18,0.07c0.04,0,0.07,0.04,0.11,0.04c0.04,0,0.07,0,0.11,0c0.18,0.04,0.32,0.07,0.5,0.07
		c1.06,0.14,2.2-0.14,2.8-1.1c0.07-0.11,0.07-0.21,0.14-0.32s0.14-0.18,0.21-0.28c0.64-1.17,0.11-2.8-1.03-3.47
		c-0.32-0.25-0.71-0.46-1.13-0.53c-0.46-0.11-0.92-0.04-1.38,0.14c-0.04,0-0.11,0-0.14,0c-0.14,0.04-0.28,0.11-0.43,0.18
		c-0.32,0.18-0.6,0.39-0.85,0.64C84.29,199.09,84.04,199.73,83.97,200.3z"/>
	<path class="st0" d="M86.03,191.72c0.21,0.04,0.46,0,0.64-0.11c0.07-0.04,0.11-0.07,0.18-0.11c0.04,0,0.07-0.04,0.07-0.04
		c0.11-0.07,0.21-0.11,0.32-0.18c0.04-0.04,0.07-0.07,0.14-0.11c0.11-0.11,0.21-0.21,0.28-0.35c0.04-0.07,0.04-0.14,0.07-0.25l0,0
		c0-0.04,0,0,0-0.11s0-0.07,0-0.11l0,0c0-0.07-0.04-0.14-0.07-0.21c-0.07-0.18-0.14-0.25-0.28-0.35c-0.04-0.04-0.07-0.07-0.14-0.11
		c-0.07-0.07-0.21-0.11-0.32-0.18c-0.04,0-0.07-0.04-0.11-0.04c-0.07-0.04-0.11-0.07-0.18-0.11c-0.21-0.07-0.43-0.11-0.67-0.07
		c-0.21,0.04-0.43,0.11-0.6,0.25c-0.18,0.14-0.32,0.32-0.39,0.53c-0.07,0.18-0.11,0.32-0.07,0.5c0,0.18,0,0.32,0.11,0.5
		c0.07,0.21,0.21,0.35,0.39,0.5C85.6,191.61,85.81,191.72,86.03,191.72z"/>
	<path class="st0" d="M94.18,195.83c-0.04-0.04-0.07-0.07-0.11-0.11l-0.04-0.04c-0.04-0.04-0.07-0.04-0.11-0.07
		c-0.07-0.07-0.14-0.11-0.25-0.11c-0.07-0.04-0.18-0.04-0.28-0.04c-0.07,0-0.11,0.04-0.18,0.04c-0.07,0.04-0.14,0.07-0.21,0.14
		c-0.04,0.04-0.07,0.07-0.11,0.14c-0.04,0.07-0.07,0.18-0.11,0.25c0,0.07,0,0.11,0,0.18c0.04,0.11,0.07,0.21,0.14,0.32
		c0.04,0.04,0.04,0.07,0.07,0.11l0.04,0.04l0.04,0.04c0.04,0.04,0.04,0.04,0.07,0.07c0.07,0.07,0.14,0.14,0.25,0.21
		c0.07,0.07,0.18,0.11,0.25,0.11c0.11,0.04,0.18,0.04,0.28,0.04c0.07,0,0.11-0.04,0.18-0.04c0.11-0.04,0.18-0.07,0.21-0.14
		c0.04-0.04,0.07-0.07,0.11-0.14c0.07-0.07,0.07-0.18,0.11-0.28c0-0.07,0-0.14,0-0.18c-0.04-0.14-0.07-0.25-0.14-0.35
		C94.32,195.97,94.25,195.9,94.18,195.83z"/>
	<path class="st0" d="M100.74,283.29c-0.57-0.5-1.42-0.67-2.13-0.53c-0.5,0.11-0.96,0.32-1.35,0.6c-0.04,0.04-0.07,0.07-0.11,0.11
		c-0.07,0.07-0.14,0.14-0.21,0.21c-0.07,0.07-0.14,0.14-0.21,0.25c-0.04,0.04-0.04,0.04-0.07,0.07c-0.04,0.04-0.04,0.11-0.07,0.18
		c-0.04,0.07-0.11,0.18-0.14,0.25c-0.07,0.11-0.11,0.25-0.14,0.35c0,0.04-0.04,0.07-0.04,0.07c0,0.04,0,0.07,0,0.07
		c-0.07,0.35-0.07,0.71,0.04,1.06c0.07,0.25,0.14,0.5,0.25,0.74c0.32,0.67,0.82,1.17,1.49,1.52c0.64,0.32,1.45,0.32,2.09,0
		c1.21-0.57,1.77-1.99,1.56-3.26C101.59,284.32,101.27,283.72,100.74,283.29z"/>
	<path class="st0" d="M104.82,292.3c-1.38,0-1.63,2.13-0.25,2.13C105.91,294.42,106.2,292.3,104.82,292.3z"/>
	<path class="st0" d="M110.38,291.48c-0.82,0-0.99,1.28-0.14,1.28C111.06,292.79,111.23,291.48,110.38,291.48z"/>
	<path class="st0" d="M178.13,322.33c-7.69-2.66-15.17-6.2-22.3-10.1c-7.2-3.94-14.04-8.51-20.49-13.54
		c-7.62-5.96-14.68-12.62-21.17-19.78c-0.85-6.1,0.6-12.23,2.27-18.12c1.81-6.45,3.4-12.87,3.94-19.57
		c1.06-13.54-0.89-27.16-4.01-40.31c-1.49-6.24-3.26-12.44-5.07-18.61c0-0.21,0.04-0.43,0.04-0.64c0-0.21-0.18-0.32-0.32-0.28
		c0-0.04-0.04-0.11-0.04-0.14c-0.18-0.6-0.32-1.24-0.53-1.81c-0.11-0.32-0.21-0.67-0.28-0.99c-0.07-0.18-0.14-0.32-0.25-0.43
		c-0.11-0.25-0.18-0.53-0.28-0.78c-0.18-0.35-0.74-0.21-0.67,0.18c0.04,0.14,0.04,0.28,0.07,0.43c-0.53,0.18-0.96,0.71-0.78,1.38
		c0.21,0.67,0.39,1.35,0.6,2.02c-0.53,6.28-2.27,12.3-4.5,18.26c-2.55,6.88-5.32,13.68-6.67,20.92
		c-2.45,13.33-0.92,27.33,4.01,39.92c0.39,0.99,0.85,1.99,1.28,2.98c-0.64-0.57-1.31-1.06-2.02-1.52c-0.14-0.11-0.32-0.11-0.5-0.04
		c-9.57-13.51-17.37-28.22-23.4-43.64c-3.4-8.69-6.2-17.55-8.62-26.55c-0.04-0.53-0.07-1.03-0.07-1.56
		c0.11-0.14,0.18-0.32,0.14-0.53c-0.07-0.57-0.11-1.13-0.18-1.7c0-1.84,0.11-3.65,0.32-5.46c0.35-0.89,0.78-1.74,1.31-2.52
		c0.11-0.14,0.14-0.28,0.18-0.39c1.6-0.85,3.3-1.52,5-2.09c4.29-1.45,8.62-2.59,12.76-4.47c8.47-3.83,16.1-9.75,20.88-17.8
		c2.23-3.72,3.79-7.8,4.57-12.05l0.04-0.04c0.14-0.18,0.14-0.35,0.07-0.5c0.11-0.64,0.18-1.24,0.25-1.88
		c0.07-0.85-0.92-1.17-1.45-0.6c-5.07,5.5-10.46,10.64-16.17,15.49c2.69-4.68,3.65-10.1,3.51-15.46c-0.07-3.4-0.64-6.77-1.38-10.1
		c-0.39-1.7-0.82-3.4-1.28-5.07c-0.35-1.24-0.64-2.55-1.1-3.76c-0.82-3.94-2.23-7.8-4.08-11.35c-0.53-1.03-1.1-2.02-1.67-2.98
		c-0.04-0.21-0.11-0.46-0.18-0.67c-0.07-0.18-0.21-0.25-0.39-0.25c-1.31-2.13-2.73-4.18-4.22-6.2c-1.24-1.67-2.52-3.3-3.83-4.89
		c-1.28-1.56-2.48-3.19-4.01-4.54c-0.07-0.18-0.11-0.39-0.14-0.57c-1.28-4.11-3.26-8.33-7.13-10.53c0-0.04-0.04-0.04-0.04-0.07
		c-0.18-0.32-0.5-0.39-0.78-0.35c-3.55-1.6-7.8-1.03-10.21,2.23c-0.67,0.92-1.17,1.95-1.56,3.01c-0.18,0-0.35,0-0.5,0.11
		c-6.1,3.76-12.44,7.8-16.34,14.04c-1.88,3.01-3.05,6.35-3.23,9.89c-0.11,1.81,0.04,3.62,0.28,5.42c-0.32-0.46-0.99-0.64-1.35-0.04
		c-6.28,10.53-6.38,23.54-0.67,34.35c0.46,0.85,0.96,1.67,1.45,2.48c-1.88-2.13-3.76-4.29-5.64-6.42
		c-3.4-3.86-6.81-7.69-10.18-11.59c-0.53-0.6-1.38-0.18-1.35,0.57c0.46,9.5,4.11,18.65,10.1,25.99c2.94,3.62,6.45,6.81,10.39,9.32
		c3.83,2.45,7.98,4.33,11.98,6.45c3.97,2.13,7.73,4.64,10.53,8.15c0.04,0.28,0.18,0.46,0.43,0.57c0.04,0.07,0.11,0.14,0.14,0.18
		c0.39,0.71,0.78,1.42,1.13,2.16c0.71,3.01,1.52,5.99,2.34,8.97c0.21,1.67,0.53,3.33,0.96,4.96c0.46,1.77,1.13,3.69,2.09,5.28
		c0.82,2.52,1.63,5.03,2.55,7.52c3.12,8.69,6.74,17.16,10.92,25.35c-0.28-0.39-0.6-0.82-0.92-1.21c-4.54-5.78-10.28-10.1-16.7-13.65
		c-6.56-3.62-13.51-6.42-20.1-10c-3.51-1.91-6.95-4.04-10.03-6.59c-1.49-1.24-2.98-2.59-4.36-4.04c-0.18-0.21-0.35-0.39-0.53-0.6
		c-1.24-1.52-2.34-3.16-3.23-4.89c-0.04-0.11-0.14-0.14-0.25-0.14c-0.11-0.28-0.5-0.46-0.82-0.32c-0.25,0.11-0.39,0.35-0.35,0.64
		c-0.14,0.07-0.25,0.25-0.11,0.39c0.11,0.18,0.25,0.32,0.35,0.46v0.04c1.24,3.37,3.3,6.45,5.07,9.57c1.74,3.08,3.51,6.2,5.28,9.29
		c3.26,5.71,6.42,11.56,10.21,16.91c1.74,2.45,3.65,4.79,5.89,6.84c2.27,2.13,4.86,3.86,7.55,5.39c5.92,3.37,12.27,6.03,18.44,8.9
		c6.17,2.91,12.34,5.81,18.54,8.69c2.06,2.84,4.4,5.71,7.27,7.66c0.11,0.07,0.21,0.11,0.32,0.14c7.34,9.18,15.49,17.73,24.5,25.28
		c6.31,5.28,13.01,10.1,20.07,14.29c6.98,4.15,14.39,7.98,22.16,10.49c1.95,0.64,3.9,1.35,5.89,1.99
		C178.35,323.53,178.77,322.54,178.13,322.33z M99.14,163.99c-3.65,3.12-7.76,5.64-12.13,7.62c-3.97,1.81-8.15,2.94-12.27,4.36
		c-1.88,0.64-3.72,1.42-5.39,2.41h-0.04c-0.07-0.14-0.18-0.25-0.32-0.35c3.05-1.17,5.99-2.66,8.83-4.22
		c3.3-1.81,6.52-3.76,9.64-5.89c6.35-4.33,12.23-9.29,17.51-14.85c2.09-2.2,4.08-4.54,5.96-6.91
		C108.89,153.07,104.64,159.28,99.14,163.99z M97.9,137.83c0,0.11,0.04,0.21,0.04,0.28c0.43,5.42-0.25,11.1-2.8,15.95
		c-1.28,2.41-2.94,4.43-4.86,6.24c-2.34,1.81-4.72,3.58-7.13,5.28c-2.73,1.7-5.57,3.23-8.26,4.82c-2.16,1.28-4.36,2.66-6.42,4.25
		c3.79-5.14,9.36-8.9,14.36-12.87c3.23-2.55,6.35-5.28,8.79-8.58c2.66-3.55,4.5-7.66,5.57-11.95C97.48,140.17,97.73,139,97.9,137.83
		z M89.96,121.31c0.25-2.52,0.39-5.07,0.43-7.62c0-0.53,0-1.1-0.04-1.63c2.48,5.03,4.18,10.49,4.25,16.17
		c0.21,13.05-9.08,22.3-17.55,31.06c2.3-3.65,4.29-7.52,6.03-11.42C86.77,139.42,89.07,130.45,89.96,121.31z M82.66,99.96
		c2.13,2.77,4.18,5.64,5.92,8.69c0.21,0.35,0.39,0.71,0.6,1.06c0.07,1.06,0.14,2.13,0.14,3.19c0.07,2.3,0,4.57-0.14,6.88
		c-0.28,4.5-0.96,8.97-2.02,13.37c-2.09,8.83-5.57,17.34-10.35,25.03c-1.06,1.74-2.23,3.4-3.44,5.03c-0.43,0.46-0.85,0.92-1.28,1.38
		c0.43-0.85,0.89-1.67,1.31-2.52c2.55-5.21,4.57-10.67,6.13-16.27c3.08-10.99,4.18-22.48,3.26-33.86c-0.25-3.23-0.71-6.45-1.31-9.64
		c-0.32-1.6-0.67-3.16-1.06-4.75c-0.04-0.21-0.11-0.43-0.14-0.64C81.03,97.94,81.84,98.93,82.66,99.96z M75.67,90.57
		c2.98,9.68,3.79,20.07,2.52,30.1c-1.21,9.5-4.43,18.54-7.52,27.55c-0.96,2.87-1.91,5.74-2.8,8.62c0.07-0.35,0.14-0.71,0.21-1.06
		c1.31-6.42,2.55-12.83,3.72-19.25c2.23-12.37,4.61-25.07,3.62-37.69c-0.39-5.21-1.35-10.71-3.37-15.63
		C73.83,85.28,74.89,88.01,75.67,90.57z M57.45,98.76c0.14-2.69,0.39-5.35,0.71-8.05c0.25-1.99,0.5-3.97,1.13-5.89
		c0.43-1.17,1.03-2.34,1.88-3.26c-0.35,3.01-0.43,6.1-0.57,9.15c-0.14,3.08-0.21,6.2-0.28,9.29c-0.11,6.35-0.18,12.66-0.11,19
		c0.14,12.59,0.78,25.14,1.91,37.65c0.25,2.77,0.53,5.57,0.82,8.33c-0.21-0.64-0.43-1.31-0.64-1.95c-0.07-0.46-0.14-0.89-0.21-1.35
		c-1.52-9.61-2.62-19.32-3.4-29.04c-0.74-9.25-0.99-18.47-1.42-27.72C57.27,102.91,57.34,100.85,57.45,98.76z M56.99,86.24
		c-0.07,0.35-0.14,0.67-0.21,1.03c-0.53,2.84-0.78,5.71-0.99,8.58c0,0.07,0,0.14,0,0.21c0,0.04-0.04,0.07-0.04,0.11
		c0,0.14,0,0.28,0,0.43c-0.32,4.54-0.5,9.11-0.18,13.65c0.11,12.44,1.03,24.89,2.48,37.23c-3.19-14.04-4.64-28.43-3.79-42.9
		c0.35-5.85,0.99-11.66,1.91-17.44c0.04-0.11,0-0.21-0.04-0.28C56.42,86.6,56.71,86.42,56.99,86.24z M54.86,87.55
		c-1.6,10.14-2.02,20.46-1.63,30.74c0.43,10.57,1.88,21.06,4.4,31.34c0.39,1.63,0.85,3.26,1.31,4.89c0.04,0.18,0.04,0.32,0.07,0.5
		c-1.1-3.23-2.2-6.49-3.23-9.75c-3.65-11.74-6.52-24-6.35-36.38c0.11-6.74,1.13-13.44,3.26-19.85
		C53.37,88.51,54.12,88.05,54.86,87.55z M40.68,101.66c2.34-5.21,6.59-8.93,11.24-12.13c-3.83,11.03-3.94,23.15-2.27,34.6
		c1.81,12.52,5.85,24.5,9.71,36.45c0.28,0.92,0.6,1.84,0.89,2.8c0.14,0.85,0.28,1.7,0.43,2.55c-0.6-1.42-1.21-2.8-1.84-4.18
		c-2.87-6.38-6.1-12.62-9.11-18.93c-3.01-6.35-5.85-12.8-7.94-19.5C39.65,116.45,37.6,108.58,40.68,101.66z M54.61,172.36
		c-0.07-0.07-0.14-0.11-0.21-0.18c-3.05-2.69-5.99-5.5-8.86-8.37c-5.64-5.64-10.85-11.63-15.63-17.97
		c-2.16-2.87-4.25-5.81-6.28-8.79C34.09,148.71,44.33,160.55,54.61,172.36z M44.05,168.42c-8.15-4.75-14.64-11.7-18.54-20.35
		c-1.84-4.04-3.05-8.33-3.62-12.73c4.29,6.7,9.04,13.08,14.15,19.22c5.11,6.17,10.49,12.05,16.31,17.55
		c0.78,0.74,1.6,1.45,2.38,2.16C51.21,172.18,47.45,170.41,44.05,168.42z M48.73,162.18c-7.09-7.91-14.04-16.56-15.21-27.51
		c-0.64-6.24,0.53-12.62,3.33-18.22c0.25,1.74,0.67,3.51,0.99,5.18c0.5,2.55,1.1,5.11,1.74,7.62c1.28,4.96,2.8,9.89,4.5,14.71
		c3.37,9.61,7.69,18.83,12.83,27.58C54.33,168.35,51.49,165.3,48.73,162.18z M62.87,178.39c-1.24-1.81-2.45-3.65-3.58-5.53
		c-2.73-4.43-5.25-9.01-7.52-13.68c-4.5-9.22-8.23-18.83-10.88-28.75c-0.74-2.73-1.38-5.5-1.99-8.26c-0.5-2.3-0.78-4.72-1.35-7.02
		c0.11-0.18,0.21-0.39,0.32-0.6c0.04-0.07,0.04-0.14,0.07-0.18c0.28,1.7,0.67,3.4,1.1,5.07c3.58,14,10.67,26.63,16.84,39.6
		c1.74,3.69,3.47,7.37,5,11.17c0.39,0.96,0.78,1.95,1.13,2.91c0.32,1.67,0.67,3.33,1.03,4.96
		C62.98,178.17,62.95,178.28,62.87,178.39z M64.47,165.98c0,0.82,0.07,1.63,0.07,2.41c-0.07,0.35-0.14,0.74-0.21,1.1
		c-0.39-3.55-0.82-7.06-1.17-10.6c-0.6-6.17-1.06-12.37-1.42-18.54c-0.71-12.59-0.96-25.24-0.53-37.83
		c0.11-3.47,0.32-6.95,0.5-10.46c0.18-3.62,0.6-7.23,0.6-10.85c0-0.21-0.07-0.35-0.21-0.46c0.18-0.14,0.35-0.28,0.57-0.39
		c1.31-0.67,2.77-0.74,4.18-0.46c0.25,3.44,0.64,6.88,0.78,10.35c0.18,3.72,0.25,7.45,0.18,11.2c-0.07,7.2-0.57,14.36-1.13,21.52
		C65.64,137.26,64.26,151.58,64.47,165.98z M66.49,146.69c0.64-14.43,1.88-28.86,2.09-43.32c0.04-3.94,0-7.84-0.18-11.77
		c-0.18-3.86-0.35-7.76-0.99-11.59c0.32,0.11,0.67,0.21,0.96,0.32c0.39,0.18,0.74,0.39,1.1,0.57c1.03,2.27,1.95,4.57,2.66,7.02
		c0.89,3.01,1.45,6.1,1.81,9.22c0.71,6.17,0.53,12.37-0.04,18.54c-1.21,12.62-3.79,25.1-6.28,37.51c-0.46,2.34-0.96,4.68-1.45,7.02
		C66.21,155.7,66.31,151.19,66.49,146.69z M66.38,168.28c0-0.21,0-0.43-0.04-0.64c3.62-15.74,11.45-30.45,13.61-46.59
		c0.85-6.35,0.82-12.8,0-19.14c0.57,2.59,1.03,5.21,1.35,7.87c0.71,5.6,0.85,11.27,0.5,16.91c-0.71,11.31-3.51,22.44-8.23,32.72
		c-1.35,2.94-2.87,5.85-4.54,8.62c-0.21,0.35-0.43,0.67-0.64,1.03c-0.64,0.82-1.24,1.67-1.81,2.52
		C66.49,170.48,66.42,169.38,66.38,168.28z M66.88,175.66c-0.07-0.67-0.14-1.35-0.21-2.02c6.28-9.43,15.95-16.34,22.69-25.46
		c3.97-5.35,6.84-11.52,7.2-18.26c0-0.04,0-0.07,0-0.11c0.14,0.64,0.28,1.28,0.39,1.88c0.04,0.6,0.07,1.21,0.07,1.81
		c0,2.16-0.18,4.36-0.57,6.49c-0.85,4.5-2.69,8.79-5.39,12.48c-4.86,6.67-12.2,10.81-18.22,16.24
		C70.57,170.76,68.51,173.03,66.88,175.66z M71.74,175.02c3.65-2.27,7.27-4.54,10.81-6.98c1.06-0.74,2.13-1.52,3.19-2.3
		c0.39-0.25,0.78-0.5,1.13-0.74c1.38-0.96,2.73-1.99,3.97-3.12c4.22-3.3,8.33-6.74,12.27-10.39c2.98-2.77,5.81-5.6,8.62-8.54
		c-0.04,0.21-0.11,0.39-0.14,0.6c-8.97,11.74-20.24,21.73-33.11,28.97c-3.26,1.84-6.63,3.37-9.96,5c-0.07-0.04-0.11-0.07-0.18-0.11
		C69.36,176.51,70.57,175.73,71.74,175.02z M41.85,212.46c6.31,3.94,13.19,6.84,19.78,10.25c6.67,3.4,13.05,7.45,17.94,13.15
		c3.76,4.36,6.67,9.32,9.57,14.29c-0.99-0.85-1.95-1.77-2.94-2.59c-4.89-4.11-9.96-7.94-15.07-11.74
		C61,228.34,50.64,221.14,41.25,212.7c-0.85-0.78-1.7-1.56-2.52-2.38C39.76,211.11,40.79,211.82,41.85,212.46z M64.01,245.68
		c-2.8-1.42-5.53-2.98-8.01-4.93c-2.41-1.88-4.47-4.11-6.35-6.52c-3.94-5.07-7.06-10.81-10.32-16.31c-2.02-3.44-4.08-6.84-6.1-10.28
		c-0.78-1.31-1.52-2.69-2.3-4.08c2.55,3.08,5.28,6.03,8.15,8.83c1.88,2.98,3.83,5.92,5.96,8.72c3.33,4.43,7.02,8.62,10.88,12.55
		c6.84,7.02,14.43,13.3,22.58,18.72C73.65,250.21,68.76,248.05,64.01,245.68z M87.62,256.6c-1.35-0.74-2.66-1.49-3.97-2.3
		c-4.68-2.8-9.15-5.89-13.47-9.22c-8.58-6.67-16.31-14.29-23.19-22.69c-2.34-2.87-4.61-5.81-6.77-8.83
		c3.94,3.72,8.05,7.27,12.27,10.6c9.96,7.94,20.53,15.14,30.35,23.26c2.77,2.27,5.46,4.64,8.05,7.09c0.64,0.6,1.24,1.21,1.84,1.84
		c0.74,1.24,1.52,2.45,2.3,3.65C92.62,258.86,90.14,257.73,87.62,256.6z M103.72,261.74c-2.62-6.2-4.43-12.76-5.25-19.46
		c-0.82-6.67-0.71-13.47,0.35-20.1c1.17-7.23,3.76-13.97,6.28-20.78c2.02-5.35,4.11-11.1,4.68-16.88c0.11,0.39,0.25,0.82,0.35,1.21
		c-0.89,5.39-1.7,10.74-2.8,16.1c-1.35,6.77-2.8,13.51-3.94,20.31c-1.95,11.91-2.69,24.21-0.11,36.09c0.46,2.06,0.99,4.08,1.63,6.1
		C104.5,263.44,104.07,262.59,103.72,261.74z M108.01,267.73c-1.21-2.62-2.2-5.35-2.98-8.12c-1.56-5.6-2.23-11.45-2.34-17.27
		c-0.25-12.91,2.38-25.6,4.89-38.18c1.03-5.03,2.16-10.1,2.94-15.21c0.28,2.98,0.39,5.99,0.32,9.01c-0.14,7.02-1.06,14-2.09,20.95
		c-2.02,13.44-4.4,27.09-2.52,40.67c0.39,2.77,0.99,5.53,1.77,8.23C108.04,267.76,108.04,267.73,108.01,267.73z M107.16,241.42
		c1.13-14.04,4.72-27.76,5.28-41.83c0.07-1.84,0.11-3.69,0.07-5.5c2.27,8.37,4.29,16.8,5.46,25.38c0.92,6.74,1.28,13.51,0.85,20.28
		c-0.43,6.84-1.84,13.37-3.65,19.96c-1.56,5.67-3.16,11.63-2.3,17.44C107.3,266.06,106.13,253.69,107.16,241.42z"/>
</g>
</svg>
