<?xml version="1.0" encoding="utf-8"?>
<!-- Generator: Adobe Illustrator 28.0.0, SVG Export Plug-In . SVG Version: 6.00 Build 0)  -->
<svg version="1.1" id="Calque_1" xmlns="http://www.w3.org/2000/svg" xmlns:xlink="http://www.w3.org/1999/xlink" x="0px" y="0px"
	 viewBox="0 0 200 400" style="enable-background:new 0 0 200 400;" xml:space="preserve">
<style type="text/css">
	.st0{fill:none;stroke:#312783;stroke-miterlimit:10;}
</style>
<path class="st0" d="M-150.11,241.16"/>
<path class="st0" d="M349.89,241.16"/>
<rect x="79.25" y="33.67" transform="matrix(2.849370e-03 -1 1 2.849370e-03 45.4633 112.9478)" class="st0" width="0.23" height="0.02"/>
<path class="st0" d="M100.39,387.24c0.92-2.97,1.71-5.95,2.4-8.99c1.16-5.06,2.08-10.17,2.82-15.3c0.68-1.8,1.13-3.69,1.76-5.49
	c0.52-1.45,1.09-2.9,1.68-4.32c0.11-0.23,0.23-0.44,0.37-0.68c1.19-2.04,2.61-3.87,4.18-5.61c3.06-3.41,6.71-6.24,10.27-9.07
	c3.49-2.78,6.9-5.68,9.71-9.2c2.64-3.31,4.86-7.31,5.12-11.62c0.02-0.21-0.19-0.3-0.35-0.25l-0.21,0c-3.68,2.3-7.12,4.92-10.33,7.84
	c-5.65,5.16-10.55,11.12-14.51,17.68c-1.88,3.07-3.54,6.28-4.98,9.57c-0.64,1.1-1.23,2.25-1.76,3.44
	c0.98-8.93,1.42-17.92,1.49-26.93c0.59-4.17,1.5-8.33,2.64-12.39c0.25-0.84,0.49-1.68,0.77-2.52c1.05-2.25,2.1-4.49,3.17-6.71
	c0.78-0.99,1.52-1.97,2.39-2.86c0.97-0.99,2.05-1.88,3.18-2.71c2.31-1.68,4.86-2.98,7.48-4.13c9.22-4.1,20.23-6.59,25.96-15.7
	c2.91-4.62,4.18-10.01,5.24-15.28c1.19-6.04,2.04-12.15,2.46-18.28l0.09-0.05c0.23-0.14,0.14-0.44-0.05-0.56l0-0.09l0,0
	c0.07-0.16-0.07-0.35-0.26-0.32c0,0,0,0-0.02,0c0.05-0.12,0.09-0.21,0.14-0.33c0.09-0.23-0.26-0.37-0.35-0.16
	c-0.14,0.3-0.3,0.63-0.46,0.94c-0.49,0.35-0.95,0.71-1.43,1.06c-0.09,0.05-0.19,0.1-0.28,0.17c-6.23,3.51-12.38,7.18-18.06,11.55
	c-5.75,4.41-10.82,9.52-14.71,15.66c-4.03,6.35-6.94,13.3-9.66,20.28c-1.38,3.55-2.74,7.15-4.01,10.75
	c-0.02,0.02-0.02,0.02-0.05,0.05c-1.67,2.83-3.04,5.78-4,8.93c-0.11,0.37-0.22,0.77-0.31,1.14c-0.12-4.89-0.31-9.75-0.59-14.61
	c-0.37-6.1-0.85-12.19-1.4-18.28c0.05-0.07,0.07-0.12,0.09-0.21c0.22-0.93,0.42-1.84,0.65-2.78c1.03-4.39,2.1-8.78,3.26-13.12
	c0.61-2.05,1.19-4.09,1.8-6.14c0.19,0,0.35-0.1,0.44-0.31c0.64-1.38,0.95-2.9,1.4-4.34c0.41-1.31,0.86-2.59,1.36-3.86
	c2.91-4.97,6.79-9.34,11.34-12.83c2.17-1.68,4.51-3.1,6.94-4.38c2.66-1.38,5.37-2.64,7.97-4.16c4.12-2.39,7.81-5.46,10.96-9.05
	s5.76-7.67,7.7-12.05c1.91-4.33,3.3-9.09,3.54-13.82c0-0.19-0.12-0.3-0.26-0.32c-0.05-0.07-0.12-0.14-0.21-0.14
	c0-0.09-0.05-0.14-0.12-0.18c-0.09-0.09-0.26-0.14-0.37-0.02c-0.58,0.54-1.18,1.06-1.82,1.51c-5.78,4.18-13.3,3.84-19.87,5.84
	c-6.29,1.9-11.2,6.42-14.64,11.91c-3.92,6.26-5.82,13.49-7.89,20.52c-2.27,7.71-4.68,15.37-6.95,23.07
	c-0.4,1.38-0.81,2.76-1.21,4.13c-0.32,1.05-0.63,2.08-0.92,3.13c-1.21,4.13-2.43,8.24-3.64,12.38c-0.7-7.16-1.5-14.33-2.32-21.46
	c0.16-0.02,0.3-0.12,0.37-0.31c1.25-3.39,2.37-6.82,3.43-10.26c3.72-11.98,6.55-24.21,8.37-36.61l0.12,0.09
	c0.42,0.18,1,0.15,1.35-0.18c0.42-0.38,0.53-1.01,0.26-1.52c-0.19-0.39-0.54-0.67-0.94-0.78c-0.07-0.07-0.16-0.14-0.28-0.16l-0.23,0
	c-0.14,0-0.26,0.03-0.37,0.07c-0.23,0.07-0.44,0.26-0.6,0.45c-0.16,0.19-0.3,0.47-0.3,0.72l0,0.09l0,0.07l0.02,0.14l0.07,0.21
	l0.14,0.11l0.19-0.07l0.02,0.07c-0.55,3.43-1.14,6.86-1.83,10.24c-1.11,5.55-2.42,11.06-3.93,16.52c0.06-0.75,0.15-1.51,0.21-2.24
	c0.21-2.12,0.4-4.26,0.54-6.38c0.26-3.89,0.48-7.76,0.55-11.65l0.02,0l0.02,0l0.19,0.02l0.21-0.05l0.09-0.05
	c0.14-0.07,0.23-0.14,0.32-0.26c0.11-0.14,0.21-0.35,0.23-0.54c0.02-0.21,0-0.42-0.08-0.6c-0.07-0.19-0.21-0.35-0.38-0.46
	c-0.14-0.09-0.23-0.14-0.4-0.16c-0.09-0.02-0.21-0.02-0.3-0.02c-0.21,0-0.42,0.1-0.6,0.22c-0.09,0.05-0.16,0.14-0.23,0.21
	s-0.11,0.16-0.16,0.26c-0.18,0.44-0.01,1,0.41,1.25l0.19,0.09c-0.22,3.87-0.46,7.76-0.83,11.63c-0.21,2.12-0.42,4.24-0.68,6.36
	c-0.26,2.14-0.65,4.31-0.79,6.48c-0.02,0.21,0.1,0.37,0.24,0.46c-1.46,4.95-3.11,9.81-4.85,14.67c-1.2-10.46-2.47-20.93-3.63-31.39
	c-0.03-0.19-0.03-0.37-0.05-0.53c0.05-0.07,0.09-0.16,0.11-0.28c0.2-1.07,0.44-2.15,0.74-3.2c2.26-8.47,6.86-16.13,11.77-23.31
	c5-7.32,10.47-14.31,14.88-21.99c2.22-3.86,4.16-7.89,5.63-12.09c1.42-4.07,2.48-8.27,3.25-12.54c1.56-8.68,2.01-17.5,2.43-26.29
	c0.44-8.9,1-17.75,2.29-26.56c0-0.07,0-0.12-0.02-0.16l0.07-0.33c0.02-0.09-0.03-0.23-0.07-0.3l-0.16-0.11c-0.02,0-0.05,0-0.07-0.02
	c-0.07-0.19-0.33-0.3-0.49-0.11c-0.14,0.19-0.3,0.38-0.44,0.56c-0.09,0.02-0.19,0.1-0.21,0.23l0,0.02c-0.41,0.54-0.85,1.06-1.26,1.6
	c-5.03,6.52-9.52,13.44-13.64,20.56c-4.14,7.19-7.83,14.63-11.06,22.28c-3.2,7.6-5.96,15.4-8.26,23.34
	c-2.29,7.92-4.12,15.99-5.43,24.13c-0.85,5.29-1.5,10.61-1.93,15.97c-1.03-11.49-1.75-23.01-1.92-34.53
	c0.08-0.93,0.17-1.86,0.27-2.8c0.21-2,0.47-4.01,0.75-6.01c0.13-0.86,0.26-1.7,0.39-2.56c0.34-0.54,0.59-1.15,0.87-1.71
	c0.43-0.89,0.87-1.78,1.28-2.64c0.82-1.71,1.64-3.39,2.46-5.1c5.58-11.67,11.12-23.4,16.56-35.14c0.12,0.02,0.26,0.02,0.37,0
	c0.42-0.07,0.83-0.31,1.06-0.69c0.28-0.4,0.36-0.89,0.2-1.35c-0.12-0.37-0.45-0.67-0.8-0.83c-0.35-0.16-0.79-0.18-1.14-0.03
	c-0.37,0.14-0.62,0.47-0.74,0.82c-0.07,0.09-0.14,0.19-0.16,0.28c-0.25,0.72,0.22,1.46,0.9,1.71c-1.41,2.85-2.85,5.71-4.26,8.56
	c-2.99,6.11-6,12.21-9.01,18.32c-1.5,3.07-3.01,6.11-4.49,9.17c-0.73,1.5-1.46,2.99-2.19,4.49c-0.14,0.28-0.27,0.56-0.41,0.84
	c0.9-5.11,2.04-10.19,3.36-15.21c1.77-6.75,3.98-13.4,6.5-19.9c0.16,0.11,0.35,0.16,0.56,0.16c0.4,0,0.72-0.31,0.88-0.64
	c0.16-0.3,0.18-0.7,0.04-1.02c-0.29-0.67-1.24-1.03-1.84-0.54c-0.51,0.42-0.52,1.26-0.05,1.68c-1.48,3.6-2.84,7.22-4.08,10.91
	c-2.28,6.87-4.12,13.87-5.53,20.99c-0.42,2.08-0.77,4.15-1.1,6.23c-0.16,0.37-0.29,0.75-0.34,1.17c-0.02,0.14,0.05,0.21,0.12,0.28
	c-0.15,1-0.33,2.03-0.46,3.05c-0.02,0.14-0.02,0.26-0.04,0.4c0.01-1.44,0.02-2.89,0.05-4.33c0.16-0.58,0.29-1.14,0.4-1.73
	c0.68-3.76,0.55-7.64,0.11-11.43c1.14-17.75,4.2-35.24,9.54-52.11c0.77-1.64,1.29-3.41,1.93-5.12c0.73-1.89,1.47-3.74,2.29-5.59
	c1.64-3.72,3.46-7.44,5.5-10.98c0.09-0.16-0.07-0.3-0.24-0.3c0.3-0.54,0.59-1.08,0.89-1.62c0.32-0.45,0.67-0.91,1.01-1.36
	c1.82-2.28,3.91-4.35,6.1-6.28c7.84-6.88,17.36-12.03,23.7-20.52c3.17-4.25,5.19-9.18,6.46-14.29c1.14-4.55,1.84-9.26,2.14-13.94
	c0.11-0.51,0.2-1.03,0.29-1.56c0.02-0.07-0.02-0.12-0.07-0.14l0.07-0.07c0.18-0.19,0.04-0.49-0.14-0.51c0-0.23-0.33-0.28-0.37-0.04
	l-0.02,0.07l-0.07,0.02c-5.65,2.48-10.88,5.89-15.57,9.87c-8.52,7.24-15.17,16.43-19.44,26.74c-2.41,5.82-4.18,11.89-6.03,17.94
	c-0.92,3.01-1.85,6.05-2.89,9.02c-0.07,0.19-0.14,0.37-0.2,0.58c-0.45,1.08-0.93,2.15-1.36,3.23c-4.61,11.25-8.1,22.85-10.56,34.68
	c0.22-1.52,0.43-3.01,0.65-4.52c1.22-8.51,2.45-17.02,3.6-25.53c1.02-7.58,1.8-15.34,0.67-22.96c-0.55-3.72-1.59-7.39-3.25-10.77
	c-1.52-3.1-3.51-5.95-5.82-8.51c-4.52-5.05-10.08-9.21-15.8-12.83l-0.02-0.05c-0.07-0.16-0.21-0.21-0.35-0.18
	c-0.09-0.07-0.19-0.11-0.28-0.18c-0.21-0.14-0.42-0.04-0.53,0.12c-0.12,0.02-0.23,0.17-0.11,0.3c0.33,0.49,0.66,0.95,0.99,1.41
	c-0.09,0.05-0.11,0.16-0.02,0.26c0.09,0.07,0.16,0.14,0.26,0.21c0.12,0.44,0.27,0.88,0.36,1.35c0.9,4.2,0.56,8.65,0.3,12.92
	c-0.26,4.47-0.68,8.95-1.1,13.4c-0.82,8.92-1.63,17.9-1.07,26.85c0.28,4.4,0.88,8.74,1.93,13.02c1.02,4.18,2.37,8.26,3.85,12.3
	c2.99,8.12,6.54,16.04,8.96,24.35c1.13,3.92,1.94,7.92,2.38,11.92c-0.14,2.1-0.26,4.19-0.33,6.29c-0.78,19.31,0.38,38.57,2.23,57.78
	c-0.65-4.46-1.4-8.93-2.35-13.34c-1.69-8.01-3.98-15.93-7.37-23.39c-3.26-7.21-7.55-13.94-12.41-20.15
	c-4.93-6.3-10.46-12.14-16.27-17.64c-6.04-5.71-12.41-11.19-19.23-15.96c-0.02-0.14-0.03-0.26-0.05-0.4
	c-0.03-0.19-0.28-0.14-0.28,0.03l0,0.16c-0.07-0.02-0.14,0-0.19,0.03c-0.28-0.28-0.7,0.08-0.48,0.42c0.26,0.42,0.52,0.81,0.8,1.2
	c0.03,0.44,0.06,0.88,0.11,1.33c0.99,8.37,3.87,16.37,7.72,23.85c3.97,7.76,8.91,14.95,14.22,21.83
	c5.62,7.25,11.55,14.24,17.12,21.52c5.29,6.88,10.23,14.07,14.1,21.85c1.88,3.78,3.53,7.69,4.78,11.73
	c0.12,0.35,0.22,0.72,0.31,1.09c0,0.09,0.02,0.16,0.03,0.26c0.02,0.14,0.07,0.23,0.14,0.32c0.68,2.44,1.21,4.9,1.64,7.41
	c1.84,15.93,3.85,31.85,5.36,47.81c-0.88-1.97-1.83-3.92-2.81-5.86c-0.37-6.91-0.77-13.89-2.4-20.65
	c-1.27-5.27-3.27-10.42-6.39-14.9c-3.14-4.51-7.42-7.96-12.28-10.47c-5.08-2.62-10.59-4.27-16.08-5.82
	c-2.92-0.83-5.84-1.64-8.71-2.59c-2.92-0.95-5.7-2.15-8.53-3.33l-0.02,0l-0.16-0.14c-0.28-0.23-0.58,0.19-0.34,0.45l0.16,0.16
	l-0.02-0.02c-0.16-0.07-0.3,0.17-0.16,0.26c0.4,0.28,0.82,0.55,1.22,0.8c3.86,3.89,7.51,7.98,10.86,12.34
	c6.54,8.57,12.08,17.78,18.09,26.72c5.84,8.69,13.15,18.14,24.32,19.47l0.16-0.02c1.19,2.46,2.33,4.96,3.38,7.48l0.09,0.14
	c0.76,8.33,1.36,16.65,1.73,25.01c0.18,4.1,0.29,8.21,0.34,12.31c-0.22-1.12-0.44-2.23-0.69-3.35c-2.68-11.85-7.2-23.28-13.36-33.73
	c0.28-0.26,0.48-0.61,0.5-1.01c0-0.21-0.03-0.42-0.12-0.63c-0.1-0.19-0.21-0.35-0.38-0.46c-0.28-0.21-0.66-0.32-1-0.22
	c-0.23,0.05-0.44,0.17-0.6,0.36c-0.12,0.12-0.18,0.28-0.21,0.42c-0.19,0.1-0.37,0.21-0.51,0.4c-0.16,0.23-0.16,0.49,0.01,0.72
	c0.43,0.65,1.34,0.94,2.01,0.61c1.49,2.64,2.87,5.35,4.16,8.08c1.62,3.45,3.05,7,4.3,10.59c-3.33-4.44-7.12-8.54-11.25-12.22
	l0.16-0.14l0.02-0.05c0.14-0.16,0.23-0.35,0.25-0.56c0.02-0.3-0.05-0.58-0.24-0.84c-0.31-0.42-0.87-0.64-1.38-0.54
	c-0.28,0.05-0.56,0.19-0.74,0.43c-0.18,0.21-0.25,0.49-0.22,0.77c0.03,0.26,0.17,0.53,0.38,0.67c0.14,0.09,0.28,0.14,0.42,0.14
	l0.05,0.05l0.02,0.05l0.14,0.09l0.02,0.02l0.07,0.05c0.09,0.05,0.21,0.09,0.33,0.09c0.12,0,0.21,0,0.3-0.05
	c4.56,4.45,8.66,9.27,12.28,14.52c0.07,0.12,0.19,0.16,0.28,0.18c0.46,1.42,0.89,2.85,1.3,4.32c0.85,3.06,1.58,6.18,2.17,9.29
	c0.3,1.53,0.57,3.07,0.79,4.62c0.12,0.81,0.25,1.6,0.35,2.42c0.1,0.65,0.15,1.3,0.39,1.9c0.01,0.49-0.01,0.98-0.01,1.47l-0.02,0.14
	c-0.34,3.08-0.56,6.29-0.28,9.41c-0.12,2.33-0.25,4.64-0.42,6.94c-0.95-4.39-2.19-8.71-3.7-12.93c0.03-5.96,0.04-12.01-1.67-17.79
	c-1.42-4.78-4.19-8.92-7.88-12.26c-3.52-3.18-7.74-5.58-12.07-7.49c-4.86-2.16-10-3.64-15.07-5.29c-2.62-0.86-5.23-1.76-7.8-2.78
	c-2.31-0.93-4.51-2.07-6.78-3.14c-0.28-0.18-0.56-0.37-0.84-0.55c-0.19-0.11-0.39,0.14-0.21,0.28c0.05,0.02,0.09,0.07,0.12,0.09
	c0,0.07,0,0.12,0.07,0.16c0.33,0.25,0.66,0.48,0.98,0.69c-0.23-0.11-0.44-0.23-0.68-0.32c-0.12-0.05-0.21-0.02-0.28,0.05l-0.12-0.07
	c-0.16-0.07-0.25,0.17-0.09,0.23l0.21,0.11l0.09,0.12c2.2,1.26,4.33,2.61,6.31,4.24s3.76,3.43,5.43,5.37
	c6.36,7.31,10.85,16.02,17.26,23.29c6.01,6.81,13.54,12.25,21.88,15.77l0.12,0.02l0.02,0c1.9,5.43,3.3,11.07,4.32,16.72
	c-0.48,5.13-1.17,10.23-1.98,15.29c-0.11,0.56-0.2,1.14-0.29,1.7c-1.08,6.32-2.34,12.6-3.76,18.87"/>
<path class="st0" d="M100.54,329.48c-2.03-4.87-4.5-9.54-7.55-13.84c-3.45-4.85-7.61-9.09-12.24-12.82
	c-4.62-3.7-9.64-6.84-14.81-9.69c-2.62-1.44-5.27-2.81-7.96-4.13c0.61,0.23,1.19,0.48,1.8,0.7c0.82,0.32,1.64,0.61,2.45,0.91
	c0.72,0.27,1.45,0.54,2.17,0.84c2.43,0.98,4.84,2,7.2,3.09c4.16,1.94,8.31,4.01,12.24,6.39c3.49,2.11,6.89,4.58,9.69,7.58
	c2.9,3.14,4.89,6.86,5.91,11C100.26,322.8,100.46,326.13,100.54,329.48z"/>
<path class="st0" d="M61.76,293.89c0.28,0.23,0.56,0.46,0.85,0.69c7.35,6.23,14.01,13.26,20,20.82c2.71,3.42,5.36,6.91,8.37,10.06
	c1.46,1.52,2.99,3,4.65,4.31c0.77,0.6,1.57,1.19,2.42,1.74c-3.44-1.71-6.72-3.73-9.79-6.07c-3.66-2.8-6.98-5.98-9.9-9.54
	c-3.16-3.83-5.9-7.97-8.76-12.04C67.16,300.4,64.63,296.98,61.76,293.89z"/>
<path class="st0" d="M56.94,289.17c3.51,1.83,7.02,3.68,10.44,5.67c4.99,2.93,9.84,6.18,14.21,9.98c4.42,3.84,8.35,8.22,11.54,13.13
	c2.81,4.3,5.07,8.89,6.92,13.64c-1.71-0.94-3.35-1.92-4.88-3.16c-1.9-1.52-3.62-3.25-5.24-5.04c-2.92-3.25-5.54-6.76-8.32-10.13
	c-3.06-3.72-6.31-7.29-9.7-10.7c-3.32-3.34-6.77-6.52-10.37-9.58C60.04,291.68,58.51,290.41,56.94,289.17z"/>
<path class="st0" d="M92.58,305.19c2.63,2.58,4.64,5.63,5.96,9.02c-1.35-2.66-3.15-5.07-5.36-7.16c-3.01-2.88-6.57-5.05-10.15-7.09
	c-4.14-2.33-8.36-4.52-12.71-6.48c-0.28-0.11-0.54-0.23-0.82-0.36C77.8,295.91,86.25,298.99,92.58,305.19z"/>
<path class="st0" d="M99.7,271.27c-1-1.85-2.02-3.7-3.11-5.51c-6.06-10.11-13.45-19.46-21.87-27.71c-4.21-4.1-8.65-7.94-13.37-11.48
	c-2.35-1.77-4.76-3.44-7.22-5.05c-1.05-0.69-2.16-1.4-3.23-2.06c4.4,1.82,8.81,3.66,13.05,5.82c4.38,2.24,8.59,4.8,12.44,7.88
	c3.94,3.2,7.36,6.95,10.38,11.02c3.05,4.11,5.81,8.48,8.44,12.88c1.82,3.03,3.6,6.34,4.29,9.83c0.11,1.3,0.19,2.61,0.25,3.91
	C99.75,270.96,99.72,271.1,99.7,271.27z"/>
<path class="st0" d="M48.68,218.09c0.8,0.39,1.59,0.73,2.41,1.07c-0.61-0.23-1.22-0.45-1.82-0.68c-0.14-0.09-0.28-0.18-0.44-0.25
	L48.68,218.09z"/>
<path class="st0" d="M99.1,262.61c-1.05-2.46-2.47-4.79-3.87-6.99c-2.82-4.44-5.61-8.93-8.84-13.11
	c-3.14-4.04-6.69-7.66-10.77-10.74c-6.57-4.91-14.06-8.54-21.7-11.53c0.61,0.23,1.24,0.43,1.85,0.63c3.15,1.08,6.38,1.98,9.58,2.93
	c5.28,1.58,10.58,3.29,15.43,6.01c4.8,2.67,8.75,6.4,11.66,11.05C96.55,247.46,98.25,254.99,99.1,262.61z"/>
<path class="st0" d="M99.97,275.04c-5.41-0.97-10.22-4.13-14.03-8c-3.86-3.92-6.93-8.52-9.98-13.07c-2.96-4.42-5.84-8.9-8.82-13.29
	c-2.96-4.39-6.03-8.71-9.38-12.85c-2.1-2.59-4.31-5.12-6.69-7.5c1.2,0.76,2.37,1.51,3.54,2.31c2.72,1.88,5.35,3.86,7.93,5.92
	c9.13,7.36,17.37,15.77,24.43,25.12c4.93,6.51,9.27,13.48,12.97,20.75C99.95,274.64,99.97,274.85,99.97,275.04z"/>
<path class="st0" d="M154.37,15.78c-1.1,3.9-2.76,7.64-4.82,11.15c-4.9,8.39-11.76,15.42-18.37,22.45
	c-3.36,3.57-6.68,7.19-9.71,11.07c-0.87,1.1-1.72,2.23-2.55,3.38c0.37-0.63,0.73-1.26,1.1-1.9c2.61-4.31,5.45-8.46,8.46-12.47
	c3.15-4.22,6.67-8.12,10.17-12.02c6.24-6.96,12.52-14.26,15.92-23.07C154.5,14.82,154.44,15.31,154.37,15.78z"/>
<path class="st0" d="M153.74,12.69c-1.59,1.53-3.16,3.08-4.7,4.66c-13.94,14.32-25.42,31.23-34.2,49.27
	c0.22-0.77,0.47-1.54,0.7-2.31c1.8-5.98,3.6-11.96,6.1-17.69c2.23-5.1,5.04-9.92,8.44-14.33C136.39,24.05,144.57,17.49,153.74,12.69
	z"/>
<path class="st0" d="M154.85,12.42c0,0.02,0,0.05-0.02,0.07c-1.83,5.21-4.67,9.99-7.95,14.42c-6.25,8.4-13.9,15.63-20.29,23.91
	c-3.08,4.01-5.94,8.19-8.53,12.54c-0.48,0.82-0.96,1.64-1.44,2.46C126.43,46.1,139.44,28.11,154.85,12.42z"/>
<path class="st0" d="M120.25,63.23c-0.21,0.19-0.41,0.4-0.6,0.59c1.17-1.67,2.43-3.28,3.72-4.86c6.23-7.61,13.47-14.29,19.63-21.95
	c4.57-5.68,8.7-12.01,11.05-18.95c-0.11,0.72-0.19,1.42-0.3,2.14c-0.48,3.01-1.08,5.99-1.93,8.91c-1.51,5.14-3.9,9.91-7.42,13.98
	c-3.47,4.02-7.7,7.27-11.95,10.44C128.28,56.63,124.03,59.65,120.25,63.23z"/>
<path class="st0" d="M111.48,77.24c-0.05,0.09-0.11,0.21-0.16,0.3c0.05-0.12,0.09-0.21,0.14-0.33
	C111.45,77.22,111.45,77.22,111.48,77.24z"/>
<path class="st0" d="M80.18,31.87c0.35,0.53,0.69,1.09,0.99,1.62c0.14,0.51,0.29,1,0.43,1.51c1.91,6.87,2.82,13.94,3.17,21.06
	c0.38,7.14,0.26,14.31,0.29,21.46c0.05,7.15,0.24,14.31,1.22,21.38c1.01,7.14,3.05,13.98,4.99,20.92c0.97,3.46,1.86,6.96,2.46,10.5
	c0.27,1.51,0.43,3.02,0.56,4.53c-0.06,0.49-0.13,0.96-0.22,1.45c-0.44-1.65-0.9-3.27-1.42-4.9c-2.65-8.33-6.29-16.28-9.22-24.49
	c-1.46-4.08-2.74-8.26-3.6-12.51c-0.88-4.41-1.33-8.93-1.47-13.44c-0.26-9.1,0.7-18.17,1.44-27.21c0.37-4.5,0.72-9.02,0.84-13.53
	C80.8,37.45,80.77,34.58,80.18,31.87z"/>
<path class="st0" d="M80.95,31.79c4.6,4.05,8.27,9.11,10.95,14.62c2.93,6,4.72,12.45,5.64,19.05c1.08,7.72,1.02,15.56,0.5,23.32
	c-0.52,7.87-1.56,15.68-2.34,23.51c-0.19,1.84-0.36,3.71-0.5,5.55c-0.29-7.7-0.67-15.4-1.15-23.08c-0.5-8.28-1.03-16.56-1.84-24.82
	c-0.76-7.79-1.93-15.6-4.29-23.07c-1.08-3.46-2.42-6.84-4.09-10.06C82.96,35.12,82.02,33.41,80.95,31.79z"/>
<path class="st0" d="M94.39,129.33c-0.79-4-1.9-7.92-3.01-11.82c-1.01-3.53-2.05-7.03-2.9-10.59c-0.85-3.48-1.47-7.02-1.88-10.57
	c-0.84-7.18-0.94-14.42-0.95-21.64c-0.03-7.22,0.04-14.43-0.48-21.65c-0.27-3.58-0.66-7.14-1.3-10.67
	c-0.44-2.42-0.96-4.86-1.68-7.22c2.59,4.68,4.52,9.71,5.9,14.86c2.06,7.66,3,15.59,3.64,23.5c0.67,8.21,1.08,16.47,1.49,24.71
	c0.41,8.26,0.75,16.5,1,24.76C94.28,125.12,94.32,127.24,94.39,129.33z"/>
<path class="st0" d="M95.96,123.71c0.18-4.91,0.6-9.83,1.03-14.72c0.73-7.95,1.58-15.87,1.89-23.86c0.29-7.78,0.05-15.64-1.43-23.31
	c-1.21-6.3-3.29-12.44-6.4-18.07c-1.54-2.75-3.32-5.39-5.37-7.79c-1.7-2.01-3.6-3.9-5.71-5.5c-0.12-0.16-0.21-0.32-0.33-0.46
	c-0.05-0.19-0.12-0.37-0.17-0.53c0.16,0.11,0.3,0.21,0.47,0.32c5.67,3.97,11.26,8.31,15.53,13.83c2.17,2.79,3.95,5.9,5.19,9.24
	c1.29,3.5,1.98,7.22,2.26,10.94c0.57,7.63-0.52,15.25-1.6,22.78c-1.24,8.53-2.45,17.07-3.69,25.6
	C97.09,115.99,96.53,119.84,95.96,123.71z"/>
<path class="st0" d="M98.79,218.97c-0.05-0.51-0.1-1.02-0.16-1.53c0.08-1.58,0.25-3.17,0.49-4.73c0.89-3.71,1.81-7.42,2.77-11.11
	c0.77-2.27,1.63-4.49,2.54-6.68c3.27-7.83,7.34-15.3,10.89-23c3.69-7.95,7-16.07,10.06-24.29c3.03-8.23,5.74-16.57,8.1-25.02
	c1.93-6.93,3.65-13.94,4.95-21.03c-0.91,8.58-1.85,17.18-3.34,25.69c-1.52,8.79-3.71,17.43-6.69,25.84
	c-2.83,7.92-6.24,15.62-9.86,23.2c-3.67,7.65-7.55,15.19-11.19,22.84c-1.75,3.7-3.44,7.39-5.05,11.13c-0.84,1.78-1.59,3.6-2.25,5.47
	C99.61,216.81,99.2,217.89,98.79,218.97z"/>
<path class="st0" d="M139.51,98.25c-0.07,0.33-0.11,0.63-0.18,0.96c0.02-0.23,0.04-0.47,0.06-0.7
	C139.45,98.42,139.49,98.32,139.51,98.25z"/>
<path class="st0" d="M135.15,113.15c-1.07,4.29-2.22,8.57-3.45,12.82c-2.45,8.45-5.23,16.84-8.45,25.02
	c-3.2,8.16-6.72,16.2-10.58,24.09c-2.62,5.4-5.45,10.72-8,16.17c2.22-7.92,4.61-15.79,7.16-23.61c2.62-8.06,5.47-16.03,8.46-23.95
	c3.01-7.95,6.17-15.87,9.51-23.68c2.52-5.87,5.16-11.69,7.8-17.52C136.8,106.03,136.02,109.6,135.15,113.15z"/>
<path class="st0" d="M39.05,121.88c0.12,0.16,0.24,0.35,0.38,0.51c4.74,6.31,10.2,12.02,15.62,17.76
	c5.39,5.74,10.78,11.51,15.32,17.95c4.47,6.33,8.19,13.14,11.41,20.18c3.22,7.07,5.9,14.37,8.28,21.75
	c1.49,4.57,2.84,9.17,4.17,13.79c-0.79-1.74-1.64-3.48-2.54-5.17c-4.11-7.69-9.21-14.78-14.59-21.64
	c-5.66-7.2-11.65-14.17-17.19-21.47c-5.29-6.91-10.23-14.1-14.03-21.95C42.51,136.72,40.15,129.43,39.05,121.88z"/>
<path class="st0" d="M95.95,216.36c-1.91-6.55-3.86-13.07-6.07-19.52c-2.5-7.38-5.3-14.66-8.65-21.68
	c-3.31-6.93-7.19-13.59-11.8-19.76c-4.75-6.35-10.16-12.14-15.6-17.93c-2.71-2.88-5.41-5.79-8.05-8.76c-2.12-2.4-4.1-4.92-6.13-7.43
	c0.31,0.23,0.61,0.46,0.89,0.69c6.6,5.17,12.94,10.62,18.87,16.54c5.6,5.58,10.9,11.46,15.6,17.81c4.68,6.35,8.73,13.16,11.71,20.46
	c3.1,7.56,5.17,15.47,6.69,23.49C94.46,205.62,95.24,210.99,95.95,216.36z"/>
<path class="st0" d="M138.52,98.54c-0.02,0.07-0.02,0.14-0.04,0.21c-0.11,0.23-0.23,0.47-0.34,0.7c-3.62,7.7-6.99,15.51-10.26,23.36
	s-6.36,15.78-9.3,23.77c-2.94,7.99-5.7,16.03-8.34,24.11c-2.64,8.08-5.12,16.21-7.43,24.4c-0.11,0.42-0.25,0.86-0.36,1.28
	c-0.23,0.54-0.45,1.05-0.66,1.59c-1.27,3.18-2.33,6.45-3.16,9.76c0.48-7.22,1.32-14.4,2.55-21.54c1.41-8.12,3.3-16.14,5.66-24.01
	c2.36-7.87,5.19-15.61,8.47-23.16c3.27-7.55,6.99-14.93,11.16-22.05C130.17,110.64,134.2,104.5,138.52,98.54z"/>
<path class="st0" d="M108.59,199.15c-0.16,0.23-0.3,0.47-0.44,0.68c0.5-1.08,1-2.18,1.53-3.25c3.6-7.67,7.36-15.25,10.91-22.93
	c3.55-7.7,6.89-15.51,9.56-23.54c2.8-8.46,4.76-17.16,6.18-25.93c0.48-2.92,0.89-5.85,1.28-8.77c-0.24,3.77-0.43,7.57-0.63,11.37
	c-0.47,8.76-1.08,17.56-2.94,26.15c-0.93,4.32-2.22,8.57-3.92,12.66c-1.73,4.12-3.92,8.03-6.33,11.78
	C119.02,184.81,113.43,191.72,108.59,199.15z"/>
<path class="st0" d="M156.31,211.62c-3.59,3.79-8.08,6.53-12.57,9.12c-4.51,2.61-9.05,5.17-13.11,8.45
	c-1.64,1.32-3.18,2.76-4.64,4.24c0.62-0.77,1.24-1.55,1.89-2.3c3.54-4.04,7.58-7.69,11.95-10.81c4.83-3.45,10.39-5.93,14.73-10.05
	c3.67-3.46,6.48-7.89,8.02-12.7c-0.02,0.33-0.04,0.65-0.06,0.98c-0.29,1.7-0.62,3.38-1.07,5.06c-0.14,0.35-0.27,0.7-0.43,1.05
	C159.9,207.25,158.24,209.57,156.31,211.62z"/>
<path class="st0" d="M120.72,239.2c0.05-0.07,0.07-0.12,0.09-0.19c3.29-5.97,7.33-11.55,12.22-16.33
	c4.77-4.66,10.2-8.63,15.49-12.66c4.73-3.63,9.38-7.41,13.36-11.87c-2.02,5.35-5.37,10.14-9.89,13.67
	c-2.45,1.91-5.13,3.45-7.79,5.04c-2.41,1.44-4.76,2.98-6.98,4.71c-4.23,3.23-8.08,6.97-11.48,11.06
	C123.96,234.7,122.28,236.93,120.72,239.2z"/>
<path class="st0" d="M161.13,198.18l-0.07,0.09c-4.63,4.87-10.06,8.93-15.44,12.94c-5.36,4.01-10.72,8.05-15.28,12.96
	c-4.67,5.01-8.48,10.75-11.61,16.81c-0.87,1.66-1.66,3.37-2.42,5.08c-0.09,0.16-0.18,0.35-0.27,0.51c0.13-0.49,0.27-0.98,0.4-1.47
	c1.05-3.81,2.23-7.59,3.33-11.4c2.02-6.87,4.23-13.9,8.43-19.76c1.86-2.58,4.07-4.93,6.7-6.73c2.89-1.99,6.16-3.09,9.58-3.8
	C150.04,202.25,156.51,201.79,161.13,198.18z"/>
<path class="st0" d="M117.4,247.34c0.46-0.98,0.93-1.94,1.44-2.88c1.03-1.92,2.1-3.79,3.29-5.62c0.23-0.33,0.48-0.63,0.71-0.96
	c2.96-3.76,6.47-7.07,10.28-9.93c4.39-3.26,9.28-5.71,13.93-8.53c4.26-2.58,8.37-5.56,11.47-9.5c0.64-0.82,1.22-1.71,1.74-2.6
	c-0.59,1.64-1.27,3.25-2.05,4.82c-2.14,4.28-4.97,8.25-8.31,11.68c-3.52,3.6-7.62,6.46-12.08,8.76c-2.66,1.38-5.37,2.66-7.97,4.16
	c-2.22,1.28-4.33,2.72-6.29,4.35C121.32,242.92,119.27,245.04,117.4,247.34z"/>
<path class="st0" d="M154.68,251.72c-0.76,0.64-1.5,1.27-2.24,1.91c-2.75,2.33-5.42,4.78-8,7.3c-8.67,8.45-15.76,18.37-21.96,28.7
	c-2.45,4.08-4.69,8.27-6.81,12.5c-0.14,0.23-0.3,0.45-0.44,0.68c-0.09,0.12-0.18,0.26-0.3,0.38c1.15-3.15,2.38-6.29,3.63-9.4
	c2.75-6.9,5.75-13.75,10.01-19.85c4.08-5.84,9.25-10.78,14.98-14.98C147.11,256.34,150.88,254.02,154.68,251.72z"/>
<path class="st0" d="M159.7,248.74c-2.79,5.29-6.3,10.24-10.11,14.84c-8.19,9.86-17.88,18.34-26.16,28.11
	c-1.17,1.39-2.32,2.82-3.42,4.27c4.11-7.91,8.57-15.62,14.01-22.68c3.79-4.9,8.03-9.49,12.59-13.66c2.35-2.14,4.8-4.19,7.25-6.24
	c1.71-1.41,3.42-2.81,5.12-4.22C159.21,249.02,159.46,248.88,159.7,248.74z"/>
<path class="st0" d="M159.35,255.73c-0.62,3.01-1.4,5.97-2.45,8.85c-1.61,4.46-3.84,8.75-6.88,12.41c-3.13,3.8-7.12,6.78-11.38,9.24
	c-4.14,2.39-8.43,4.51-12.48,7.04c-1.2,0.76-2.38,1.58-3.51,2.46c0.16-0.16,0.32-0.33,0.48-0.52c3.8-3.79,7.86-7.28,11.9-10.79
	c4.11-3.58,8.14-7.25,11.9-11.23c3.52-3.69,6.72-7.73,9.26-12.16c1.23-2.15,2.31-4.4,3.14-6.74c0.18-0.49,0.36-1,0.52-1.52
	C159.73,253.81,159.55,254.77,159.35,255.73z"/>
<path class="st0" d="M122.3,295.1c5.35-6.76,11.48-12.92,17.42-19.18c7.88-8.3,15.61-16.99,20.58-27.38
	c-0.51,2.24-1.07,4.46-1.89,6.61c-1.02,2.64-2.32,5.19-3.81,7.63c-5.66,9.14-13.87,16.04-21.95,22.97
	c-2.03,1.74-4.08,3.51-6.07,5.32C125.11,292.4,123.71,293.76,122.3,295.1z"/>
<path class="st0" d="M124.65,297.11c-2.18,1.09-4.31,2.35-6.22,3.84c1.15-1.39,2.37-2.7,3.75-3.9c1.96-1.7,4.11-3.23,6.33-4.58
	c4.16-2.56,8.54-4.77,12.71-7.33c4.12-2.53,7.79-5.67,10.63-9.61c2.82-3.92,4.85-8.36,6.29-12.94c0.38-1.24,0.74-2.48,1.06-3.74
	c-0.5,2.99-1.06,5.97-1.7,8.93c-1.16,5.23-2.71,10.6-6.13,14.82c-3.24,4.04-7.85,6.6-12.53,8.63
	C134.11,293.26,129.23,294.8,124.65,297.11z"/>
<path class="st0" d="M138.1,317.27c-0.04,0.21-0.09,0.4-0.16,0.61c-0.99,1.22-1.93,2.49-2.94,3.69c-1.08,1.31-2.21,2.58-3.36,3.83
	c-4.14,4.49-8.64,8.63-12.83,13.05c-1.98,2.09-3.94,4.28-5.78,6.51c2.49-4.47,5.38-8.72,8.67-12.64
	C126.47,326.58,132,321.54,138.1,317.27z"/>
<path class="st0" d="M115.21,343.62c3.45-4.37,7.43-8.32,11.33-12.29c2.1-2.14,4.19-4.28,6.22-6.47c1.68-1.81,3.41-3.69,4.88-5.73
	c-0.47,1.61-1.06,3.18-1.88,4.65c-1.19,2.2-2.7,4.2-4.38,6.05C126.58,335.08,120.45,338.89,115.21,343.62z"/>
</svg>
