<?xml version="1.0" encoding="utf-8"?>
<!-- Generator: Adobe Illustrator 28.0.0, SVG Export Plug-In . SVG Version: 6.00 Build 0)  -->
<svg version="1.1" id="Calque_1" xmlns="http://www.w3.org/2000/svg" xmlns:xlink="http://www.w3.org/1999/xlink" x="0px" y="0px"
	 viewBox="0 0 200 400" style="enable-background:new 0 0 200 400;" xml:space="preserve">
<style type="text/css">
	.st0{fill:#605D7C;}
</style>
<path class="st0" d="M185.74,181.65c-11.52,3.41-23.05,6.86-34.31,11.01c-11.23,4.09-22.21,8.95-32.51,15.06
	c-2.8,1.67-5.57,3.44-8.21,5.34c7.11-7.4,13.84-15.13,19.89-23.4c1.19-1.61,2.32-3.25,3.44-4.89c0.1,0.1,0.26,0.13,0.42,0.06
	c10.62-3.86,20.89-8.98,30.06-15.61c4.15-2.99,7.98-6.57,10.3-11.2c2.35-4.7,2.83-10.11,2.32-15.29c-0.29-3.03-0.93-6.02-1.71-8.95
	c-0.39-1.45-0.8-2.86-1.26-4.28c-0.48-1.48-0.84-3.03-1.71-4.35c-0.13-0.19-0.29-0.29-0.45-0.32c-0.13-1.71-0.45-3.38-1-5.02
	c-1.83-5.44-6.02-10.08-11.75-11.33c-0.16-2.58-0.8-4.99-2.25-7.24c-1.55-2.38-4.02-4.38-6.99-4.44c-3.12-0.06-5.7,1.93-7.18,4.57
	c-0.97,1.71-1.38,3.57-1.48,5.47c-0.55-0.23-1.09-0.35-1.64-0.45v-0.1c-0.03-0.39-0.68-0.48-0.8-0.1l-0.03,0.1
	c-3.86-0.26-7.76,2.22-9.62,5.67c-3.03,5.54-1.61,12.07,0.26,17.74c2.16,6.53,4.41,12.97,5.76,19.73
	c1.29,6.41,1.83,12.94,1.13,19.47c-0.61,5.67-2.25,11.33-5.05,16.32c-6.99,9.91-14.9,19.15-23.34,27.88
	c-6.57,6.82-13.45,13.29-20.5,19.64c5.09-6.86,9.11-14.45,12.04-22.47c3.86-10.53,5.89-21.76,5.83-32.96
	c-0.03-6.31-0.71-12.59-2.09-18.73c-0.13-0.58-0.93-0.74-1.19-0.16c-4.09,9.43-7.66,18.99-10.33,28.94
	c-2.64,9.75-4.47,19.73-5.54,29.77c-0.61,5.63-0.93,11.3-1.06,16.93c-0.64,0.84-1.29,1.67-1.96,2.51c-0.71,0.64-1.45,1.29-2.16,1.93
	c-3.7,3.25-7.44,6.44-11.2,9.62c0.48-1.64,0.77-3.35,1.13-4.99c0.48-2.19,0.87-4.38,1.26-6.57c0.77-4.44,1.42-8.95,1.9-13.42
	c0.16-1.45,0.29-2.9,0.42-4.35l0.03-0.06c0.68-3.44,1.13-6.92,1.74-10.4c0.58-3.41,1.29-6.79,2.06-10.14
	c0.8-3.41,1.71-6.79,2.74-10.14c0.48-1.61,1-3.25,1.51-4.86c0.35-1.06,0.77-2.22,1.09-3.35c0.13-0.06,0.26-0.16,0.39-0.29
	c0.42-0.1,0.8-0.35,1.03-0.68l0.23-0.35c0.1-0.19,0.13-0.42,0.1-0.64c0-0.13-0.03-0.26-0.1-0.39l-0.19-0.35l-0.26-0.19
	c-0.1-0.26-0.29-0.48-0.55-0.58c-0.16-0.06-0.32-0.1-0.52-0.1c-0.23,0-0.45,0.03-0.64,0.16c-0.16,0.1-0.32,0.23-0.45,0.35
	c-0.19,0.06-0.39,0.16-0.52,0.29c-0.58,0.52-0.77,1.26-0.87,2c-0.03,0.32,0.16,0.71,0.45,0.87c-0.32,0.87-0.58,1.74-0.84,2.58
	c-0.52,1.61-1,3.25-1.45,4.89c-0.93,3.38-1.77,6.82-2.51,10.27c-0.71,3.25-1.32,6.53-1.83,9.85c0.13-3.7,0.16-7.44,0.1-11.14
	c-0.06-2.51-0.16-5.02-0.32-7.53c-0.16-2.54-0.26-5.18-0.8-7.66c-0.1-0.45-0.84-0.52-0.84,0c-0.03,2.22,0.23,4.44,0.35,6.63
	c0.16,2.16,0.26,4.35,0.32,6.5c0.16,4.54,0.23,9.05,0.06,13.58c-0.26,8.92-1.13,17.83-2.58,26.65c-0.42,2.48-0.87,4.96-1.38,7.44
	c-0.48,2.35-1.16,4.7-1.45,7.08c-0.8,0.68-1.61,1.35-2.41,2.03c-2.51,2.09-5.02,4.18-7.53,6.24c-1.35,1.09-2.7,2.16-4.06,3.22
	c-1.19,0.61-2.35,1.26-3.51,1.9c0.39-0.84,0.74-1.71,1.03-2.61c0.39-1.22,0.68-2.51,0.84-3.8c0.13-0.97,0.29-2.25,0.06-3.28
	c0.8-2.64,1.55-5.31,2.19-8.01c3.09-12.97,4.57-26.3,5.02-39.62c0.29-8.92,0.06-17.83-0.84-26.72c1.13-0.87,2.09-1.93,3.09-2.93
	c1.16-1.16,2.25-2.35,3.35-3.54c2.29-2.48,4.51-5.05,6.7-7.63c4.31-5.18,8.37-10.65,12.14-16.29c1.87-2.77,3.7-5.57,5.34-8.47
	c1.61-2.83,3.03-5.89,3.54-9.14c0.97-5.89-1.71-11.33-6.28-15c-5.63-4.57-13.33-5.76-20.31-6.57l-0.32,0.03
	c-0.03-0.16-0.03-0.32-0.06-0.48c-0.32-2.25-0.9-4.6-2.35-6.44c-1.42-1.8-3.57-2.83-5.86-2.83c-4.89-0.03-9.14,3.32-11.91,7.11
	c-0.32,0.45-0.61,0.9-0.87,1.35c-0.71,0.39-1.45,0.77-2.16,1.16c-0.48,0.26-0.97,0.52-1.42,0.84c-5.25,2.35-10.56,4.92-14.48,9.21
	c-3.8,4.15-5.99,9.75-4.64,15.35c1.35,5.7,5.41,10.27,9.56,14.16c4.8,4.51,10.08,8.47,14.71,13.17c4.51,4.6,8.53,10.11,10.17,16.42
	c0.8,7.5,1.19,15.03,1.16,22.6c-0.06,12.94-1.16,25.98-3.61,38.69c-0.55,2.83-1.19,5.63-1.9,8.43c0.61-7.73,0.32-15.55-0.68-23.21
	c-1.35-10.46-4.12-20.76-8.24-30.52c-2.32-5.5-5.09-10.82-8.34-15.84c-0.29-0.42-1.06-0.23-1.09,0.29c-0.03,0.52,0,1.03,0,1.55
	c-0.19-0.06-0.45,0.13-0.35,0.42c0.1,0.35,0.23,0.71,0.35,1.06c0.03,9.24,1.58,18.28,3.96,27.23c2.61,9.72,5.99,19.22,8.76,28.87
	c1.35,4.73,2.48,9.5,3.41,14.29c-0.06,1.03-0.13,2.06-0.23,3.06c-0.06,0.68-0.19,1.35-0.26,2.06c-2.03,6.18-4.51,12.23-7.53,18.03
	c-5.38,10.27-12.46,19.67-21.08,27.46c-1.09,1-2.16,2-3.28,2.93c-0.29,0.26,0.06,0.68,0.35,0.45c9.46-6.82,17.03-16.22,22.92-26.23
	c2.32-3.96,4.38-8.08,6.21-12.3c0.23,0,0.45-0.06,0.61-0.29c0.13-0.16,0.23-0.29,0.32-0.45c2.74-1.9,5.44-3.89,8.11-5.89
	c0.8-0.39,1.64-0.74,2.45-1.13l0.13,0.03c11.46,1.38,23.14,0.8,34.47-1.29c11.43-2.09,22.56-5.54,33.28-10.08
	c4.31-1.8,8.56-3.8,12.71-5.92c1.09-0.35,2.19-0.74,3.25-1.13c0.23-0.1,0.39-0.23,0.45-0.42c0.26-0.13,0.52-0.23,0.74-0.35
	c0.29-0.16,0.55-0.32,0.84-0.48l0.1-0.03c0.23-0.06,0.39-0.16,0.48-0.32l0.13-0.06c0.55-0.35,1.19-0.74,1.16-1.45
	c0-0.26-0.26-0.42-0.48-0.45c-0.55-0.1-1.03,0.39-1.45,0.71c-0.13-0.1-0.29-0.16-0.48-0.13c-12.97,1.64-25.91,3.35-38.76,5.79
	c-12.62,2.41-25.2,5.57-37.21,10.17c-2.61,1-5.18,2.09-7.73,3.25c6.08-4.76,11.97-9.72,17.83-14.74c8.59-7.37,17-14.97,25.08-22.92
	c0,0.26,0.32,0.52,0.58,0.32c1.42-1.26,2.93-2.32,4.51-3.32c0.48-0.29,0.97-0.58,1.45-0.84c0.19,0.13,0.42,0.23,0.71,0.19
	c10.62-1.58,21.15-4.6,31.22-8.37c10.14-3.8,19.92-8.56,29.2-14.2c5.21-3.19,10.24-6.63,15.06-10.36
	C187.54,182.51,186.67,181.39,185.74,181.65z M174.86,140.89c0.26,1.61,0.42,3.22,0.48,4.86c-1.58,3.03-3.19,6.02-5.12,8.85
	c-2,2.93-4.22,5.76-6.6,8.4c-4.86,5.34-10.69,9.88-16.96,13.49c-1.93,1.13-3.96,2.16-5.99,3.09c12.14-7.82,22.08-19.09,28.74-31.87
	c1.8-3.48,3.38-7.08,4.67-10.75C174.41,138.29,174.67,139.57,174.86,140.89z M168.9,119.87c2.16,5.41,1.35,11.39-0.55,16.77
	c-2,5.7-5.05,11.04-8.27,16.13c-3.15,4.96-6.63,9.69-10.46,14.13c-1,1.16-2.03,2.29-3.06,3.41c0.42-0.55,0.87-1.09,1.26-1.64
	c2.86-3.8,5.41-7.85,7.63-12.04c4.47-8.47,7.79-17.64,9.46-27.07c0.84-4.7,1.26-9.43,1.32-14.2
	C167.39,116.69,168.26,118.27,168.9,119.87z M158.06,123.8c0.23,0,0.42-0.16,0.39-0.45c-0.32-4.28,0.68-8.47,0.84-12.75
	c2.22,0.55,4.15,1.77,5.76,3.35c0.06,18.89-5.83,37.44-16.77,52.82c-1.51,2.12-3.09,4.22-4.8,6.15c-1.77,2.03-3.7,3.89-5.54,5.92
	l-0.06,0.16l-0.13,0.13c0.71-1.09,1.38-2.22,2.06-3.32l0.19-0.19c0.16-0.26,0.29-0.55,0.42-0.84c3.09-5.25,5.89-10.65,8.3-16.22
	c2.38-5.47,4.41-11.14,5.99-16.87c1.58-5.7,2.86-11.59,3.32-17.48L158.06,123.8z M154.42,100.66c4.92,5.15,2.86,12.2,2.83,18.73
	c-0.06,0.06-0.13,0.16-0.13,0.29c-0.77,5.86-1.74,11.72-3.15,17.45c-1.19,4.86-2.74,9.66-4.51,14.32c3.67-12.3,5.5-25.17,5.38-37.95
	c-0.03-4.44-0.32-8.85-0.84-13.26C154.13,100.37,154.29,100.5,154.42,100.66z M152.68,99.31c2.12,17.29,0.77,34.99-4.02,51.73
	c-0.32,1.13-0.71,2.25-1.06,3.41c0.19-0.84,0.42-1.71,0.61-2.54c0.9-4.22,1.55-8.47,2-12.75c0.87-8.37,0.87-16.83,0.03-25.2
	c-0.48-4.83-1.22-9.62-2.32-14.36c-0.06-0.29-0.29-0.45-0.55-0.45C149.11,98.21,151.04,98.41,152.68,99.31z M146.76,99.5v0.26
	c3.8,16.58,4.25,33.7,1.03,50.41c-0.45,2.29-0.93,4.54-1.51,6.76c-0.45,1.74-1,3.48-1.45,5.21c-0.39,0.87-0.8,1.71-1.22,2.54
	c0.9-3.64,1.64-7.34,2.16-11.07c1.06-7.56,1.32-15.26,0.74-22.89c-0.29-3.8-0.77-7.6-1.45-11.33c-0.71-3.89-2.03-7.82-2.03-11.78
	C143.02,104.59,144.12,101.3,146.76,99.5z M139.55,110.54c0.03-0.77,0.1-1.58,0.16-2.38c0.58,0.13,1.13,0.29,1.64,0.58
	c0.06,1.13,0.19,2.25,0.39,3.35c0.74,4.06,1.74,8.01,2.32,12.1c1.13,8.01,1.29,16.16,0.55,24.21c-0.42,4.54-1.13,9.08-2.12,13.55
	c-0.52,2.25-1.09,4.51-1.74,6.73c-0.35,1.22-0.8,2.41-1.19,3.64c-0.32,0.58-0.68,1.16-1.03,1.71c2.8-6.37,4.44-13.33,4.96-20.15
	c0.8-10.27-1.51-20.28-2.96-30.39c-0.42-2.86-0.74-5.73-0.9-8.63C139.52,113.41,139.52,111.96,139.55,110.54z M135.49,108.51
	c0.97-0.35,2-0.55,2.99-0.52c-0.23,1.77-0.1,3.67-0.06,5.38c0.06,2.54,0.29,5.09,0.61,7.63c0.64,5.12,1.61,10.17,2.38,15.26
	c0.77,5.05,1.29,10.14,1.09,15.29c-0.19,4.8-0.93,9.56-2.19,14.2c-0.74,2.74-1.71,5.38-2.83,7.95c1-2.9,1.55-6.02,1.87-8.98
	c0.48-4.31,0.52-8.66,0.23-12.97c-0.61-9.27-2.58-18.38-3.64-27.59c-0.32-2.64-0.55-5.31-0.61-7.98
	C135.23,113.6,135.43,111.06,135.49,108.51z M133.33,135.81c-1.9-5.92-4.86-12.14-4.06-18.51c0.39-3.06,1.74-6.08,4.35-7.89
	c0.16-0.13,0.35-0.23,0.55-0.32c-0.16,1.87-0.13,3.8-0.1,5.67c0.06,2.32,0.23,4.64,0.45,6.95c0.48,4.76,1.29,9.5,2.09,14.2
	c1.48,8.76,2.93,17.61,2.29,26.52c-0.16,2.41-0.52,4.8-1.06,7.18c-0.1,0.45-0.23,0.9-0.35,1.35c0.87-5.25,0.9-10.69,0.29-16
	C137,148.43,135.36,142.05,133.33,135.81z M161.11,154.51c3.44-5.34,6.76-10.98,8.88-17c0.93-2.61,1.61-5.34,1.9-8.11l0.03,0.06
	c0.39,1.22,0.77,2.48,1.16,3.73c0.19,0.71,0.39,1.42,0.55,2.12l-0.16,0.23c-4.67,14.32-13.26,27.2-24.62,37.05
	c-3.15,2.74-6.53,5.28-10.04,7.56c-0.13,0.1-0.13,0.23-0.06,0.32c-0.74,0.32-1.48,0.61-2.22,0.9
	C146.31,174.15,154.55,164.68,161.11,154.51z M135.75,182.22l0.29,0.03c13.65-4.96,25.85-14.39,34.28-26.2
	c1.83-2.58,3.57-5.28,5.05-8.11c-0.1,2.67-0.55,5.34-1.58,7.85c-1.9,4.67-5.47,8.27-9.43,11.3c-4.25,3.22-8.85,6.05-13.52,8.66
	c-5.21,2.93-10.59,5.63-16.09,7.98C135.07,183.22,135.39,182.74,135.75,182.22z M84.99,116.14c4.47,3.06,7.63,7.76,7.02,13.36
	c-0.35,3.12-1.64,6.05-3.12,8.76c-1.55,2.83-3.35,5.57-5.15,8.24c-3.54,5.34-7.34,10.46-11.33,15.45c-2.25,2.8-4.54,5.57-6.95,8.27
	c-0.42,0.48-0.84,0.93-1.29,1.42c3.8-5.44,7.31-11.14,10.43-16.93c4.25-7.89,7.69-16.29,9.4-25.11
	C84.89,125.15,85.21,120.65,84.99,116.14z M83.7,115.34c1.22,17.93-6.76,34.7-16.19,49.41c-1.35,2.09-2.74,4.18-4.09,6.28
	c3.22-6.53,5.67-13.52,7.56-20.54c2.25-8.27,3.64-16.8,4.12-25.36c0.23-4.31,0.23-8.63,0-12.94
	C78.1,112.89,81.03,113.79,83.7,115.34z M66.93,143.57c0.61-5.92,0.9-11.88,0.84-17.8c-0.03-4.96-0.26-9.95-0.84-14.87
	c2.29,0.32,4.6,0.64,6.89,1.09c1.03,16.77-1.42,33.73-7.27,49.47c-1.67,4.51-3.67,8.85-5.76,13.2c-0.06,0.13-0.03,0.26,0.06,0.32
	c-0.26,0.42-0.52,0.8-0.77,1.22c-0.13,0.13-0.23,0.26-0.35,0.39C63.45,165.9,65.77,154.8,66.93,143.57z M61.17,101.72
	c2,1.09,2.9,3.32,3.35,5.44c0.55,2.51,0.71,5.09,0.93,7.63c0.23,2.83,0.39,5.67,0.48,8.5c0.19,5.7,0.06,11.43-0.39,17.09
	c-0.87,11.39-3.06,22.6-6.15,33.57c-0.1,0.39-0.23,0.74-0.32,1.13c-0.03-0.35-0.1-0.68-0.13-1.03c3.06-18.93,3.67-38.3,1.74-57.36
	c-0.52-5.25-1.26-10.43-2.12-15.61C59.49,101.04,60.36,101.27,61.17,101.72z M39.76,112.79c1.32-0.64,2.64-1.22,3.96-1.8l0.19-0.13
	c-1.29,2.99-1.93,6.28-1.87,9.56c0.13,5.76,2.51,11.2,4.83,16.38c1.35,3.06,2.64,6.15,3.77,9.27c1.64,4.92,2.96,9.98,4.06,15.06
	c-0.1-0.26-0.16-0.48-0.23-0.74c-1.32-3.8-2.9-7.47-4.51-11.14c-3.32-7.69-6.92-15.32-8.85-23.5c-0.55-2.25-0.93-4.51-1.16-6.82
	C39.7,116.82,39.73,114.82,39.76,112.79z M37.96,150.68c-4.38-3.83-9.08-7.89-11.75-13.2c-1.26-2.48-1.96-5.21-1.71-8.01
	c0.26-2.74,1.38-5.31,2.96-7.5c0.32-0.45,0.71-0.9,1.09-1.32c-0.26,6.86,5.38,13.26,8.95,18.61c4.86,7.21,9.3,14.71,13.36,22.4
	c0.64,1.22,1.26,2.48,1.9,3.73C48.68,159.79,43.11,155.12,37.96,150.68z M55.82,168.54c-0.93-1.9-1.9-3.77-2.86-5.63
	c-1.96-3.73-4.02-7.4-6.18-11.01c-2.12-3.57-4.31-7.08-6.6-10.53c-2.29-3.44-4.8-6.76-7.02-10.24c-2.25-3.51-3.89-7.37-3.67-11.52
	c2.61-2.67,5.79-4.64,9.14-6.31c-0.19,3.48,0.26,7.05,0.93,10.4c0.8,4.06,2.06,8.05,3.57,11.91c2.99,7.76,6.92,15.1,9.98,22.82
	c0.87,2.19,1.71,4.41,2.41,6.66c0.26,1.42,0.52,2.86,0.74,4.28C56.11,169.12,55.95,168.83,55.82,168.54z M56.47,159.5
	c-0.1-0.48-0.19-0.97-0.32-1.48c-0.26-1.13-0.55-2.22-0.84-3.32c-0.03-0.16-0.1-0.35-0.13-0.52c-0.48-1.83-1-3.67-1.55-5.5
	c-1.83-5.99-3.99-11.94-6.82-17.54c-0.39-0.74-0.77-1.48-1.19-2.22c-0.23-0.68-0.45-1.38-0.68-2.06c-1.45-4.92-1.51-10.08,0.42-14.9
	c0.45-1.09,0.97-2.16,1.58-3.19c5.12,16.03,8.37,32.61,9.69,49.38c0.1,1.22,0.16,2.41,0.26,3.64
	C56.79,161.04,56.63,160.27,56.47,159.5z M58.01,167.39c-0.06-6.86-0.71-13.74-1.51-20.54c-1.03-8.47-2.54-16.87-4.54-25.17
	c-1.13-4.7-2.45-9.37-3.86-13.97l-0.16-0.26c1.77-2.51,4.12-4.6,6.95-5.73c0.8-0.32,1.67-0.55,2.54-0.64
	c3.32,18.89,4.25,38.24,2.8,57.36c-0.35,4.57-0.87,9.14-1.48,13.71C58.5,170.54,58.27,168.96,58.01,167.39z M35.8,180.55
	c4.89,8.5,8.88,17.48,11.65,26.88c2.93,9.98,4.51,20.34,4.73,30.74c0,0.13,0,0.29,0,0.42c-0.35-3.67-0.87-7.31-1.55-10.94
	c-1.96-10.46-5.25-20.7-8.95-30.68c-1.03-2.8-2.09-5.57-3.19-8.34c-0.87-2.19-1.71-4.44-2.67-6.6
	C35.8,181.58,35.77,181.07,35.8,180.55z M45.04,225.29c-3.19-9.69-6.34-19.44-8.08-29.55c-0.61-3.67-1.06-7.4-1.19-11.14
	c0.45,1.16,0.93,2.32,1.38,3.51c0.93,2.45,1.9,4.92,2.83,7.37c1.83,4.92,3.57,9.88,5.12,14.94c3.12,10.17,5.31,20.67,5.76,31.32
	c0.03,1,0.03,2,0.06,2.99C49.29,238.17,47.17,231.7,45.04,225.29z M136.46,241.58c0.29-0.06,0.61-0.1,0.9-0.16
	c-8.69,3.03-17.45,5.73-26.36,7.98c-10.53,2.64-21.21,4.67-31.96,6.21c-2.96,0.42-5.92,0.8-8.92,1.16
	c18.99-5.21,38.08-9.88,57.42-13.55C130.53,242.64,133.5,242.1,136.46,241.58z M85.28,250.34c11.14-3.06,22.5-5.25,33.89-7.05
	c-1.93,0.42-3.86,0.84-5.79,1.26c-10.53,2.38-20.95,5.05-31.35,7.89c-5.38,1.48-10.72,3.09-16.03,4.8
	c-0.55,0.06-1.09,0.13-1.67,0.19C71.18,254.65,78.2,252.3,85.28,250.34z M64.71,258.22h0.1l0.13-0.03
	c20.54-1.55,40.85-6.05,60.68-11.46c1.8-0.48,3.61-1.03,5.38-1.55c-5.86,2.67-11.88,5.05-18.03,7.05
	c-10.98,3.54-22.31,5.79-33.83,6.37c-5.02,0.26-10.04,0.13-15.06-0.32C64.29,258.25,64.48,258.22,64.71,258.22z M103.17,165.62
	c1.13,8.63,1.09,17.38-0.23,26.01c-1.67,10.91-5.25,21.57-10.59,31.22c-1.35,2.45-2.83,4.8-4.38,7.11
	c5.99-17.06,10.36-34.6,13.36-52.44C101.98,173.6,102.66,169.61,103.17,165.62z M97.09,174.92c1.42-4.31,2.99-8.59,4.73-12.78
	c-0.55,4.41-1,8.82-1.64,13.2c-0.68,4.7-1.48,9.4-2.41,14.07c-1.83,9.4-4.12,18.7-6.76,27.88c-1.26,4.38-2.61,8.72-4.02,13.04
	C87.72,211.48,91.17,192.85,97.09,174.92z M113.28,212.93L113.28,212.93c6.5-4.18,13.36-7.89,20.41-11.14
	c10.85-4.99,22.15-8.98,33.51-12.62c3.03-0.97,6.08-1.9,9.11-2.8c-2.06,1-4.09,2.03-6.15,2.99c-4.64,2.22-9.3,4.44-14,6.53
	c-9.4,4.22-18.89,8.21-28.49,11.97c-4.57,1.8-9.14,3.61-13.74,5.38C113.8,213.06,113.54,212.9,113.28,212.93z M158.44,198.74
	c-9.56,4.76-19.54,8.63-29.84,11.46c-4.15,1.16-8.34,2.06-12.55,2.9c17.99-6.5,35.63-13.91,53.05-21.82
	c2.61-1.19,5.21-2.38,7.79-3.57c0.35-0.16,0.71-0.32,1.09-0.48C171.74,191.5,165.2,195.36,158.44,198.74z"/>
</svg>
