<svg width="1184" height="1354" viewBox="0 0 1184 1354" fill="none" xmlns="http://www.w3.org/2000/svg">
<path d="M1123.6 0.252991C1112.81 2.15704 1100.64 5.33049 1070.7 13.8988C1024.77 27.0156 1007.85 30.8238 981.816 33.5741C972.505 34.5261 968.061 35.5839 963.088 37.9111C931.875 52.4032 921.082 119.68 934.732 213.825C937.8 234.241 937.165 232.654 941.503 231.808C956.105 229.058 1007 205.151 1035.67 187.486C1084.45 157.338 1108.58 130.787 1132.81 80.0121C1147.62 49.1239 1153.44 32.0931 1153.65 19.1878C1153.76 5.85939 1148.36 0.464554 1134.29 0.0414276C1129.84 -0.0643616 1125.08 0.0414276 1123.6 0.252991Z" fill="#FCE9C4"/>
<path d="M851.777 71.6555C824.479 74.1943 802.153 84.5609 794.006 98.524C783.742 115.872 792.313 138.298 819.188 164.849C835.694 181.245 862.782 201.555 881.192 211.604C898.862 221.23 918.966 229.481 930.922 231.808L934.414 232.549L933.779 228.529C933.462 226.202 932.192 211.816 931.028 196.372C925.103 119.151 919.389 87.3112 910.395 80.118C902.037 73.6654 874.103 69.5399 851.777 71.6555Z" fill="#FCE9C4"/>
<path d="M1019.59 216.153C1018.21 217.528 1018.85 221.547 1020.97 224.192L1023.19 226.942L1020.22 228.423C1018.64 229.269 1013.24 230.75 1008.37 231.702C1003.4 232.549 998.957 233.924 998.323 234.558C997.476 235.51 997.793 235.616 999.804 235.193C1001.29 234.876 1005.83 234.03 1009.86 233.289C1021.39 231.385 1026.26 227.894 1026.26 221.653C1026.26 217.739 1021.71 213.931 1019.59 216.153Z" fill="#FCE9C4"/>
<path d="M964.887 229.693C938.964 235.722 938.541 235.828 926.796 234.558C907.644 232.549 893.36 232.972 884.896 235.934C875.161 239.213 863.205 245.242 863.628 246.512C863.84 247.146 868.284 249.05 873.468 250.743C887.223 255.292 900.132 255.609 915.686 252.012C922.14 250.531 928.489 249.05 929.97 248.733L932.615 248.098L929.97 249.474C899.603 264.071 885.425 273.486 863.628 293.584C825.749 328.492 805.433 360.332 807.549 381.277C809.56 400.741 826.383 412.8 856.539 416.396C877.489 418.935 907.327 414.598 922.987 406.665C931.451 402.433 933.779 400 935.578 393.442C939.81 378.209 940.551 340.445 937.906 284.699C936.001 245.031 936.001 247.146 937.906 247.146C939.281 247.146 939.493 250.637 939.493 271.793C939.493 360.861 957.692 421.58 988.8 435.649C993.667 437.87 995.466 437.976 1020.97 438.187C1049.85 438.399 1060.54 439.351 1103.71 445.38C1117.89 447.39 1134.92 449.612 1141.59 450.352C1186.98 454.901 1194.81 439.351 1169.42 395.346C1162.54 383.604 1147.62 360.967 1139.47 350.389C1113.13 315.481 1080.32 292.738 1025.2 271.159C997.053 260.052 956.951 248.416 946.265 248.098C944.572 248.098 943.937 247.781 944.783 247.464C945.63 247.146 951.978 247.464 959.068 248.204C971.236 249.474 971.976 249.368 978.113 247.146C981.605 245.877 986.155 244.713 988.165 244.608C994.408 244.185 996.63 242.386 996.63 237.626C996.63 232.443 993.244 229.587 988.271 230.75C986.578 231.068 983.298 230.962 981.076 230.433C973.458 228.529 970.707 228.317 964.887 229.693Z" fill="#FCE9C4"/>
<path d="M998.111 237.732C997.476 238.79 1003.72 239.742 1011.55 239.742C1018.32 239.742 1024.14 241.223 1024.14 242.915C1024.14 243.338 1023.4 244.29 1022.45 245.031C1021.49 245.877 1020.97 247.675 1021.18 249.685C1021.39 252.33 1021.92 252.964 1024.14 252.964C1027.74 252.964 1029.43 248.204 1027.31 244.185C1024.77 239.742 1019.59 237.838 1008.48 237.415C1002.98 237.203 998.323 237.415 998.111 237.732Z" fill="#FCE9C4"/>
<path d="M519.221 259.206C508.534 263.014 496.577 275.707 479.754 301.095C450.656 345.1 440.287 370.487 434.679 411.107C432.669 425.388 432.986 470.345 435.208 493.617C436.69 509.061 440.287 533.285 442.721 544.392C443.038 545.873 441.874 543.122 440.287 538.362C437.113 529.688 434.362 525.457 428.437 520.485C426.744 519.004 425.262 516.889 425.262 515.831C425.262 513.398 421.453 510.542 418.279 510.542C415.845 510.542 411.507 514.985 411.507 517.418C411.507 518.158 412.354 519.851 413.518 521.226C414.576 522.601 415.74 526.092 416.269 529.054C417.327 536.881 418.914 539.737 427.379 550.21C436.478 561.528 438.912 566.077 444.414 582.156C449.281 596.119 453.725 605.533 458.38 611.457C462.295 616.429 478.273 630.18 479.331 629.44C481.129 628.382 476.685 603.735 473.405 596.542C470.443 589.984 466.634 584.271 456.264 571.049C452.032 565.654 448.54 560.894 448.54 560.471C448.54 560.047 455.312 556.662 463.671 552.96C496.472 538.257 530.542 519.11 551.281 503.454C576.886 484.308 590.959 468.335 597.413 451.516C599.635 445.381 599.953 443.159 599.635 435.437C599.212 426.975 598.789 425.705 592.969 414.281C581.859 392.173 575.299 373.978 560.803 324.367C556.148 308.394 551.175 291.998 549.588 288.084C543.133 270.736 536.044 260.792 529.167 258.782C524.299 257.513 524.088 257.513 519.221 259.206Z" fill="#FCE9C4"/>
<path d="M169.734 452.785C155.45 454.795 148.361 457.334 143.07 462.411C138.838 466.537 138.521 467.171 138.521 472.566C138.521 484.096 145.927 495.627 175.554 530.111C207.719 567.664 220.84 584.906 233.748 606.908C243.589 623.516 249.302 628.276 263.586 631.661C288.134 637.373 324.956 628.276 371.194 605.004C391.403 594.744 391.827 594.849 373.416 605.745C343.366 623.305 318.713 641.182 313.317 649.115C310.989 652.5 310.883 653.558 311.412 661.28C313.634 688.995 336.912 728.557 359.026 742.732C394.895 765.58 422.934 731.73 438.065 647.528C441.134 630.392 441.98 595.061 439.758 580.04C438.912 574.328 437.959 569.356 437.642 569.039C437.324 568.827 431.928 571.578 425.58 575.386C412.248 583.213 409.391 584.8 409.391 584.271C409.391 583.954 415.316 580.04 422.617 575.491C429.918 570.943 435.843 566.817 435.843 566.394C435.843 565.971 432.775 562.163 428.86 557.932C415.21 542.699 389.816 521.014 364.211 502.82C321.781 472.46 290.885 459.238 249.091 453.42C235.865 451.622 181.056 451.093 169.734 452.785ZM408.333 585.118C408.333 585.329 407.275 586.07 406.005 586.704C403.677 587.868 403.677 587.762 405.582 586.281C407.804 584.483 408.333 584.271 408.333 585.118ZM393.52 593.58C393.52 593.792 392.462 594.532 391.192 595.167C388.864 596.33 388.864 596.225 390.769 594.744C392.991 592.945 393.52 592.734 393.52 593.58Z" fill="#FCE9C4"/>
<path d="M409.708 480.606C406.957 484.731 407.486 489.914 411.296 499.117C413.2 503.56 414.681 507.791 414.681 508.532C414.681 510.647 411.507 507.262 406.534 499.858C401.984 492.77 397.329 489.385 392.567 489.385C387.912 489.385 383.785 497.002 387.594 498.483C389.816 499.329 393.52 497.002 394.578 494.04C395.424 491.818 395.953 491.607 397.752 492.559C399.868 493.722 401.35 495.626 409.074 506.734C412.248 511.176 412.777 511.494 414.681 510.33C417.115 508.743 417.009 508.214 412.459 497.107C410.767 492.982 409.391 488.222 409.391 486.741C409.391 484.202 409.708 483.991 412.354 484.625C414.47 485.048 416.163 484.625 417.856 483.25C421.347 480.394 420.078 477.749 415.316 477.749C412.459 477.749 411.084 478.384 409.708 480.606Z" fill="#FCE9C4"/>
<path d="M568.633 506.205C551.81 511.917 538.372 518.158 496.683 539.103C476.368 549.364 457.534 558.672 454.889 559.624L450.127 561.528L455.947 566.923C481.658 590.512 526.839 613.15 568.633 623.305C614.237 634.306 638.996 622.882 638.996 590.936C638.996 567.029 625.558 536.141 606.195 515.408C592.229 500.493 587.996 499.435 568.633 506.205Z" fill="#FCE9C4"/>
<path d="M690.313 713.536C686.927 715.017 682.695 720.094 680.473 725.278C676.135 735.538 674.125 748.021 669.681 792.026C665.237 836.983 661.745 857.716 655.291 879.189C651.058 892.835 651.164 902.25 655.502 911.453C667.353 936.417 702.481 958.42 762.263 978.201C779.298 983.913 823.103 995.337 824.056 994.385C825.325 993.222 825.431 951.65 824.267 937.475C818.659 869.775 806.703 827.145 783.637 792.66C765.226 765.369 726.817 725.595 709.888 716.392C704.068 713.219 694.228 711.843 690.313 713.536Z" fill="#FCE9C4"/>
<path d="M1072.81 838.57C1062.13 839.416 1036.1 844.176 1017.79 848.513C986.26 856.129 959.385 868.929 933.991 888.393C912.935 904.683 878.335 940.966 857.597 968.575C843.524 987.404 837.282 997.665 838.869 999.674C839.504 1000.41 845.958 1003.38 853.259 1006.23C860.56 1008.98 866.273 1011.42 866.062 1011.63C865.744 1011.95 846.699 1005.18 838.551 1001.79C836.647 1001.05 836.541 1001.47 837.176 1013.11C838.869 1044.21 847.651 1074.99 865.004 1111.27C874.738 1131.58 884.049 1145.65 894.313 1155.6C904.682 1165.54 911.771 1169.03 922.034 1168.92C931.24 1168.92 938.541 1165.54 946.688 1157.61C966.474 1138.35 981.182 1096.78 978.113 1068.43C977.478 1061.77 977.055 1060.82 973.14 1057.11C966.051 1050.34 934.202 1035.85 902.883 1025.06C896.852 1022.95 891.985 1021.04 892.196 1020.83C892.408 1020.62 895.9 1021.36 899.92 1022.52C912.829 1026.23 940.763 1033 950.603 1034.79C955.893 1035.75 968.061 1036.7 977.69 1037.02C997.688 1037.65 1008.59 1036.17 1019.38 1031.09C1031.55 1025.49 1036.63 1019.24 1042.02 1003.48C1050.06 980.211 1060.01 959.689 1080.96 923.3C1110.27 872.314 1115.24 859.62 1109.95 848.83C1107.09 842.801 1101.8 839.839 1091.65 838.464C1087.41 837.935 1083.71 837.512 1083.39 837.618C1083.08 837.618 1078.31 838.041 1072.81 838.57Z" fill="#FCE9C4"/>
<path d="M220.522 843.647C212.904 848.09 198.832 863.111 176.718 890.825C166.031 904.154 154.392 918.434 150.9 922.56C141.166 933.878 120.956 954.188 111.857 961.805C101.382 970.584 97.1494 978.412 96.4087 990.154C94.61 1017.76 114.925 1058.49 153.228 1104.4C164.55 1117.94 190.367 1146.29 191.425 1146.29C195.128 1146.29 217.348 1111.27 231.209 1083.56C261.365 1023.58 271.205 982.644 266.549 938.11C265.174 925.416 260.73 898.124 257.979 885.854C253.006 862.899 245.176 845.868 238.087 842.272C233.114 839.627 226.553 840.156 220.522 843.647Z" fill="#FCE9C4"/>
<path d="M839.398 909.866C838.022 913.357 839.821 914.838 845.111 914.415L850.084 914.097L850.402 917.905C850.613 920.127 849.979 924.675 849.132 928.166C848.18 931.657 847.439 935.571 847.439 936.946C847.333 938.638 846.169 940.225 843.947 941.6C841.62 943.081 840.456 944.668 840.244 946.889C840.033 948.688 838.763 951.226 837.387 952.707C832.943 957.468 830.616 963.814 829.452 973.969C827.653 988.99 825.748 995.02 817.813 1010.89C807.443 1031.62 805.856 1037.54 806.385 1053.52C806.597 1060.6 807.126 1067.06 807.655 1067.8C808.607 1069.38 815.908 1061.24 823.103 1050.34C828.711 1041.88 831.25 1033.21 834.213 1013C836.435 997.982 837.599 994.491 845.429 979.47C851.46 968.046 851.672 967.199 851.672 959.689C851.672 955.352 852.201 951.438 852.73 951.121C854.105 950.274 854.105 945.726 852.73 943.187C851.989 941.706 852.73 938.956 856.327 931.34C858.867 925.945 861.723 920.867 862.676 920.021C864.157 918.752 864.792 918.963 867.225 921.396C870.505 924.675 874.315 924.675 874.738 921.396C875.267 917.905 871.458 915.261 866.908 916.107C861.723 917.165 859.29 920.127 854.317 931.34C851.989 936.629 849.767 940.648 849.45 940.437C848.709 940.014 849.873 931.551 851.566 925.627C853.259 919.492 852.941 915.79 850.508 911.876C848.603 908.808 847.757 908.279 844.159 908.279C841.408 908.279 839.715 908.808 839.398 909.866Z" fill="#FCE9C4"/>
<path d="M678.463 962.968C674.019 963.497 665.448 972.7 659.417 983.49C653.28 994.279 647.037 1011.31 644.286 1024.64C641.218 1039.34 641.641 1060.08 645.133 1069.07C657.724 1101.33 698.884 1096.25 761.946 1054.68C778.24 1043.89 790.62 1033.63 804.163 1019.77C812.734 1010.89 823.103 998.299 823.103 996.818C823.103 996.501 820.564 996.289 817.39 996.184C809.983 996.078 794.852 992.058 758.031 980.739C724.066 970.267 703.645 964.872 694.546 963.814C682.695 962.651 681.848 962.545 678.463 962.968Z" fill="#FCE9C4"/>
<path d="M71.1204 1043.57C46.8902 1051.93 19.0625 1075.52 7.00027 1097.63C-3.05156 1116.14 -2.3109 1131.16 9.43388 1142.9C25.5168 1158.88 59.0582 1166.17 111.751 1165.12C131.96 1164.59 138.203 1164.06 150.16 1161.84C166.56 1158.66 181.479 1154.43 187.51 1151.36L191.742 1149.25L185.923 1143.33C182.749 1139.94 172.591 1128.52 163.386 1117.73C117.253 1063.99 92.8112 1040.51 83.0768 1040.51C81.278 1040.51 75.8818 1041.88 71.1204 1043.57Z" fill="#FCE9C4"/>
<path d="M249.937 1086.63C248.985 1089.06 250.889 1091.6 254.487 1092.87C256.18 1093.4 257.661 1093.93 257.873 1094.03C258.825 1094.67 255.016 1099.95 248.985 1106.3C245.282 1110.11 242.213 1113.92 242.213 1114.66C242.213 1116.35 254.275 1104.61 257.026 1100.17C259.989 1095.51 259.883 1088.74 256.815 1086.63C253.746 1084.41 250.784 1084.51 249.937 1086.63Z" fill="#FCE9C4"/>
<path d="M263.269 1105.03C261.259 1105.56 252.582 1110.85 244.435 1116.35C244.224 1116.56 244.329 1116.99 244.647 1117.3C245.07 1117.73 248.985 1115.61 253.535 1112.65C258.085 1109.69 263.058 1106.94 264.75 1106.62C267.29 1105.98 267.607 1106.2 267.607 1108.42C267.607 1114.02 274.062 1118.26 275.543 1113.6C277.342 1107.99 270.147 1102.92 263.269 1105.03Z" fill="#FCE9C4"/>
<path d="M231.738 1117.09C230.468 1118.47 226.553 1120.69 223.168 1121.85C217.771 1123.86 215.761 1125.45 209.201 1132.85C196.61 1146.92 191.848 1150.94 177.564 1158.98C162.962 1167.23 154.18 1174.32 148.89 1182.04C143.599 1189.76 137.568 1201.19 138.521 1201.82C139.684 1202.56 153.651 1197.91 162.433 1193.89C169.417 1190.72 180.103 1181.09 192.906 1166.39C195.763 1163.21 197.139 1161.94 196.08 1163.74C178.516 1192.83 168.253 1223.61 162.222 1265.29C159.682 1282.43 159.682 1311.2 162.116 1321.14C167.301 1341.88 177.564 1352.14 194.388 1353.41C212.904 1354.68 238.298 1342.19 260.412 1321.04C275.86 1306.23 284.431 1293.32 284.537 1284.97C284.537 1276.93 269.406 1251.75 245.07 1219.49C238.827 1211.24 233.854 1204.47 234.066 1204.47C234.277 1204.47 238.51 1209.33 243.377 1215.26C254.064 1228.48 276.918 1251.96 287.711 1261.06C309.613 1279.25 327.918 1288.03 344.319 1288.03C354.794 1288.03 359.132 1286.24 372.252 1276.5C395.001 1259.68 404.841 1253.87 447.905 1231.76C485.997 1212.19 496.048 1206.37 504.09 1198.97C511.073 1192.62 513.084 1189.13 513.084 1183.52C513.084 1174.32 499.752 1162.68 477.638 1152.63C449.916 1140.05 422.194 1130.53 400.926 1126.08C386.854 1123.23 356.698 1122.17 339.346 1123.97C310.142 1127.03 265.174 1138.04 233.114 1150.1C219.253 1155.17 205.18 1161.73 205.18 1163C205.18 1163.95 217.348 1181.83 223.591 1189.97C225.284 1192.09 226.342 1193.89 226.024 1193.89C225.284 1193.89 202.641 1164.38 201.054 1161.31C199.361 1158.24 199.572 1158.13 215.761 1148.83C228.246 1141.74 231.315 1139.2 234.912 1132.22C236.076 1130.1 237.558 1128.3 238.404 1128.3C240.732 1128.3 243.271 1124.6 243.271 1121.22C243.271 1114.87 236.182 1112.33 231.738 1117.09ZM228.987 1197.06C230.045 1198.23 230.68 1199.18 230.363 1199.18C230.045 1199.18 228.987 1198.23 227.929 1197.06C226.871 1195.9 226.236 1194.95 226.553 1194.95C226.871 1194.95 227.929 1195.9 228.987 1197.06ZM232.796 1202.03C234.172 1203.73 234.066 1203.83 232.479 1202.46C231.421 1201.72 230.574 1200.87 230.574 1200.66C230.574 1199.81 231.421 1200.34 232.796 1202.03Z" fill="#FCE9C4"/>
</svg>
