<?xml version="1.0" encoding="utf-8"?>
<!-- Generator: Adobe Illustrator 28.0.0, SVG Export Plug-In . SVG Version: 6.00 Build 0)  -->
<svg version="1.1" id="Calque_1" xmlns="http://www.w3.org/2000/svg" xmlns:xlink="http://www.w3.org/1999/xlink" x="0px" y="0px"
	 viewBox="0 0 595.28 841.89" style="enable-background:new 0 0 595.28 841.89;" xml:space="preserve">
<style type="text/css">
	.st0{fill:#1D1D1C;}
</style>
<path class="st0" d="M417.19,403.75c-3.01-4.88-9.62-6.18-14.06-2.56c-0.46,0.38,0.15,1.18,0.64,0.83c4.54-3.22,11-1.02,12.85,4.27
	c1.69,4.85-0.32,9.87-3.61,13.49c-6.4-7.69-18.28-8.51-26.88-4.5c-0.53,0.25-0.48,0.94-0.17,1.31c2.01,2.42,4.28,4.7,6.98,6.19
	c-3.3,0.74-6.55,2.07-9.64,3.34c-0.66,0.27-0.8,1.27,0,1.49c2.44,0.66,4.97,1.55,7.5,2.11c-1.34,0.18-2.66,0.33-3.96,0.42
	c-5.85,0.42-11.62-0.01-17.3-1c-2.52-1.49-3.06-5.18-0.77-7.53c1.34-1.37,3.92-2.52,5.77-1.43c2.66,1.56,1.06,4.99-1.63,5.17
	c-0.83,0.06-0.83,1.25,0,1.29c2.69,0.15,4.96-2.27,4.36-4.98c-0.74-3.3-4.44-3.94-7.16-2.75c-2.58,1.13-4.6,3.88-4.28,6.78
	c0.12,1.12,0.57,2.15,1.25,3c-3.95-0.81-7.86-1.88-11.72-3.12c-0.19-9.09-5.91-17.21-13.16-22.23c-0.54-0.38-1.1,0.15-1.17,0.67
	c-0.42,3.17-0.12,6.41,0.82,9.44c-3.17-2.38-6.68-4.16-10.52-5.26c-0.51-0.15-0.89,0.33-0.8,0.8c0.54,2.91,1.78,6.03,3.8,8.35
	c-8.92-3.9-17.87-7.95-27.11-11.04c-0.85-1.3-1.68-2.64-2.02-4.16c-0.76-3.41,1.53-5.62,4.63-6.39c2.55-0.64,5.81-0.16,6.79,2.69
	c0.97,2.85-2.71,5.24-4.44,2.45c-0.37-0.6-1.48-0.22-1.2,0.51c0.96,2.47,4.4,2.8,6.21,0.98c2.34-2.35,0.66-6.25-1.89-7.66
	c-3.14-1.73-8.4-0.61-10.56,2.24c-2.08,2.74-1.16,6.03,0.58,8.71c-5.51-1.75-11.12-3.14-16.9-3.92c0.71-9.16-8.87-13.86-16.46-15.38
	c-0.57-0.11-1.07,0.34-0.93,0.93c1.54,6.3,5.97,11.4,11.81,13.87c-11.56-0.82-23.27,0.57-34.33,4.04c-0.07-0.24-0.25-0.44-0.54-0.42
	c-2.18,0.12-4.62,0.47-6.59-0.74c-2.51-1.56-2.08-4.4-0.01-6.16c1.54-1.3,3.79-1.97,5.79-1.54c0.78,0.15,1.47,0.49,2.08,1.02
	c0.01,0.78,0.02,1.56,0.04,2.34c-0.47,1.05-2.97,0.7-3.89,0.63c-0.66-0.04-0.83,1.08-0.16,1.17c2.26,0.31,6.63-0.11,5.95-3.53
	c-0.7-3.53-5.86-3.73-8.46-2.73c-2.86,1.09-5.69,4.12-4.52,7.39c1.1,3.06,4.27,3.74,7.24,3.61c-4.61,1.64-9.08,3.62-13.34,5.99
	c-3.95-11.26-20.32-11.01-30.07-12.5c-0.63-0.1-1.33,0.53-0.91,1.18c0.36,0.56,0.74,1.09,1.14,1.62c0.03,0.05,0.05,0.11,0.09,0.15
	c0.03,0.03,0.05,0.05,0.08,0.08c3.29,4.29,7.81,7.65,12.84,9.64c-3.97,0.13-7.85,1.02-11.6,2.4c-0.6,0.22-0.74,1-0.18,1.36
	c6.27,3.99,14.25,4.65,20.82,0.99c-5.35,3.8-10.25,8.23-14.53,13.28c-0.05-0.02-0.11-0.04-0.18-0.05c-0.01,0-0.01,0-0.02,0
	c-1.81-4.76-12.14-4.77-16.1-4.34c-7.25,0.77-14.19,4.2-18.78,9.92c-0.34,0.43-0.16,1.16,0.47,1.15c5.48-0.1,10.89,0.3,16.32,1
	c-4.25,4.77-7.3,11.07-9.61,16.93c-0.28,0.71,0.6,1.12,1.15,0.88c6.91-3.04,14.02-6.59,19.45-11.72c-0.1,2.72,0.2,5.38,0.71,8.07
	c0.09,0.51,0.8,0.65,1.13,0.3c4.72-4.9,6.89-12.02,5.37-18.62c0.32-0.79,0.62-1.6,0.87-2.44c0.06-0.19,0.02-0.35-0.06-0.49
	c1.99-2.2,4.08-4.26,6.25-6.2c-0.51,1.37-0.67,2.88-0.39,4.28c0.76,3.86,4.66,6.05,8.41,5.61c3.72-0.44,7.52-4.32,5.71-8.24
	c-1.68-3.64-7.04-2.95-8.02,0.8c-0.16,0.61,0.79,1.07,1.06,0.45c0.72-1.66,2.46-2.96,4.28-1.93c2.03,1.15,1.64,3.79,0.42,5.35
	c-1.56,1.99-4.41,2.47-6.73,1.65c-5.7-2.01-4.18-9.03,0.25-11.42c0.33-0.18,0.32-0.55,0.14-0.8c3.05-2.32,6.24-4.42,9.54-6.29
	c0.46,0.16,0.95-0.11,1.02-0.56c9.17-5.02,19.16-8.31,29.47-9.87c-9.72,3.75-17.32,12.8-19.85,22.84c-0.15,0.6,0.39,1.12,0.98,0.98
	c12.41-2.9,22.33-11.91,26.27-24.04c0.03-0.09,0.04-0.18,0.04-0.26c0.34-0.08,0.68-0.17,1.03-0.25c0.12-0.03,0.21-0.09,0.27-0.17
	c7.35-0.42,14.78,0.02,22.12,1.3c-2.57,0.75-4.88,2.42-6.23,4.75c-2.75,4.77-1.5,11.37,3.32,14.28c4.15,2.51,10.53,2.04,12.79-2.8
	c1.78-3.81-1.28-8.9-5.66-6.88c-0.66,0.3-0.19,1.32,0.48,1.14c3.37-0.88,4.98,3.18,3.29,5.69c-1.19,1.77-3.27,2.66-5.34,2.7
	c-3.48,0.06-6.93-2.12-8.09-5.46c-1.19-3.39-0.33-7.41,2.28-9.91c2.86-2.74,6.67-2.85,10.27-1.93c0.09,0.02,0.18,0.01,0.26-0.01
	c2.31,0.59,4.6,1.28,6.88,2.03c0.17,0.19,0.34,0.37,0.52,0.54c0.24,0.24,0.59,0.11,0.71-0.14c8.51,2.96,16.73,6.73,24.98,10.38
	c-0.05,0.04-0.11,0.08-0.17,0.12c-0.09-0.15-0.22-0.27-0.39-0.34c-4.56-1.87-8.69-3.1-13.48-1.39c-4.87,1.73-9.53,4.56-14.19,6.79
	c-0.68,0.33-0.4,1.25,0.19,1.47c9.69,3.62,21.7,1.66,28.66-6.38c4.92,2.17,9.87,4.3,14.89,6.18c-2.72,0.04-5.38,0.87-6.96,3.26
	c-2.29,3.47-0.49,7.96,2.92,9.89c2.73,1.54,7.4,1.87,9.4-1.06c1.6-2.35-0.16-5.98-3.13-5.42c-0.72,0.14-0.56,1.32,0.17,1.28
	c2.98-0.13,2.11,3.38,0.42,4.24c-0.83,0.42-1.86,0.54-2.78,0.51c-2.7-0.09-5.47-1.81-6.23-4.49c-1.75-6.16,5.06-6.98,9.53-7
	c3.9,1.36,7.87,2.55,11.93,3.49c6.35,1.46,13.43,2.4,20.45,2.25c-9.22,2.19-17.17,8.12-22.39,16.1c-0.41,0.63,0.27,1.46,0.97,1.26
	c9.8-2.89,27.07-4.92,28.39-17.78c0-0.04,0-0.07-0.01-0.11c7.78-1.05,15.17-3.72,21.07-8.84
	C417.77,418.18,421.17,410.21,417.19,403.75z M190.2,428.16c3.83-0.92,15.01-2.04,18.18,2.19c-0.61-0.02-1.19-0.01-1.78,0.02
	c0.01-0.29-0.16-0.57-0.53-0.56c-9.43,0.31-18.92,1.92-27.94,4.75C181.6,431.5,185.56,429.27,190.2,428.16z M176.76,435.83
	c0.05-0.05,0.11-0.1,0.17-0.15c8.13-2.12,16.17-3.57,24.47-4.37c-3.58,1.18-6.62,3.36-9.23,6.11c-0.04-0.18-0.16-0.34-0.38-0.37
	C186.79,436.28,181.8,435.93,176.76,435.83z M208.15,431.53c0.01,0.03,0.01,0.06,0.02,0.09c-8.33,4.91-15.41,12.15-22.52,18.76
	C190.22,440.76,196.63,432.28,208.15,431.53z M184.1,453.81c0.09-0.21,0.18-0.41,0.27-0.62c3.94-3.56,7.88-7.12,11.81-10.68
	c3.83-3.46,7.62-7.27,12.24-9.67c0.02,0.11,0.03,0.22,0.05,0.32C203.94,443.52,194.21,449.42,184.1,453.81z M204.11,449.6
	c-0.31-2.09-0.5-4.18-0.65-6.31c1.16-1.18,2.22-2.44,3.18-3.79C205.78,442.86,204.93,446.23,204.11,449.6z M204.71,449.96
	c1.22-4.32,2.38-8.65,3.52-12.99c0.18-0.33,0.38-0.65,0.55-0.99C209.09,441.02,207.8,445.76,204.71,449.96z M204.28,402.54
	c3.3,1.33,10.75,4.38,11.7,4.77c4.11,1.67,8.15,3.51,12.15,5.42C218.98,413.13,210.2,409.79,204.28,402.54z M206.52,416.16
	c5.8,0.5,11.63,0.49,17.44,0.14C218.1,418.64,212.09,418.8,206.52,416.16z M224.68,416.94c0.14-0.21,0.07-0.53-0.12-0.68
	c0.41-0.03,0.82-0.06,1.23-0.08C225.42,416.44,225.04,416.69,224.68,416.94z M227.97,414.74c-0.01,0-0.02,0-0.03,0
	c-7.03,0.61-14.01,0.69-21.05,0.57c3.67-1.11,7.37-1.65,11.28-1.89c3.44,0.96,7.05,1.28,10.61,0.8
	C228.51,414.39,228.24,414.57,227.97,414.74z M214.56,405.37c-2.95-1.13-5.91-2.26-8.91-3.24c-0.43-0.14-0.82-0.31-1.2-0.45
	c9.13,1,22.29,1.63,25.99,10.52C225.24,409.71,219.95,407.45,214.56,405.37z M266.65,404.16c-7.49,5.87-14.68,12.06-21.55,18.64
	C249.02,413.41,256.96,407.14,266.65,404.16z M244.03,425.81c0.02-0.08,0.05-0.16,0.07-0.24c7.28-7.08,14.93-13.74,22.96-19.94
	C262.91,415.56,254.48,423,244.03,425.81z M273.26,389.35c1.97,1.77,3.94,3.54,5.86,5.36c1.7,1.61,4.04,3.37,5.4,5.5
	C279.36,398.39,275.27,394.45,273.26,389.35z M286.31,400.73c-0.82-1.96-2.77-3.4-4.33-4.81c-2.94-2.67-5.94-5.29-9.04-7.77
	c6.81,1.62,13.36,5.26,14.05,12.74C286.76,400.85,286.54,400.79,286.31,400.73z M307.8,424.46c-0.09-0.02-0.17-0.04-0.25-0.06
	c3.05-1.54,6.11-3.1,9.21-4.53c4.77-2.2,8.64-2.28,13.2-0.84c-7.34,1.76-14.7,3.44-21.99,5.36
	C307.9,424.4,307.85,424.43,307.8,424.46z M310.92,425.13c6.71-1.53,13.39-3.22,20.08-4.85
	C324.89,424.31,318.03,426.22,310.92,425.13z M336.67,418.34c-1.96-2.53-3.57-4.89-4.44-7.9c3.67,3.91,7.68,7.82,12.03,11.06
	C341.71,420.48,339.18,419.42,336.67,418.34z M332.69,410c3.56,1.25,6.81,3.05,9.73,5.5c0.08,0.06,0.16,0.1,0.24,0.13
	c0.96,2.24,2.29,4.29,3.94,6.07C341.93,417.81,337.17,414.13,332.69,410z M351.08,424.11c-5.56-4.51-8.83-10.83-8.62-18.07
	c4.07,5.98,7.41,12.17,10.51,18.73C352.34,424.55,351.7,424.34,351.08,424.11z M343.53,406.2c5.36,4.24,8.33,9.99,9.91,16.54
	C350.9,416.85,347.47,411.26,343.53,406.2z M409.97,418.89c-6.56-1.25-13.14-2.41-19.75-3.38
	C397.16,413.43,403.84,415.13,409.97,418.89z M388.06,416.48c7.28,1.03,14.52,2.27,21.71,3.84c-4.06,1.74-8.52,3.31-12.89,2.27
	C393.25,421.74,390.45,419.22,388.06,416.48z M394.27,423.45c1.13,0.49,2.33,0.84,3.61,1.01c-2.83,0.42-5.67,0.76-8.55,0.98
	C390.99,424.81,392.65,424.17,394.27,423.45z M388.62,432.26c-7.11,4.86-14.51,9.2-22.22,13.04
	C372.13,438.54,379.76,434.27,388.62,432.26z M366.31,446.82c8.1-3.98,15.88-8.5,23.35-13.56
	C386.96,442.16,375.17,444.62,366.31,446.82z M393.87,429.22c-0.04-0.05-0.09-0.08-0.15-0.11c-2.39-1.12-5.12-1.75-7.75-2.39
	c0.18-0.07,0.36-0.14,0.54-0.21c7.18,0.15,14.71-0.63,21.57-2.78c0.55-0.17,0.47-0.84,0.06-1.02c1.17-0.47,2.32-0.98,3.45-1.5
	C406.82,425.5,400.34,427.97,393.87,429.22z"/>
</svg>
