<svg width="580" height="200" viewBox="0 0 580 200" fill="none" xmlns="http://www.w3.org/2000/svg">
<path d="M10.0798 160.511C10.1232 160.553 10.1868 160.608 10.2415 160.615C10.3021 160.654 10.383 160.706 10.4377 160.712C10.631 160.793 10.8124 160.81 11.0051 160.791C11.3561 160.76 11.6692 160.619 11.9097 160.375C12.0616 160.231 12.1385 160.067 12.1952 159.89C12.2238 159.851 12.2149 159.803 12.2262 159.768C12.24 159.649 12.2454 159.581 12.2247 159.468C12.2011 159.339 12.1429 159.217 12.102 159.091C12.98 158.53 13.7885 157.882 14.6058 157.282C16.031 156.205 17.4473 155.079 18.8405 153.924C21.5351 151.697 24.1198 149.358 26.531 146.85C26.9362 146.726 27.37 146.563 27.7925 146.435C33.2004 144.61 38.5852 142.755 43.8887 140.749C45.9744 139.966 48.0597 139.084 50.1307 138.221C47.5312 139.897 45.0126 141.625 42.4911 143.337L37.7176 146.578C36.9401 147.104 36.1627 147.629 35.3996 148.136C34.8746 148.482 34.3293 148.815 33.8304 149.207C33.79 149.181 33.7294 149.142 33.6717 149.119C33.4237 149.032 33.2423 149.015 32.9889 148.995C32.7932 148.997 32.5921 149.068 32.4112 149.151C32.2302 149.234 32.0725 149.346 31.9236 149.507C31.7806 149.7 31.6722 149.886 31.6244 150.111C31.5933 150.234 31.5765 150.337 31.5972 150.449C31.6061 150.498 31.5834 150.568 31.5923 150.617C31.613 150.729 31.6308 150.826 31.6515 150.939C31.7156 151.094 31.8314 151.239 31.9586 151.349C31.9152 151.307 31.8861 151.246 31.8082 151.21C31.8748 151.281 31.927 151.371 32.0251 151.42C32.0917 151.491 32.1868 151.523 32.282 151.556C32.3397 151.579 32.3742 151.572 32.4289 151.579C32.5299 151.644 32.6423 151.673 32.772 151.699C32.9016 151.725 33.0111 151.738 33.1491 151.713C33.2758 151.723 33.3793 151.704 33.4942 151.65C33.7126 151.576 33.8876 151.461 34.0424 151.333C34.1656 151.227 34.2628 151.076 34.3456 150.944C34.4511 150.741 34.4733 150.571 34.4979 150.316C34.5176 150.229 34.5028 150.149 34.4881 150.068C34.4792 150.02 34.4733 149.988 34.4644 149.94C34.9322 149.67 35.371 149.34 35.8156 149.042C36.5931 148.516 37.3705 147.99 38.1336 147.484C39.7486 146.372 41.4154 145.25 43.0363 144.169C46.2091 142.021 49.4366 139.88 52.5138 137.6C60.742 136.272 68.9693 134.745 77.1527 133.076C91.662 130.112 106.091 126.714 120.38 122.841C94.8742 132.453 70.0863 144.132 47.2664 158.563C43.4789 160.957 39.787 163.483 36.098 166.026C35.2432 166.616 36.1098 167.839 36.9706 167.281C54.1134 156.124 72.1923 146.276 90.8529 137.655C88.7573 138.772 86.6789 139.886 84.6266 141.046C78.5359 144.496 72.596 148.184 67.0008 152.292C56.8282 159.738 47.6834 168.411 40.5116 178.504C38.5249 181.283 36.7718 184.17 35.1056 187.14C34.301 188.587 33.5542 190.056 32.8448 191.535C32.1127 193.085 31.2712 194.622 30.934 196.282C30.788 197.042 31.8721 197.409 32.2975 196.715C32.4375 196.506 32.5371 196.271 32.6397 196.052C32.7259 196.036 32.8063 195.988 32.8433 195.898C32.9433 195.763 33.035 195.68 33.1351 195.545C35.7341 193.769 38.2167 191.748 40.7343 189.82L49.0873 183.441C54.0482 179.666 59.0376 175.852 63.926 171.974C73.5509 164.361 82.9031 156.333 91.1773 147.387C95.5835 142.631 99.6659 137.569 103.312 132.27C103.347 132.263 103.341 132.231 103.358 132.228C103.404 132.186 103.487 132.154 103.539 132.145C103.574 132.138 103.568 132.106 103.568 132.106C103.731 132.026 103.858 131.936 104.018 131.84C109.395 129.554 114.807 127.362 120.274 125.275C120.274 125.275 120.274 125.275 120.309 125.269C124.561 123.656 128.836 122.071 133.14 120.548C153.144 113.512 173.56 107.649 194.166 102.633C181.326 106.039 168.806 110.803 157.037 116.744C142.851 123.895 129.583 132.942 118.415 143.901C115.35 146.929 112.418 150.098 109.686 153.381C108.315 155.048 106.993 156.689 105.701 158.392C104.425 160.091 103.092 161.768 102.071 163.588C101.623 164.353 102.856 165.142 103.385 164.429C103.499 164.275 103.613 164.121 103.728 163.966C103.892 163.886 104.018 163.797 104.178 163.7C105.969 163.155 107.686 162.407 109.41 161.691C111.398 160.86 113.365 160.015 115.327 159.139C119.319 157.374 123.232 155.473 127.111 153.478C134.82 149.515 142.328 145.139 149.541 140.418C163.513 131.325 176.191 120.621 189.909 111.208C196.529 106.662 203.417 102.5 210.655 98.8893C211.089 98.7264 211.563 98.5894 212.003 98.4587C220.45 96.5747 228.924 94.8357 237.412 93.1773C239.149 92.8251 240.915 92.5342 242.652 92.182C234.378 96.5653 226.653 101.897 219.605 107.904C218.447 108.882 217.326 109.871 216.229 110.888C211.88 113.235 207.633 115.747 203.283 118.094C200.961 119.337 198.639 120.579 196.304 121.757C195.13 122.356 193.973 122.951 192.779 123.537C192.173 123.831 191.46 124.128 190.809 124.465C190.655 124.31 190.488 124.174 190.309 124.073C189.688 123.704 188.857 123.741 188.265 124.116C187.64 124.497 187.186 125.23 187.264 125.948C187.279 126.029 187.322 126.071 187.337 126.151C187.352 126.232 187.335 126.335 187.384 126.409C187.552 127.028 188.098 127.477 188.732 127.627C189.311 127.77 190.018 127.64 190.526 127.297C191.1 126.926 191.465 126.292 191.379 125.626C191.355 125.497 191.334 125.384 191.276 125.261C191.885 124.983 192.465 124.643 193.004 124.378C194.23 123.77 195.454 123.146 196.656 122.508C198.985 121.298 201.313 120.088 203.63 118.813C207.166 116.898 210.7 114.967 214.112 112.859C211.513 115.318 209.013 117.825 206.654 120.423C205.931 120.955 205.281 121.591 204.616 122.146C203.567 123.038 202.504 123.949 201.414 124.815C199.356 126.526 197.248 128.161 195.101 129.771C190.822 132.988 186.39 136.05 181.839 138.95C179.685 140.329 177.457 141.603 175.366 143.037C175.138 142.862 174.875 142.694 174.558 142.619C174.065 142.459 173.496 142.564 173.025 142.817C172.606 143.06 172.315 143.514 172.184 143.97C172.078 144.456 172.163 144.923 172.401 145.346C172.616 145.74 173.116 146.031 173.594 146.11C174.594 146.309 175.751 145.714 175.944 144.729C175.986 144.471 175.997 144.236 175.935 143.998C175.914 143.885 175.897 143.788 175.847 143.714C177.76 142.764 179.559 141.684 181.381 140.533C183.699 139.075 186.009 137.569 188.241 136.027C192.69 132.962 197.003 129.739 201.171 126.309C201.607 125.962 202.054 125.581 202.484 125.202C200.853 127.2 199.248 129.243 197.725 131.338C194.66 135.531 191.748 139.879 189.491 144.49C189.071 144.434 188.66 144.526 188.289 144.744C187.965 144.92 187.713 145.199 187.536 145.498C187.16 146.167 187.221 146.988 187.811 147.479C188.299 147.906 189.022 147.956 189.628 147.762C189.761 147.704 189.878 147.666 189.976 147.615C190.034 147.637 190.106 147.641 190.123 147.638C190.295 147.606 190.427 147.548 190.551 147.442C191.052 146.967 191.118 146.256 190.887 145.682C190.782 145.402 190.614 145.166 190.397 144.956C192.774 141.189 195.072 137.387 197.644 133.717C200.685 129.395 204.001 125.206 207.533 121.227C214.632 113.263 222.786 106.187 231.635 99.9832C235.937 96.9951 240.388 94.2296 244.969 91.6899C278.815 85.3424 312.928 80.5445 347.007 75.753C347.962 75.6109 348.937 75.4819 349.857 75.3462C347.996 76.0876 346.163 76.8903 344.342 77.6576C344.215 77.6476 344.077 77.6729 343.951 77.7627C343.839 77.8332 343.713 77.923 343.618 77.9904C340.62 79.2403 337.65 80.5516 334.66 81.8499C331.626 83.0064 328.596 84.1791 325.454 85.1388C321.37 86.4048 317.225 87.4324 313.053 88.4148C304.842 90.322 296.555 91.9103 288.391 94.0752C272.731 98.2494 257.647 104.399 243.675 112.327C239.106 114.931 234.664 117.745 230.355 120.701C227.646 122.364 225.053 124.172 222.7 126.219C222.666 126.226 222.672 126.258 222.672 126.258C222.437 126.434 222.216 126.591 222.015 126.761C221.929 126.777 221.837 126.761 221.75 126.777C221.465 126.779 221.334 127.036 221.373 127.246C221.327 127.288 221.295 127.31 221.249 127.352C221.172 127.416 221.132 127.49 221.089 127.548C221.037 127.557 220.951 127.573 220.899 127.582C219.815 127.698 219.88 129.318 220.999 129.196C225.487 128.672 229.905 127.961 234.327 127.082C239.058 126.813 243.785 126.428 248.476 125.75C257.137 124.543 265.548 122.366 273.645 119.064C281.559 115.829 289.054 111.772 296.443 107.618C304.118 103.278 311.747 98.8794 319.297 94.3458C327.852 89.2613 336.364 84.1349 344.771 78.8278C344.929 78.7156 344.997 78.6031 345.063 78.4745C347.978 77.2565 350.917 76.0675 353.824 74.8011C368.323 72.7551 382.834 70.6737 397.301 68.4505C389.614 70.9776 382.067 73.9784 374.773 77.3826C368.972 80.0796 363.342 83.0283 357.832 86.2381C352.479 88.1701 347.185 90.2246 341.89 92.2792C338.908 93.4262 335.929 94.5893 332.947 95.7363C331.482 96.305 330.017 96.8738 328.552 97.4425C327.503 97.8515 326.466 98.2252 325.484 98.7052C325.478 98.673 325.478 98.673 325.44 98.6632C325.215 98.4049 324.978 98.182 324.666 98.0394C324.412 97.9195 324.173 97.8801 323.905 97.8793C323.813 97.8629 323.724 97.8627 323.632 97.8463C323.453 97.8457 323.229 97.8869 323.062 97.9508C322.709 98.0657 322.393 98.2901 322.162 98.5824C321.93 98.8748 321.759 99.2059 321.694 99.5342C321.636 99.8947 321.652 100.275 321.8 100.597C321.89 100.797 321.983 100.913 322.122 101.088C322.275 101.243 322.4 101.336 322.602 101.466C322.697 101.498 322.761 101.553 322.856 101.586C323.009 101.641 323.196 101.69 323.343 101.713C323.709 101.762 324.045 101.75 324.402 101.652C324.741 101.556 325.011 101.373 325.292 101.155C325.538 100.943 325.709 100.612 325.794 100.297C325.848 100.104 325.861 99.8849 325.825 99.6916C326.975 99.3473 328.084 98.8773 329.195 98.4234C330.661 97.8546 332.123 97.2698 333.582 96.6688C336.509 95.5152 339.416 94.3487 342.378 93.1887C344.354 92.3929 346.354 91.6261 348.33 90.8303C336.712 96.4271 325.208 102.253 313.654 108.005C311.693 108.981 309.717 109.976 307.762 110.985C306.407 111.666 305.011 112.322 303.706 113.078C303.63 112.959 303.532 112.811 303.439 112.694C302.976 112.213 302.2 111.972 301.513 112.015C301.478 112.022 301.455 111.993 301.455 111.993L301.421 111.999C301.386 112.005 301.369 112.009 301.328 111.983C300.391 112.122 299.697 112.715 299.48 113.571C299.423 113.748 299.404 113.935 299.405 114.134C299.314 114.318 299.243 114.514 299.186 114.691C299.092 114.958 299.148 115.164 299.23 115.415C299.312 115.667 299.69 115.881 299.951 115.749C299.986 115.743 300.031 115.701 300.066 115.695C300.066 115.695 300.072 115.727 300.109 115.737C300.673 116.283 301.624 116.408 302.397 116.15C302.698 116.044 302.988 115.874 303.2 115.669C303.229 115.63 303.278 115.605 303.312 115.598C303.358 115.557 303.424 115.528 303.429 115.46C303.535 115.358 303.656 115.236 303.721 115.107C304.004 114.705 304.083 114.258 304.006 113.839C305.126 113.334 306.254 112.777 307.334 112.246C309.117 111.369 310.897 110.476 312.712 109.576C316.195 107.854 319.651 106.087 323.134 104.365C330.206 100.819 337.295 97.2693 344.358 93.6745C347.016 92.3204 349.635 90.9405 352.221 89.583C348.91 91.6564 345.651 93.8201 342.499 96.0807C337.342 99.7586 332.408 103.679 327.769 107.944C327.286 107.55 326.609 107.458 325.968 107.659C325.414 107.844 324.952 108.245 324.725 108.753C324.596 109.026 324.512 109.341 324.568 109.648C324.621 109.938 324.709 110.221 324.894 110.454C325.077 110.67 325.288 110.848 325.573 110.945C325.861 111.059 326.121 111.111 326.443 111.118C326.964 111.139 327.513 110.922 327.874 110.556C327.997 110.45 328.094 110.299 328.16 110.17C328.268 109.984 328.377 109.798 328.43 109.604C328.492 109.26 328.43 108.922 328.299 108.596C337.45 101.221 346.83 94.2197 356.998 88.1065C367.63 81.7081 378.834 76.1873 390.466 71.637C394.057 70.2117 397.715 68.9573 401.419 67.7609C421.396 64.6592 441.286 61.2738 461.083 57.2892C467.326 56.0265 473.574 54.6962 479.816 53.3336C479.311 53.5929 478.84 53.8459 478.366 54.0827C475.051 55.4574 471.766 56.8932 468.509 58.3904C466.213 59.1949 463.923 59.9319 461.569 60.6138C457.686 61.7098 453.732 62.6188 449.767 63.4634C441.927 65.1528 434.007 66.6069 426.298 68.8215C410.732 73.3116 396.368 80.7613 382.105 88.0762C374.752 91.8408 367.411 95.57 360.052 99.3024C359.908 99.2955 359.785 99.3016 359.641 99.2947C359.407 99.2875 359.267 99.4964 359.286 99.6929C358.519 100.083 357.75 100.458 356.972 100.884C356.337 101.217 356.519 101.916 357.013 102.175C357.071 102.298 357.178 102.395 357.319 102.385C358.769 102.419 360.316 102.101 361.769 101.951C363.164 101.778 364.545 101.625 365.955 101.532C368.847 101.351 371.761 101.582 374.631 101.188C374.752 101.166 374.815 101.121 374.893 101.057C376.822 101.169 378.747 101.165 380.699 101.107C383.458 100.983 386.182 100.666 388.909 100.166C391.514 99.6873 394.251 99.0516 396.698 98.0028C396.83 97.9452 396.847 97.8422 396.774 97.739C399.493 96.9067 402.185 95.9295 404.819 94.8298C411.877 91.8854 418.542 88.1638 425.204 84.5259C432.303 80.6414 439.353 76.7824 446.452 72.8979C453.565 68.9941 460.655 65.0613 467.774 61.1897C467.875 61.2544 467.988 61.2837 468.134 61.2069C471.311 59.2748 474.71 57.485 478.058 55.8046C479.755 54.9435 481.463 54.1468 483.181 53.3985C484.04 53.0244 484.904 52.6824 485.763 52.3083C486.274 52.0812 486.806 51.8671 487.314 51.6239C515.958 45.0159 544.338 36.8743 571.446 25.8856C575.962 24.0573 580.437 22.2032 584.895 20.2524C585.225 20.1085 585.061 19.6056 584.711 19.7366C549.172 34.2549 512.008 44.8751 474.377 52.9501C453.252 57.4781 431.972 61.2521 410.669 64.6139C410.625 64.5719 410.527 64.5233 410.458 64.536C410.188 64.6189 409.88 64.692 409.61 64.7749C405.638 65.3876 401.635 66.0227 397.643 66.6225C397.602 66.5966 397.585 66.5998 397.548 66.59C389.703 67.4808 381.846 67.6245 374.007 67.282C357.874 62.0843 341.345 57.6421 324.213 56.3248C306.936 55.0006 289.233 56.4026 272.35 60.6182C262.883 62.9724 253.363 66.1026 244.642 70.3847C243.58 70.9128 244.446 72.6189 245.552 72.1327C246.595 71.6915 247.652 71.231 248.677 70.793C249.011 70.8648 249.363 70.9335 249.703 71.0376C249.804 71.1023 249.899 71.1348 250.043 71.1417C250.095 71.1321 250.135 71.158 250.187 71.1485C257.44 72.7644 264.945 73.6179 272.43 74.0752C281.146 74.6232 289.933 74.5918 298.684 74.2673C307.617 73.9594 316.568 73.365 325.515 72.8382C335.079 72.2811 344.624 71.711 354.188 71.1538C359.555 70.8513 364.901 70.5357 370.268 70.2332C371.767 70.1411 373.286 70.062 374.768 69.9731C369.312 70.7584 363.89 71.5374 358.428 72.2905C321.496 77.4727 284.537 82.41 247.809 89.087C243.823 89.8188 239.803 90.5569 235.826 91.337C235.753 91.2338 235.649 91.1529 235.505 91.1461C229.782 91.9306 224.078 92.728 218.383 93.6736C215.597 94.1353 212.769 94.5711 209.986 95.049C208.513 95.286 207.078 95.5328 205.629 95.799C204.904 95.932 204.156 96.036 203.466 96.1627C203.328 96.1881 203.19 96.2134 203.052 96.2387C193.642 94.3362 184.145 92.9325 174.553 92.0792C164.003 91.1521 153.383 90.8205 142.744 91.2585C132.117 91.6611 121.504 92.8269 111.008 94.7207C100.667 96.5861 90.5514 99.2926 80.7023 102.866C71.6231 106.165 62.824 110.212 54.4631 114.994C53.0557 115.586 51.6221 116.132 50.2378 116.753C49.0773 117.232 47.9573 117.737 46.7968 118.217C46.3689 118.412 46.1574 118.717 46.1274 119.039C46.047 119.087 45.9696 119.151 45.9238 119.193C45.8464 119.257 45.7719 119.338 45.732 119.412C45.2873 119.71 44.8313 120.043 44.3867 120.341C43.8962 120.681 44.1244 121.439 44.7574 121.389C45.6176 121.314 46.469 121.191 47.3258 121.001C47.3835 121.023 47.418 121.017 47.4697 121.008C47.6595 120.973 47.8261 120.909 47.9898 120.829C48.0416 120.819 48.1106 120.807 48.1737 120.762C48.3324 120.849 48.5484 120.859 48.7667 120.786C49.2439 120.665 49.7009 120.531 50.1781 120.41C50.2792 120.475 50.3916 120.504 50.5439 120.46C50.9432 120.303 51.3312 120.182 51.7478 120.022C55.7207 119.026 59.7226 118.092 63.7719 117.415C68.6953 116.544 73.6428 115.902 78.5819 115.312C88.6416 114.148 98.7446 113.608 108.839 113.12C127.057 112.19 145.366 111.559 163.381 108.552C156.707 110.476 150.088 112.508 143.493 114.668C139.036 116.135 134.588 117.652 130.169 119.229C123.63 121.112 117.091 122.896 110.519 124.602C90.7904 129.64 70.8061 133.675 50.6646 136.757C45.0447 137.622 39.4504 138.433 33.8211 139.15C30.9619 139.509 28.0913 139.902 25.229 140.245C23.1004 140.502 20.9717 140.76 18.8608 141.114C18.8549 141.082 18.846 141.034 18.8401 141.002C18.7439 140.769 18.6192 140.576 18.4142 140.43C18.2091 140.285 17.9927 140.175 17.7447 140.087C17.5574 140.038 17.3587 140.025 17.1457 140.03C17.1112 140.037 17.1112 140.037 17.094 140.04C17.0422 140.049 16.9673 140.03 16.9471 140.017C16.8953 140.026 16.8204 140.007 16.7686 140.016C16.5961 140.048 16.4063 140.083 16.2396 140.147C15.9897 140.243 15.8147 140.358 15.62 140.56C15.5426 140.625 15.4711 140.721 15.3996 140.817C15.3567 140.875 15.3281 140.914 15.3025 140.968C15.2029 141.203 15.1206 141.435 15.1679 141.692C15.1916 141.821 15.2123 141.934 15.2704 142.057C15.3256 142.163 15.3606 142.257 15.4445 142.324C15.4543 142.572 15.6421 142.721 15.8812 142.76C15.9882 142.857 16.0922 142.938 16.2046 142.968C16.3402 143.026 16.4871 143.049 16.5995 143.078C16.9485 143.231 17.4178 143.261 17.7654 143.114C18.1992 142.951 18.5689 142.633 18.7282 142.238C18.7908 142.093 18.8218 141.971 18.847 141.816C23.3449 141.64 27.8635 140.993 32.3077 140.427C37.3301 139.805 42.3378 139.102 47.3365 138.351C47.9809 138.266 48.6365 138.145 49.2779 138.044C45.1546 139.484 41.0457 140.904 36.9224 142.344C31.5549 144.196 26.1119 145.928 20.6601 147.611C19.1743 148.067 17.6914 148.54 16.2026 148.979C15.4124 149.241 14.5181 149.422 13.6618 149.712C13.4765 149.48 13.2137 149.312 12.8824 149.256C12.6778 149.21 12.4476 149.219 12.2292 149.293C12.1085 149.315 11.9704 149.34 11.8669 149.359C11.6515 149.449 11.442 149.57 11.2931 149.731C10.9899 150.12 10.8972 150.586 11.0347 151.044C11.1136 151.279 11.2497 151.438 11.4089 151.625C11.5159 151.722 11.6199 151.802 11.7727 151.858C11.9748 151.987 12.1711 152.084 12.4042 152.091C12.5309 152.102 12.6778 152.124 12.7814 152.105C13.0057 152.064 13.1437 152.039 13.336 151.92C13.4479 151.85 13.5396 151.766 13.614 151.686C13.6426 151.648 13.6569 151.628 13.6914 151.622C13.7343 151.564 13.7915 151.487 13.8343 151.429C13.8772 151.371 13.897 151.285 13.9226 151.23C13.9537 151.108 13.9704 151.005 13.9842 150.885L13.9783 150.853C13.9724 150.821 14.0069 150.815 14.0039 150.799C14.5817 150.643 15.1881 150.448 15.7313 150.298C17.0821 149.884 18.3983 149.476 19.7348 149.08C21.7092 148.468 23.6747 147.807 25.6461 147.179C23.2472 149.268 20.8109 151.347 18.3111 153.372C16.9923 154.446 15.6505 155.492 14.3056 156.522C13.4597 157.16 12.559 157.792 11.7362 158.459C11.6756 158.42 11.5834 158.404 11.4882 158.371C11.4478 158.345 11.3961 158.355 11.3616 158.361C11.2694 158.345 11.1629 158.348 11.0766 158.363C10.7256 158.395 10.4471 158.529 10.2178 158.738C9.97432 158.965 9.85501 159.287 9.87966 159.616C9.66275 159.989 9.82247 160.276 10.0798 160.511ZM98.9392 134.971C90.5566 141.772 82.3101 148.732 74.1908 155.801C64.9997 163.833 55.852 171.907 46.9617 180.217C45.148 181.899 43.3718 183.591 41.564 185.305C43.2811 183.291 45.0385 181.303 46.8162 179.328C51.7031 173.985 56.8153 168.8 62.1301 163.844C72.8026 153.874 84.357 144.726 96.601 136.516C97.413 135.984 98.1963 135.49 98.9392 134.971ZM34.193 192.37C34.7797 191.097 35.355 189.859 35.9964 188.592C37.3333 185.965 38.8951 183.397 40.5638 180.926C43.8668 175.99 47.6952 171.39 51.8589 167.062C60.9598 157.664 71.6914 149.765 83.0964 143.009C86.9106 140.76 90.8204 138.643 94.7765 136.585C89.8995 139.845 85.1556 143.247 80.496 146.817C68.774 155.83 57.8018 165.721 47.8411 176.459C43.2057 181.423 38.761 186.552 34.6254 191.908C34.4967 192.081 34.3478 192.242 34.193 192.37ZM78.6828 157.924C69.6425 166.195 59.888 173.781 50.1591 181.312C47.0824 183.692 44.0057 186.072 40.9463 188.449C39.2145 189.799 37.4536 191.089 35.739 192.436C35.9051 192.272 36.0885 192.105 36.2374 191.945C37.3259 190.879 38.4317 189.81 39.5374 188.741C41.7031 186.645 43.8717 184.565 46.0777 182.494C50.5012 178.318 54.9711 174.201 59.4552 170.063C68.4091 161.808 77.5627 153.766 86.8697 145.88C90.9599 142.414 95.0906 138.975 99.2444 135.564C93.2226 143.664 86.1957 151.049 78.6828 157.924ZM263.566 103.995C270.95 100.791 278.55 98.0803 286.29 95.8432C294.373 93.5266 302.593 91.8673 310.785 90.047C315.325 89.0303 319.847 87.9169 324.31 86.5812C324.264 86.6229 324.178 86.6387 324.129 86.6643C324.129 86.6643 324.129 86.6643 324.095 86.6707C316.883 88.6775 309.809 91.1421 302.705 93.4455C295.636 95.7426 288.607 98.0656 281.575 100.472C274.51 102.885 267.435 105.35 260.416 107.821C254.638 109.864 248.863 111.924 243.242 114.338C249.753 110.461 256.541 107.017 263.566 103.995ZM232.484 121.026C234.998 119.565 237.605 118.221 240.261 116.95C246.234 114.122 252.454 111.764 258.659 109.426C272.504 104.203 286.562 99.5568 300.591 94.9494C304.511 93.6635 308.448 92.3745 312.353 91.1079C313.399 90.7826 314.439 90.4251 315.468 90.103C310.187 92.6213 304.837 94.9525 299.378 97.0871C293.185 99.4899 286.898 101.677 280.602 103.815C268.036 108.037 255.342 111.95 243.018 116.81C238.875 118.437 234.8 120.234 230.837 122.161C231.342 121.802 231.91 121.398 232.484 121.026ZM225.949 126.039C236.861 120.189 248.512 115.552 260.238 111.517C272.784 107.182 285.501 103.299 297.851 98.4832C299.333 97.9113 300.865 97.3137 302.335 96.6774C286.032 104.25 269.637 111.707 252.648 117.773C247.608 119.565 242.55 121.259 237.409 122.786C233.664 123.957 229.777 124.937 225.949 126.039ZM321.682 91.6932C314.166 96.2205 306.577 100.644 298.971 104.972C291.557 109.181 284.12 113.36 276.285 116.831C268.347 120.32 260.035 122.845 251.454 124.287C247.873 124.895 244.28 125.338 240.684 125.665C250.577 123.299 260.275 120.17 269.695 116.492C285.427 110.373 300.452 102.935 315.19 94.9001C320.311 92.0948 325.385 89.2313 330.437 86.3389C327.521 88.1397 324.606 89.9406 321.682 91.6932ZM295.306 104.146C280.314 111.478 264.803 117.823 248.574 122.202C243.239 123.647 237.828 124.874 232.355 125.862C233.629 125.512 234.905 125.178 236.141 124.817C240.765 123.485 245.346 122.012 249.909 120.441C258.911 117.306 267.765 113.749 276.502 109.947C294.076 102.307 311.215 93.7482 328.595 85.7279C331.11 84.5666 333.635 83.4537 336.153 82.3085C322.633 89.7865 309.206 97.3808 295.306 104.146ZM379.936 90.6392C387.116 86.9063 394.253 83.1314 401.57 79.6565C408.849 76.1718 416.314 73.0193 424.039 70.6018C431.695 68.197 439.6 66.6624 447.441 64.973C451.851 64.03 456.216 63.0288 460.556 61.799C461.03 61.662 461.484 61.512 461.999 61.4009C461.737 61.5321 461.493 61.6601 461.226 61.7592C455.406 63.3774 449.629 65.2372 443.879 67.1423C437.031 69.3821 430.236 71.7122 423.458 74.139C409.939 79.0023 396.518 84.1976 383.317 89.8187C379.545 91.427 375.797 93.0643 372.055 94.7339C374.728 93.3606 377.346 91.9806 379.936 90.6392ZM401.461 83.3399C414.655 77.9701 428.098 73.0872 441.67 68.6136C446.866 66.8937 452.088 65.3187 457.333 63.673C451.661 66.3962 445.982 69.1708 440.314 71.9101C424.125 79.8116 407.742 87.4324 390.456 92.8543C385.596 94.3627 380.686 95.6971 375.718 96.8091C373.185 97.3907 370.666 97.8532 368.115 98.3382C367.718 98.411 367.322 98.4839 366.942 98.5536C378.305 93.22 389.793 88.0801 401.461 83.3399ZM427.736 81.8963C414.515 89.2529 400.969 97.2686 385.545 99.2345C379.427 100.008 373.338 99.8771 367.232 99.6493C369.634 99.3249 372.001 98.907 374.356 98.4247C378.741 97.5363 383.105 96.4353 387.41 95.2118C396.151 92.6912 404.667 89.529 413.028 86.0122C429.653 79.0297 445.604 70.7057 461.819 62.9492C462.115 62.8116 462.411 62.674 462.672 62.5428C451.053 69.0058 439.373 75.4301 427.736 81.8963ZM257.531 67.3356C261.565 65.8955 265.64 64.5812 269.782 63.4377C278.066 61.1507 286.52 59.4986 295.084 58.5423C312.545 56.6019 330.013 57.7076 346.953 61.375C354.678 63.0374 362.284 65.1213 369.887 67.189C369.418 67.1586 368.986 67.138 368.514 67.0915C358.891 66.3604 349.331 65.0016 339.775 63.8586C330.127 62.6992 320.411 61.752 310.668 61.7258C300.427 61.7077 290.164 62.5429 279.971 63.9483C271.379 65.1427 262.783 66.7042 254.293 68.5462C255.379 68.147 256.445 67.7348 257.531 67.3356ZM357.542 69.4058C347.989 70.0274 338.456 70.6619 328.897 71.2513C311.233 72.3796 293.481 73.8072 275.82 73.2032C269.106 72.9703 262.425 72.3319 255.841 71.3427C269.702 71.1624 283.495 68.8631 297.302 67.6104C313.108 66.1737 328.959 66.2442 344.745 67.0261C353.295 67.4544 361.844 68.0664 370.409 68.5753C366.07 68.8391 361.809 69.1385 357.542 69.4058ZM371.816 68.4668C371.807 68.4185 371.796 68.354 371.706 68.3538C355.892 67.0276 340.01 65.9137 324.092 65.7722C316.162 65.7128 308.219 65.8723 300.286 66.4795C292.357 67.1028 284.466 68.0353 276.581 68.8004C268.609 69.5813 260.584 70.1721 252.556 70.0641C255.406 69.4576 258.272 68.8481 261.133 68.3061C266.26 67.2815 271.394 66.3889 276.565 65.606C286.666 64.0844 296.879 63.0752 307.079 62.8678C317.031 62.6724 326.873 63.4299 336.693 64.5577C346.24 65.6524 355.742 66.9885 365.311 67.8128C368.173 68.0533 371.024 68.2294 373.882 68.3539C373.189 68.3647 372.504 68.4238 371.816 68.4668ZM110.052 155.278C112.421 152.346 114.937 149.536 117.574 146.803C122.866 141.335 128.664 136.291 134.807 131.666C147.983 121.736 163.031 114.128 178.739 108.463C185.677 105.94 192.716 103.865 199.865 102.003C198.529 102.498 197.225 102.97 195.912 103.495C187.461 106.812 179.215 110.573 171.147 114.619C162.965 118.719 155.028 123.191 147.321 128.036C139.68 132.853 132.265 138.028 125.131 143.567C119.135 148.215 113.161 153.076 107.71 158.356C108.485 157.331 109.239 156.293 110.052 155.278ZM193.811 100.5C193.994 100.433 194.164 100.385 194.359 100.283C194.635 100.232 194.946 100.175 195.228 100.157C194.748 100.261 194.288 100.379 193.811 100.5ZM192.241 108.565C185.39 113.12 178.803 118.043 172.257 122.992C165.584 128.03 158.879 133.091 151.862 137.71C144.635 142.451 137.184 146.85 129.441 150.819C125.071 153.054 120.649 155.198 116.166 157.203C113.892 158.22 111.6 159.241 109.307 160.161C109.141 160.225 108.96 160.308 108.793 160.372C110.175 159.352 111.526 158.355 112.909 157.335C116.138 155.01 119.469 152.75 122.762 150.48C129.294 146.034 135.918 141.703 142.592 137.447C155.992 128.925 169.638 120.775 183.629 113.144C186.793 111.43 189.933 109.688 193.093 107.959C192.812 108.177 192.525 108.363 192.241 108.565ZM201.088 103.027C195.825 105.642 190.634 108.36 185.502 111.201C178.576 115.054 171.704 119.013 164.862 123.034C151.144 131.081 137.692 139.513 124.466 148.302C120.763 150.764 117.105 153.284 113.425 155.775C112.315 156.528 111.201 157.265 110.091 158.019C114.536 154.055 119.036 150.198 123.669 146.484C130.615 140.895 137.84 135.655 145.316 130.719C160.327 120.869 176.326 112.32 193.043 105.453C196.956 103.836 200.94 102.322 204.905 100.894C203.671 101.554 202.376 102.274 201.088 103.027ZM206.158 99.7484C206.077 99.7965 205.991 99.8123 205.89 99.8474C205.051 100.035 204.208 100.206 203.403 100.387C204.309 100.171 205.229 99.9356 206.158 99.7484ZM77.5043 105.751C87.1681 101.945 97.1904 99.0229 107.377 96.8028C117.713 94.522 128.236 93.1563 138.779 92.586C149.405 91.9838 160.044 92.1287 170.6 92.8883C180.98 93.6636 191.228 95.0792 201.429 96.8199C201.394 96.8262 201.394 96.8262 201.383 96.8616C201.271 96.9321 201.217 97.0253 201.162 97.1186C199.836 97.2788 198.49 97.4261 197.175 97.5509C188.065 96.8922 178.898 96.4105 169.735 96.1445C159.441 95.8364 149.131 95.831 138.843 96.3377C128.642 96.8285 118.412 97.8409 108.303 99.5137C98.2803 101.171 88.3355 103.446 78.6012 106.383C75.0375 107.47 71.4772 108.673 67.9401 109.905C71.0527 108.401 74.261 107.03 77.5043 105.751ZM52.1017 118.259C53.4678 117.442 54.8195 116.644 56.2117 115.872C57.8834 115.166 59.558 114.475 61.2386 113.817C65.947 111.97 70.7338 110.258 75.5817 108.685C85.1454 105.597 94.9251 103.102 104.771 101.161C114.824 99.1825 125.001 97.8801 135.207 97.2219C145.378 96.5699 155.619 96.4882 165.806 96.6993C175.133 96.8853 184.418 97.4286 193.723 97.885C191.813 98.0692 189.937 98.2471 188.024 98.4152C176.388 99.3525 164.76 99.839 153.131 100.325C141.695 100.793 130.244 101.28 118.82 102.295C107.711 103.286 96.617 104.74 85.7084 107.109C74.8832 109.447 64.2235 112.686 54.1836 117.26C53.4569 117.577 52.7707 117.919 52.1017 118.259ZM56.9383 117.304C56.7658 117.336 56.5932 117.367 56.438 117.396C64.7939 113.947 73.3771 111.055 82.2117 108.95C93.1652 106.34 104.351 104.702 115.548 103.612C126.868 102.516 138.197 101.952 149.541 101.467C161.17 100.981 172.845 100.553 184.455 99.6699C188.748 99.348 193.023 98.9294 197.321 98.4401C192.409 99.3752 187.499 100.127 182.569 100.765C171.624 102.159 160.636 103.027 149.645 103.78C138.725 104.536 127.774 105.214 116.873 106.167C106.13 107.107 95.4289 108.372 84.8117 110.288C75.4082 112.015 66.0446 114.25 56.9383 117.304ZM141.377 110.427C121.404 112.096 101.368 112.161 81.3786 113.932C75.5871 114.446 69.7532 115.118 64.0184 116.037C69.7439 114.387 75.5368 113.007 81.3914 111.865C92.0308 109.779 102.803 108.417 113.583 107.387C124.473 106.37 135.369 105.685 146.277 104.964C157.257 104.247 168.257 103.443 179.22 102.246C183.311 101.795 187.393 101.295 191.474 100.696C190.081 101.168 188.722 101.634 187.322 102.074C182.311 103.344 177.289 104.649 172.3 106.031C162.092 108.239 151.754 109.537 141.377 110.427Z" fill="#FCE9C4"/>
<path d="M503.952 83.4728C504.015 83.3281 504.095 83.1802 504.192 83.0291C504.278 83.0133 504.376 82.9621 504.453 82.8979C504.677 82.8567 504.921 82.7287 504.981 82.468C505.094 82.1141 505.204 81.7442 505.304 81.4096C505.446 81.117 505.609 80.8373 505.751 80.5447C505.965 80.1557 506.214 79.7604 506.462 79.3651C508.907 75.5856 512.41 72.6112 516.593 70.4277C522.504 67.3607 529.114 65.9639 535.466 64.0317C547.482 60.41 559.101 55.0128 568.276 46.6006C570.107 44.9156 571.856 43.079 573.482 41.1487C573.27 41.4539 573.082 41.7882 572.87 42.0935C568.443 47.8023 563.674 53.2073 558.027 57.9076C552.286 62.6754 545.792 66.6487 538.908 69.761C536.981 70.6311 535.01 71.4591 533.002 72.1775C531.878 72.567 530.735 72.9435 529.597 73.3523C529.438 73.165 529.27 73.0293 529.051 72.903C528.315 72.4886 527.245 72.685 526.678 73.2887C526.483 73.491 526.378 73.6935 526.295 73.9251C526.205 74.2082 526.223 74.5045 526.271 74.7623C526.324 75.0522 526.515 75.3169 526.764 75.5044C526.804 75.5303 526.807 75.5464 526.83 75.5754C527.157 75.8984 527.676 76.1029 528.162 76.0303C528.651 75.9738 529.122 75.7208 529.425 75.3321C529.689 75.0173 529.879 74.5993 529.86 74.2032C530.875 73.9003 531.866 73.5684 532.82 73.2268C534.613 72.5978 536.408 71.8852 538.14 71.1176C541.662 69.6051 545.049 67.8507 548.324 65.8674C554.775 61.9519 560.773 57.2204 565.884 51.8357C566.437 51.2514 567.001 50.6316 567.53 50.0181C563.779 55.2363 559.726 60.2602 555.319 65.0159C553.919 66.5219 552.485 68.0342 551.004 69.4884C549.956 70.5801 548.867 71.6459 547.839 72.7505C547.548 72.6208 547.194 72.536 546.883 72.593C546.463 72.6369 546.104 72.8193 545.78 73.0953C545.21 73.583 545.064 74.4423 545.531 75.0395C545.722 75.3041 546.025 75.4982 546.328 75.5925C546.469 75.6831 546.637 75.719 546.775 75.6937C546.895 75.6715 546.999 75.6525 547.114 75.5981C547.445 75.6538 547.807 75.5873 548.057 75.3917C548.396 75.1963 548.601 74.8588 548.738 74.5339C548.863 74.2445 548.812 73.8708 548.707 73.5904C548.698 73.542 548.635 73.4871 548.632 73.471C551.048 71.4786 553.244 69.1603 555.346 66.9094C557.891 64.1607 560.338 61.3634 562.673 58.4369C565.491 54.9387 568.155 51.2855 570.632 47.5835C570.388 48.1945 570.123 48.7927 569.896 49.4006C567.452 55.8109 565.916 62.504 565.337 69.2548C565.051 72.5546 565.018 75.8744 565.213 79.1692C565.159 79.3622 565.143 79.565 565.089 79.7581C565.07 79.9448 565.151 80.0964 565.261 80.2094C565.265 80.4252 565.292 80.67 565.296 80.8857C565.327 81.3463 566.019 81.5191 566.255 81.0593C572.538 69.1317 579.074 56.841 580.243 43.4876C580.562 39.882 580.429 36.2429 579.775 32.6827C580.027 32.3035 580.246 31.9467 580.498 31.5675C580.638 31.3586 580.421 31.1487 580.188 31.1415C580.922 30.0908 581.616 29.0141 582.186 27.8437C582.383 27.4579 581.797 27.1824 581.58 27.5553C581.338 27.9829 581.072 28.3813 580.789 28.783C580.688 28.7183 580.55 28.7436 580.485 28.8723C580.205 29.3898 579.92 29.8752 579.654 30.3735C579.497 30.5856 579.36 30.8106 579.165 31.0128C579.027 31.0382 578.895 31.0958 578.801 31.2629C578.772 31.3015 578.758 31.3207 578.764 31.353C575.372 32.3087 572.028 33.4225 568.615 34.2655C565.088 35.1629 561.517 35.9184 557.983 36.6838C551.361 38.1161 544.705 39.5546 538.324 41.8087C532.445 43.8873 526.739 46.6168 521.914 50.4502C517.261 54.1521 513.68 58.8394 510.962 63.9512C508.975 67.6966 507.425 71.5947 506.009 75.535C505.863 75.8115 505.677 76.0621 505.512 76.3256C505.372 76.5345 505.442 76.7215 505.557 76.8668C505.41 77.3268 505.257 77.7546 505.075 78.221C504.19 79.7156 503.4 81.2428 502.766 82.8413C502.488 83.6584 503.625 84.2156 503.952 83.4728ZM568.755 45.0307C564.42 49.2069 559.334 52.6886 553.949 55.609C548.191 58.7312 542.025 61.0955 535.732 63.0504C529.383 64.9987 522.874 66.4602 516.904 69.4047C515.072 70.3072 513.241 71.4094 511.564 72.6666C512.638 71.5203 513.755 70.4159 514.941 69.3987C519.656 65.2526 525.148 61.9461 530.874 59.1297C543.014 53.1706 556.229 49.2788 567.71 42.1584C570.818 40.239 573.847 38.0842 576.453 35.574C574.326 38.9454 571.74 42.1513 568.755 45.0307ZM574.457 41.6024C574.585 41.3291 574.736 41.0848 574.902 40.8213C575.042 40.6124 575.15 40.4259 575.288 40.201C575.787 39.3266 576.269 38.4554 576.783 37.5618C577.031 37.1665 577.245 36.7775 577.497 36.3982C573.177 46.9664 569.878 57.9467 567.35 68.9518C566.941 70.7087 566.567 72.4594 566.196 74.2261C566.351 63.0238 569.206 51.8587 574.457 41.6024ZM570.642 70.5622C569.266 73.3627 567.811 76.1276 566.337 78.8795C568.565 66.6306 571.818 54.5264 575.996 42.7019C576.876 40.209 577.852 37.7485 578.789 35.2783C580.231 47.4032 576.065 59.4917 570.642 70.5622ZM568.297 40.402C562.639 44.0719 556.468 46.887 550.243 49.5118C538.72 54.3587 526.548 58.6916 516.693 66.3127C519.445 63.9092 522.413 61.7156 525.491 59.7349C536.234 52.8667 548.291 48.205 559.873 42.7981C562.991 41.3262 566.084 39.8093 569.118 38.1697C571.842 36.6871 574.572 35.1368 577.079 33.3443C574.455 36.0574 571.419 38.3635 568.297 40.402ZM521.299 52.345C530.845 44.0144 543.94 40.8275 556.2 38.1436C560.11 37.2924 564.012 36.4927 567.902 35.5288C570.104 34.9913 572.341 34.4474 574.53 33.7456C564.633 38.0274 554.149 40.7682 543.998 44.4471C538.646 46.379 533.384 48.6108 528.49 51.4908C523.695 54.3197 519.57 57.8912 515.906 61.9278C513.281 64.8244 510.996 67.9249 508.851 71.0999C511.692 64.1337 515.412 57.489 521.299 52.345ZM515.436 63.5461C518.93 59.3576 523.141 55.8701 527.887 52.9671C537.762 46.9077 549.055 43.7185 560.055 40.1002C564.124 38.7536 568.199 37.3394 572.119 35.6704C571.333 36.1478 570.544 36.6091 569.734 37.0574C566.967 38.598 564.128 40.0352 561.27 41.3758C555.395 44.1531 549.424 46.6982 543.501 49.3176C532.499 54.1853 521.563 59.9066 513.1 68.3048C511.604 69.7783 510.179 71.3389 508.854 72.9643C510.807 69.7082 512.967 66.514 515.436 63.5461Z" fill="#FCE9C4"/>
<path d="M582.264 17.8711C579.298 18.3323 576.301 18.6163 573.305 18.8165C573.029 18.8672 572.736 18.9211 572.454 18.9395C568.945 19.4506 565.441 19.7942 561.928 20.0895C554.948 20.6384 547.934 20.8103 540.953 20.5767C537.683 20.4445 534.441 20.1738 531.192 19.871C531.173 20.0577 531.14 20.2637 531.066 20.4438C530.941 20.7332 530.665 20.9835 530.413 21.1631C530.123 21.3329 529.77 21.4478 529.45 21.4565C529.039 21.4488 528.638 21.3059 528.386 21.0024C528.137 20.7151 528.037 20.367 528.073 19.9775C528.087 19.8584 528.127 19.7844 528.158 19.6622L528.152 19.6299C528.119 19.4527 528.141 19.2821 528.181 19.1084C528.175 19.0762 528.201 19.0215 528.195 18.9893C528.251 18.8123 528.34 18.7128 528.498 18.6006C528.544 18.5588 528.61 18.5301 528.679 18.5174C528.894 18.4279 529.078 18.3608 529.337 18.3133C529.688 18.2821 530.077 18.3606 530.391 18.5193C530.746 18.7039 531.033 19.0011 531.187 19.3558C531.193 19.388 531.196 19.4041 531.202 19.4363C534.162 19.6256 537.135 19.6957 540.071 19.7561C543.543 19.8182 547.023 19.8287 550.479 19.7103C554.753 19.5751 558.985 19.3142 563.24 18.8827C555.813 18.5479 548.461 17.3664 541.336 15.3774C537.935 14.4365 534.648 13.2416 531.409 11.9212C531.381 11.9598 531.372 12.0113 531.309 12.0561C531.109 12.2262 530.934 12.3416 530.646 12.4277C530.393 12.5074 530.146 12.5195 529.907 12.4802C529.616 12.4503 529.37 12.2789 529.171 12.0658C529.13 12.0399 529.11 12.027 529.07 12.0011C529.029 11.9752 529.02 11.9269 528.997 11.8978L528.957 11.8719L528.951 11.8397C528.841 11.7267 528.76 11.5751 528.696 11.4203C528.538 11.0495 528.585 10.6246 528.771 10.2742C528.808 10.1841 528.879 10.0878 528.956 10.0236C528.985 9.98503 529.002 9.98187 529.034 9.95943L529.062 9.92087C529.168 9.81814 529.266 9.76691 529.343 9.70274C529.581 9.54246 529.849 9.44344 530.131 9.42497C530.257 9.43501 530.364 9.43213 530.491 9.44217C530.548 9.46489 530.617 9.45221 530.669 9.4427C530.816 9.46569 531.003 9.51456 531.127 9.60832C531.341 9.70235 531.491 9.84126 531.633 10.0317C531.677 10.0737 531.706 10.1349 531.715 10.1833C531.77 10.2897 531.845 10.4091 531.863 10.5057C531.907 10.7474 531.911 10.9631 531.863 11.1884C531.844 11.2753 531.807 11.3653 531.781 11.42C540.985 14.8257 550.764 16.7938 560.665 17.3904C559.5 16.8717 558.42 16.2373 557.358 15.4999C556.292 14.7464 555.321 13.9256 554.432 12.9729C553.99 12.5047 553.602 12.043 553.242 11.5428C553.126 11.3976 553.002 11.204 552.866 11.0458C552.294 11.2341 551.603 11.1611 551.16 10.7927C550.678 10.3984 550.585 9.69935 550.859 9.14953C550.884 9.09487 550.873 9.03044 550.915 8.97261C551.115 8.6029 551.462 8.35599 551.853 8.25091C552.21 8.15217 552.656 8.15351 552.987 8.30908C553.14 8.36428 553.302 8.46781 553.412 8.58085C553.519 8.67778 553.577 8.80033 553.618 8.92603C553.904 9.22315 554.022 9.66787 553.883 10.0764C553.82 10.2211 553.757 10.3658 553.675 10.4976C553.791 10.6429 553.872 10.7945 553.985 10.9236C554.393 11.3982 554.798 11.8567 555.258 12.3218C556.114 13.197 557.051 14.0242 558.025 14.7613C559.53 15.8671 561.229 16.7707 563.006 17.5102C565.609 17.5986 568.202 17.6386 570.789 17.5466C573.325 17.4641 575.833 17.2367 578.371 16.9706C579.458 16.771 580.605 16.6103 581.682 16.5459C581.871 16.5111 582.102 16.5021 582.309 16.4641C582.498 16.4292 582.668 16.4813 582.79 16.5589C582.83 16.5848 582.847 16.5816 582.85 16.5978C583.228 16.8114 583.081 17.7545 582.264 17.8711Z" fill="#FCE9C4"/>
</svg>
