<?xml version="1.0" encoding="utf-8"?>
<!-- Generator: Adobe Illustrator 28.0.0, SVG Export Plug-In . SVG Version: 6.00 Build 0)  -->
<svg version="1.1" id="Calque_1" xmlns="http://www.w3.org/2000/svg" xmlns:xlink="http://www.w3.org/1999/xlink" x="0px" y="0px"
	 viewBox="0 0 1350 250" style="enable-background:new 0 0 1350 250;" xml:space="preserve">
<style type="text/css">
	.st0{fill:#452210;}
</style>
<path class="st0" d="M1342.86,231.32c-0.18-0.44-0.37-0.89-0.6-1.31c0.2-0.36,0.2-0.84-0.3-1.14c-0.15-0.11-0.3-0.19-0.42-0.25
	c-0.6-1.06-1.29-2.08-2.09-3.05c-0.18-0.22-0.41-0.47-0.65-0.66c-0.15-0.11-0.38-0.25-0.62-0.33c-5.37-7.96-11.75-15.39-18.6-22.25
	c-8.57-8.61-18.17-16.4-28.46-23.15c-10.58-6.97-21.94-12.85-33.86-17.52c-12.88-5.02-26.36-8.63-40.08-10.78
	c-13.73-2.15-27.73-2.78-41.6-1.9c-0.81,0.06-1.62,0.13-2.43,0.19c-11.82-3.51-23.79-6.59-35.93-9.16
	c17.9,0.85,35.83,1.33,53.7,0.73c5.36-0.16,10.67-0.51,15.97-1.39c4.24-0.73,9.22-1.64,12.46-4.6c2.65-2.42,3.77-6.56,1.3-9.46
	c-2.44-2.83-6.88-3.6-10.56-3.1c-4.12,0.57-8.08,2.86-9.81,6.56c-1.51,3.22-1.24,7.16,0.91,9.99c-0.03,0.03-0.03,0.08-0.08,0.11
	v0.03c-4.24,0.43-8.55,0.63-12.83,0.74c-9.9,0.25-19.75,0.19-29.64,0.02c-9.12-0.17-18.25-0.52-27.37-0.81
	c-2.27-0.46-4.58-0.88-6.88-1.28c-4.14-0.74-8.3-1.41-12.49-2.02c15.55,0.21,31.16-0.95,46.41-3.51c4.97-0.85,10.27-2.04,14.01-5.5
	c0.55-0.51,0.55-1.38-0.22-1.72c-9.35-3.86-18.65,1.66-26.15,6.6c-0.2,0.14-0.32,0.28-0.38,0.47c-0.89,0.1-1.74,0.24-2.59,0.33
	c-10.84,1.26-21.78,1.96-32.72,1.97c-3.04,0-6.08-0.03-9.12-0.13c-33.56-4.19-67.6-4.66-101.35-2.43
	c5.26-2.13,10.52-4.19,15.82-6.13c8.05-2.91,16.23-5.55,24.46-7.98c0.82-0.25,1.66-0.46,2.47-0.7c0.12,0.03,0.24,0.03,0.35-0.03
	c6.62,0.98,13.26,1.68,19.88,2.4c6.99,0.73,14.04,1.42,21.04,1.97c13.96,1.09,27.97,1.72,42,1.44c13.86-0.28,27.67-1.67,41.4-3.6
	c13.49-1.9,26.92-4.15,40.46-5.86c13.46-1.71,27.07-2.88,40.65-2.37c1.62,0.05,3.27,0.14,4.89,0.24c0.04,0,0.09,0.03,0.12,0.03
	c1.39,0.71,2.32-1.44,0.95-2.13c-12.36-6.26-25.58-10.84-39.18-14.08c-13.71-3.29-27.73-5.18-41.81-6.24
	c-14.46-1.11-29.09-1.49-43.57-0.95c-14.87,0.57-29.76,2.48-43.82,7.11c-6.92,2.26-13.58,5.1-20.04,8.28
	c-6.4,3.1-12.75,6.38-18.84,9.97c-0.82,0.46-1.64,0.96-2.44,1.47c-16.15,4.68-32.01,10.3-47.38,16.91
	c-0.38,0.17-0.77,0.36-1.17,0.54c-4.93,0.35-9.84,0.8-14.73,1.26c12.11-4.23,23.83-9.62,35.15-15.4c6.16-3.14,12.17-6.49,18.1-10
	c5.78-3.43,11.56-6.9,17-10.82c5.45-3.92,10.51-8.56,13.26-14.58c0.24-0.47-0.13-1.17-0.72-1.22c0,0,0,0-0.03,0
	c-0.33-0.41-0.95-0.52-1.54-0.2c-0.15,0.08-0.26,0.17-0.38,0.25c-4.28,0.35-8.15,2.46-11.12,5.39c-3.83,3.75-6,8.68-7.99,13.43
	c-0.08,0.17-0.08,0.4-0.05,0.62c-2.52,1.61-5.12,3.19-7.68,4.72c-11.7,7.05-23.91,13.45-36.42,19.13
	c-6.78,3.1-13.66,5.91-20.56,8.74c0-0.03,0-0.08,0-0.11c0-0.08,0.03-0.14,0.08-0.22c0.03-0.08,0.03-0.14,0.08-0.22
	c0.03-0.11-0.12-0.14-0.15-0.08c-0.03,0.08-0.08,0.17-0.08,0.25c-0.03,0.08-0.03,0.14-0.08,0.22c-0.03,0.03-0.08,0.03-0.08,0.08
	c0,0-0.03,0-0.03,0.03l-0.03,0.19c-0.12,0.03-0.23,0.11-0.35,0.14c-22.56,2.31-44.92,5.72-67.15,9.92c0.38-0.14,0.77-0.29,1.12-0.43
	c4.11-1.6,8.08-3.41,11.96-5.4c4.11-2.1,8.07-4.42,11.91-6.87c3.06-1.36,6.16-2.73,9.32-3.87c1.24-0.43,2.47-0.81,3.76-1.23
	c3.86-0.73,7.65-1.82,11.32-3.08c5.71-1.33,11.47-2.43,17.22-3.57c14.36-2.83,28.87-6.21,41.18-14.09
	c6.48-4.12,12.31-9.05,18.27-13.82c6.11-4.88,12.44-9.37,19.26-13.3c13.84-7.98,28.82-14.01,43.12-21.22
	c13.21-6.67,26.17-14.22,36.3-24.79c0.74-0.76,1.4-1.55,2.11-2.34c0.81-0.43,1.58-0.9,2.4-1.36c0.89-0.54,0.07-1.9-0.9-1.53
	c-0.42-0.47-1.22-0.71-1.74-0.05c-0.38,0.47-0.82,0.9-1.2,1.37c-0.32,0.14-0.62,0.28-0.94,0.39c-0.23-0.03-0.41,0-0.65,0.17
	c-0.08,0.08-0.11,0.11-0.2,0.17c-2.2,1-4.46,1.96-6.69,2.88c-3.76,1.53-7.62,2.91-11.49,4.17c-7.89,2.58-15.92,4.71-24.03,6.56
	c-15.84,3.7-31.92,6.37-47.75,10.05c-14.63,3.41-29.12,7.63-42.72,13.9c-13.33,6.13-25.5,14.3-35.15,24.98
	c-10.22,11.33-17.97,24.44-28.22,35.72c-0.27,0.28-0.58,0.57-0.85,0.87c-9.97,6.64-20.59,12.31-32.2,16.08
	c-1.67,0.52-3.29,1.06-4.91,1.63c-8.18,1.63-16.33,3.4-24.48,5.24c-0.65,0.03-1.27,0.1-1.92,0.16c-0.2,0.03-0.23,0.17-0.23,0.33
	c-1.09,0.24-2.16,0.49-3.24,0.73c-3.94,0.9-7.92,1.85-11.86,2.78c2.25-1.14,4.49-2.29,6.7-3.46c4.43-2.35,8.77-4.87,12.88-7.66
	c4.34-2.97,8.5-6.29,12.24-9.95c0.97-0.79,1.99-1.61,2.96-2.4c2.6-2.05,5.24-4.06,8-5.96c3.11-2.2,6.3-4.23,9.5-6.24
	c0.03,0.03,0.08,0.08,0.12,0.11c0,0,0,0,0.03,0.03c4.06,4.79,10.97,6.78,17.18,4.96c5.49-1.61,11.06-6.54,10.82-12.34
	c-0.12-2.65-1.9-5.01-4.83-5.26c-1.74-0.13-3.44,0.44-4.98,1.07c-1.7,0.71-3.32,1.56-4.99,2.39c-1.74,0.85-3.44,1.75-5.16,2.67
	c2.46-1.91,4.74-4,6.78-6.3c3.86-4.44,7.05-10.13,7.01-15.99c0-2.62-1.02-5.44-3.46-6.92c-2.37-1.49-5.19-1.04-7.52,0.32
	c-2.55,1.5-4.36,3.92-5.84,6.35c-1.54,2.42-2.72,5.07-3.52,7.79c-1.84,6.03-1.95,12.4-0.3,18.47c-0.58,0.43-1.17,0.9-1.75,1.33
	c-1.9,1.18-3.81,2.37-5.63,3.62c-3.11,2.09-6.13,4.31-9.14,6.6c0.67-0.84,1.34-1.69,1.99-2.61c2.59-3.59,4.91-7.52,6.3-11.66
	c1.32-3.95,1.64-8.4-0.97-11.96c-2.24-3.05-6.18-4.55-9.9-3.13c-3.71,1.42-6.21,4.96-7.41,8.49c-2.76,8.06-0.2,17.22,6.23,23.05
	c-4.14,4.5-8.92,8.47-14.01,11.98c-4.28,2.94-8.77,5.59-13.34,8.06c-3.72,2.01-7.66,3.82-11.36,5.89c-1.12,0.28-2.24,0.55-3.41,0.84
	c-1.97,0.38-3.94,0.84-5.86,1.36c5.68-4.12,10.5-9.29,14.49-14.88c2.94-4.12,5.49-8.61,7.43-13.26c0.97-0.76,1.37-2.02,1.54-3.11
	c0.05-0.44,0.08-0.87,0.13-1.31c0.2-0.58,0.4-1.2,0.57-1.79c1.12-3.89,1.52-8.14-0.52-11.85c-0.3-0.55-1.07-0.74-1.5-0.21
	c-2.19,2.75-3.69,5.94-4.34,9.32c-0.33,1.64-0.47,3.32-0.4,4.95c0.07,1.31,0.2,2.76,1.19,3.76c0.42,0.41,0.98,0.66,1.57,0.74
	c-0.32,0.76-0.67,1.49-1.04,2.24c-2.96,6.24-6.96,11.98-11.72,17.11c-2.74,2.95-5.81,5.66-8.95,8.22c-0.2,0.14-0.23,0.36-0.17,0.54
	c-0.15,0.03-0.35,0.11-0.5,0.14c-10.47,2.62-20.94,5.31-31.36,8.12c5.76-2.42,11.34-5.45,16.17-9.34c4.94-4,8.97-8.83,11.57-14.49
	c2.84-6.19,4.12-12.89,6.46-19.24c2.39-6.43,6.41-11.88,10.69-17.3c4.23-5.34,8.22-10.7,11.17-16.78
	c5.88-12.13,8.43-25.45,14.05-37.7c4.54-9.94,11.44-19.77,21.74-24.98c0.85-0.25,1.7-0.52,2.59-0.77c1.7-0.49,3.41-0.95,5.09-1.44
	c0.2-0.06,0.32-0.17,0.38-0.28c0.7-0.14,1.39-0.24,2.09-0.38c0.85-0.17,1.2-1.41,0.25-1.71c-2.57-0.79-5.26-0.57-7.82,0.28
	c-1.24,0.43-2.41,0.96-3.52,1.56c-0.82,0.46-1.7,0.96-2.41,1.61c-3.36,1.17-6.7,2.51-9.82,3.93c-6.46,2.92-12.59,6.43-18.3,10.48
	c-11.46,8.11-21.24,18.39-28.51,30.04c-3.66,5.83-6.65,12.02-8.92,18.45c-2.64,7.47-4.58,15.5-9.54,21.98
	c-4.58,5.93-11.44,9.94-15.71,16.12c-4.42,6.43-5.14,14.22-6.65,21.57c-0.73,3.63-1.7,7.24-3.41,10.57
	c-1.57,3.08-3.66,5.89-6.11,8.34c-2.69,2.7-5.83,4.96-9.25,6.79c-3.21,1.09-6.46,2.12-9.67,3.1c-0.82,0.25-1.59,0.49-2.41,0.77
	c-0.77,0.1-1.54,0.21-2.32,0.3c-0.3,0.03-0.35,0.28-0.23,0.47c-7.18,2.1-14.41,4.3-21.56,6.48c-5.06,1.55-10.09,3.13-15.15,4.64
	c-0.27,0.06-0.08,0.44,0.15,0.36c12.68-3.54,25.3-7.13,37.98-10.71c12.04-2.56,24.32-4.25,36.64-4.82
	c6.86-0.28,13.74-0.25,20.59,0.14c0.47,0.05,0.89,0.08,1.35,0.1c-0.03,0-0.08,0-0.12,0.03c-0.82,0.28-0.82,1.29-0.25,1.78
	c2.44,2.07,5.39,3.56,8.53,4.39c2.84,0.76,6.38,1.2,9.27,0.4c1.2-0.35,2.32-1.14,2.49-2.37c0.2-1.28-0.59-2.51-1.65-3.19
	c-1.34-0.85-3.02-0.98-4.58-1.22c-1.92-0.27-3.89-0.47-5.81-0.68c-15.23-1.58-30.63-1.39-45.83,0.57c-2.39,0.3-4.74,0.68-7.13,1.09
	c18.09-5.06,36.16-9.95,54.36-14.57c0.18,0.4,0.68,0.7,1.22,0.49c0.12-0.03,0.23-0.06,0.35-0.11c12.14,5.48,21.96,14.44,32.61,22.1
	c5.7,4.06,11.66,7.74,18.24,10.4c7.2,2.92,14.81,4.76,22.41,6.4c7.86,1.72,15.75,3.38,23.46,5.64c7.87,2.31,15.58,4.98,23.28,7.71
	c15.06,5.29,30.18,10.78,46.01,13.6c5.88,1.04,11.88,1.77,17.84,1.97c3.19,0.22,6.43,0.22,9.62-0.08c6.04-0.38,12.07-1.3,17.93-3.02
	c1.82-0.52,3.64-1.17,5.41-1.83c1.27-0.49,0.45-2.37-0.82-1.86c-1.35,0.54-2.73,1.03-4.14,1.45c-1.8,0.16-3.65,0.28-5.47,0.35
	c-6.38-1.09-12.73-2.24-18.94-4.03c-7.07-2.04-13.96-4.63-20.66-7.54c-13.64-5.94-26.49-13.32-39.23-20.79
	c-12.84-7.54-25.62-15.17-39.09-21.66c-13.18-6.34-27.05-11.41-41.65-13.86c-7.8-1.28-15.77-1.8-23.66-1.39
	c5.48-1.3,10.97-2.51,16.48-3.73c6.01,0.17,12.06,0.27,18.05,0.85c7.5,0.7,15,1.88,22.33,3.48c3.57,0.78,7.1,1.68,10.64,2.67
	c0.18,0.14,0.47,0.22,0.73,0.19c0.08,0,0.12,0.03,0.18,0.03c-0.62,0.21-0.7,0.98-0.25,1.42c5.44,5.15,11.86,9.56,18.95,12.48
	c1.54,0.63,3.29,1.17,4.96,0.57c1.27-0.46,2.25-1.5,2.27-2.81c0.02-1.53-1.17-2.67-2.3-3.55c-1.49-1.11-3.09-2.07-4.74-2.92
	c-3.52-1.82-7.35-3.1-11.16-4.35c-1.45-0.49-2.96-0.9-4.44-1.36c0.74-0.17,1.47-0.35,2.12-0.55c1-0.32,1.97-0.74,2.9-1.2
	c0.82-0.43,1.7-0.93,2.05-1.8c0.78-1.74-1-2.92-2.66-2.99c-1.74-0.05-3.51,0.65-4.99,1.52c-1.55,0.93-2.87,2.26-3.71,3.85
	c-1.07-0.3-2.16-0.6-3.22-0.87c-8.07-2.02-16.28-3.52-24.6-4.46c-4.66-0.52-9.3-0.9-14.01-1.09c-1.47-0.05-2.92-0.11-4.42-0.13
	c8-1.71,15.98-3.29,24.01-4.8c2.54-0.11,5.09-0.35,7.6-0.51c3.86-0.22,7.7-0.39,11.59-0.49c7.78-0.21,15.57-0.09,23.33,0.73
	c3.42,0.36,6.85,0.87,10.22,1.53c-2.07,2.02-2.6,5.1-1.75,7.77c1,3.22,3.74,5.72,6.73,7.36c3.11,1.71,7.01,2.4,10.27,0.66
	c2.87-1.53,4.14-4.58,3.17-7.58c-1-3.22-3.91-5.29-7.08-6.49c-0.65-0.27-1.3-0.46-1.99-0.68c3.66,0.47,7.35,0.73,11.04,0.77
	c1.95,1.52,4.33,2.78,6.61,3.57c2.49,0.82,5.26,1.15,7.78,0.27c2.09-0.74,3.99-2.26,4.71-4.31c0.68-1.93,0.35-4.16-1.12-5.69
	c-0.03-0.03-0.03-0.11-0.08-0.14c-1.94-2.86-6.75-2.73-9.75-2.01c-3.94,0.98-7.48,3.63-9.1,7.22c-1.42-0.02-2.86-0.06-4.28-0.13
	c-4.84-0.27-9.69-0.84-14.46-1.61c-0.08,0-0.15,0-0.2,0.03c-0.3-0.05-0.65-0.11-0.97-0.19c-8.68-1.55-17.5-2.09-26.32-2.1
	c-4.86-0.02-9.7,0.16-14.56,0.4c-1.12,0.06-2.27,0.13-3.39,0.19c21.49-3.81,43.09-6.9,64.88-8.88c1.12-0.1,2.24-0.19,3.36-0.28
	c5.11,0.71,10.19,1.56,15.26,2.64c0.47,0.16,0.92,0.3,1.39,0.49c0.92,0.38,1.8,0.85,2.76,1.09c3.44,4.77,7.13,9.43,10.96,13.92
	c4.36,5.15,9.08,10.05,14.31,14.44c5.41,4.58,11.46,8.36,17.84,11.6c6.54,3.32,13.36,6.11,20.07,9.07
	c13.74,6.05,26.79,13.48,40.78,19.02c14.18,5.61,29.13,8.14,44.36,9.73c14.11,1.47,28.3,2.42,42.25,5.01
	c0.92,0.19,1.8,0.38,2.72,0.57c0.42,0.08,0.85,0.16,1.24,0.19c1.68,0.35,3.34,0.73,5.02,1.15c1.07,0.27,1.61-1.52,0.52-1.79
	c-2.49-0.68-4.96-1.22-7.48-1.75c-2.61-0.9-5.3-1.69-7.9-2.67c-3.26-1.2-6.4-2.54-9.54-4c-6.31-2.94-12.32-6.37-18.17-10.06
	c-11.8-7.44-22.76-15.94-34.01-24.08c-11.38-8.25-23.07-16.21-35.89-22.28c-12.71-6-26.3-10.08-40.08-13.11
	c-14.01-3.07-28.28-5.21-42.55-6.87c-1.31-0.16-2.63-0.29-3.93-0.41c-1.3-1.11-2.87-1.96-4.48-2.59c-0.38-0.14-0.8-0.3-1.19-0.44
	c15.38-1.04,30.75-1.49,46.14-1.33c16.49,2.69,32.93,5.56,49.1,9.75c4.19,1.11,8.37,2.16,12.56,3.33c-0.08,0.29,0,0.62,0.22,0.87
	c4.91,5.4,11.44,9.59,18.6,11.82c1.34,0.63,2.69,1.26,4.06,1.86c1.27,0.52,2.99,0.98,4.24,0.16c1.52-1.01,1.12-2.86,0.08-4.04
	c-2.32-2.76-5.76-4.83-9-6.51c-7.16-3.65-15.3-5.51-23.09-7.57c-8.75-2.28-17.59-4.24-26.46-5.97c-7.03-1.39-14.06-2.59-21.17-3.54
	c11.12,0.3,22.21,0.93,33.28,1.96c19.14,3.74,37.86,9.12,55.75,16.7c5.06,2.13,10,4.41,14.89,6.86c3.32,1.68,6.66,3.35,9.9,5.17
	c-4.75,1.44-6.66,6.49-6.32,10.96c0.36,4.93,2.33,10.81,6.93,13.62c3.4,2.12,7.44,1.94,10.52-0.14c0.35,0.19,0.85,0.05,0.85-0.43
	c0-0.08,0-0.14,0-0.22c0.38-0.36,0.78-0.73,1.13-1.12c3.24-3.87,2.93-9.12,0.51-13.29c-2.73-4.69-7.42-7.7-12.16-10.33
	c-5.25-2.89-10.61-5.61-16.08-8.15c-10.88-5.07-22.15-9.45-33.66-13.03c-6.44-2.01-13-3.78-19.6-5.23c3.07,0.36,6.11,0.76,9.18,1.19
	c20.96,2.95,41.54,7.58,61.68,13.52c0.15,0.44,0.53,0.77,1.15,0.71c0.3-0.03,0.65-0.03,1-0.06c5.18,1.55,10.36,3.18,15.5,4.87
	c3.62,2.48,6.8,5.47,9.64,8.77c-0.09-0.03-0.16,0.08-0.09,0.14c0.3,0.25,0.6,0.58,0.92,0.85c2.24,2.75,4.29,5.66,6.13,8.66
	c4.94,8.03,8.85,16.7,14.18,24.52c0.38,0.73,0.9,1.44,1.47,2.09c1.22,1.66,2.47,3.27,3.82,4.77c7.9,8.75,18.77,14.33,30.36,17.44
	c12.33,3.33,25.1,4.09,37.84,4.23c14.75,0.16,29.61-0.19,44.18,2.18c0.61,0.11,1.26,0.19,1.88,0.32c0.65,0.44,1.34,0.85,2.02,1.15
	c0.35,0.14,0.74,0.33,1.12,0.44c0.42,0.16,0.89,0.3,1.34,0.38C1342.64,232.37,1343.04,231.8,1342.86,231.32z M1215.69,135.75
	c-3.91,1.78-8.62,2.42-12.89,2.96c0.15-0.14,0.31-0.33,0.46-0.47c1.36-0.13,2.68-0.88,3.73-1.64c1.47-1.07,2.65-2.45,3.77-3.82
	c1.26-1.49,2.42-3.07,4.06-4.22c0.82-0.57,1.7-1.07,2.67-1.39c0.97-0.32,1.89-0.24,2.89-0.3
	C1222.42,130.39,1218.98,134.25,1215.69,135.75z M1214.75,124.01c0.66-0.06,1.42,0.05,2.12-0.02c1.07,0.41,2.08,1.04,2.83,1.9
	c-1.42-0.13-2.98,0.44-4.13,1.09c-1.67,0.9-2.95,2.23-4.16,3.6c-1.28,1.49-2.45,3.07-3.94,4.41c-0.7,0.62-1.43,1.19-2.29,1.66
	c-0.31,0.17-0.65,0.28-0.96,0.43c0.31-0.47,0.63-0.98,0.86-1.52c0.96-1.99,1.41-4.17,2.31-6.16c0.87-1.96,2.32-3.62,4.41-4.55
	C1212.75,124.39,1213.75,124.14,1214.75,124.01z M1201.36,129.48c1.42-3.3,4.84-5.42,8.47-6.03c0.97-0.17,2-0.24,3.04-0.19
	c-0.35,0.11-0.65,0.17-0.97,0.32c-1.91,0.77-3.53,2.07-4.59,3.78c-1.26,1.91-1.79,4.14-2.63,6.24c-0.4,1.01-0.86,1.99-1.5,2.86
	c-0.32,0.47-0.67,0.9-1.05,1.3c-0.03,0.03-0.03,0.03-0.08,0.08C1200.41,135.32,1200.17,132.19,1201.36,129.48z M1235.6,103.31
	c2.15,0.79,4.29,1.61,6.39,2.48c-13.71-2.7-27.59-4.74-41.55-6.02c-17.27-1.56-34.67-2.09-52-1.58
	c-17.37,0.54-34.75,2.15-51.92,4.76c-14.35,2.21-28.53,5.17-42.54,8.83c5.18-1.94,10.32-3.9,15.58-5.59
	c6.15-2.01,12.38-3.81,18.62-5.37c12.48-3.11,25.17-5.37,37.98-6.78c12.84-1.39,25.75-1.94,38.64-1.63
	c12.9,0.32,25.74,1.52,38.46,3.59C1214.25,97.77,1225.06,100.25,1235.6,103.31z M1081.49,98.21c13.81-5.06,28.35-7.46,43.07-8.33
	c14.44-0.82,29.04-0.52,43.47,0.4c13.93,0.88,27.77,2.59,41.4,5.51c1.53,0.3,3.04,0.7,4.57,1.03c-1.83-0.35-3.65-0.7-5.49-1.04
	c-12.79-2.29-25.75-3.7-38.76-4.23c-12.86-0.54-25.75-0.21-38.6,1.01c-12.96,1.22-25.8,3.29-38.46,6.26
	c-12.54,2.92-24.91,6.7-36.84,11.41c-0.85,0.35-1.67,0.71-2.52,1.06C1062.48,106.49,1071.7,101.81,1081.49,98.21z M1090.76,105.92
	c16.98-2.81,34.16-4.58,51.38-5.31c17.37-0.73,34.74-0.43,52.09,0.96c10.77,0.88,21.49,2.12,32.15,3.81
	c-5.93,0.05-11.86,0.32-17.77,0.76c-12.94,1.03-25.84,2.72-38.71,4.39c-12.96,1.69-25.92,3.29-38.98,4.11
	c-13.33,0.81-26.7,0.92-40.01,0.7c-7.47-0.11-14.98-0.38-22.45-0.68c-5.19-0.21-10.39-0.55-15.58-0.68
	C1065.36,110.71,1077.98,108,1090.76,105.92z M1051.21,112.38c0,0.08,0,0.11,0.03,0.14c-0.2,0.06-0.41,0.11-0.61,0.17
	C1050.78,112.59,1051.01,112.49,1051.21,112.38z M1049.91,114.73c5.38,0.46,10.85,0.63,16.23,0.87c6.61,0.28,13.28,0.51,19.91,0.68
	c13.16,0.32,26.33,0.32,39.51-0.27c13.09-0.58,26.13-2.02,39.13-3.67c12.87-1.64,25.77-3.55,38.76-4.61
	c7.33-0.59,14.68-0.93,22.04-0.9c4.04,0,8.12,0.19,12.13,0.49c2.15,0.4,4.3,0.81,6.41,1.23c-10.29-0.11-20.58,0.62-30.8,1.79
	c-13.52,1.53-26.95,3.87-40.43,5.91c-13.66,2.07-27.3,3.79-41.13,4.36c-14.09,0.58-28.27,0.14-42.35-0.85
	c-14.08-0.95-28.07-2.45-42.12-3.92c-0.38-0.05-0.77-0.08-1.18-0.08C1047.32,115.4,1048.62,115.08,1049.91,114.73z M941.05,126.9
	c0.2-0.14,0.38-0.28,0.62-0.43c0.2,0,0.38-0.03,0.62-0.06C941.85,126.59,941.44,126.73,941.05,126.9z M1101.93,52.99
	c-13.88,7.28-28.46,13.21-42.22,20.75c-6.93,3.82-13.61,8.06-19.82,12.86c-6.03,4.63-11.67,9.67-17.92,14.05
	c-6.06,4.27-12.61,7.77-19.69,10.29c-6.93,2.48-14.14,4.14-21.39,5.64c-0.65,0.14-1.35,0.28-2,0.41c1.85-0.6,3.67-1.28,5.46-2.05
	c5.61-2.39,10.89-5.45,15.9-8.86c10.87-7.4,20.56-16.29,31.75-23.31c11.02-6.92,23.1-11.99,35.29-16.7
	c11.75-4.53,23.66-8.82,35.05-14.16c5.11-2.42,10.1-5.07,14.88-8.04C1112.28,47.24,1107.16,50.24,1101.93,52.99z M1105.34,49.05
	c-11.04,5.61-22.62,9.95-34.22,14.39c-11.91,4.57-23.92,9.26-34.92,15.63c-11.32,6.51-21.01,15.04-31.46,22.69
	c-9.9,7.28-20.88,13.9-33.38,16.18c-0.3,0.06-0.62,0.1-0.89,0.17c3.64-1.71,7.16-3.57,10.62-5.53
	c13.23-7.65,25.15-17.11,37.66-25.75c6.36-4.41,12.89-8.64,19.74-12.28c5.92-3.14,12.12-5.85,18.38-8.33
	c12.61-5.01,25.64-9.02,38.3-13.95c8.31-3.22,16.56-6.89,24.24-11.39C1114.9,43.87,1110.18,46.59,1105.34,49.05z M1124.31,36.15
	c-7.85,5.34-16.4,9.65-25.3,13.32c-12.43,5.12-25.34,9.16-37.91,13.87c-6.32,2.37-12.54,4.93-18.57,7.88
	c-6.67,3.24-13.03,7.03-19.12,11.12c-12.66,8.42-24.44,17.95-37.33,26.09c-7.1,4.47-14.55,8.52-22.4,11.64
	c-6.3,1.39-12.51,2.97-18.5,5.2c-0.73,0.09-1.47,0.21-2.24,0.3c0.97-0.68,1.9-1.33,2.84-2.01c14.61-10.55,27.87-22.61,42.18-33.5
	c7.18-5.47,14.61-10.59,22.51-15.06c7.51-4.25,15.5-7.74,23.66-10.74c16.25-5.94,33.15-9.95,49.89-14.47
	C1097.67,46.13,1111.5,42.09,1124.31,36.15z M1044.08,54.05c4.53-1.01,9.03-1.97,13.59-2.88c6.33-1.2,12.7-2.31,19.03-3.44
	c7.83-1.41,15.74-2.86,23.51-4.74c-3.68,1.17-7.38,2.29-11.12,3.35c-16.62,4.71-33.49,8.61-49.85,14.14
	c-8.12,2.75-16.05,5.91-23.68,9.73c-8.02,4.06-15.59,8.86-22.82,14.08c-14.61,10.55-27.84,22.66-42.07,33.61
	c-1.79,1.36-3.57,2.73-5.39,4.06c2.92-3.26,5.86-6.53,8.82-9.75c4.44-4.8,8.97-9.53,13.68-14.09c9.43-9.12,19.42-17.68,30.56-24.92
	c11.25-7.35,23.53-12.97,36.62-16.76C1037.98,55.55,1041.04,54.77,1044.08,54.05z M963.28,96.68c4.73-5.78,9.99-11.11,15.98-15.71
	c5.74-4.42,11.99-8.25,18.59-11.5c6.05-3,12.31-5.51,18.69-7.74c-5.19,2.31-10.27,4.91-15.14,7.93
	c-11.26,6.87-21.39,15.25-30.83,24.19c-9.54,9.04-18.4,18.79-27.02,28.63c-0.47,0.54-0.94,1.12-1.4,1.69
	c-0.58,0.4-1.12,0.82-1.7,1.22C948.87,116.49,955.52,106.14,963.28,96.68z M930.06,121.28c-5.58,2.89-12.49,1.83-17.15-2.08
	c3.99,1.64,8.45,2.05,12.73,1.29c2.2-0.38,4.33-1.09,6.35-2.01c1.17-0.57,2.4-1.22,3.49-2.01
	C934.17,118.48,932.24,120.17,930.06,121.28z M936.63,110.17c0.57,1.36,0.35,3.03-0.17,4.41c-1.67,1.04-3.22,2.18-5.04,3
	c-1.94,0.85-3.99,1.45-6.06,1.83c-3.97,0.68-8.17,0.43-12.04-0.68c8.15-1.44,16.03-4.53,23.2-8.42
	C936.54,110.23,936.59,110.2,936.63,110.17z M927.01,110.03c2.4-1.14,6.55-3.43,8.9-1c0.03,0.08,0.08,0.11,0.15,0.19h-0.03
	c-7.57,4.11-15.6,6.79-23.98,8.82c1.97-1.18,3.92-2.32,5.93-3.43C920.93,112.98,923.95,111.45,927.01,110.03z M929.46,85.39
	c1.19,1.33,1.69,3.22,1.67,4.93c0.02,5.39-2.94,10.6-6.38,14.69c-2.51,2.96-5.46,5.48-8.57,7.88c3.09-3.32,5.66-6.97,7.75-10.92
	C926.74,96.72,928.19,91.13,929.46,85.39z M926.44,83.72c0.23,0.03,0.47,0.05,0.68,0.11c0.73,0.22,1.34,0.55,1.84,1.01
	c-0.27,0-0.5,0.11-0.55,0.4c-0.33,5.67-2.49,11.27-5.16,16.31c-2.44,4.6-5.65,8.83-9.39,12.58
	C920.71,105.33,924.89,94.53,926.44,83.72z M913.62,112.9c0.05-0.81,0.1-1.6,0.22-2.4c0.17-1.34,0.38-2.65,0.67-4
	c0.62-2.88,1.49-5.7,2.6-8.42c1.94-4.71,4.66-9.1,7.97-13.07C923.3,95.02,919.26,104.29,913.62,112.9z M912.8,100.77
	c1.07-4.98,3.32-10.21,6.98-14.03c1.29-1.29,3.04-2.62,4.93-3c-3.62,4.27-6.58,9.01-8.63,14.08c-1.07,2.65-1.95,5.4-2.55,8.2
	c-0.4,1.82-0.82,3.82-0.98,5.75C911.93,108.16,912.01,104.4,912.8,100.77z M901.56,102.7c2.57,3.63,1.64,8.22,0.05,12.02
	c-1.55,3.73-3.71,7.28-6.13,10.54c-0.08,0.11-0.15,0.17-0.23,0.28c2.74-6.49,3.67-13.76,3.14-20.62c-0.13-1.61-0.07-3.85-1.17-5.23
	l-0.03-0.03C898.9,100.07,900.47,101.12,901.56,102.7z M893.96,101.45c0.37-1.2,1.92-2.16,2.62-0.7c0.75,1.5,0.68,3.57,0.78,5.18
	c0.27,3.79-0.02,7.62-0.72,11.33c-0.73,3.78-2.02,7.33-3.56,10.89c-0.08,0.11-0.15,0.22-0.23,0.29c-0.03-0.03-0.12-0.11-0.15-0.14
	c0.13-1.75-0.15-3.65-0.25-5.39c-0.08-2.15-0.07-4.27-0.03-6.42c0.13-4.11,0.52-8.15,1.04-12.23
	C893.63,103.33,893.68,102.35,893.96,101.45z M886.49,109.6c0.7-3.41,2.35-6.86,5.46-8.91c0.08-0.03,0.15-0.08,0.2-0.11
	c-2.59,3.76-4.02,8.29-4.39,12.74c-0.22,2.54-0.1,5.13,0.37,7.65c0.1,0.66,0.25,1.28,0.43,1.94
	C886.39,118.84,885.59,114.1,886.49,109.6z M891.49,124.66c0.03,0.81,0.02,1.64,0.05,2.48c-0.15-0.14-0.27-0.33-0.38-0.47
	c-0.3-0.73-0.67-1.42-0.94-2.12c-0.42-1.14-0.73-2.34-1-3.51c-0.52-2.48-0.67-5.04-0.48-7.55c0.37-4.83,2.07-9.34,4.66-13.46
	c0.03,0,0.03-0.03,0.08-0.03c-0.5,0.62-0.7,1.37-0.84,2.13c-0.2,1.2-0.33,2.43-0.47,3.63c-0.22,2.37-0.4,4.72-0.5,7.14
	c-0.15,2.62-0.22,5.28-0.22,7.9C891.44,122.04,891.45,123.35,891.49,124.66z M858.07,100.29c-3.91,5.39-8.33,10.51-11.62,16.27
	c-2.09,3.65-3.52,7.58-4.79,11.53c0.05-0.44,0.08-0.84,0.17-1.28c0.33-2.12,0.7-4.19,1.19-6.26c0.97-4.11,2.44-8.14,4.64-11.79
	c4.36-7.24,11.44-12.48,16.72-19.05C862.55,93.42,860.51,96.96,858.07,100.29z M867.72,82.19c-0.2,0.51-0.43,1.01-0.63,1.52
	c-0.95,1.77-2.09,3.44-3.34,5.02c-2.66,3.37-5.78,6.35-8.78,9.45c-2.96,3.03-5.78,6.13-7.93,9.72c-2.15,3.59-3.59,7.47-4.61,11.47
	c-0.57,2.29-1.02,4.58-1.35,6.9c-0.25,1.79-0.55,3.6-0.6,5.42c-0.4,1.31-0.8,2.58-1.24,3.89c-0.12,0.4-0.28,0.76-0.4,1.17
	c0.7-4.36,0.53-8.93,1-13.26c0.65-5.93,2.67-11.52,5.63-16.76c5.9-10.51,14.75-19.01,21.88-28.72c1.37-1.88,2.62-3.79,3.81-5.78
	C870.08,75.5,868.96,78.88,867.72,82.19z M805.42,134.63c1.2-3.66,3.09-7.03,5.74-9.95c2.57-2.89,5.65-5.32,8.48-7.96
	c2.77-2.56,5.23-5.29,7.11-8.49c2.04-3.44,3.47-7.14,4.79-10.87c1.27-3.67,2.41-7.33,3.82-10.92c0.72-1.82,1.55-3.63,2.37-5.4
	c-0.75,2.24-1.4,4.53-1.97,6.82c-1.54,6.15-2.72,12.47-5.38,18.27c-5.54,12.18-16.12,21.39-23.3,32.61
	c-1.65,2.58-3.14,5.21-4.38,7.93C803.48,142.59,804.13,138.55,805.42,134.63z M799.72,157.38c-0.05,0.33-0.08,0.65-0.13,0.98
	c0,0.08,0.08,0.08,0.08,0c0.08-0.59,0.2-1.12,0.28-1.68c0.87-2.24,1.52-4.54,2-6.86c3.69-9.35,10.57-17.33,17.02-25.25
	c4.11-5.02,8.13-10.19,11.09-15.94c2.87-5.58,4.49-11.53,5.91-17.6c0.82-3.41,1.62-6.79,2.74-10.13c1.12-3.38,2.81-6.41,4.43-9.57
	c0.03-0.11,0.03-0.22-0.03-0.28c6.16-9.76,14.13-18.5,23.38-25.75c5.76-4.53,12.01-8.44,18.59-11.68
	c-6.6,4.6-12.52,10.1-17.75,15.99c-9.48,10.71-16.68,23.1-22.38,35.93c-3.04,6.89-5.71,13.89-8.1,21.01
	c-2.32,6.94-4.29,13.9-6.48,20.87c-2.09,6.65-4.47,13.29-8.13,19.29c-3.46,5.64-8.1,10.51-13.53,14.51
	c-6.45,4.71-13.81,8.15-21.39,11C792.87,168.45,797.22,163.29,799.72,157.38z M794.28,171.12c3.71-1.6,7.36-3.38,10.8-5.45
	c5.51-3.33,10.55-7.43,14.55-12.37c4.41-5.45,7.46-11.76,9.84-18.19c2.47-6.68,4.33-13.57,6.41-20.37
	c2.24-7.16,4.68-14.27,7.45-21.24c5.39-13.46,12.26-26.5,21.44-38.03c4.17-5.25,8.82-10.18,13.96-14.6
	c4.28-3.67,8.87-6.9,13.71-9.83c-0.2,0.17-0.38,0.36-0.58,0.51c-4.29,4.08-7.7,8.88-10.45,13.95c-3.66,6.67-6.13,13.78-8.42,20.93
	c-0.32,0.69-0.64,1.38-0.99,2.02c-1.42,2.64-3.02,5.18-4.79,7.63c-3.41,4.88-7.23,9.46-10.99,14.09
	c-7.32,9.02-14.75,18.79-16.73,30.24c-0.58,3.41-0.67,6.87-0.9,10.33c-0.2,3.63-0.73,7.13-1.74,10.62c0,0.08,0,0.11,0.03,0.14
	c-1.79,3.95-4.06,7.68-7.18,10.97c-8.77,9.31-21.04,14.12-33.3,17.96C795.75,170.73,795.01,170.92,794.28,171.12z M963.61,213.82
	c-7.6-2.67-15.15-5.37-22.86-7.79c-7.57-2.37-15.23-4.28-23-5.93c-7.68-1.64-15.4-3.22-22.84-5.7c-6.98-2.34-13.41-5.58-19.44-9.64
	c-11.16-7.52-20.94-17.05-33.3-22.83c-0.5-0.22-1-0.44-1.49-0.68h0.03c6.06,2.29,11.96,4.76,17.7,7.7
	c6.05,3.08,11.86,6.51,17.75,9.84c5.74,3.27,11.56,6.46,17.57,9.29c6.31,2.99,12.84,5.42,19.55,7.35
	c13.96,4.04,28.49,6.27,42.3,10.76c13.93,4.49,26.67,11.5,40.26,16.75c2.37,0.9,4.76,1.77,7.21,2.51
	C989.57,222.9,976.54,218.35,963.61,213.82z M1040.06,226.5c-7.72,1.26-15.65,1.44-23.47,0.81c-5.64-0.87-11.17-2.34-16.5-4.22
	c-13.64-4.77-26.23-11.79-39.85-16.67c-13.58-4.88-27.91-7.22-41.88-10.87c-6.83-1.79-13.54-3.93-20.02-6.7
	c-6.09-2.65-11.99-5.74-17.75-8.93c-11.62-6.38-23.06-13.29-35.64-17.9c-0.77-0.3-1.57-0.57-2.37-0.82
	c6.08-0.16,12.12,0.02,18.17,0.71c7.23,0.84,14.41,2.23,21.48,4.01c14.43,3.68,28.27,9.23,41.63,15.53
	c13.48,6.37,26.4,13.76,39.53,20.75c13.28,7.03,26.87,13.7,41.37,18.22c7.07,2.2,14.31,3.9,21.69,4.87
	c4.88,0.63,9.92,1.01,14.93,0.93C1040.94,226.3,1040.49,226.41,1040.06,226.5z M881.15,157.77c14.58,1.94,28.57,6.57,41.82,12.54
	c13.63,6.16,26.49,13.65,39.29,21.16c12.62,7.35,25.28,14.69,38.64,20.81c11.91,5.4,24.63,10.07,37.74,12.17
	c-2.42-0.03-4.84-0.13-7.28-0.33c-7.5-0.66-14.91-2.09-22.16-4.14c-14.63-4.09-28.32-10.51-41.65-17.46
	c-13.24-6.89-26.17-14.27-39.65-20.75c-13.24-6.41-26.97-12.05-41.28-16.04c-13.93-3.87-28.39-6.07-42.95-5.56
	c-0.38,0-0.73,0.06-1.12,0.06C855.06,156.59,868.27,156.1,881.15,157.77z M998.05,148.36c-0.9,1.85-2.92,2.99-4.98,3.41
	c-2.32,0.49-4.78-0.02-6.91-0.87c-0.42-0.16-0.8-0.38-1.18-0.6c2.69,0.79,5.49,1.12,8.23,0.3c1.47-0.43,2.86-1.17,3.96-2.21
	c0.47-0.47,0.97-1.01,1.34-1.66C998.45,147.3,998.28,147.84,998.05,148.36z M997.35,146.56c0.47-0.39,0.82-0.87,1.02-1.37
	c0,0.03,0,0.08,0.03,0.11c-0.52,0.9-0.9,1.85-1.72,2.64c-1.05,1.01-2.45,1.72-3.91,2.07c-3.51,0.87-7.32-0.3-10.61-1.31
	c-0.03,0-0.03,0-0.08,0c-0.03,0-0.03-0.03-0.08-0.03c3.07,0,6.16-0.16,9.2-0.44C993.27,148.04,995.71,147.96,997.35,146.56z
	 M981.88,147.52c2.05-1.41,4.43-2.57,6.9-3.13c2.67-0.58,5.48-0.6,8.17-0.02c0.12,0.03,0.2,0,0.27-0.03
	c-0.28,1.09-1.79,1.94-2.99,2.23c-1.97,0.41-4.04,0.51-6.06,0.69C986.09,147.42,983.97,147.5,981.88,147.52z M987.46,142.01
	c2.59-0.96,7.15-1.56,9.27,0.71c0.38,0.41,0.48,0.77,0.52,1.14c-0.03-0.08-0.12-0.11-0.23-0.14c-5.41-1.12-11.56,0.02-15.9,3.4
	C982.57,144.8,984.76,143,987.46,142.01z M971.46,150.03c2.91,1.31,5.69,3.75,5.76,7.01c0,0.55-0.08,1.03-0.25,1.49
	c-0.37-0.88-1.05-1.72-1.52-2.24c-1.29-1.44-2.74-2.72-4.26-3.95c-1.52-1.18-3.12-2.26-4.86-3.19c-0.89-0.49-1.75-0.93-2.64-1.34
	c-0.3-0.14-0.62-0.3-0.92-0.44C965.75,148.07,968.74,148.8,971.46,150.03z M962.7,148.77c0.84,0.33,1.65,0.71,2.46,1.12
	c1.65,0.82,3.21,1.79,4.71,2.81c1.45,1,2.86,2.1,4.16,3.29c0.65,0.63,1.28,1.29,1.79,2.02c0.18,0.3,0.33,0.62,0.48,1
	c-0.35-0.19-0.73-0.33-1.07-0.52c-0.8-0.41-1.57-0.85-2.34-1.29c-1.45-0.88-2.87-1.82-4.21-2.84c-2.32-1.74-4.43-3.76-6.48-5.78
	C962.35,148.63,962.51,148.7,962.7,148.77z M968.01,155.09c1.37,1.03,2.82,2.04,4.31,2.92c0.72,0.44,1.45,0.85,2.22,1.26
	c0.5,0.25,1,0.55,1.54,0.77c-0.23,0.25-0.5,0.47-0.79,0.68c-0.73-0.22-1.5-0.27-2.27-0.4c-0.92-0.16-1.8-0.43-2.66-0.73
	c-1.72-0.63-3.32-1.56-4.71-2.78c-2.59-2.21-4.09-5.32-4.59-8.58C963.01,150.89,965.42,153.15,968.01,155.09z M960.46,148.82
	c0.35,3.29,1.97,6.43,4.48,8.72c1.4,1.33,3.12,2.32,5.01,3c0.89,0.3,1.77,0.57,2.69,0.73c0.5,0.08,1.04,0.16,1.54,0.16
	c-1.09,0.54-2.32,0.85-3.59,0.81c-3.77-0.19-7.48-2.59-9.57-5.45C959.32,154.42,958.89,151.25,960.46,148.82z M1157.82,215.6
	c-15.11-1.44-30.31-3.21-44.69-8.12c-4.37-1.5-8.61-3.26-12.84-5.09c0.09,0.03,0.15,0.03,0.24,0.08c5.32,1.58,10.75,2.84,16.2,4
	c11.43,2.42,23.01,4.5,34.5,6.72c6.61,1.28,13.26,2.73,19.94,3.74C1166.74,216.42,1162.28,216.01,1157.82,215.6z M1171.6,216.95
	c0.03,0,0.08,0,0.12-0.03c0.08,0.03,0.15,0.03,0.23,0.08C1171.82,216.95,1171.7,216.95,1171.6,216.95z M1022.94,141
	c7.03,1.06,14.06,2.23,21.06,3.65c13.94,2.84,27.75,6.64,40.74,12.28c13.15,5.72,25.1,13.46,36.59,21.71
	c11.31,8.14,22.22,16.78,33.87,24.47c6.77,4.44,13.76,8.64,21.11,12.18c-6.48-2.07-12.89-4.36-19.2-6.95
	c-14.57-5.99-28.58-13.13-42.34-20.56c-13.81-7.47-27.47-15.23-41.35-22.51c-13.93-7.33-28.17-14.19-43-19.76
	c-5.91-2.21-11.92-4.2-18.02-5.96C1015.87,140.01,1019.45,140.49,1022.94,141z M1025.01,145.29c14.91,5.37,29.19,12.12,43.17,19.37
	c13.96,7.25,27.59,15.09,41.35,22.63c13.72,7.54,27.7,14.79,42.15,21.03c4.37,1.86,8.77,3.67,13.26,5.36
	c-7.6-2.12-15.17-4.42-22.68-6.9c-11.86-3.95-23.58-8.31-35.12-13.05c-11.57-4.79-22.98-9.94-34.2-15.45
	c-11.22-5.55-22.2-11.5-32.98-17.81c-10.74-6.3-21.26-12.97-31.45-20c-0.27-0.19-0.57-0.36-0.84-0.55
	C1013.54,141.4,1019.33,143.25,1025.01,145.29z M1005.87,139.37c4.51,3.33,9.17,6.43,13.86,9.51c5.23,3.41,10.51,6.75,15.87,9.97
	c10.62,6.41,21.52,12.47,32.63,18.12c11.17,5.69,22.54,11.06,34.15,15.96c11.64,4.93,23.5,9.46,35.49,13.57
	c8.4,2.86,16.88,5.58,25.43,8.03c-3.19-0.62-6.41-1.2-9.6-1.85c-5.85-1.12-11.67-2.24-17.49-3.4c-11.13-2.2-22.36-4.31-33.25-7.43
	c-4.64-1.33-9.16-2.97-13.66-4.66c-5.62-2.72-11.17-5.51-16.85-8.09c-13.24-6.08-27.37-10.79-39.16-19.32
	c-11.22-8.14-19.95-18.86-28.26-29.59c-0.38-0.47-0.72-0.92-1.1-1.39C1004.56,139.02,1005.21,139.21,1005.87,139.37z
	 M1162.85,178.46c-0.82-2.84-1.32-6.02-0.32-8.9c0.69-1.85,2.04-3.51,3.91-4.36c-1.77,3.81-2.14,8.14-1.45,12.23
	c0.35,2.2,1.02,4.35,2,6.4c0.45,0.95,0.99,1.87,1.56,2.75c0.08,0.14,0.18,0.25,0.26,0.41
	C1165.77,185.19,1163.74,181.49,1162.85,178.46z M1168.68,164.6c0.73,0.41,1.45,0.85,2.14,1.29c4.24,2.7,8.23,6.35,9.33,11.28
	c0.59,2.7-0.03,5.72-1.82,7.88c-0.7-3.14-2.77-5.82-4.86-8.39c-1.4-1.69-2.85-3.38-3.79-5.36c-1.05-2.16-1.22-4.24-0.97-6.57
	C1168.68,164.68,1168.68,164.65,1168.68,164.6z M1167.91,164.66c0.03,0,0.03-0.03,0.08-0.03c-2,3.59,0.76,8.14,2.96,10.97
	c2.5,3.19,5.81,6.43,6.31,10.52c-0.82,0.65-1.75,1.18-2.82,1.5c-1.2,0.35-2.32,0.38-3.36,0.19c-0.33-0.58-0.83-1.11-1.22-1.66
	c-0.6-0.92-1.16-1.86-1.65-2.86c-0.93-1.94-1.57-3.98-1.97-6.07c-0.72-4.2-0.2-8.34,1.07-12.37
	C1167.48,164.77,1167.71,164.7,1167.91,164.66z M1185.98,153.16c9,0.68,17.92,1.72,26.8,3.46c11.53,2.27,22.88,5.42,33.85,9.51
	c10.89,4.09,21.41,9.05,31.48,14.76c10.06,5.72,19.61,12.2,28.43,19.5c7.16,5.94,13.91,12.28,20.17,19.01
	c-11.66-6.97-23.56-13.59-35.54-20.02c-17.33-9.32-34.98-18.12-53.02-26.1C1221.15,165.75,1203.75,158.98,1185.98,153.16z
	 M1192.74,158.15c10.24,3.57,20.39,7.43,30.4,11.58c30.84,12.78,60.35,28.11,89.14,44.52c-3.25-0.92-6.56-1.64-9.83-2.18
	c-10.96-1.86-22.08-2.1-33.17-2.76c-10.35-0.62-20.84-1.75-30.63-5.25c-4.61-1.66-9.03-3.78-13.06-6.56
	c-3.82-2.67-7.05-5.91-9.9-9.51c-3.57-4.49-6.63-9.43-10.12-13.98C1202.13,168.34,1197.97,162.62,1192.74,158.15z M1209.34,180.56
	c1.37,1.98,2.69,3.97,4.13,5.91c2.57,3.52,5.46,6.9,8.9,9.75c3.59,2.99,7.71,5.4,12.04,7.27c19.77,8.59,41.85,6.35,62.84,9.16
	c5.58,0.76,11.11,1.86,16.43,3.66c2.81,0.95,5.48,2.1,8.09,3.4c0.77,0.44,1.57,0.89,2.34,1.34c-2.54-0.73-5.11-1.22-7.72-1.58
	c-9.42-1.26-19.02-0.54-28.49-0.46c-16.48,0.16-33.55-1.6-48.93-7.52c-4.26-1.64-8.35-3.62-12.21-5.96c-0.95-0.55-1.9-1.15-2.9-1.79
	C1217.81,196.75,1213.72,188.55,1209.34,180.56z M1330.97,227.07c-3.66-0.41-7.32-0.7-11.01-0.85c-7.34-0.33-14.71-0.27-22.06-0.27
	c-13.17,0-26.42-0.25-39.31-3.08c-11.71-2.56-23.24-7.43-31.7-15.72c-0.26-0.25-0.53-0.55-0.8-0.85c2.34,1.45,4.75,2.75,7.23,3.93
	c7.32,3.46,15.18,5.88,23.17,7.43c8.3,1.61,16.8,2.37,25.26,2.56c9.47,0.25,18.96-0.46,28.41,0.24c4.93,0.38,9.84,1.17,14.53,2.67
	c2.27,0.71,4.44,1.61,6.51,2.65c0.8,0.41,1.61,0.89,2.37,1.38c0.09,0.11,0.15,0.19,0.24,0.3
	C1332.89,227.31,1331.92,227.15,1330.97,227.07z M1332.09,222.71c-6.5-7.43-13.5-14.39-21.13-20.78
	c-8.85-7.41-18.43-14.11-28.44-20.02c-10.05-5.94-20.62-11.08-31.58-15.23c-10.92-4.15-22.12-7.6-33.61-10.05
	c-11.14-2.39-22.52-3.89-33.96-4.38c-0.18-0.08-0.38-0.19-0.56-0.27c-1.16-0.44-2.34-0.82-3.53-1.14
	c10.82-0.47,21.71-0.02,32.45,1.33c13.65,1.75,27.09,4.95,39.96,9.61c12.08,4.36,23.65,9.94,34.46,16.65
	c10.28,6.41,19.89,13.84,28.62,22.06c8.15,7.74,15.36,16.16,22.03,25.04C1335.26,224.64,1333.71,223.68,1332.09,222.71z"/>
<path class="st0" d="M1071.53,86.69c-1.11,0.21-2.23,0.49-3.29,0.87c-2.47,0.85-4.75,2.13-6.74,3.76c-0.62,0.54-0.45,1.6,0.48,1.72
	c0.09,0,0.15,0,0.24,0c0.03,0.03,0.11,0.08,0.18,0.11c4.46,1.25,9.44,0.43,13.28-1.98c0.85-0.54,1.63-1.41,1.53-2.42
	c-0.1-1.06-0.93-1.86-1.97-2.16C1074.04,86.25,1072.74,86.48,1071.53,86.69z"/>
<path class="st0" d="M867.21,135.91c-0.2,0.76,0.75,1.25,1.42,1.04c0.7-0.25,1.32-0.54,1.97-0.88c1.7-0.63,3.29-1.71,4.61-2.86
	c2.02-1.83,3.56-4.19,4.28-6.73c0.17-0.54-0.18-1.31-0.92-1.14C873.02,126.57,868.66,130.68,867.21,135.91z"/>
<path class="st0" d="M1185.35,126.68c-1.12,0.06-2.24,0.49-3.29,0.81c-1.21,0.39-2.36,0.85-3.53,1.34
	c-2.55,1.17-4.92,2.64-7.06,4.41c-0.79,0.65-0.29,1.9,0.78,1.75c0.92-0.1,1.82-0.24,2.74-0.41c0.24,0,0.42-0.03,0.65-0.06
	c0.09,0,0.2,0,0.27,0c0.03,0,0.08-0.03,0.15-0.03c1.5-0.13,3.01-0.44,4.39-0.87c1.27-0.35,2.47-0.81,3.68-1.34
	c1.08-0.51,2.28-1,3.17-1.79c0.85-0.76,1.37-1.91,0.65-2.91C1187.38,126.81,1186.3,126.62,1185.35,126.68z"/>
<path class="st0" d="M825.57,168.5c-0.7,0.57-1.75,1.3-1.92,2.2c-0.2,1.09,0.75,1.83,1.79,1.8c0.89-0.03,1.82-0.46,2.62-0.77
	c0.82-0.36,1.59-0.74,2.32-1.22c0.65-0.25,1.27-0.57,1.9-0.93c1.94-1.14,3.42-2.81,4.49-4.72c0.32-0.58-0.33-1.36-0.99-1.22
	C832.05,164.46,828.5,166.1,825.57,168.5z"/>
<path class="st0" d="M8.57,219.54c0.42-0.06,0.92-0.21,1.35-0.35c0.38-0.11,0.77-0.28,1.12-0.43c0.73-0.32,1.39-0.68,2.05-1.11
	c0.62-0.1,1.27-0.17,1.89-0.27c14.66-2.07,29.48-1.36,44.22-1.23c12.74,0.14,25.53-0.38,37.93-3.41
	c11.66-2.89,22.66-8.22,30.78-16.8c1.4-1.52,2.74-3.1,3.94-4.69c0.62-0.62,1.14-1.3,1.52-2.05c5.53-7.7,9.64-16.29,14.76-24.22
	c1.92-2.97,4.04-5.86,6.35-8.53c0.32-0.28,0.62-0.57,0.94-0.82c0.08-0.08,0-0.19-0.08-0.14c2.92-3.25,6.16-6.16,9.84-8.56
	c5.18-1.63,10.39-3.1,15.61-4.54c0.35,0.05,0.65,0.05,1,0.08c0.62,0.08,1-0.28,1.17-0.68c20.32-5.5,40.96-9.65,61.99-12.2
	c3.04-0.36,6.13-0.7,9.22-1c-6.65,1.31-13.24,2.96-19.74,4.82c-11.59,3.33-22.96,7.44-33.95,12.31c-5.49,2.42-10.96,5.03-16.27,7.81
	c-4.81,2.53-9.62,5.44-12.41,10.07c-2.52,4.12-2.96,9.37,0.18,13.3c0.33,0.44,0.72,0.8,1.1,1.14c0,0.08,0,0.14,0,0.22
	c0,0.47,0.5,0.59,0.84,0.44c3.02,2.18,7.01,2.4,10.5,0.36c4.66-2.72,6.76-8.56,7.25-13.48c0.43-4.44-1.35-9.56-6.06-11.11
	c3.29-1.75,6.66-3.4,10.04-4.96c4.93-2.35,9.95-4.52,15.06-6.54c18.07-7.17,36.87-12.17,56.13-15.5c11.11-0.79,22.2-1.18,33.32-1.25
	c-7.1,0.81-14.2,1.85-21.26,3.08c-8.92,1.55-17.79,3.3-26.6,5.4c-7.83,1.85-16.02,3.59-23.26,7.08c-3.29,1.56-6.78,3.6-9.17,6.32
	c-1.05,1.18-1.5,3-0.02,4.04c1.22,0.85,2.95,0.47,4.24-0.06c1.39-0.54,2.76-1.14,4.11-1.79c7.23-2.07,13.83-6.11,18.89-11.42
	c0.23-0.25,0.28-0.54,0.23-0.87c4.21-1.09,8.42-2.05,12.62-3.07c16.25-3.84,32.77-6.35,49.31-8.69c15.4,0.16,30.8,0.98,46.11,2.32
	c-0.42,0.14-0.82,0.28-1.2,0.43c-1.62,0.63-3.21,1.42-4.54,2.5c-1.3,0.1-2.62,0.19-3.92,0.32c-14.29,1.34-28.61,3.19-42.7,5.96
	c-13.86,2.73-27.54,6.52-40.38,12.24c-13.01,5.8-24.88,13.51-36.42,21.5c-11.42,7.93-22.61,16.15-34.59,23.35
	c-5.93,3.59-12.06,6.87-18.4,9.67c-3.14,1.39-6.35,2.67-9.63,3.79c-2.62,0.92-5.33,1.66-7.97,2.5c-2.5,0.49-5.01,0.96-7.53,1.6
	c-1.09,0.28-0.6,2.04,0.48,1.79c1.65-0.38,3.36-0.73,5.06-1.04c0.42-0.06,0.85-0.09,1.24-0.17c0.92-0.14,1.82-0.35,2.74-0.52
	c14.01-2.29,28.22-2.94,42.37-4.11c15.23-1.26,30.28-3.46,44.57-8.77c14.11-5.24,27.34-12.42,41.23-18.14
	c6.81-2.81,13.66-5.47,20.27-8.64c6.46-3.1,12.59-6.75,18.12-11.2c5.33-4.28,10.12-9.12,14.65-14.12
	c3.94-4.41,7.77-8.99,11.29-13.68c0.97-0.21,1.85-0.68,2.79-1.03c0.47-0.17,0.93-0.32,1.39-0.46c5.06-0.96,10.19-1.71,15.31-2.31
	c1.12,0.13,2.24,0.24,3.34,0.36c21.73,2.5,43.25,6,64.65,10.27c-1.12-0.08-2.27-0.17-3.39-0.25c-4.84-0.35-9.7-0.59-14.55-0.7
	c-8.82-0.21-17.64,0.17-26.35,1.53c-0.3,0.03-0.65,0.1-0.97,0.17c-0.03-0.03-0.12-0.08-0.2-0.03c-4.78,0.68-9.64,1.17-14.5,1.3
	c-1.42,0.06-2.86,0.05-4.28,0.03c-1.54-3.62-5.01-6.32-8.92-7.43c-2.99-0.84-7.8-1.03-9.8,1.79c-0.03,0.03-0.03,0.11-0.08,0.14
	c-1.49,1.52-1.85,3.73-1.27,5.67c0.67,2.09,2.51,3.63,4.61,4.42c2.49,0.93,5.31,0.68,7.78-0.1c2.32-0.74,4.73-1.96,6.7-3.43
	c3.69,0.05,7.4-0.14,11.05-0.54c-0.65,0.21-1.35,0.38-2,0.6c-3.21,1.14-6.16,3.14-7.23,6.34c-1.04,2.97,0.17,6.02,2.99,7.65
	c3.21,1.82,7.15,1.2,10.29-0.44c3.02-1.57,5.83-4.01,6.9-7.21c0.89-2.65,0.42-5.75-1.57-7.81c3.39-0.58,6.83-1.03,10.25-1.31
	c7.75-0.65,15.56-0.6,23.33-0.22c3.84,0.19,7.73,0.44,11.59,0.74c2.51,0.21,5.08,0.49,7.58,0.66c7.98,1.69,15.98,3.45,23.88,5.32
	c-1.47-0.02-2.92,0-4.42,0.03c-4.69,0.1-9.37,0.38-14.03,0.79c-8.33,0.79-16.58,2.09-24.7,3.92c-1.09,0.24-2.15,0.52-3.24,0.81
	c-0.79-1.58-2.09-2.97-3.61-3.93c-1.45-0.88-3.22-1.64-4.94-1.61c-1.65,0.02-3.44,1.17-2.72,2.92c0.37,0.84,1.22,1.39,2.02,1.85
	c0.92,0.52,1.87,0.93,2.87,1.26c0.68,0.22,1.39,0.46,2.11,0.6c-1.5,0.43-3.01,0.81-4.48,1.26c-3.82,1.15-7.7,2.35-11.26,4.11
	c-1.67,0.82-3.29,1.75-4.81,2.83c-1.17,0.87-2.37,1.98-2.39,3.51c-0.02,1.31,0.97,2.38,2.21,2.86c1.65,0.63,3.39,0.14,4.98-0.46
	c7.17-2.76,13.68-7.03,19.24-12.07c0.47-0.43,0.4-1.2-0.22-1.42c0.08,0,0.12-0.03,0.2-0.03c0.27,0.03,0.54-0.03,0.73-0.17
	c3.56-0.92,7.11-1.74,10.69-2.43c7.42-1.45,14.9-2.46,22.41-3c6.01-0.44,12.02-0.41,18.07-0.46c5.44,1.3,10.94,2.67,16.4,4.08
	c-7.88-0.6-15.87-0.29-23.7,0.87c-14.66,2.13-28.66,6.9-41.97,12.96c-13.63,6.19-26.62,13.56-39.6,20.81
	c-12.91,7.19-25.93,14.3-39.71,19.94c-6.76,2.76-13.69,5.21-20.84,7.09c-6.3,1.64-12.62,2.67-19.02,3.62
	c-1.8-0.13-3.66-0.25-5.46-0.46c-1.39-0.49-2.76-0.98-4.11-1.53c-1.27-0.52-2.14,1.33-0.87,1.85c1.77,0.71,3.56,1.39,5.36,1.96
	c5.83,1.85,11.82,2.94,17.87,3.4c3.19,0.39,6.38,0.47,9.62,0.29c5.96-0.08,11.99-0.68,17.89-1.6c15.9-2.5,31.13-7.65,46.33-12.62
	c7.77-2.54,15.55-5.07,23.46-7.22c7.77-2.1,15.68-3.59,23.6-5.14c7.65-1.49,15.28-3.19,22.56-5.91c6.65-2.51,12.71-6.05,18.49-10
	c10.84-7.43,20.88-16.13,33.13-21.39c0.12,0.03,0.23,0.08,0.35,0.11c0.57,0.22,1.04-0.06,1.24-0.46
	c18.07,5.01,36.07,10.3,53.99,15.74c-2.34-0.46-4.73-0.85-7.11-1.25c-15.11-2.28-30.54-2.8-45.81-1.55
	c-1.97,0.16-3.89,0.36-5.83,0.55c-1.54,0.16-3.24,0.3-4.59,1.12c-1.09,0.68-1.87,1.91-1.74,3.14c0.18,1.25,1.25,2.05,2.44,2.43
	c2.87,0.87,6.43,0.51,9.29-0.19c3.17-0.77,6.14-2.2,8.63-4.2c0.58-0.47,0.6-1.49-0.22-1.79c-0.03,0-0.08,0-0.12-0.03
	c0.47-0.03,0.89-0.06,1.35-0.06c6.86-0.25,13.74-0.14,20.59,0.3c12.36,0.82,24.53,2.73,36.51,5.59
	c12.59,3.85,25.13,7.69,37.71,11.52c0.27,0.08,0.43-0.28,0.15-0.36c-5.03-1.66-10-3.32-15.03-4.98c-7.1-2.37-14.23-4.68-21.41-6.94
	c0.12-0.17,0.05-0.44-0.22-0.47c-0.77-0.08-1.54-0.21-2.3-0.35c-0.77-0.3-1.57-0.57-2.37-0.82c-3.19-1.06-6.41-2.15-9.59-3.3
	c-3.41-1.86-6.5-4.22-9.09-6.98c-2.39-2.54-4.41-5.4-5.91-8.48c-1.62-3.37-2.49-7.01-3.14-10.63c-1.34-7.38-1.85-15.17-6.13-21.71
	c-4.12-6.27-10.89-10.43-15.31-16.45c-4.84-6.57-6.56-14.65-9.02-22.17c-2.12-6.48-4.98-12.73-8.48-18.63
	c-7.01-11.8-16.52-22.29-27.79-30.65c-5.61-4.17-11.69-7.85-18.05-10.87c-3.14-1.49-6.4-2.94-9.74-4.16
	c-0.68-0.66-1.52-1.19-2.37-1.66c-1.1-0.63-2.25-1.18-3.49-1.64c-2.54-0.9-5.18-1.19-7.82-0.44c-0.97,0.28-0.64,1.56,0.22,1.72
	c0.68,0.16,1.39,0.27,2.07,0.43c0.08,0.14,0.18,0.25,0.38,0.3c1.69,0.57,3.37,1.06,5.06,1.55c0.85,0.27,1.69,0.57,2.57,0.82
	c10.22,5.44,16.83,15.41,21.14,25.44c5.33,12.37,7.55,25.69,13.14,38c2.82,6.15,6.68,11.58,10.77,17.02
	c4.12,5.51,8.07,11.06,10.27,17.52c2.19,6.4,3.31,13.11,6.01,19.37c2.44,5.7,6.38,10.63,11.22,14.73
	c4.73,3.98,10.24,7.11,15.95,9.68c-10.35-3.02-20.73-5.94-31.16-8.79c-0.15-0.03-0.35-0.11-0.5-0.16c0.08-0.17,0.05-0.4-0.15-0.55
	c-3.09-2.62-6.06-5.42-8.75-8.4c-4.64-5.23-8.5-11.09-11.31-17.35c-0.33-0.73-0.67-1.5-0.97-2.27c0.58-0.06,1.15-0.32,1.59-0.71
	c1.02-0.98,1.19-2.43,1.27-3.75c0.1-1.67,0-3.32-0.28-4.96c-0.62-3.4-2-6.62-4.12-9.4c-0.42-0.55-1.19-0.38-1.5,0.17
	c-2.09,3.65-1.79,7.92-0.8,11.83c0.15,0.58,0.33,1.2,0.52,1.79c0.03,0.44,0.07,0.87,0.1,1.31c0.1,1.14,0.52,2.42,1.47,3.14
	c1.87,4.72,4.33,9.23,7.11,13.41c3.86,5.69,8.57,10.95,14.14,15.2c-1.92-0.57-3.88-1.06-5.83-1.49c-1.12-0.3-2.22-0.6-3.37-0.92
	c-3.62-2.2-7.53-4.04-11.21-6.13c-4.51-2.56-8.95-5.31-13.14-8.34c-4.99-3.62-9.69-7.68-13.71-12.28c6.58-5.69,9.33-14.8,6.78-22.91
	c-1.12-3.51-3.54-7.14-7.21-8.64c-3.67-1.5-7.67-0.08-9.97,2.92c-2.66,3.51-2.49,7.95-1.25,11.93c1.3,4.17,3.52,8.17,6.01,11.8
	c0.6,0.88,1.25,1.77,1.94,2.64c-2.91-2.37-5.88-4.61-8.97-6.79c-1.84-1.3-3.67-2.51-5.54-3.75c-0.57-0.44-1.15-0.92-1.72-1.36
	c1.8-6.04,1.84-12.4,0.15-18.47c-0.77-2.73-1.9-5.37-3.34-7.87c-1.44-2.45-3.17-4.88-5.7-6.48c-2.29-1.41-5.06-1.91-7.5-0.47
	c-2.49,1.47-3.52,4.22-3.62,6.84c-0.18,5.86,2.87,11.65,6.63,16.13c1.97,2.39,4.23,4.49,6.63,6.45c-1.69-0.96-3.37-1.9-5.09-2.78
	c-1.6-0.85-3.26-1.75-4.94-2.5c-1.57-0.71-3.22-1.31-4.96-1.19c-2.92,0.19-4.76,2.5-4.96,5.15c-0.38,5.78,5.08,10.84,10.52,12.58
	c6.18,1.96,13.09,0.11,17.3-4.58c0,0,0,0,0.03-0.03s0.08-0.08,0.12-0.11c3.17,2.04,6.3,4.19,9.35,6.45
	c2.67,1.96,5.31,4.03,7.87,6.13c0.99,0.81,1.94,1.63,2.89,2.47c3.66,3.76,7.73,7.16,12.01,10.22c4.04,2.89,8.33,5.48,12.69,7.93
	c2.19,1.23,4.36,2.45,6.61,3.6c-3.91-1.03-7.83-2.05-11.79-3.03c-1.07-0.27-2.15-0.54-3.22-0.81c0.03-0.14-0.03-0.33-0.23-0.33
	c-0.65-0.08-1.27-0.13-1.92-0.21c-8.1-1.97-16.2-3.92-24.35-5.77c-1.6-0.6-3.26-1.17-4.88-1.72c-11.47-4.01-21.98-9.97-31.8-16.76
	c-0.27-0.3-0.57-0.59-0.83-0.89c-9.99-11.55-17.42-24.77-27.37-36.32c-9.39-10.89-21.38-19.32-34.54-25.72
	c-13.44-6.56-27.82-11.08-42.37-14.81c-15.73-4.03-31.76-7.05-47.5-11.08c-8.07-2.05-16.05-4.33-23.86-7.06
	c-3.84-1.36-7.66-2.81-11.39-4.42c-2.22-0.96-4.41-1.97-6.63-3.02c-0.08-0.08-0.12-0.11-0.18-0.19c-0.18-0.19-0.42-0.22-0.65-0.19
	c-0.3-0.14-0.62-0.3-0.92-0.41c-0.42-0.47-0.8-0.92-1.17-1.39c-0.5-0.63-1.34-0.46-1.74,0.02c-0.92-0.38-1.82,0.96-0.93,1.52
	c0.77,0.47,1.57,0.96,2.37,1.41c0.68,0.81,1.34,1.61,2.05,2.39c9.92,10.78,22.65,18.6,35.7,25.55
	c14.11,7.55,28.94,13.86,42.59,22.14c6.73,4.08,12.94,8.74,18.94,13.76c5.83,4.87,11.59,9.92,17.94,14.22
	c12.14,8.15,26.54,11.83,40.83,14.98c5.73,1.26,11.44,2.45,17.14,3.93c3.64,1.34,7.4,2.48,11.24,3.33c1.22,0.41,2.49,0.82,3.72,1.31
	c3.14,1.2,6.21,2.62,9.24,4.08c3.82,2.51,7.71,4.93,11.74,7.13c3.82,2.09,7.77,3.98,11.82,5.66c0.38,0.14,0.73,0.3,1.12,0.44
	c-22.13-4.68-44.41-8.56-66.9-11.36c-0.12-0.03-0.23-0.11-0.35-0.14l-0.03-0.19c0-0.03-0.03-0.03-0.03-0.03
	c0-0.03-0.03-0.08-0.08-0.08c-0.03-0.03-0.08-0.14-0.07-0.22c-0.03-0.08-0.07-0.19-0.07-0.25c-0.03-0.11-0.2-0.03-0.15,0.08
	c0.03,0.08,0.03,0.14,0.07,0.22c0.03,0.08,0.03,0.14,0.07,0.22c0,0.03,0,0.08,0,0.11c-6.81-2.99-13.64-5.94-20.34-9.18
	c-12.36-5.96-24.42-12.61-35.96-19.91c-2.52-1.6-5.04-3.22-7.57-4.88c0.03-0.19,0.08-0.4-0.03-0.62c-1.87-4.79-3.96-9.76-7.65-13.6
	c-2.92-3.02-6.71-5.21-10.99-5.62c-0.15-0.08-0.27-0.19-0.39-0.25c-0.62-0.33-1.18-0.19-1.54,0.16c0,0,0,0-0.03,0
	c-0.62,0.03-0.97,0.68-0.75,1.2c2.62,6.08,7.57,10.82,12.91,14.85c5.34,4.03,11.04,7.66,16.73,11.19
	c5.85,3.63,11.81,7.13,17.85,10.4c11.17,6.02,22.78,11.65,34.77,16.15c-4.88-0.57-9.8-1.12-14.7-1.58
	c-0.38-0.19-0.77-0.38-1.15-0.55c-15.2-6.9-30.93-12.89-46.96-17.92c-0.8-0.52-1.6-1-2.4-1.52c-6.05-3.71-12.28-7.13-18.59-10.37
	c-6.43-3.27-13.01-6.26-19.84-8.71c-13.99-4.93-28.84-7.16-43.65-8.04c-14.46-0.85-29.11-0.79-43.59,0
	c-14.09,0.76-28.17,2.35-41.97,5.34c-13.66,2.95-27,7.22-39.51,13.24c-1.39,0.68-0.5,2.84,0.9,2.17c0.03,0,0.08-0.03,0.12-0.03
	c1.62-0.06,3.27-0.11,4.89-0.13c13.59-0.22,27.17,1.28,40.58,3.24c13.49,2.01,26.85,4.58,40.31,6.73c13.68,2.23,27.4,3.9,41.3,4.49
	c14.01,0.58,28.02,0.27,42.02-0.54c7.05-0.4,14.06-0.9,21.08-1.52c6.66-0.55,13.34-1.14,19.92-1.97c0.12,0.03,0.23,0.08,0.35,0.05
	c0.8,0.27,1.65,0.49,2.46,0.76c8.17,2.61,16.27,5.42,24.26,8.5c5.29,2.02,10.5,4.23,15.67,6.48c-33.7-2.99-67.74-3.21-101.39,0.27
	c-3.04,0-6.08,0-9.12-0.06c-10.94-0.27-21.86-1.18-32.67-2.69c-0.88-0.13-1.74-0.27-2.57-0.4c-0.07-0.19-0.18-0.36-0.38-0.47
	c-7.37-5.1-16.55-10.81-25.99-7.16c-0.82,0.32-0.82,1.2-0.25,1.71c3.66,3.54,8.87,4.87,13.88,5.8c15.18,2.89,30.74,4.38,46.31,4.5
	c-4.16,0.54-8.37,1.11-12.54,1.75c-2.32,0.38-4.59,0.76-6.91,1.12c-9.13,0.08-18.25,0.24-27.39,0.22
	c-9.9-0.03-19.76-0.17-29.64-0.65c-4.27-0.19-8.55-0.49-12.81-1.01v-0.03c0-0.03-0.03-0.08-0.08-0.11c2.22-2.81,2.59-6.75,1.15-9.97
	c-1.65-3.73-5.54-6.15-9.67-6.78c-3.61-0.58-8.13,0.13-10.62,2.88c-2.57,2.84-1.55,7.01,1.09,9.48c3.16,3.02,8.12,4.06,12.34,4.87
	c5.23,1,10.57,1.45,15.92,1.74c17.85,0.96,35.8,0.9,53.71,0.43c-12.16,2.31-24.2,5.13-36.14,8.39c-0.8-0.08-1.62-0.16-2.42-0.24
	c-13.84-1.17-27.87-0.81-41.63,1.01c-13.76,1.85-27.32,5.17-40.31,9.92c-12.02,4.39-23.53,10.07-34.29,16.8
	c-10.44,6.52-20.22,14.09-28.99,22.53c-6.98,6.7-13.56,13.98-19.12,21.84c-0.23,0.06-0.47,0.22-0.62,0.32
	c-0.23,0.17-0.47,0.43-0.67,0.65c-0.82,0.93-1.52,1.94-2.15,3c-0.15,0.08-0.32,0.17-0.43,0.25c-0.5,0.32-0.55,0.76-0.32,1.12
	c-0.23,0.44-0.43,0.87-0.63,1.31C7.62,219.02,7.98,219.64,8.57,219.54z M132.75,116.75c1,0.08,1.92,0.02,2.89,0.36
	c0.95,0.33,1.84,0.82,2.64,1.45c1.57,1.18,2.74,2.76,3.96,4.3c1.1,1.39,2.24,2.8,3.69,3.9c1.04,0.77,2.34,1.55,3.67,1.72
	c0.15,0.14,0.3,0.33,0.45,0.47c-4.27-0.58-8.95-1.33-12.82-3.24C134,124.16,130.66,120.23,132.75,116.75z M141.4,114.87
	c2.07,0.96,3.47,2.65,4.29,4.63c0.87,2.05,1.25,4.2,2.15,6.21c0.22,0.5,0.53,1.03,0.83,1.53c-0.35-0.11-0.65-0.27-0.95-0.44
	c-0.8-0.44-1.57-1.04-2.26-1.71c-1.45-1.36-2.59-2.99-3.84-4.49c-1.17-1.39-2.47-2.76-4.07-3.68c-1.15-0.66-2.67-1.26-4.11-1.17
	c0.78-0.84,1.75-1.44,2.87-1.83c0.69,0.08,1.47-0.02,2.12,0.06C139.48,114.16,140.48,114.46,141.4,114.87z M150.82,128.09
	c-0.03-0.03-0.03-0.03-0.08-0.08c-0.38-0.41-0.72-0.85-1.02-1.33c-0.6-0.92-1.05-1.91-1.44-2.89c-0.78-2.12-1.25-4.31-2.47-6.29
	c-1.02-1.69-2.62-3.05-4.49-3.87c-0.3-0.14-0.65-0.22-0.95-0.33c1.04-0.03,2.12,0.06,3.04,0.25c3.61,0.7,6.98,2.88,8.32,6.21
	C152.82,122.5,152.56,125.66,150.82,128.09z M150.52,86.26c12.76-1.8,25.63-2.72,38.54-2.75c12.89-0.05,25.84,0.79,38.59,2.45
	c12.76,1.66,25.4,4.2,37.79,7.58c6.26,1.71,12.42,3.63,18.49,5.77c5.21,1.85,10.35,3.9,15.45,5.93
	c-13.89-3.98-28.02-7.25-42.32-9.75c-17.1-3.02-34.4-4.99-51.8-5.88c-17.32-0.92-34.72-0.74-52.02,0.46
	c-13.99,0.98-27.87,2.69-41.68,5.13c2.12-0.82,4.29-1.6,6.46-2.34C128.76,90.03,139.56,87.79,150.52,86.26z M300.17,104.77
	c-0.83-0.38-1.65-0.74-2.49-1.12c-11.81-4.98-24.08-9.01-36.56-12.2c-12.56-3.22-25.38-5.59-38.31-7.08
	c-12.81-1.49-25.7-2.1-38.56-1.83c-13.03,0.27-26,1.39-38.86,3.41c-1.85,0.3-3.66,0.62-5.51,0.93c1.54-0.32,3.06-0.62,4.59-0.93
	c13.66-2.62,27.57-4,41.53-4.61c14.45-0.62,29.04-0.6,43.47,0.54c14.7,1.14,29.18,3.89,42.87,9.24
	C282.03,94.88,291.13,99.75,300.17,104.77z M300.55,107.43c-5.19,0.02-10.4,0.25-15.6,0.35c-7.47,0.14-14.98,0.24-22.45,0.19
	c-13.36-0.03-26.72-0.47-40-1.56c-13.04-1.04-25.95-2.94-38.88-4.93c-12.84-1.96-25.67-3.95-38.59-5.23
	c-5.88-0.57-11.81-1-17.74-1.14c10.69-1.45,21.44-2.5,32.23-3.11c17.33-1.01,34.74-0.93,52.1,0.16c17.2,1.09,34.35,3.24,51.25,6.41
	C275.57,100.96,288.16,103.95,300.55,107.43z M302.84,106.26c-0.18-0.08-0.42-0.11-0.62-0.19c0.03-0.03,0.03-0.11,0.03-0.14
	C302.45,106.04,302.66,106.15,302.84,106.26z M307.31,109.35c-0.38,0.03-0.77,0.03-1.2,0.06c-14.03,1.15-28.11,2.32-42.2,3
	c-14.09,0.65-28.24,0.79-42.35-0.05c-13.81-0.84-27.42-2.88-41.02-5.25c-13.41-2.32-26.79-4.95-40.28-6.76
	c-10.19-1.39-20.46-2.34-30.75-2.45c2.15-0.38,4.28-0.76,6.45-1.09c4.04-0.17,8.08-0.28,12.12-0.24c7.35,0.11,14.7,0.63,22.01,1.36
	c12.96,1.31,25.8,3.48,38.63,5.43c12.96,1.96,25.95,3.63,39.03,4.5c13.13,0.9,26.32,1.15,39.5,1.12c6.63,0,13.29-0.11,19.91-0.25
	c5.39-0.13,10.86-0.14,16.25-0.52C304.78,108.64,306.04,108.99,307.31,109.35z M410.82,122.28c0.2,0.03,0.38,0.05,0.62,0.08
	c0.18,0.14,0.38,0.3,0.62,0.44C411.62,122.58,411.19,122.42,410.82,122.28z M237.91,36.01c4.69,3.08,9.64,5.83,14.68,8.36
	c11.26,5.58,23.06,10.08,34.7,14.91c12.07,4.98,24.07,10.32,34.87,17.46c11.01,7.25,20.47,16.35,31.18,23.98
	c4.93,3.51,10.12,6.7,15.68,9.2c1.77,0.79,3.56,1.53,5.41,2.16c-0.65-0.16-1.34-0.3-2-0.46c-7.18-1.64-14.36-3.48-21.26-6.1
	c-7.01-2.7-13.48-6.3-19.44-10.7c-6.11-4.5-11.67-9.67-17.59-14.43c-6.1-4.94-12.67-9.32-19.52-13.29
	c-13.54-7.84-28.02-14.08-41.72-21.65C247.81,42.57,242.72,39.46,237.91,36.01z M235.79,32.93c7.56,4.68,15.68,8.52,23.96,11.91
	c12.52,5.2,25.45,9.53,37.94,14.76c6.21,2.62,12.34,5.45,18.19,8.72c6.81,3.79,13.23,8.15,19.46,12.7
	c12.29,8.91,23.96,18.61,37.04,26.56c3.41,2.07,6.88,4.01,10.49,5.75c-0.3-0.08-0.62-0.11-0.89-0.19
	c-12.44-2.58-23.26-9.43-32.98-16.89c-10.27-7.87-19.74-16.6-30.91-23.35c-10.86-6.56-22.73-11.53-34.54-16.37
	c-11.46-4.68-22.96-9.27-33.85-15.12C244.89,38.89,240.21,36.07,235.79,32.93z M270.91,42.63c16.62,4.88,33.43,9.24,49.53,15.55
	c8.08,3.18,15.98,6.84,23.4,11.25c7.8,4.65,15.13,9.97,22.14,15.53c14.08,11.19,27.02,23.53,41.37,34.4
	c0.92,0.7,1.87,1.38,2.79,2.07c-0.73-0.11-1.45-0.24-2.22-0.35c-5.94-2.35-12.12-4.11-18.37-5.59c-7.78-3.29-15.16-7.49-22.11-12.12
	c-12.67-8.4-24.23-18.18-36.69-26.87c-6.03-4.22-12.26-8.15-18.84-11.53c-5.96-3.08-12.14-5.74-18.39-8.28
	c-12.49-5.01-25.27-9.34-37.56-14.68c-8.82-3.84-17.3-8.34-24.98-13.86C243.64,34.32,257.36,38.67,270.91,42.63z M319.84,50.29
	c13.01,4.08,25.13,9.92,36.22,17.55c10.96,7.47,20.76,16.26,29.96,25.56c4.61,4.68,9.05,9.46,13.34,14.39
	c2.89,3.27,5.69,6.62,8.58,9.92c-1.79-1.38-3.54-2.76-5.31-4.17c-14-11.26-26.94-23.64-41.25-34.51
	c-7.1-5.39-14.55-10.35-22.46-14.55c-7.5-3.98-15.4-7.3-23.45-10.24c-16.21-5.89-33-10.11-49.5-15.22
	c-3.69-1.14-7.4-2.34-11.06-3.59c7.72,2.05,15.55,3.67,23.38,5.25c6.3,1.26,12.64,2.5,18.94,3.84c4.53,1,9.02,2.07,13.51,3.18
	C313.81,48.52,316.85,49.35,319.84,50.29z M412.67,121.27c-0.57-0.41-1.1-0.85-1.69-1.26c-0.45-0.58-0.92-1.14-1.37-1.72
	c-8.35-10.03-17.02-19.97-26.34-29.21c-9.2-9.13-19.15-17.73-30.24-24.84c-4.81-3.08-9.79-5.83-14.96-8.25
	c6.33,2.37,12.52,5.01,18.5,8.14c6.46,3.38,12.66,7.35,18.3,11.9c5.88,4.75,11.01,10.17,15.6,16.05
	C398.08,101.74,404.42,112.23,412.67,121.27z M417.87,112.44c1.07,0.8,2.26,1.52,3.44,2.07c1.95,0.96,4.09,1.72,6.3,2.15
	c4.26,0.88,8.7,0.57,12.76-1.03c-4.74,3.86-11.69,4.72-17.2,1.71C420.97,116.23,419.1,114.49,417.87,112.44z M416.97,106.27
	c7.03,4.04,14.9,7.3,23,8.91c-3.91,1.06-8.1,1.19-12.06,0.41c-2.12-0.38-4.11-1.03-6.03-1.96c-1.8-0.85-3.32-2.04-4.98-3.11
	c-0.49-1.39-0.65-3.07-0.07-4.41C416.9,106.2,416.93,106.24,416.97,106.27z M435.4,110.98c1.99,1.15,3.94,2.34,5.85,3.55
	c-8.33-2.2-16.3-5.06-23.76-9.32h-0.03c0.03-0.08,0.08-0.14,0.15-0.17c2.42-2.34,6.46,0,8.88,1.18
	C429.51,107.71,432.45,109.32,435.4,110.98z M424.63,81.51c1.12,5.77,2.44,11.39,5.11,16.75c1.99,4,4.53,7.7,7.5,11.08
	c-3.01-2.48-5.95-5.06-8.37-8.07c-3.37-4.15-6.16-9.46-6.03-14.82C422.85,84.69,423.41,82.84,424.63,81.51z M439.53,110.6
	c-3.66-3.82-6.76-8.12-9.08-12.78c-2.55-5.09-4.58-10.73-4.78-16.42c0-0.28-0.27-0.41-0.53-0.41c0.5-0.43,1.12-0.79,1.85-0.96
	c0.23-0.06,0.47-0.06,0.7-0.1C428.97,90.77,432.85,101.63,439.53,110.6z M429.02,81.26c3.22,4.04,5.83,8.49,7.67,13.24
	c1.05,2.75,1.85,5.59,2.4,8.48c0.25,1.31,0.43,2.67,0.57,4.01c0.07,0.81,0.1,1.61,0.17,2.4C434.37,100.63,430.51,91.29,429.02,81.26
	z M440.93,108.28c-0.13-1.97-0.48-3.93-0.85-5.77c-0.55-2.81-1.32-5.55-2.37-8.26c-1.94-5.12-4.78-9.95-8.3-14.27
	c1.89,0.43,3.59,1.75,4.86,3.11c3.57,3.87,5.71,9.16,6.65,14.17C441.57,100.89,441.57,104.65,440.93,108.28z M456.51,96.49
	c-1.17,1.34-1.15,3.63-1.34,5.23c-0.7,6.81,0.07,14.14,2.64,20.68c-0.08-0.11-0.15-0.19-0.23-0.3c-2.39-3.33-4.43-6.89-5.88-10.66
	c-1.49-3.84-2.29-8.44,0.33-12.02C453.24,97.85,454.82,96.84,456.51,96.49z M460.09,101.2c0.42,4.09,0.75,8.14,0.73,12.25
	c0.02,2.15-0.05,4.27-0.2,6.41c-0.1,1.75-0.47,3.6-0.37,5.39c-0.03,0.03-0.12,0.11-0.15,0.14c-0.08-0.11-0.15-0.22-0.23-0.3
	c-1.42-3.56-2.66-7.17-3.29-10.96c-0.65-3.76-0.8-7.58-0.43-11.33c0.13-1.6,0.17-3.68,0.9-5.17c0.79-1.49,2.27-0.44,2.61,0.76
	C459.95,99.23,459.99,100.25,460.09,101.2z M464.6,119.89c0.2-0.62,0.37-1.26,0.48-1.93c0.54-2.51,0.72-5.09,0.55-7.65
	c-0.25-4.49-1.59-9.02-4.07-12.83c0.08,0.03,0.15,0.08,0.18,0.11c3.02,2.1,4.63,5.59,5.24,9.02
	C467.79,111.16,466.88,115.88,464.6,119.89z M461.74,117.68c0.03-2.65,0.07-5.28-0.02-7.9c-0.08-2.37-0.17-4.74-0.33-7.14
	c-0.1-1.23-0.2-2.45-0.38-3.65c-0.1-0.76-0.33-1.53-0.79-2.17c0.03,0,0.03,0.03,0.08,0.03c2.49,4.19,4.09,8.75,4.34,13.56
	c0.12,2.51-0.1,5.06-0.67,7.54c-0.28,1.2-0.65,2.35-1.09,3.49c-0.28,0.7-0.67,1.41-0.99,2.1c-0.12,0.14-0.23,0.33-0.38,0.47
	c0.08-0.84,0.07-1.67,0.1-2.48C461.67,120.27,461.72,118.99,461.74,117.68z M489.56,87.3c5.16,6.68,12.06,12.07,16.25,19.4
	c2.1,3.7,3.49,7.76,4.36,11.88c0.43,2.09,0.8,4.15,1.04,6.27c0.07,0.44,0.1,0.84,0.13,1.28c-1.19-3.98-2.52-7.93-4.53-11.63
	c-3.16-5.86-7.45-11.04-11.24-16.51C493.29,94.57,491.28,91,489.56,87.3z M483.22,69.54c1.14,2.02,2.34,3.97,3.66,5.86
	c6.85,9.88,15.53,18.56,21.14,29.18c2.82,5.31,4.73,10.95,5.23,16.89c0.37,4.35,0.08,8.9,0.69,13.27c-0.12-0.4-0.27-0.77-0.37-1.17
	c-0.4-1.28-0.79-2.59-1.15-3.9c-0.02-1.82-0.27-3.65-0.47-5.43c-0.28-2.34-0.63-4.68-1.18-6.94c-0.92-4.01-2.26-7.96-4.33-11.57
	c-2.07-3.63-4.84-6.79-7.7-9.88c-2.92-3.13-5.98-6.18-8.55-9.64c-1.22-1.61-2.27-3.3-3.21-5.1c-0.18-0.51-0.42-1.03-0.6-1.53
	C485.25,76.29,484.22,72.94,483.22,69.54z M549.85,145.44c-1.17-2.75-2.59-5.42-4.17-8.03c-6.95-11.33-17.27-20.81-22.51-33.1
	c-2.51-5.89-3.56-12.21-4.94-18.38c-0.52-2.31-1.1-4.6-1.8-6.87c0.82,1.8,1.57,3.62,2.24,5.45c1.34,3.62,2.37,7.35,3.56,11
	c1.19,3.76,2.57,7.49,4.53,10.98c1.85,3.22,4.21,6.02,6.9,8.64c2.77,2.69,5.74,5.23,8.3,8.14c2.59,2.99,4.36,6.38,5.49,10.08
	C548.65,137.34,549.16,141.38,549.85,145.44z M564.48,171.43c-7.52-3.03-14.75-6.6-21.13-11.44c-5.34-4.11-9.87-9.04-13.19-14.79
	c-3.51-6.08-5.74-12.78-7.66-19.47c-1.99-7.01-3.84-14.06-5.98-21.01c-2.22-7.16-4.73-14.22-7.6-21.17
	c-5.39-12.99-12.29-25.52-21.51-36.4c-5.09-6.04-10.87-11.63-17.37-16.37c6.51,3.43,12.66,7.46,18.3,12.07
	c9.07,7.46,16.82,16.35,22.75,26.26c-0.03,0.08-0.08,0.17,0,0.28c1.54,3.22,3.12,6.26,4.19,9.67c1.04,3.36,1.77,6.76,2.49,10.19
	c1.32,6.07,2.74,12.05,5.49,17.73c2.82,5.78,6.73,11.04,10.71,16.18c6.26,8.04,12.94,16.21,16.4,25.61c0.47,2.34,1.02,4.65,1.84,6.9
	c0.12,0.55,0.18,1.14,0.25,1.67c0,0.08,0.08,0.03,0.08,0c0-0.33-0.07-0.66-0.07-0.98C554.93,162.22,559.13,167.47,564.48,171.43z
	 M555.53,169.47c-12.16-4.11-24.3-9.18-32.85-18.68c-3.04-3.38-5.23-7.13-6.91-11.11c0-0.03,0.03-0.11,0.03-0.14
	c-0.92-3.54-1.34-7.05-1.49-10.65c-0.12-3.46-0.12-6.92-0.65-10.35c-1.7-11.53-8.9-21.41-16-30.59c-3.64-4.71-7.36-9.37-10.65-14.31
	c-1.67-2.5-3.26-5.06-4.61-7.74c-0.33-0.66-0.64-1.36-0.94-2.05c-2.15-7.21-4.41-14.36-7.92-21.11c-2.67-5.14-5.93-10.05-10.1-14.17
	c-0.18-0.19-0.39-0.36-0.57-0.52c4.78,3.03,9.29,6.37,13.48,10.13c5.03,4.53,9.55,9.57,13.61,14.9c8.95,11.72,15.5,24.9,20.52,38.47
	c2.61,7.01,4.88,14.19,6.95,21.39c1.95,6.84,3.61,13.73,5.91,20.51c2.24,6.48,5.13,12.88,9.4,18.39c3.87,4.99,8.82,9.19,14.24,12.69
	c3.41,2.15,7,4.01,10.67,5.69C557,169.93,556.26,169.7,555.53,169.47z M347.65,220c2.47-0.74,4.91-1.52,7.26-2.37
	c13.73-4.91,26.64-11.66,40.66-15.88c13.94-4.19,28.49-6.12,42.55-9.86c6.8-1.79,13.38-4.08,19.72-6.94
	c6.08-2.7,11.92-5.82,17.79-8.91c5.96-3.21,11.86-6.51,17.99-9.46c5.81-2.81,11.77-5.15,17.89-7.32h0.03c-0.5,0.21-1,0.43-1.5,0.63
	c-12.51,5.51-22.51,14.88-33.83,22.12c-6.13,3.93-12.64,7.05-19.67,9.23c-7.5,2.32-15.25,3.73-22.98,5.21
	c-7.8,1.52-15.51,3.25-23.13,5.47c-7.73,2.24-15.38,4.79-23.03,7.3C374.37,213.48,361.24,217.69,347.65,220z M309.34,219.88
	c5.01,0.21,10.05-0.08,14.95-0.6c7.4-0.79,14.7-2.35,21.81-4.39c14.61-4.17,28.36-10.56,41.8-17.33
	c13.33-6.7,26.39-13.81,40.01-19.91c13.51-6.02,27.47-11.25,42-14.63c7.07-1.64,14.28-2.88,21.56-3.55
	c6.05-0.55,12.14-0.6,18.19-0.32c-0.82,0.25-1.59,0.49-2.4,0.78c-12.68,4.35-24.28,11-36.06,17.14c-5.89,3.07-11.82,6.04-17.97,8.55
	c-6.5,2.67-13.31,4.63-20.17,6.27c-14.06,3.35-28.44,5.37-42.13,9.97c-13.69,4.58-26.47,11.34-40.23,15.82
	c-5.41,1.77-10.97,3.13-16.6,3.87c-7.86,0.46-15.75,0.13-23.43-1.31C310.22,220.14,309.75,220.03,309.34,219.88z M509.57,158.24
	c-0.38-0.05-0.74-0.08-1.12-0.08c-14.55-0.81-29.04,1.07-43.07,4.65c-14.36,3.67-28.22,9.05-41.65,15.15
	c-13.59,6.19-26.74,13.3-40.13,19.89c-13.48,6.67-27.34,12.78-42.05,16.56c-7.26,1.9-14.71,3.16-22.26,3.66
	c-2.42,0.16-4.86,0.21-7.28,0.17c13.16-1.86,25.98-6.21,38.03-11.36c13.51-5.8,26.34-12.88,39.13-19.99
	c13.03-7.22,26.05-14.44,39.8-20.3c13.39-5.69,27.5-10.05,42.12-11.65C484.07,153.52,497.26,154.31,509.57,158.24z M354.09,141.41
	c0.33,0.62,0.83,1.22,1.29,1.69c1.07,1.03,2.44,1.85,3.91,2.31c2.72,0.87,5.54,0.6,8.25-0.13c-0.38,0.17-0.82,0.4-1.2,0.57
	c-2.17,0.82-4.64,1.26-6.95,0.73c-2.04-0.46-4.02-1.64-4.89-3.51C354.28,142.47,354.12,141.97,354.09,141.41z M361.35,143.02
	c3.04,0.36,6.11,0.54,9.2,0.65c-0.03,0-0.03,0.03-0.08,0.03c-0.03,0-0.03,0-0.08,0c-3.36,0.95-7.18,2.04-10.64,1.09
	c-1.45-0.41-2.84-1.12-3.86-2.15c-0.8-0.81-1.17-1.72-1.67-2.67c0-0.03,0-0.08,0.03-0.11c0.22,0.51,0.53,1,0.98,1.39
	C356.85,142.65,359.32,142.77,361.35,143.02z M364.44,142.11c-2-0.21-4.07-0.38-6.03-0.84c-1.19-0.27-2.64-1.15-2.94-2.29
	c0.08,0.03,0.15,0.08,0.27,0.03c2.71-0.52,5.51-0.46,8.17,0.19c2.42,0.62,4.79,1.83,6.81,3.29
	C368.6,142.44,366.52,142.31,364.44,142.11z M371.46,142.14c-4.23-3.48-10.34-4.74-15.82-3.74c-0.12,0.03-0.15,0.08-0.23,0.14
	c0.05-0.36,0.2-0.73,0.55-1.12c2.14-2.2,6.68-1.53,9.29-0.52C367.92,137.92,370.06,139.75,371.46,142.14z M389.81,142.82
	c-0.32,0.14-0.65,0.28-0.93,0.43c-0.93,0.4-1.82,0.82-2.67,1.28c-1.74,0.88-3.37,1.93-4.93,3.08c-1.55,1.15-3.04,2.45-4.36,3.86
	c-0.47,0.51-1.17,1.34-1.57,2.21c-0.15-0.47-0.25-0.98-0.22-1.5c0.15-3.27,2.96-5.61,5.93-6.89
	C383.78,144.07,386.84,143.4,389.81,142.82z M390.38,143.99c-2.1,1.97-4.24,3.92-6.61,5.66c-1.35,1.01-2.79,1.9-4.28,2.76
	c-0.77,0.43-1.55,0.85-2.37,1.25c-0.35,0.17-0.74,0.32-1.08,0.51c0.12-0.33,0.32-0.65,0.52-0.98c0.52-0.76,1.14-1.41,1.84-1.99
	c1.32-1.15,2.72-2.23,4.24-3.19c1.52-1.01,3.14-1.93,4.78-2.72c0.82-0.39,1.62-0.74,2.47-1.06
	C390.03,144.1,390.21,144.05,390.38,143.99z M391.53,143.78c-0.58,3.24-2.15,6.27-4.79,8.47c-1.4,1.15-3.02,2.09-4.78,2.69
	c-0.88,0.32-1.77,0.52-2.67,0.66c-0.77,0.14-1.54,0.13-2.27,0.35c-0.27-0.22-0.53-0.44-0.77-0.7c0.53-0.21,1.05-0.51,1.55-0.74
	c0.77-0.4,1.5-0.79,2.25-1.22c1.52-0.85,2.99-1.83,4.39-2.83C387.06,148.48,389.5,146.28,391.53,143.78z M391.32,152.19
	c-2.19,2.81-5.95,5.15-9.69,5.25c-1.24,0.02-2.51-0.28-3.57-0.84c0.5,0,1.04-0.06,1.54-0.13c0.92-0.14,1.85-0.38,2.71-0.66
	c1.89-0.63,3.61-1.6,5.08-2.89c2.57-2.28,4.26-5.34,4.69-8.63C393.62,146.72,393.12,149.88,391.32,152.19z M179.76,207.82
	c6.71-0.87,13.34-2.15,20.02-3.32c11.54-1.99,23.15-3.79,34.65-5.97c5.48-1.03,10.92-2.21,16.3-3.65c0.08-0.03,0.15-0.03,0.23-0.06
	c-4.26,1.77-8.55,3.41-12.96,4.82c-14.49,4.61-29.68,6.05-44.87,7.17C188.69,207.14,184.22,207.46,179.76,207.82z M179.06,207.88
	c0.08-0.03,0.15-0.03,0.23-0.06c0.03,0,0.08,0.03,0.12,0.03C179.29,207.85,179.17,207.88,179.06,207.88z M340.43,133.88
	c-6.14,1.61-12.21,3.48-18.17,5.56c-14.96,5.26-29.38,11.82-43.47,18.85c-14.1,6.98-27.91,14.49-41.88,21.63
	c-13.94,7.14-28.12,13.98-42.82,19.66c-6.35,2.45-12.81,4.6-19.37,6.53c7.43-3.38,14.56-7.43,21.39-11.72
	c11.84-7.46,22.95-15.82,34.43-23.75c11.64-8.04,23.8-15.52,37.11-20.92c13.11-5.36,27.02-8.85,41.03-11.41
	c7.03-1.28,14.08-2.29,21.14-3.19C333.35,134.67,336.89,134.27,340.43,133.88z M345.09,134.29c-0.27,0.17-0.59,0.36-0.85,0.54
	c-10.4,6.81-21.08,13.26-31.91,19.32c-10.89,6.08-22.01,11.79-33.4,17.09c-11.34,5.31-22.88,10.21-34.57,14.71
	c-11.64,4.5-23.43,8.6-35.42,12.29c-7.53,2.32-15.15,4.47-22.83,6.41c4.52-1.6,8.97-3.26,13.38-5.07
	c14.6-5.92,28.72-12.88,42.63-20.13c13.95-7.25,27.79-14.74,41.88-21.74c14.15-6.95,28.57-13.4,43.62-18.44
	C333.38,137.43,339.18,135.76,345.09,134.29z M348.91,133.37c-0.38,0.47-0.79,0.9-1.14,1.37c-8.57,10.54-17.54,21.09-28.96,28.98
	c-11.99,8.29-26.22,12.69-39.61,18.49c-5.73,2.5-11.39,5.12-17.03,7.73c-4.53,1.6-9.09,3.14-13.76,4.38
	c-10.97,2.91-22.24,4.76-33.43,6.71c-5.86,1.03-11.72,2.02-17.55,3.02c-3.21,0.55-6.45,1.06-9.65,1.64
	c8.62-2.31,17.15-4.8,25.62-7.49c12.09-3.84,24.05-8.12,35.8-12.8c11.72-4.65,23.21-9.76,34.54-15.22
	c11.24-5.42,22.28-11.23,33.05-17.43c5.43-3.11,10.79-6.34,16.1-9.62c4.78-2.97,9.55-5.99,14.1-9.21
	C347.6,133.69,348.26,133.51,348.91,133.37z M182.92,177.94c0.08-0.14,0.2-0.28,0.27-0.4c0.59-0.87,1.14-1.77,1.6-2.72
	c1.02-1.99,1.74-4.17,2.15-6.35c0.78-4.08,0.57-8.4-1.17-12.26c1.84,0.9,3.17,2.59,3.79,4.46c0.97,2.89,0.35,6.05-0.53,8.88
	C188.11,172.57,185.99,176.27,182.92,177.94z M183.53,155.73c0.2,2.34,0.02,4.41-1.12,6.54c-1.02,1.93-2.47,3.62-3.91,5.28
	c-2.19,2.5-4.29,5.17-5.06,8.29c-1.7-2.21-2.29-5.2-1.64-7.92c1.17-4.9,5.29-8.44,9.6-11.08c0.7-0.43,1.44-0.85,2.17-1.25
	C183.57,155.62,183.53,155.65,183.53,155.73z M184.92,155.85c1.15,4.06,1.6,8.25,0.77,12.39c-0.42,2.07-1.14,4.11-2.12,6.02
	c-0.52,0.98-1.07,1.91-1.72,2.83c-0.38,0.54-0.9,1.04-1.25,1.63c-1.04,0.17-2.15,0.13-3.34-0.25c-1.07-0.33-2.04-0.9-2.79-1.56
	c0.58-4.08,3.97-7.28,6.56-10.38c2.3-2.78,5.13-7.27,3.21-10.9c0.03,0,0.03,0.03,0.08,0.03
	C184.54,155.73,184.72,155.81,184.92,155.85z M113.86,162.77c-18.22,7.6-36.07,16.01-53.62,24.96
	c-12.12,6.18-24.18,12.53-36.01,19.24c6.43-6.64,13.33-12.83,20.62-18.58c8.98-7.11,18.69-13.38,28.87-18.9
	c10.15-5.47,20.84-10.24,31.81-14.09c11.06-3.89,22.5-6.79,34.07-8.79c8.92-1.55,17.85-2.4,26.87-2.88
	C148.65,149.23,131.05,155.63,113.86,162.77z M146.43,164.21c-3.64,4.47-6.78,9.37-10.45,13.76c-2.92,3.54-6.25,6.72-10.12,9.29
	c-4.04,2.69-8.53,4.72-13.21,6.27c-9.85,3.29-20.37,4.15-30.74,4.58c-11.09,0.43-22.23,0.41-33.22,2.05
	c-3.27,0.47-6.6,1.14-9.89,1.98c29.23-15.78,59.08-30.48,90.2-42.61c10.1-3.93,20.34-7.58,30.66-10.93
	C154.34,152.98,150,158.65,146.43,164.21z M127.56,193.52c-0.97,0.62-1.97,1.19-2.94,1.72c-3.91,2.26-8.1,4.14-12.36,5.7
	c-15.51,5.59-32.61,6.97-49.1,6.46c-9.47-0.28-19.04-1.22-28.49-0.16c-2.62,0.3-5.21,0.79-7.75,1.41c0.77-0.43,1.59-0.85,2.37-1.28
	c2.64-1.25,5.34-2.35,8.17-3.22c5.33-1.66,10.92-2.69,16.52-3.32c21.06-2.35,43.09,0.35,63.06-7.82c4.38-1.82,8.57-4.09,12.21-7.02
	c3.51-2.76,6.43-6.05,9.12-9.56c1.45-1.91,2.86-3.87,4.26-5.81C137.94,178.56,133.68,186.66,127.56,193.52z M16.93,214.88
	c0.08-0.11,0.15-0.17,0.23-0.29c0.77-0.46,1.55-0.93,2.4-1.33c2.09-1.03,4.34-1.85,6.58-2.51c4.71-1.41,9.65-2.09,14.58-2.35
	c9.49-0.52,18.94,0.38,28.41,0.38c8.47-0.02,16.95-0.59,25.32-2.02c8.03-1.38,15.95-3.62,23.35-6.92c2.52-1.14,4.96-2.39,7.33-3.78
	c-0.27,0.28-0.5,0.59-0.82,0.82c-8.65,8.14-20.29,12.72-32.06,15.02c-12.93,2.56-26.22,2.56-39.38,2.24
	c-7.35-0.16-14.71-0.38-22.06-0.2c-3.69,0.11-7.36,0.28-11.02,0.62C18.87,214.66,17.9,214.76,16.93,214.88z M13.96,213
	c6.88-8.74,14.3-17,22.63-24.57c8.92-8.06,18.67-15.25,29.14-21.44c10.94-6.48,22.66-11.85,34.85-15.91
	c12.99-4.35,26.5-7.3,40.2-8.75c10.79-1.15,21.66-1.33,32.47-0.63c-1.2,0.29-2.39,0.63-3.56,1.06c-0.2,0.06-0.38,0.14-0.58,0.25
	c-11.41,0.24-22.85,1.5-34.05,3.65c-11.54,2.21-22.83,5.4-33.85,9.32c-11.11,3.92-21.74,8.83-31.95,14.55
	c-10.15,5.69-19.91,12.17-28.92,19.4c-7.73,6.23-14.95,13.07-21.61,20.32C17.19,211.14,15.55,212.04,13.96,213z"/>
<path class="st0" d="M282.51,79.81c1.12,0.24,2.22,0.54,3.26,0.95c2.45,0.9,4.71,2.24,6.65,3.9c0.6,0.55,0.4,1.61-0.52,1.71
	c-0.08,0-0.15,0-0.23,0c-0.03,0.03-0.12,0.08-0.2,0.11c-4.48,1.15-9.44,0.22-13.23-2.26c-0.83-0.55-1.6-1.44-1.47-2.45
	c0.13-1.06,0.98-1.85,2.02-2.13C280.06,79.27,281.36,79.54,282.51,79.81z"/>
<path class="st0" d="M485.62,133.35c0.18,0.77-0.79,1.23-1.44,1.01c-0.68-0.27-1.3-0.55-1.95-0.93c-1.69-0.68-3.26-1.79-4.54-2.97
	c-1.99-1.88-3.46-4.27-4.11-6.82c-0.15-0.55,0.2-1.31,0.94-1.12C480.03,123.92,484.33,128.12,485.62,133.35z"/>
<path class="st0" d="M167.82,117.33c1.12,0.08,2.22,0.54,3.26,0.87c1.18,0.41,2.34,0.87,3.49,1.42c2.52,1.23,4.86,2.75,6.95,4.55
	c0.77,0.66,0.25,1.9-0.83,1.74c-0.92-0.13-1.8-0.27-2.72-0.47c-0.23,0-0.42-0.05-0.65-0.08c-0.08,0-0.2,0-0.27,0
	c-0.03,0-0.08-0.03-0.15-0.03c-1.5-0.16-2.99-0.51-4.38-0.96c-1.27-0.38-2.46-0.87-3.64-1.42c-1.07-0.52-2.25-1.04-3.14-1.85
	c-0.84-0.77-1.32-1.94-0.59-2.92C165.78,117.4,166.82,117.22,167.82,117.33z"/>
<path class="st0" d="M526.45,166.84c0.68,0.58,1.72,1.33,1.85,2.24c0.18,1.09-0.78,1.82-1.84,1.77c-0.89-0.05-1.8-0.49-2.6-0.82
	c-0.8-0.38-1.57-0.78-2.29-1.26c-0.65-0.27-1.27-0.6-1.87-0.96c-1.9-1.18-3.36-2.88-4.38-4.82c-0.3-0.58,0.37-1.34,1.02-1.18
	C520.07,162.65,523.63,164.35,526.45,166.84z"/>
</svg>
