<?xml version="1.0" encoding="utf-8"?>
<!-- Generator: Adobe Illustrator 28.0.0, SVG Export Plug-In . SVG Version: 6.00 Build 0)  -->
<svg version="1.1" id="Calque_1" xmlns="http://www.w3.org/2000/svg" xmlns:xlink="http://www.w3.org/1999/xlink" x="0px" y="0px"
	 viewBox="0 0 400 200" style="enable-background:new 0 0 400 200;" xml:space="preserve">
<style type="text/css">
	.st0{fill:#452210;}
</style>
<g>
	<path class="st0" d="M25.75,51.06c0.34-1.6-0.03-3.4-1.05-4.67c-0.92-1.07-2.19-1.61-3.52-1.71c-1.41-0.64-3.07-0.7-4.47,0.14
		c-1.39,0.83-2.53,2.15-3.02,3.71c-0.56,1.84-0.31,3.65,0.7,5.25c0.95,1.41,2.52,2.26,4.11,2.59c1.64,0.34,3.31-0.09,4.7-1.1
		C24.56,54.32,25.45,52.72,25.75,51.06z"/>
	<path class="st0" d="M37.02,47.18c0.34-0.25,0.53-0.6,0.67-0.97c0.12-0.26,0.19-0.51,0.2-0.79c0.02-0.06,0.02-0.06,0.03-0.11
		c0.03-0.11-0.05-0.23-0.08-0.35c0.01-0.06,0.03-0.1,0.04-0.16c0.04-0.16,0.02-0.33-0.04-0.52c-0.02-0.34-0.17-0.6-0.37-0.89
		c-0.16-0.21-0.33-0.37-0.54-0.47c-0.18-0.15-0.43-0.22-0.7-0.24c-0.32-0.02-0.66,0.01-0.91,0.17c-0.07,0.05-0.18,0.07-0.25,0.16
		c-0.12,0.03-0.18,0.07-0.25,0.16l-0.07,0.05c-0.13,0.08-0.23,0.06-0.35,0.14c-0.01,0.06-0.07,0.05-0.08,0.09
		c-0.21,0.17-0.36,0.36-0.53,0.6c-0.25,0.34-0.4,0.74-0.45,1.13c0.01,0.22,0.01,0.4,0.01,0.62c0.07,0.41,0.2,0.73,0.44,1.06
		c0.15,0.26,0.38,0.43,0.67,0.56c0.23,0.17,0.53,0.24,0.85,0.27c0.32,0.01,0.6-0.03,0.84-0.13C36.51,47.51,36.75,47.4,37.02,47.18z"
		/>
	<path class="st0" d="M28.62,33.53c0.27-1.11-0.02-2.31-1.16-2.77c-0.92-0.4-2.41,0.14-2.69,1.26c-0.27,1.11,0.02,2.31,1.16,2.77
		C26.91,35.21,28.33,34.7,28.62,33.53z"/>
	<path class="st0" d="M188.95,100.74c1.47,0.59,3.16,0.1,4.3-1.02l0.07-0.05c0.14-0.14,0.22-0.23,0.3-0.37
		c0.08-0.09,0.1-0.15,0.17-0.25c0.02-0.06,0.08-0.09,0.1-0.15c0.02-0.06,0.03-0.11,0.04-0.17c0.12-0.26,0.22-0.46,0.29-0.72
		c0.59-1.54,0.61-3.35-0.54-4.59c-0.13-0.14-0.28-0.18-0.41-0.32c-0.13-0.14-0.21-0.27-0.32-0.41c-1.44-1.37-3.98-1.16-5.36,0.31
		c-0.48,0.39-0.92,0.9-1.18,1.51c-0.33,0.65-0.4,1.37-0.31,2.12c-0.02,0.06-0.04,0.16-0.05,0.21c0.01,0.22,0.05,0.46,0.1,0.71
		c0.14,0.54,0.34,1.04,0.6,1.5C187.33,99.83,188.16,100.43,188.95,100.74z"/>
	<path class="st0" d="M177.4,94.6c0.14-0.3,0.17-0.69,0.08-1c-0.03-0.12-0.06-0.19-0.09-0.31c0.01-0.06-0.03-0.12-0.03-0.12
		c-0.06-0.19-0.08-0.35-0.14-0.54c-0.04-0.07-0.07-0.13-0.11-0.25c-0.12-0.2-0.22-0.39-0.4-0.54c-0.09-0.09-0.19-0.11-0.33-0.19
		c-0.06-0.01,0,0-0.16-0.04c-0.16-0.04-0.1-0.02-0.16-0.04c-0.1-0.02-0.22,0.01-0.33,0.03c-0.28,0.04-0.41,0.12-0.61,0.3
		c-0.07,0.05-0.13,0.08-0.21,0.17c-0.13,0.08-0.24,0.28-0.38,0.42c-0.02,0.06-0.08,0.09-0.1,0.15c-0.08,0.09-0.14,0.14-0.22,0.23
		c-0.18,0.29-0.32,0.61-0.35,0.98c-0.02,0.33,0,0.68,0.14,0.99c0.13,0.32,0.34,0.59,0.62,0.77c0.23,0.17,0.42,0.28,0.69,0.28
		c0.26,0.06,0.46,0.11,0.76,0.01c0.33-0.03,0.58-0.19,0.86-0.41C177.08,95.21,177.31,94.93,177.4,94.6z"/>
	<path class="st0" d="M186.32,83.84c-0.07,0.05-0.13,0.08-0.2,0.13l-0.07,0.05c-0.07,0.05-0.08,0.09-0.14,0.14
		c-0.13,0.08-0.21,0.17-0.25,0.34c-0.08,0.09-0.12,0.26-0.16,0.41c-0.03,0.1,0.02,0.18-0.01,0.28c0.03,0.12,0.05,0.23,0.12,0.36
		c0.04,0.07,0.07,0.13,0.16,0.22c0.09,0.08,0.23,0.17,0.32,0.25c0.1,0.02,0.16,0.04,0.26,0.06c0.17-0.02,0.33-0.03,0.51-0.1
		c0.07-0.05,0.12-0.04,0.18-0.07l0.07-0.05l0.07-0.05c0.07-0.05,0.07-0.05,0.13-0.08c0.13-0.08,0.25-0.16,0.39-0.3
		c0.13-0.08,0.22-0.23,0.25-0.34c0.1-0.15,0.12-0.26,0.16-0.41c0.03-0.1-0.02-0.18,0.01-0.28c-0.02-0.18-0.03-0.29-0.12-0.36
		c-0.04-0.07-0.08-0.13-0.16-0.22c-0.07-0.13-0.23-0.17-0.36-0.26c-0.1-0.02-0.2-0.05-0.26-0.06c-0.22,0.01-0.38,0.02-0.55,0.09
		C186.57,83.68,186.44,83.76,186.32,83.84z"/>
	<path class="st0" d="M314.32,105.02c-0.93,0.68-1.49,1.89-1.55,3.01c-0.03,0.79,0.1,1.55,0.36,2.24c0.04,0.07,0.07,0.13,0.12,0.2
		c0.07,0.13,0.15,0.26,0.22,0.39c0.07,0.13,0.15,0.26,0.28,0.4c0.04,0.07,0.04,0.07,0.07,0.13c0.04,0.07,0.14,0.1,0.23,0.17
		c0.09,0.09,0.22,0.23,0.31,0.3c0.13,0.14,0.32,0.25,0.45,0.33c0.06,0.01,0.09,0.09,0.09,0.09c0.06,0.01,0.1,0.02,0.1,0.02
		c0.48,0.23,0.99,0.36,1.54,0.32c0.39-0.02,0.77-0.03,1.16-0.11c1.08-0.24,1.98-0.81,2.73-1.7c0.7-0.85,1-2.06,0.77-3.13
		c-0.37-2.02-2.2-3.36-4.1-3.5C316.11,104.11,315.13,104.38,314.32,105.02z"/>
	<path class="st0" d="M328.76,102.09c-0.51,2.07,2.45,3.2,2.97,1.13C332.21,101.21,329.27,100.02,328.76,102.09z"/>
	<path class="st0" d="M329.65,93.46c-0.3,1.23,1.47,1.94,1.79,0.66C331.78,92.91,329.96,92.19,329.65,93.46z"/>
	<path class="st0" d="M399.04,2.79c-6.67,10.59-14.52,20.56-22.76,29.87c-8.32,9.4-17.42,18.04-27.03,25.93
		C337.87,67.9,325.69,76.13,313,83.32c-9.07-0.89-17.34-5.24-25.17-9.83c-8.59-5-17.22-9.66-26.64-12.85
		c-19.05-6.39-39.32-8.3-59.36-8.28c-9.51,0.02-19.07,0.48-28.6,1c-0.3-0.07-0.6-0.21-0.9-0.29c-0.3-0.07-0.53,0.16-0.52,0.38
		c-0.06-0.01-0.17,0.02-0.22,0.01c-0.93,0.06-1.9,0.04-2.8,0.15c-0.5,0.05-1.04,0.08-1.52,0.07c-0.28,0.04-0.51,0.1-0.71,0.22
		c-0.4,0.08-0.83,0.08-1.22,0.14c-0.57,0.15-0.58,1.04,0.01,1.07c0.22-0.01,0.42,0.04,0.64,0.05c0.06,0.86,0.66,1.69,1.69,1.66
		c1.04-0.08,2.08-0.11,3.12-0.18c8.82,3.02,16.82,7.77,24.55,13.23c8.93,6.27,17.67,12.83,27.56,17.42
		c18.23,8.4,38.9,11.07,58.8,8.14c1.57-0.23,3.17-0.57,4.75-0.86c-1.05,0.76-2.01,1.59-2.93,2.49c-0.21,0.17-0.28,0.44-0.24,0.74
		c-22.94,9.56-46.95,16.04-71.33,19.62c-13.74,2.02-27.49,3.08-41.31,3.51c-0.78-0.13-1.5-0.26-2.27-0.45
		c-0.16-0.22-0.39-0.38-0.71-0.4c-0.84-0.1-1.66-0.24-2.51-0.33c-2.64-0.65-5.2-1.46-7.72-2.42c-1.15-0.84-2.21-1.79-3.13-2.86
		c-0.16-0.21-0.35-0.31-0.49-0.41c-0.63-2.7-0.96-5.49-1.15-8.24c-0.49-6.95-0.52-13.85-1.69-20.72
		c-2.36-14.06-8.03-27.61-17.82-37.63c-4.51-4.66-9.79-8.45-15.61-11.13l-0.04-0.07c-0.21-0.27-0.45-0.33-0.69-0.28
		c-0.88-0.39-1.71-0.71-2.61-1.04c-1.19-0.41-2.02,0.97-1.4,1.96c6.02,9.55,11.4,19.46,16.25,29.75
		c-5.72-5.69-13.15-9.06-20.9-10.75c-4.91-1.1-9.96-1.44-15.01-1.51c-2.59-0.02-5.19,0.02-7.75,0.12c-1.91,0.09-3.9,0.05-5.81,0.32
		c-5.96-0.17-12.03,0.58-17.81,2.09c-1.67,0.43-3.31,0.93-4.9,1.45c-0.32-0.01-0.7,0-1.03,0.03c-0.28,0.04-0.44,0.23-0.5,0.5
		c-3.54,1.21-7.01,2.61-10.46,4.13c-2.86,1.27-5.67,2.61-8.44,4.01c-2.71,1.37-5.5,2.59-8,4.4c-0.28,0.04-0.6,0.03-0.87,0.01
		c-6.38,0.46-13.17,1.93-17.76,6.96c-0.06-0.01-0.07,0.05-0.12,0.03c-0.53,0.16-0.74,0.61-0.79,1.05
		C5.32,84.26,4.56,90.83,8.35,95.6c1.07,1.33,2.37,2.45,3.74,3.41c-0.07,0.27-0.13,0.53-0.03,0.79c3.14,10.48,6.59,21.43,14.1,29.49
		c3.62,3.89,7.99,6.83,13,8.35c2.56,0.81,5.21,1.22,7.89,1.5c-0.78,0.32-1.29,1.26-0.56,2.01c12.79,13.15,31.43,17.92,49.07,13.19
		c1.39-0.39,2.75-0.85,4.1-1.3c-3.75,2.06-7.55,4.12-11.31,6.18c-6.8,3.73-13.56,7.49-20.41,11.16c-1.06,0.58-0.77,2.01,0.32,2.23
		c13.81,2.68,28.3,0.45,41.06-5.93c6.29-3.13,12.17-7.26,17.23-12.28c4.94-4.88,9.17-10.43,13.7-15.68c4.53-5.2,9.53-9.95,15.6-12.9
		c0.42,0.04,0.73-0.11,0.98-0.44c0.12-0.04,0.24-0.12,0.31-0.15c1.16-0.33,2.33-0.67,3.52-0.93c4.58,0,9.16-0.15,13.75-0.33
		c2.47,0.28,4.98,0.39,7.48,0.32c2.71-0.06,5.72-0.39,8.35-1.26c3.92-0.34,7.83-0.66,11.74-1.16c13.63-1.6,27.13-4.02,40.44-7.39
		c-0.66,0.28-1.4,0.61-2.08,0.95c-9.98,4.76-18.31,11.84-25.79,20.21c-7.63,8.56-14.22,17.99-21.8,26.6
		c-4.04,4.59-8.38,8.99-13.18,12.71c-2.33,1.8-4.82,3.55-7.42,5.11c-0.37,0.19-0.69,0.39-1.06,0.58c-2.64,1.32-5.4,2.39-8.22,3.11
		c-0.17,0.02-0.25,0.16-0.29,0.33c-0.44,0.07-0.85,0.59-0.76,1.12c0.06,0.41,0.36,0.71,0.79,0.75c0.05,0.23,0.27,0.46,0.52,0.3
		c0.3-0.1,0.55-0.26,0.79-0.36l0.06,0.01c5.3-0.66,10.48-2.66,15.62-4.21c5.07-1.52,10.2-3.07,15.29-4.62
		c9.41-2.86,18.98-5.53,28.06-9.32c4.16-1.74,8.23-3.78,12-6.41c3.9-2.65,7.34-5.92,10.54-9.41c7.03-7.68,13.2-16.27,19.61-24.5
		c6.46-8.22,12.91-16.45,19.35-24.73c4.84-2.08,9.83-4.57,13.69-8.19c0.14-0.14,0.24-0.28,0.32-0.43
		c15.9-7.75,31.19-16.95,45.37-27.78c9.92-7.59,19.32-15.93,27.95-25.04c8.54-9,16.79-18.75,23.27-29.52
		c1.64-2.7,3.38-5.37,5.04-8.13C400.85,2.88,399.58,1.9,399.04,2.79z M142.44,65.11c3.13,6.58,5.22,13.64,6.44,20.9
		c1.13,6.6,1.2,13.27,1.71,19.95c0.22,3.05,0.66,6.08,1.46,8.94l-0.02,0.06c-0.23,0.06-0.43,0.18-0.62,0.36
		c-0.55-4.99-1.6-9.93-2.79-14.74c-1.38-5.59-2.98-11.11-4.88-16.55c-3.86-11.06-8.81-21.64-14.83-31.53
		c-2.38-3.92-5.01-7.73-7.71-11.39C130.38,46.61,137.72,55.18,142.44,65.11z M104.42,57.69c0.16,0.04,0.32,0.02,0.42,0.04
		c7.94,1.28,15.84,4.31,21.86,9.86c2.99,2.78,5.27,5.98,7.16,9.5c1.73,4.15,3.39,8.35,4.94,12.57c1.43,4.7,2.57,9.5,3.86,14.1
		c1.04,3.69,2.2,7.48,3.72,11.14c-5.98-7.51-9.31-17.2-13.16-26.1c-2.46-5.75-5.23-11.4-9.06-16.23
		c-4.11-5.25-9.33-9.47-15.09-12.59C107.63,59.15,106.04,58.36,104.42,57.69z M77.76,63.74c-3.53-1.27-7.13-2.38-10.78-3.35
		c-0.76-0.19-1.58-0.39-2.35-0.52c8.14-1.94,16.61-2.55,24.79-0.64c18.81,4.31,28.65,21.53,38.09,37.34
		c-4.39-4.74-9.21-9.1-14.16-13.1C102.58,74.94,90.56,68.31,77.76,63.74z M44.41,67.11c4.77-2.21,9.65-4.27,14.67-5.8
		c0.58-0.19,1.16-0.33,1.74-0.52c1.55,0.27,3.11,0.55,4.63,0.92c3.33,0.71,6.56,1.62,9.83,2.65c6.36,2.02,12.52,4.62,18.45,7.77
		c11.9,6.27,22.83,14.51,32.1,24.4c2.11,2.21,4.06,4.55,5.95,6.94c0.5,0.81,1.01,1.6,1.51,2.41c-1.06-0.95-2.07-1.93-3.13-2.86
		c-6.54-5.67-13.63-10.64-21.09-14.97c-14.64-8.52-30.73-14.24-47.41-16.9c-4.73-0.77-9.52-1.22-14.33-1.45
		c-2.42-0.09-4.78-0.12-7.21-0.09c-0.32-0.01-0.66,0.01-0.97-0.02C40.9,68.84,42.62,67.98,44.41,67.11z M28.33,74.27
		c15-1.04,30.22,1.43,44.15,6.9c13.19,5.18,24.98,13.22,36.77,21.05c3.76,2.46,7.53,4.9,11.34,7.26c-0.48-0.23-0.97-0.46-1.44-0.69
		c-8.73-4.24-17.48-8.37-26.26-12.41c-16.93-7.73-34.28-15.81-52.77-18.8c-7.62-1.26-15.88-1.77-23.69-0.49
		C20.06,75.15,24.37,74.53,28.33,74.27z M33.34,104.5c-3.81-1.16-7.54-2.48-11.29-3.92c-2.76-1.08-5.51-2.16-8.04-3.78
		c-1.52-1.06-2.98-2.37-3.98-3.98c4.19,1.59,8.6,2.81,12.93,4.1c4.37,1.3,8.82,2.51,13.23,3.71c9.08,2.42,18.11,4.76,27.24,6.9
		c18.13,4.26,36.38,7.75,54.76,10.49c4.07,0.61,8.19,1.18,12.26,1.72c-1,0.09-2.04,0.18-3.04,0.27c-0.69-0.06-1.33-0.11-2.02-0.16
		c-14.36-1.13-28.71-2.92-42.95-5.2c-13.55-2.17-26.88-5.07-40.32-7.7C39.23,106.24,36.3,105.41,33.34,104.5z M15.2,100.75
		c0.48,0.23,0.91,0.45,1.4,0.68c3.88,1.8,7.91,3.2,11.95,4.53c0.1,0.02,0.2,0.05,0.3,0.07c0.06,0.01,0.09,0.09,0.14,0.1
		c0.2,0.05,0.4,0.1,0.62,0.15c6.4,2.09,12.89,3.98,19.53,5.11c17.9,4.25,36.12,7.28,54.37,9.48c-21.34-0.19-42.54-3.12-63-9.53
		c-8.27-2.6-16.37-5.62-24.33-9.05c-0.14-0.1-0.3-0.07-0.42-0.04C15.5,101.73,15.35,101.23,15.2,100.75z M16.29,104.41
		c13.97,6,28.63,10.29,43.53,13.35c15.34,3.1,30.93,4.65,46.63,4.52c2.48-0.01,5-0.12,7.51-0.23c0.27,0,0.47,0.05,0.74,0.07
		c-5.05,0.5-10.13,1-15.2,1.39c-18.21,1.31-36.87,1.27-54.58-3.38c-9.64-2.56-18.88-6.46-27.29-11.93
		C17.11,106.99,16.73,105.7,16.29,104.41z M31.29,130.68c-6.61-5.36-10.38-13.05-13.25-21.16c14.42,9.66,31.78,14.12,48.83,15.68
		c18.65,1.73,37.34-0.09,55.93-1.64c1.43-0.09,2.86-0.25,4.35-0.34c1.27,0.09,2.54,0.18,3.82,0.26c-2.26,0.4-4.47,0.82-6.68,1.28
		c-10.22,2.04-20.38,4.67-30.55,6.95c-10.23,2.26-20.54,4.23-30.94,4.99C52.14,137.47,40.08,137.76,31.29,130.68z M137.96,134.87
		c-0.13,0.08-0.21,0.17-0.34,0.25c-4.99,3.62-10.12,7.03-15.3,10.32c-10.19,6.46-20.72,12.15-31.59,17.07
		c-4.92,2.22-9.92,4.31-14.95,6.3C96.4,157.26,117.19,146.1,137.96,134.87z M128.39,149.31c-9.84,10.54-22.22,17.81-36.09,20.59
		c-6.48,1.33-13.09,1.62-19.62,0.91c11.21-4.06,22.13-8.92,32.84-14.41c10.75-5.48,21.19-11.46,31.24-18.24
		c1.35-0.91,2.68-1.89,3.98-2.8C136.44,139.9,132.51,144.91,128.39,149.31z M121.16,140.07c-13.98,7.83-28.98,15.19-45.13,13.06
		c-9.2-1.25-17.92-5.27-24.93-11.46c2.59,0.24,5.29,0.24,7.8,0.35c3.85,0.16,7.74,0.16,11.58,0.09c7.6-0.16,15.24-0.69,22.79-1.53
		c15.05-1.65,29.88-4.86,44.35-9.46C132.1,133.86,126.67,137.04,121.16,140.07z M149.68,124.61c-3.06,1.22-6.15,2.38-9.27,3.41
		c-7.37,2.52-14.88,4.68-22.43,6.43c-14.9,3.48-30.08,5.67-45.31,6.12c-4.19,0.14-8.41,0.12-12.6,0.06
		c-3.49-0.07-7.06-0.5-10.58-0.47c-0.22-0.23-0.48-0.45-0.74-0.69c-0.09-0.08-0.19-0.11-0.23-0.17c2.54,0.18,5.13,0.2,7.69,0.15
		c21.43-0.4,42.19-6.56,63.09-11.21c5.94-1.3,11.87-2.59,17.89-3.54c1.52-0.24,3.09-0.48,4.6-0.66c2.52,0.11,5.03,0.18,7.5,0.21
		C149.4,124.37,149.55,124.46,149.68,124.61z M132.45,117.81c1.18,0.29,2.37,0.47,3.49,0.75c0.48,0.23,1.01,0.47,1.5,0.71
		c-5.24-0.67-10.44-1.27-15.65-2c-9.08-1.29-18.15-2.8-27.14-4.45c-18.34-3.4-36.59-7.51-54.51-12.62
		c-4.94-1.4-9.86-2.95-14.83-4.46c-5.13-1.55-10.16-3.46-15.35-4.75c-0.3-0.07-0.53-0.02-0.74,0.15c-0.13-0.32-0.27-0.62-0.35-0.99
		c-0.48-2.2-0.04-4.42,0.89-6.43c5.03,0.85,10.11,1.48,15.15,2.5c5.41,1.05,10.79,2.27,16.15,3.7c10.31,2.66,20.41,5.95,30.48,9.33
		C91.65,105.87,111.7,113.02,132.45,117.81z M105.51,107.94c-20.48-6.08-40.74-13.06-61.42-18.5c-5.64-1.46-11.26-2.78-16.97-3.9
		c-5.61-1.1-11.27-2.23-17.01-2.63c0.28-0.44,0.55-0.93,0.81-1.33c0.4-0.52,0.83-0.97,1.23-1.45c3.64-0.74,7.28-1.3,11.06-1.5
		c4.65-0.27,9.3-0.01,13.91,0.56c9.12,1.12,17.96,3.59,26.6,6.64c17.67,6.29,34.63,14.59,51.53,22.72c3.19,1.52,6.36,3.1,9.54,4.67
		C118.34,111.56,111.9,109.81,105.51,107.94z M136.46,115.76c-0.3-0.07-0.62-0.15-0.93-0.17c-21.26-11.01-39.48-27.97-61.85-36.94
		c-8.8-3.53-18.07-5.77-27.48-6.79c3.93,0.06,7.86,0.3,11.8,0.77c8.3,0.92,16.5,2.72,24.46,5.25c15.97,5.08,30.92,13.22,43.93,23.95
		c3.72,3.07,7.34,6.38,10.69,9.87c0.42,0.44,0.8,0.88,1.24,1.33c0.94,1.25,1.94,2.45,2.95,3.61
		C139.66,116.38,138.06,116.09,136.46,115.76z M147.24,117.63c-0.99-0.13-1.99-0.27-2.98-0.4c-11.21-12.76-17.55-29.72-28.15-43.06
		c-6.21-7.85-14-14.35-23.55-17.28c-0.06-0.01-0.1-0.02-0.16-0.04c0.97,0.02,1.94,0.03,2.84,0.08c0.88,0.15,1.76,0.32,2.62,0.54
		c3.1,0.77,6.19,1.82,9.11,3.16c6.15,2.87,11.62,7.15,15.92,12.51c7.78,9.66,11,22.13,16.56,33.09
		C141.57,110.36,144.07,114.25,147.24,117.63z M148.12,110.12c-1.91-6.28-3.82-12.52-6.02-18.69c-0.67-1.85-1.39-3.73-2.12-5.6
		c-0.21-0.67-0.43-1.35-0.64-1.96c-0.87-2.41-1.85-4.8-3.01-7.06c-3.17-7.5-6.59-14.89-10.37-22.09c-2.87-5.45-5.89-10.7-9.07-15.96
		c0.29,0.13,0.52,0.3,0.81,0.42c13.53,17.62,23.7,38.07,29.32,59.94c1.43,5.54,2.38,11.14,3.49,16.71
		c-0.08,0.09-0.14,0.14-0.22,0.23C149.38,114.21,148.71,112.12,148.12,110.12z M190.8,168.23c7.99-8.07,14.71-17.36,22.05-26.03
		c7.35-8.8,15.53-16.93,25.53-22.24c7.65-4.09,15.85-6.7,24.06-9.29c-1.59,1.18-3.26,2.3-4.81,3.49
		c-7.71,5.88-15.09,12.12-22.44,18.44c-14.49,12.54-28.67,25.53-44.27,36.62c-1.43,1-2.87,2-4.35,2.94
		C188.09,170.88,189.49,169.59,190.8,168.23z M246.71,146.77c-3.08,3.7-6.33,7.24-10.05,10.27c-3.59,2.95-7.56,5.25-11.71,7.21
		c-8.74,4.11-18.14,6.76-27.24,9.69c-5.69,1.81-11.33,3.69-17.02,5.5c-2.17,0.71-4.43,1.33-6.71,2c5.37-2.73,10.61-5.78,15.7-9.09
		c4.97-1.76,9.92-3.64,14.73-5.85c7.59-3.42,14.98-7.47,22.05-11.87c12.61-7.77,24.44-16.93,35.24-27.23
		C256.78,133.92,251.87,140.49,246.71,146.77z M271.13,115.23c-1.56,1.76-3.12,3.46-4.77,5.14c-5.75,6.03-11.85,11.64-18.23,16.93
		c-12.76,10.5-26.56,19.4-41.17,26.74c-4.99,2.49-10.05,4.85-15.19,7.02c6.8-4.59,13.42-9.5,19.77-14.64
		c15.09-12.12,29.34-25.42,44.64-37.27c4.29-3.35,8.68-6.54,13.16-9.56c1.1-0.75,2.2-1.43,3.32-2.11c2.05-0.67,4.08-1.41,6.09-2.16
		C276.23,108.53,273.69,111.85,271.13,115.23z M284.48,92.91c-9.87,1.73-19.96,2.12-29.88,0.97c-9.88-1.14-19.6-3.71-28.73-7.65
		c-9.95-4.32-18.66-10.59-27.51-16.79c-6.93-4.93-14.41-10.1-22.5-13.01c0.6-0.03,1.27-0.08,1.87-0.1
		c7.41,3.25,14.79,6.36,22.08,9.91c9.22,4.43,18.36,8.99,27.7,13.11c16.38,7.15,33.76,12.62,51.77,12.96
		c3.13,0.04,6.22-0.04,9.36-0.28C287.21,92.34,285.83,92.68,284.48,92.91z M294.67,88.6c-4.21,0.88-8.5,1.4-12.76,1.59
		c-8.62,0.35-17.27-0.72-25.66-2.61c-18.63-4.2-35.87-12.65-53-20.88c-6.84-3.33-13.7-6.82-20.75-9.8
		c4.38,0.64,8.75,1.54,13.05,2.72c10.03,2.7,19.71,6.56,29.3,10.57c18.55,7.8,37.26,16.21,57.46,18.2c4.12,0.4,8.31,0.48,12.47,0.26
		C294.72,88.56,294.68,88.55,294.67,88.6z M256.58,80.54c-19.74-6.68-38.11-16.93-58.1-22.76c-2.62-0.76-5.26-1.47-7.87-2.06
		c12.86-0.44,25.71-0.48,38.46,0.81c10.02,1.01,19.87,2.87,29.43,5.92c9.66,3.07,18.51,7.5,27.3,12.55
		c7.56,4.35,15.53,8.86,24.19,9.64C292.01,89.07,273.82,86.44,256.58,80.54z"/>
</g>
</svg>
