<svg width="633" height="293" viewBox="0 0 633 293" fill="none" xmlns="http://www.w3.org/2000/svg">
<g clip-path="url(#clip0_93_167)">
<path d="M70.1309 201.072L70.4968 201.028L70.4944 201.007L70.1284 201.052L70.1309 201.072Z" stroke="#481D00" stroke-miterlimit="10"/>
<path d="M629.934 109.129C625.088 108.731 620.244 108.474 615.318 108.335C607.116 108.092 598.866 108.114 590.609 108.333C587.656 107.961 584.59 107.853 581.644 107.534C579.269 107.265 576.888 106.941 574.551 106.591C574.171 106.519 573.821 106.432 573.421 106.33C570.019 105.461 566.921 104.306 563.946 102.973C558.119 100.378 553.136 97.0404 548.165 93.7985C543.283 90.6214 538.221 87.5533 532.251 85.2471C526.638 83.0811 519.983 81.4987 513.093 82.0684C512.756 82.0883 512.641 82.33 512.742 82.4909L512.769 82.715C516.913 86.1891 521.534 89.3442 526.602 92.195C535.554 97.2088 545.68 101.265 556.637 104.201C561.768 105.603 567.093 106.743 572.516 107.633C574.35 108.1 576.257 108.503 578.22 108.835C563.886 109.544 549.528 110.842 535.187 112.538C528.476 112.728 521.739 112.574 515.131 112.156C513.762 112.054 512.394 111.963 511.021 111.83C507.304 111.152 503.602 110.472 499.93 109.766C498.252 109.129 496.596 108.532 495.066 107.779C493.363 106.938 491.805 105.961 490.336 104.919C487.359 102.784 484.955 100.319 482.78 97.75C475.043 88.7192 469.631 77.4622 454.385 73.1393C446.653 70.9427 437.912 70.647 429.39 70.5518C419.625 70.4693 409.794 70.7632 399.988 71.5199L399.897 71.4337C399.644 71.2158 399.178 71.3708 399.013 71.5971L398.869 71.6147C398.606 71.5715 398.322 71.7582 398.395 71.955C398.395 71.955 398.395 71.955 398.397 71.9764C398.2 71.9466 398.051 71.9216 397.854 71.8918C397.476 71.841 397.3 72.242 397.646 72.2967C398.141 72.3871 398.687 72.493 399.201 72.6027C399.823 73.0567 400.456 73.4767 401.076 73.9201C401.167 74.0062 401.26 74.1031 401.383 74.1854C407.788 80.1422 414.436 85.9823 422.136 91.1833C429.909 96.4512 438.705 100.856 448.985 103.799C459.616 106.851 471.055 108.59 482.516 110.12C488.345 110.895 494.251 111.638 500.144 112.285C500.179 112.303 500.179 112.303 500.23 112.329C504.952 113.554 509.825 114.436 514.962 114.841C515.565 114.886 516.216 114.925 516.816 114.948C509.054 116.037 501.348 117.195 493.655 118.449C484.001 120.042 474.377 121.751 464.762 123.535C464.644 123.495 464.562 123.484 464.416 123.48C462.908 123.428 461.434 123.394 459.909 123.333C452.79 123.097 445.666 122.818 438.61 122.434C435.268 122.186 431.947 121.968 428.606 121.72C428.581 121.517 428.401 121.366 428.055 121.311C425.775 120.9 423.317 120.868 420.967 120.671C418.829 120.491 416.734 120.262 414.648 119.978C406.358 117.85 398.896 114.57 392.745 110.401C389.786 108.416 387.219 106.199 384.863 103.858C382.317 101.291 379.956 98.6478 377.195 96.1726C372.85 92.2467 367.481 88.9133 361.355 86.2582C355.229 83.603 348.396 81.6203 341.173 80.4114C334.034 79.2246 326.279 78.6771 318.723 79.3506C318.421 79.388 318.262 79.5376 318.249 79.6909C318.144 79.758 318.042 79.8464 318.054 79.9424C317.91 79.9601 317.838 80.0233 317.783 80.1059C317.652 80.2196 317.595 80.4108 317.8 80.5045C318.736 81.0172 319.642 81.5551 320.442 82.1495C327.853 87.4946 328.303 95.5843 332.35 102.201C336.202 108.538 344.039 112.888 353.225 115.479C363.699 118.431 375.45 119.037 386.905 119.864C399.468 120.771 411.97 121.836 424.517 122.745C426.765 122.9 429.014 123.067 431.246 123.224C432.959 123.359 434.638 123.488 436.346 123.591C443.075 124.07 449.774 124.564 456.518 125.041C445.222 127.195 433.922 129.458 422.689 131.734C422.636 131.567 422.458 131.437 422.147 131.4C416.59 130.732 410.986 130.212 405.375 129.757C385.828 128.142 366.002 127.527 346.038 128.022L346.165 127.876C346.396 127.393 346.272 126.78 345.701 126.471C345.041 126.098 344.024 126.104 343.249 126.493C342.653 126.772 342.254 127.2 342.132 127.649C342.03 127.737 341.93 127.847 341.914 127.979L341.945 128.224C341.963 128.374 342.027 128.496 342.105 128.605C342.246 128.837 342.576 129.024 342.9 129.157C343.223 129.29 343.687 129.385 344.085 129.336L344.228 129.318L344.339 129.304L344.559 129.255L344.884 129.139L345.04 128.968L344.904 128.779L345.013 128.744C350.541 128.657 356.075 128.612 361.542 128.684C370.517 128.778 379.454 129.093 388.338 129.63C387.137 129.714 385.916 129.767 384.747 129.847C381.347 130.039 377.918 130.257 374.527 130.524C368.306 131.011 362.121 131.537 355.924 132.227L355.921 132.206L355.919 132.184L355.925 131.978L355.818 131.764L355.727 131.677C355.597 131.542 355.474 131.46 355.271 131.387C355.034 131.297 354.687 131.232 354.382 131.248C354.045 131.268 353.714 131.33 353.438 131.451C353.145 131.563 352.909 131.744 352.756 131.947C352.632 132.114 352.564 132.22 352.555 132.405C352.535 132.505 352.55 132.633 352.562 132.729C352.59 132.953 352.777 133.158 352.991 133.326C353.083 133.412 353.235 133.469 353.356 133.53C353.476 133.591 353.625 133.616 353.79 133.65C354.514 133.755 355.382 133.464 355.725 132.967L355.843 132.746C362.028 132.22 368.247 131.712 374.451 131.346C377.851 131.154 381.251 130.961 384.658 130.822C388.096 130.679 391.599 130.668 395.069 130.391C395.406 130.371 395.644 130.212 395.769 130.045C403.835 130.629 411.783 131.435 419.743 132.336C403.263 135.672 386.777 139.084 370.291 142.378C369.993 142.447 369.707 142.482 369.455 142.535C369.337 142.496 369.188 142.471 368.995 142.473C367.267 142.47 365.517 142.426 363.807 142.312C350.037 141.566 337.246 138.163 325.178 134.336C312.875 130.44 301.036 125.978 288.238 122.783C281.806 121.173 275.139 119.895 268.265 119.152C261.604 118.437 254.783 118.132 247.89 118.149C233.877 118.191 219.789 119.444 205.751 120.723C191.537 122.003 177.385 123.145 163.202 123.5C163.09 123.514 163.011 123.524 162.95 123.553L162.416 123.543C162.27 123.539 162.054 123.62 161.948 123.677L161.794 123.869C161.797 123.89 161.801 123.922 161.771 123.948C161.478 124.06 161.338 124.359 161.661 124.492C161.982 124.604 162.305 124.737 162.61 124.851C162.653 124.943 162.794 125.034 163.003 125.03L163.035 125.026C163.948 125.358 164.833 125.725 165.746 126.056C176.78 130.141 188.379 133.571 200.248 136.568C212.23 139.572 224.551 142.046 237.145 143.989C249.656 145.909 262.427 147.321 275.36 148.214C288.26 149.101 301.338 149.467 314.458 149.265C322.985 149.132 331.533 148.78 340.115 148.186C321.974 151.543 303.745 154.575 285.443 157.02C283.953 157.118 282.462 157.204 280.954 157.282C277.745 157.451 274.513 157.569 271.295 157.663C269.91 157.694 268.557 157.72 267.172 157.75C266.268 157.494 265.265 157.347 264.337 157.158C262.865 156.874 261.391 156.58 259.969 156.312C257.141 155.773 254.36 155.228 251.532 154.689C232.234 151.03 212.845 147.424 193.454 143.928C193.47 143.796 193.452 143.646 193.405 143.533C193.239 143.099 192.803 142.708 192.168 142.538C191.495 142.318 190.705 142.329 189.994 142.59C189.422 142.79 188.988 143.201 188.779 143.606C188.571 144.011 188.597 144.484 188.882 144.828C189.154 145.196 189.711 145.398 190.284 145.457C190.436 145.514 190.605 145.569 190.75 145.572C191.929 145.698 193.044 145.051 193.352 144.276C198.071 145.22 202.81 146.195 207.529 147.139C217.642 149.128 227.742 151.14 237.858 153.151C242.939 154.148 247.973 155.162 253.036 156.139C255.518 156.623 257.984 157.109 260.466 157.593C260.93 157.688 261.393 157.771 261.857 157.866C253.61 157.91 245.379 157.692 237.22 157.27C226.25 156.708 215.381 155.657 204.709 154.246C204.863 154.054 204.918 153.841 204.89 153.617C204.837 153.191 204.302 152.91 203.756 152.804C203.258 152.692 202.619 152.75 202.128 152.962C201.101 153.403 200.653 154.487 201.512 155.031C202.247 155.493 203.584 155.338 204.191 154.754C210.112 155.626 216.049 156.365 222.082 156.963C233.311 158.045 244.688 158.633 256.199 158.738C259.563 158.777 262.902 158.744 266.254 158.687C266.863 158.785 267.485 158.849 268.16 158.82C268.385 158.814 268.487 158.725 268.589 158.637C270.2 158.6 271.862 158.59 273.501 158.528C273.727 158.522 273.918 158.498 274.143 158.492C271.851 158.765 269.543 159.039 267.249 159.29C266.305 159.233 265.397 159.204 264.444 159.203C258.374 159.217 252.219 160.118 246.249 161.332C217.864 163.604 189.641 163.777 162.102 161.395C159.392 160.896 156.508 160.689 153.704 160.342C150.601 159.935 147.561 159.509 144.51 158.998C138.377 157.979 132.22 156.768 126.32 155.288C126.054 155.223 125.852 155.421 125.874 155.603C124.976 155.389 124.079 155.185 123.18 154.972C122.422 154.719 121.644 154.436 120.884 154.161C117.017 152.668 113.449 150.845 110.09 148.887C98.1133 141.875 88.6666 132.731 74.3263 127.635C67.1482 125.088 59.04 123.902 50.7444 123.552C43.3567 123.23 35.7724 123.408 28.2886 124.008C27.4629 123.991 26.6239 123.997 25.769 124.005C25.655 123.998 25.5808 124.05 25.5555 124.107L25.435 124.046C25.109 123.892 24.6503 124.1 24.6422 124.296C24.2763 124.341 24.2403 124.703 24.6273 124.699L24.7413 124.706L24.7824 124.777C29.4719 130.317 35.5854 135.227 42.5344 139.449C55.1738 147.116 70.6684 152.404 87.6309 154.934C97.2061 156.361 107.095 157.056 116.962 157.841C121.871 158.231 126.829 158.626 131.691 159.152C132.002 159.189 132.298 159.228 132.64 159.251C134.417 159.519 136.182 159.821 137.957 160.067C156.459 162.775 175.371 164.218 194.512 164.518C192.065 164.582 189.668 164.651 187.237 164.713C173.54 165.084 159.841 165.444 146.153 165.889C133.961 166.291 121.515 166.984 109.543 169.687C103.699 171.005 97.9981 172.836 92.8405 175.271C88.1099 177.502 83.8388 180.185 80.0713 183.153C72.6343 188.967 66.7501 195.717 61.7459 202.531L61.669 202.562C61.4237 202.668 61.3626 202.827 61.4288 202.971C61.3293 203.08 61.2789 203.195 61.1794 203.305C60.9844 203.556 61.1711 203.761 61.4401 203.847C61.4878 203.971 61.7409 204.059 61.9318 203.905C62.6678 203.457 63.356 203.014 64.0442 202.572C64.1356 202.658 64.3132 202.658 64.4604 202.542C64.5599 202.432 64.662 202.344 64.7601 202.223C65.4442 202.009 66.1243 201.762 66.8601 201.574C73.4222 199.788 80.5454 199.276 87.3717 198.715C94.5162 198.114 101.698 197.681 108.831 197.255C123.128 196.377 137.519 195.476 151.681 193.12C158.643 191.956 165.468 190.463 172.137 188.502C178.652 186.592 184.964 184.35 191.195 181.977C203.717 177.191 215.847 171.847 228.746 167.632C234.832 165.656 241.088 164.006 247.393 162.75C250.752 162.487 254.092 162.204 257.442 161.866C288.26 158.904 318.743 153.881 349.055 148.132C342.047 149.702 335.035 151.38 328.146 153.261C315.627 156.638 303.331 160.638 291.912 165.72C280.873 170.615 270.734 176.515 261.496 182.92C252.125 189.418 243.565 196.466 235.582 203.745C227.295 211.311 219.418 219.184 212.73 227.398C212.51 227.447 212.32 227.481 212.1 227.53C211.802 227.599 211.914 227.856 212.185 227.823L212.439 227.791C212.417 227.87 212.458 227.941 212.512 227.988C212.104 228.342 212.732 228.719 213.243 228.418C213.877 228.058 214.463 227.704 215.047 227.328C215.743 227.21 216.439 227.091 217.148 226.949C230.331 224.248 242.677 219.604 254.067 214.026C265.887 208.265 276.673 201.582 286.917 194.565C297.708 187.144 308.045 179.444 318.891 172.071C329.137 165.075 339.923 158.391 351.788 152.733C357.553 149.985 363.555 147.456 369.816 145.328C370.357 145.132 370.932 144.952 371.509 144.784C371.652 144.766 371.761 144.731 371.919 144.7C372.139 144.652 372.275 144.581 372.409 144.488C376.201 143.283 380.044 142.234 383.98 141.282C409.076 136.188 434.134 130.915 459.322 126.168C456.305 127.494 453.328 128.891 450.371 130.317C439.429 132.07 428.379 133.869 417.841 136.936C409.625 139.327 401.697 142.473 394.982 146.682C388.223 150.918 383.299 156.162 379.947 161.841C376.449 167.775 374.551 173.978 372.809 180.14C371.874 183.418 370.97 186.693 369.837 189.941C368.711 193.243 367.169 196.445 365.665 199.696L365.668 199.718L365.466 199.916C365.137 200.26 365.845 200.497 366.227 200.19L366.46 199.988L366.431 200.013C366.34 200.198 366.741 200.3 366.865 200.133C367.258 199.651 367.632 199.15 367.977 198.674C373.656 193.791 379.681 189.094 386.174 184.663C398.944 176.001 412.864 168.28 426.292 160.112C439.345 152.173 453.413 142.517 454.056 130.339L454.003 130.172C457.759 128.419 461.586 126.711 465.456 125.096L465.666 124.972C478.816 122.524 491.972 120.249 505.221 118.211C511.719 117.214 518.242 116.289 524.757 115.429C523.004 115.884 521.268 116.337 519.519 116.824C501.023 122.012 483.438 129.081 467.627 137.706C467.177 137.459 466.594 137.314 465.955 137.371C465.621 137.413 465.291 137.486 464.969 137.623C464.68 137.767 464.44 137.916 464.287 138.119C463.99 138.459 463.865 138.886 464.069 139.229C464.179 139.465 464.397 139.665 464.721 139.799C464.927 139.903 465.19 139.936 465.416 139.94C465.601 140.123 465.799 140.294 466.12 140.406C466.507 140.531 466.92 140.48 467.264 140.253C468.241 139.667 468.582 138.639 467.969 137.989C471.972 135.881 476.101 133.876 480.273 131.963C485.547 129.557 491.006 127.333 496.551 125.294C489.928 129.719 483.906 134.569 478.597 139.698L478.353 139.555L478.271 139.543C477.998 139.425 477.684 139.367 477.347 139.387C476.867 139.424 476.431 139.554 476.042 139.808C475.415 140.221 475.139 140.862 475.365 141.386C475.482 141.675 475.741 141.946 476.147 142.091C476.505 142.242 476.959 142.262 477.401 142.175C477.81 142.091 478.221 141.889 478.416 141.638C478.541 141.47 478.602 141.311 478.584 141.162L478.657 141.099L478.734 141.068L478.858 140.901L478.887 140.875L478.958 140.791C479.025 140.685 479.073 140.549 479.057 140.421C479.042 140.293 479.03 140.197 478.938 140.111C485.416 134.371 492.542 129.05 500.416 124.156C500.598 124.058 500.645 123.922 500.665 123.822C502.863 123.052 505.081 122.312 507.366 121.586C512.121 120.078 516.987 118.686 521.857 117.445C524.251 116.824 526.665 116.234 529.101 115.694C530.374 115.407 531.613 115.113 532.905 114.845C533.925 114.611 534.953 114.43 535.875 114.056C536.653 113.949 537.435 113.874 538.215 113.777L538.44 113.771C543.384 113.529 548.519 113.133 553.445 112.221C557.167 111.891 560.859 111.576 564.54 111.305C557.682 113.181 550.974 115.353 544.46 117.793C534.976 118.933 525.351 120.111 516.383 123.071C508.967 125.526 502.746 129.295 497.92 133.888C493.326 138.268 490.064 143.242 487.597 148.237C484.802 153.847 483.125 159.621 481.169 165.355C480.146 168.319 479.059 171.28 477.775 174.223C476.6 176.87 475.077 179.441 473.674 182.073C473.425 182.407 473.16 182.743 472.91 183.077C472.76 183.302 473.184 183.466 473.383 183.246C473.408 183.189 473.483 183.137 473.51 183.101C473.622 183.087 473.701 183.077 473.756 182.994C474.11 182.593 474.432 182.196 474.724 181.813C474.579 182.08 474.416 182.328 474.305 182.602C474.241 182.74 474.301 182.83 474.421 182.891L474.326 183.032C474.235 183.217 474.629 183.266 474.703 183.083L474.851 182.838L475.03 182.718C476.744 180.123 478.611 177.585 480.942 175.153C483.274 172.72 485.903 170.467 488.768 168.304C499.558 160.082 512.82 153.58 523.539 145.313C533.58 137.562 541.24 128.46 545.74 118.87L545.756 118.738L545.753 118.717C554.14 115.623 562.927 113.021 571.779 110.822C580.003 110.326 588.206 110.06 596.361 109.929C597.267 109.937 598.201 109.919 599.104 109.905C609.299 109.815 619.454 109.925 629.615 110.208" stroke="#481D00" stroke-width="2" stroke-miterlimit="10"/>
<path d="M538.038 120.32C530.559 123.443 523.457 126.996 517.019 131.095C509.759 135.729 503.563 141 498.24 146.673C492.964 152.329 488.631 158.302 484.779 164.378C482.834 167.456 481.004 170.552 479.259 173.682C479.544 172.986 479.865 172.318 480.135 171.624C480.536 170.686 480.889 169.754 481.259 168.831C481.594 168.01 481.927 167.178 482.31 166.351C483.548 163.566 484.853 160.794 486.276 158.062C488.813 153.243 491.559 148.408 494.826 143.748C497.723 139.609 501.203 135.497 505.606 131.92C510.219 128.209 515.874 125.355 522.324 123.453C527.449 121.931 532.72 121.064 538.038 120.32Z" stroke="#481D00" stroke-miterlimit="10"/>
<path d="M486.539 168.688C486.868 168.344 487.197 168 487.524 167.646C496.465 158.58 506.769 150.093 518.005 142.216C523.088 138.653 528.29 135.14 532.904 131.309C535.129 129.453 537.282 127.53 539.147 125.501C539.999 124.562 540.833 123.593 541.595 122.578C539.329 126.584 536.548 130.48 533.231 134.215C529.259 138.67 524.639 142.837 519.361 146.652C513.685 150.776 507.461 154.513 501.364 158.364C496.182 161.647 491.075 165.019 486.539 168.688Z" stroke="#481D00" stroke-miterlimit="10"/>
<path d="M479.666 174.758C482.114 170.653 484.594 166.545 487.309 162.505C491.312 156.606 495.842 150.793 501.311 145.384C506.836 139.913 513.285 134.86 520.675 130.491C527.144 126.648 534.147 123.335 541.459 120.428C540.189 122.437 538.846 124.379 537.076 126.255C534.908 128.581 532.383 130.756 529.75 132.836C524.965 136.59 519.727 140.075 514.733 143.704C509.219 147.699 503.969 151.868 498.992 156.155C494.116 160.354 489.513 164.659 485.12 169.101C483.25 170.957 481.432 172.839 479.666 174.758Z" stroke="#481D00" stroke-miterlimit="10"/>
<path d="M500.45 133.586C504.208 130.273 508.794 127.529 514.012 125.455C509.959 127.418 506.363 129.812 503.33 132.58C499.146 136.358 496.163 140.582 493.39 144.802C490.23 149.677 487.302 154.61 484.758 159.636C484.62 159.956 484.463 160.257 484.294 160.582C487.637 151.178 491.423 141.558 500.45 133.586Z" stroke="#481D00" stroke-miterlimit="10"/>
<path d="M445.557 132.656C442.746 134.087 439.938 135.538 437.203 137.057C421.92 145.509 408.021 155.231 396.008 165.835C390.042 171.133 384.519 176.624 379.51 182.356C377.004 185.211 374.666 188.11 372.429 191.051C371.47 192.307 370.487 193.631 369.578 194.902C371.893 189.85 374.239 184.783 377.116 179.835C380.101 174.722 383.618 169.727 388.01 165.015C392.581 160.182 398.095 155.797 404.171 151.775C410.306 147.713 416.894 143.91 423.546 140.239C428.126 137.702 433.156 135.152 438.616 133.73C440.67 133.357 442.743 133.015 444.803 132.695C445.057 132.664 445.284 132.668 445.557 132.656Z" stroke="#481D00" stroke-miterlimit="10"/>
<path d="M367.692 197.54C368.206 196.609 368.643 195.7 369.076 194.758C368.79 195.454 368.521 196.148 368.234 196.833C368.109 197 367.985 197.168 367.894 197.352L367.692 197.54Z" stroke="#481D00" stroke-miterlimit="10"/>
<path d="M431.861 134.998C428.087 136.602 424.568 138.574 421.253 140.5C414.562 144.382 407.788 148.241 401.564 152.508C395.552 156.652 390.262 161.151 385.901 166.109C378.957 174.083 374.17 182.788 370.421 191.526C370.706 190.83 370.941 190.119 371.179 189.429C372.482 185.856 373.488 182.233 374.577 178.632C376.394 172.689 378.415 166.698 382.103 160.989C385.717 155.343 391.13 150.396 398.142 146.378C408.099 140.696 419.852 137.402 431.861 134.998Z" stroke="#481D00" stroke-miterlimit="10"/>
<path d="M451.518 131.627C450.688 137.589 446.296 143.342 440.642 148.167C434.916 153.056 428.004 157.235 421.168 161.384C414.528 165.41 407.781 169.363 401.191 173.405C394.598 177.426 388.131 181.55 381.988 185.938C378.145 188.687 374.412 191.542 370.94 194.549C371.99 193.12 373.029 191.724 374.147 190.319C376.779 187.047 379.582 183.852 382.519 180.695C393.022 169.508 405.314 159.064 419.256 149.694C428.961 143.155 439.476 137.155 450.552 131.779C450.885 131.727 451.216 131.664 451.518 131.627Z" stroke="#481D00" stroke-miterlimit="10"/>
<path d="M31.9557 124.541C38.3042 124.948 44.4721 125.984 50.3268 127.492C64.3183 131.071 76.4048 137.008 88.4583 142.678C94.5799 145.561 100.776 148.392 107.347 150.862C109.211 151.574 111.121 152.259 113.059 152.918C112.008 152.647 110.959 152.387 109.892 152.118C102.692 150.181 95.7168 147.966 88.9415 145.543C81.8137 143.012 75.1462 140.023 68.4813 137.055C56.5879 131.766 44.1483 126.5 29.6865 124.604C30.4116 124.591 31.1989 124.558 31.9557 124.541Z" stroke="#481D00" stroke-miterlimit="10"/>
<path d="M27.1237 125.82C29.767 127.216 32.4394 128.586 35.1556 129.919C59.7712 141.977 88.1824 150.901 118.035 156.723C116.781 156.64 115.523 156.524 114.268 156.43C104.519 155.685 94.7696 154.94 85.3257 153.399C76.9194 152.022 68.8821 149.971 61.4192 147.211C47.4805 142.098 35.9675 134.66 27.1237 125.82Z" stroke="#481D00" stroke-miterlimit="10"/>
<path d="M26.5479 124.689C26.5797 124.685 26.6274 124.679 26.6619 124.696C35.1904 125.625 43.168 127.715 50.647 130.344C64.8323 135.361 77.341 142.102 91.3539 147.292C98.1384 149.79 105.164 152.02 112.425 153.928C113.793 154.279 115.16 154.63 116.528 154.981C83.8671 148.39 53.5364 138.046 26.5479 124.689Z" stroke="#481D00" stroke-miterlimit="10"/>
<path d="M111.93 151.617C112.259 151.804 112.62 151.976 112.947 152.142C110.137 151.222 107.409 150.194 104.726 149.128C91.8002 143.977 80.2203 137.566 67.2239 132.499C57.5866 128.74 46.9734 125.577 35.6246 124.434C36.7843 124.41 37.9083 124.358 39.0681 124.334C43.9192 124.254 48.7384 124.309 53.4952 124.642C61.8702 125.242 69.7726 126.855 76.7105 129.81C83.5623 132.722 89.2895 136.597 94.8921 140.508C100.373 144.348 105.737 148.288 111.93 151.617Z" stroke="#481D00" stroke-miterlimit="10"/>
<path d="M135.371 158.22C135.52 158.256 135.719 158.296 135.869 158.332C135.671 158.302 135.523 158.277 135.326 158.248C135.343 158.256 135.343 158.256 135.371 158.22Z" stroke="#481D00" stroke-miterlimit="10"/>
<path d="M67.3286 200.53C68.1256 200.053 68.9715 199.58 69.775 199.156C70.5678 198.906 71.3274 198.65 72.1202 198.4C82.7962 195.012 93.9221 192.652 105.201 190.879C116.509 189.071 127.929 187.79 139.299 186.353C150.665 184.894 162.029 183.284 173.146 180.849C184.37 178.368 194.981 174.848 205.764 171.414C211.14 169.699 216.59 168.062 222.142 166.726C224.508 166.141 226.889 165.674 229.274 165.238C230.061 165.206 230.818 165.188 231.609 165.188C229.043 165.982 226.526 166.791 224.002 167.666C211.101 172.13 198.936 177.576 186.263 182.316C179.965 184.675 173.485 186.862 166.838 188.615C159.939 190.421 152.809 191.789 145.654 192.825C131.213 194.89 116.659 195.649 102.182 196.636C94.9755 197.125 87.7396 197.64 80.5499 198.399C76.1227 198.772 71.5615 199.368 67.3286 200.53Z" stroke="#481D00" stroke-miterlimit="10"/>
<path d="M67.0999 199.725C72.9357 194.021 80.5006 189.111 88.9118 185.169C98.0695 180.864 108.093 177.687 118.47 175.408C130.608 172.739 143.086 171.262 155.498 170.292C168.085 169.3 180.645 168.874 193.203 168.168C196.155 168.009 199.152 167.823 202.097 167.61C189.887 169.433 177.689 171.352 165.536 173.373C152.432 175.534 139.331 177.727 126.299 180.214C114.008 182.556 101.739 185.339 90.1682 189.325C84.8069 191.157 79.6071 193.251 74.7053 195.665C72.1318 196.926 69.5357 198.265 67.0999 199.725Z" stroke="#481D00" stroke-miterlimit="10"/>
<path d="M220.48 166.216C214.222 167.845 208.133 169.8 202.076 171.751C196.594 173.522 191.163 175.319 185.613 176.926C180.189 178.517 174.64 179.874 169.047 181.009C157.737 183.316 146.234 184.846 134.751 186.275C123.27 187.726 111.793 189.068 100.377 191.042C94.7178 192.034 89.1065 193.149 83.5758 194.526C79.7845 195.471 75.9718 196.505 72.3128 197.737C79.4156 194.054 87.1622 191.007 95.1722 188.522C107.085 184.819 119.575 182.258 132.073 180.02C145.044 177.692 158.128 175.631 171.181 173.575C184.266 171.514 197.328 169.532 210.434 167.642C213.798 167.161 217.165 166.702 220.48 166.216Z" stroke="#481D00" stroke-miterlimit="10"/>
<path d="M211.334 165.646C203.5 166.419 195.619 166.937 187.784 167.44C175.042 168.223 162.332 168.873 149.582 170.112C137.168 171.332 124.697 173.133 112.692 176.219C102.831 178.748 93.3381 182.174 84.7927 186.598C80.6214 188.782 76.6568 191.2 73.1094 193.858C70.1363 196.067 67.3804 198.466 65.1135 201.031C64.8748 201.191 64.6322 201.318 64.4253 201.474C64.1297 201.564 63.8526 201.674 63.6047 201.759C63.7586 201.567 63.8992 201.398 64.0517 201.195C69.6192 194.366 75.7858 187.549 84.0033 181.908C88.1552 179.045 92.8675 176.535 98.0168 174.555C103.414 172.491 109.24 171.024 115.121 169.994C127.182 167.887 139.447 167.552 151.567 167.224C165.298 166.871 179.042 166.483 192.774 166.13C198.905 165.957 205.103 165.798 211.334 165.646Z" stroke="#481D00" stroke-miterlimit="10"/>
<path d="M362.486 143.905C361.681 144.059 360.877 144.213 360.073 144.377C357.55 144.602 354.998 144.733 352.485 144.784C346.466 144.563 340.444 144.311 334.448 144.012C330.736 143.636 327.091 143.155 323.488 142.615C310.602 140.665 298.183 137.791 285.467 135.517C272.335 133.142 258.983 131.207 245.504 129.557C232.014 127.942 218.391 126.69 204.638 125.833C193.361 125.136 181.984 124.678 170.535 124.685C184.302 123.969 198.106 123.282 211.839 123.199C226.021 123.093 240.053 123.732 253.823 125.258C266.794 126.721 279.491 128.846 292.026 131.218C304.678 133.63 317.183 136.288 329.831 138.668C335.947 139.808 342.039 140.886 348.201 141.868C351.143 142.415 354.137 142.857 357.198 143.194C358.942 143.455 360.714 143.68 362.486 143.905Z" stroke="#481D00" stroke-miterlimit="10"/>
<path d="M165.095 124.187C165.629 124.197 166.112 124.18 166.646 124.19C166.278 124.214 165.893 124.24 165.525 124.264C165.374 124.217 165.209 124.194 165.095 124.187Z" stroke="#481D00" stroke-miterlimit="10"/>
<path d="M189.371 125.91C196.336 126.208 203.295 126.594 210.218 127.071C223.982 128.024 237.694 129.341 251.13 131.169C264.531 132.98 277.784 135.155 290.843 137.722C299.778 139.456 308.613 141.43 317.618 143.08C304.728 142.268 291.894 141.264 279.119 140.081C265.953 138.87 252.9 137.395 239.908 135.762C226.866 134.113 213.851 132.298 200.988 130.27C191.319 128.735 181.713 127.062 172.091 125.391C177.828 125.549 183.609 125.679 189.371 125.91Z" stroke="#481D00" stroke-miterlimit="10"/>
<path d="M215.925 226.722C216.163 226.562 216.45 226.397 216.686 226.216C226.098 219.919 234.461 212.972 242.877 206.061C251.297 199.183 259.764 192.298 269.409 186.189C278.889 180.176 289.231 174.869 300.005 170.05C310.826 165.225 322.085 160.931 333.51 156.942C340.583 154.454 347.722 152.109 354.895 149.783C352.232 150.967 349.576 152.216 347.006 153.508C335.316 159.405 324.711 166.239 314.508 173.327C303.801 180.781 293.504 188.541 282.623 195.886C272.329 202.888 261.543 209.571 249.557 215.168C239.074 220.114 227.789 224.064 215.925 226.722Z" stroke="#481D00" stroke-miterlimit="10"/>
<path d="M358.709 147.448C348.542 150.773 338.428 154.135 328.459 157.76C317.05 161.878 305.839 166.296 295.114 171.249C284.528 176.143 274.445 181.591 265.239 187.722C255.764 194.038 247.267 200.947 238.775 207.889C234.551 211.346 230.278 214.799 225.902 218.199C222.363 220.933 218.616 223.54 214.891 226.199C215.216 225.823 215.542 225.458 215.871 225.114C223.225 217.057 231.058 209.222 239.693 201.732C247.831 194.66 256.485 187.85 265.966 181.588C275.45 175.347 285.749 169.688 296.968 165.074C308.584 160.281 320.893 156.518 333.45 153.32C341.822 151.148 350.261 149.261 358.709 147.448Z" stroke="#481D00" stroke-miterlimit="10"/>
<path d="M165.687 125.186C165.801 125.193 165.912 125.18 166.026 125.187C166.407 125.259 166.804 125.34 167.185 125.412C179.91 127.761 192.777 129.822 205.695 131.768C218.612 133.714 231.634 135.452 244.73 137.018C257.827 138.585 270.98 139.949 284.18 141.178C297.381 142.406 310.64 143.454 323.971 144.309C324.654 144.344 325.372 144.407 326.055 144.442C326.944 144.581 327.784 144.716 328.671 144.834C333.897 145.563 339.238 146.052 344.612 146.287C333.065 147.194 321.533 147.708 310.014 147.799C296.912 147.891 283.906 147.451 271.076 146.48C258.247 145.508 245.562 144.01 233.12 141.995C220.68 139.99 208.45 137.471 196.575 134.422C186.035 131.716 175.737 128.623 165.687 125.186Z" stroke="#481D00" stroke-miterlimit="10"/>
<path d="M329.668 137.345C330.055 137.47 330.455 137.573 330.807 137.681C329.023 137.359 327.208 137.042 325.436 136.687C312.761 134.354 300.208 131.832 287.524 129.554C274.808 127.28 261.945 125.251 248.82 123.981C234.994 122.656 220.897 122.275 206.76 122.483C202.052 122.545 197.337 122.683 192.641 122.841C198.67 122.356 204.739 121.812 210.81 121.279C224.806 120.059 238.884 118.98 252.793 119.276C259.787 119.419 266.718 119.961 273.447 120.97C280.229 122.006 286.737 123.574 293.02 125.409C305.483 129.035 317.211 133.641 329.668 137.345Z" stroke="#481D00" stroke-miterlimit="10"/>
<path d="M343.213 83.9828C349.715 87.0681 354.665 91.3199 359.376 95.6011C364.123 99.8998 368.793 104.24 374.546 107.927C376.861 109.418 379.355 110.778 381.902 112.044C380.595 111.534 379.273 111.026 377.994 110.48C371.101 107.497 364.763 103.904 359.224 99.8552C353.099 95.3802 348.422 89.9357 341.296 86.1152C335.309 82.8797 327.892 80.7524 320.038 80.0547C320.565 80.0112 321.077 79.9696 321.604 79.9261C324.347 79.9014 327.063 79.9233 329.794 80.0732C330.369 80.1538 330.943 80.2237 331.521 80.3256C335.788 81.0115 339.698 82.3266 343.213 83.9828Z" stroke="#481D00" stroke-miterlimit="10"/>
<path d="M391.774 116.533C391.656 116.493 391.574 116.482 391.46 116.474C381.53 114.137 372.122 110.924 363.874 106.646C355.833 102.473 348.802 97.4599 341.695 92.6081C335.297 88.2751 328.671 84.057 321.053 80.6874C329.829 81.791 337.89 84.4237 344.1 88.5523C347.461 90.7907 350.264 93.3473 353.144 95.8727C355.752 98.1609 358.512 100.365 361.556 102.394C367.251 106.272 373.708 109.644 380.662 112.468C384.189 113.96 387.958 115.314 391.774 116.533Z" stroke="#481D00" stroke-miterlimit="10"/>
<path d="M321.199 81.4818L321.352 81.5388C329.708 85.5214 336.882 90.5166 343.97 95.4684C351.055 100.399 358.188 105.323 366.599 109.223C375.183 113.221 384.816 116.158 394.868 118.306C397.623 118.908 400.447 119.415 403.267 119.89C403.534 119.954 403.848 120.013 404.114 120.077C403.318 120.035 402.52 119.982 401.723 119.94C395.524 119.568 389.356 119.052 383.151 118.627C371.957 117.822 360.483 116.846 350.608 113.517C346.259 112.04 342.23 110.144 339.02 107.691C335.474 104.999 333.293 101.727 331.713 98.2175C329.135 92.5137 327.55 85.7013 321.199 81.4818Z" stroke="#481D00" stroke-miterlimit="10"/>
<path d="M405.16 118.475C403.54 118.177 401.951 117.864 400.389 117.505C397.199 116.783 394.083 116.009 391.016 115.099C390.46 114.919 389.95 114.711 389.395 114.531C383.024 112.112 377.296 109.017 372.245 105.515C366.481 101.472 361.939 96.7362 356.84 92.3294C352.175 88.2915 346.893 84.4923 340.217 81.9593C338.829 81.4376 337.337 80.9938 335.852 80.6139C338.539 80.9211 341.189 81.3301 343.79 81.8537C350.88 83.2957 357.567 85.5348 363.464 88.4241C369.654 91.472 374.744 95.2841 378.99 99.5904C381.536 102.157 383.929 104.797 386.658 107.276C388.986 109.393 391.555 111.361 394.406 113.132C397.612 115.162 401.255 116.932 405.16 118.475Z" stroke="#481D00" stroke-miterlimit="10"/>
<path d="M407.213 77.8411C408.331 78.5261 409.431 79.1918 410.546 79.8555C414.615 82.3315 418.864 84.6986 423.212 86.9559C437.796 94.5451 454.51 100.16 471.759 104.744C478.572 106.556 485.532 108.123 492.539 109.553C492.924 109.657 493.295 109.785 493.679 109.889C493.882 109.961 494.116 110.03 494.323 110.134C489.161 109.526 484.004 108.831 478.893 108.109C467.555 106.531 456.263 104.677 445.999 101.33C436.171 98.1253 427.632 93.5804 420.196 88.2926C415.559 85.0094 411.372 81.4432 407.213 77.8411Z" stroke="#481D00" stroke-miterlimit="10"/>
<path d="M401.811 73.0711C410.593 75.0081 418.93 77.78 426.749 80.9408C443.512 87.7408 458.278 96.4123 474.91 103.326C477.275 104.301 479.702 105.247 482.153 106.135C469.029 103.305 456.177 100.062 444.23 95.6458C435.937 92.5653 428.077 88.9438 420.843 84.8983C417.129 82.8117 413.545 80.6008 409.961 78.3898C407.493 76.8425 405.041 75.2933 402.574 73.7567C402.321 73.5389 402.065 73.2996 401.811 73.0711Z" stroke="#481D00" stroke-miterlimit="10"/>
<path d="M412.976 72.0709C417.845 72.1409 422.656 72.3913 427.376 72.9455C434.682 73.7867 441.8 75.3227 448.023 77.8467C454.48 80.4393 459.746 84.1105 464.22 88.1719C468.568 92.1191 472.505 96.2794 477.064 100.103C478.431 101.234 479.891 102.332 481.439 103.364C481.164 103.225 480.872 103.088 480.549 102.954C474.019 99.6451 467.933 95.9994 461.817 92.3791C455.581 88.6978 449.212 85.1195 442.386 81.8902C436.052 78.86 429.204 76.2399 421.823 74.4007C418.241 73.511 414.519 72.8009 410.688 72.3753C409.885 72.2795 409.05 72.1877 408.201 72.1192C409.872 72.0429 411.422 72.0462 412.976 72.0709Z" stroke="#481D00" stroke-miterlimit="10"/>
<path d="M480.483 103.861C469.025 99.4821 458.419 94.1528 447.678 89.0458C433.437 82.2699 418.596 75.7308 401.414 72.4703C405.044 72.5742 408.649 72.7354 412.177 73.1877C416.511 73.7571 420.738 74.6428 424.816 75.753C440.1 79.9952 452.158 87.3983 464.246 94.6567C467.282 96.4805 470.367 98.3198 473.509 100.087C475.818 101.394 478.166 102.62 480.483 103.861Z" stroke="#481D00" stroke-miterlimit="10"/>
<path d="M483.371 100.959C485.392 103.071 487.677 105.096 490.299 106.84C487.936 105.887 485.692 104.843 483.601 103.606C480.638 101.849 477.921 99.856 475.481 97.7529C470.861 93.8178 466.768 89.5791 462.147 85.6334C457.579 81.735 452.101 78.4367 445.459 76.1811C438.852 73.9429 431.522 72.6497 424.047 72.0135C422.025 71.8518 420.005 71.7114 417.958 71.6176C422.78 71.5634 427.594 71.5752 432.387 71.6763C440.859 71.886 449.605 72.4844 456.768 75.3037C463.622 77.9664 468.301 82.3816 472.147 86.9757C476 91.6231 479.093 96.5268 483.371 100.959Z" stroke="#481D00" stroke-miterlimit="10"/>
<path d="M513.665 82.6474C514.005 82.6488 514.313 82.6648 514.657 82.6982C516.728 83.5146 518.872 84.2679 520.914 85.1096C523.14 86.0044 525.309 86.9604 527.449 87.9417C535.136 91.4761 542.315 95.4635 549.898 99.065C553.483 100.767 557.225 102.427 561.015 103.952C553.577 102.174 546.435 99.9261 539.766 97.1865C530.007 93.2255 521.261 88.3162 513.665 82.6474Z" stroke="#481D00" stroke-miterlimit="10"/>
<path d="M558.596 101.89C551.19 99.0683 544.383 95.5984 537.554 92.2177C533.873 90.3979 530.193 88.5887 526.442 86.8533C523.342 85.4167 520.123 83.9404 516.685 82.773C519.307 82.9581 521.882 83.279 524.329 83.8649C527.985 84.7021 531.365 85.9201 534.53 87.3488C543.513 91.4381 550.382 97.2293 558.596 101.89Z" stroke="#481D00" stroke-miterlimit="10"/>
</g>
<defs>
<clipPath id="clip0_93_167">
<rect width="214.998" height="641.098" fill="white" transform="translate(27.2036 292.336) rotate(-97.0433)"/>
</clipPath>
</defs>
</svg>
